<?xml version="1.0" standalone="no"?><!DOCTYPE svg PUBLIC "-//W3C//DTD SVG 1.1//EN" "http://www.w3.org/Graphics/SVG/1.1/DTD/svg11.dtd" ><svg version="1.1" xmlns="http://www.w3.org/2000/svg"><defs><font horiz-adv-x="0" id="font"><font-face ascent="825" bbox="-57.0385 -252 1135 1067" cap-height="692" descent="-175" font-family="Platform Web" font-stretch="normal" font-style="normal" font-weight="400" units-per-em="1000" x-height="535" /><missing-glyph horiz-adv-x="154" /><glyph d="M441 228H181L95 0H-2L258 692H361L633 0H530ZM212 312H408L309 567Z" glyph-name="A" horiz-adv-x="631" unicode="A" /><glyph d="M432 0V200H216L104 0H-4L389 692H734V601H530V401H728V311H530V91H736V0ZM432 285V585L263 285Z" glyph-name="AE" horiz-adv-x="772" unicode="&#198;" /><glyph d="M432 0V200H216L104 0H-4L389 692H734V601H530V401H728V311H530V91H736V0ZM432 285V585L263 285ZM653 855 575 729H482L557 855Z" glyph-name="AEacute" horiz-adv-x="772" unicode="&#508;" /><glyph d="M441 228H181L95 0H-2L258 692H361L633 0H530ZM212 312H408L309 567ZM438 855 360 729H267L342 855Z" glyph-name="Aacute" horiz-adv-x="631" unicode="&#193;" /><glyph d="M441 228H181L95 0H-2L258 692H361L633 0H530ZM212 312H408L309 567ZM310 730Q271 730 244.5 742.5Q218 755 202 774Q186 793 178.5 815Q171 837 171 857H247Q247 848 250.5 838Q254 828 261 819.5Q268 811 280 805.5Q292 800 310 800Q328 800 340 805.5Q352 811 359 819.5Q366 828 369.5 838Q373 848 373 857H447Q447 837 439.5 814.5Q432 792 416 773.5Q400 755 373.5 742.5Q347 730 310 730Z" glyph-name="Abreve" horiz-adv-x="631" unicode="&#258;" /><glyph d="M441 228H181L95 0H-2L258 692H361L633 0H530ZM212 312H408L309 567ZM357 855 465 729H373L308 797L244 729H151L259 855Z" glyph-name="Acircumflex" horiz-adv-x="631" unicode="&#194;" /><glyph d="M441 228H181L95 0H-2L258 692H361L633 0H530ZM212 312H408L309 567ZM215 736Q190 736 173 752.5Q156 769 156 795Q156 820 173 837Q190 854 215 854Q241 854 258.5 837Q276 820 276 795Q276 769 258 752.5Q240 736 215 736ZM402 736Q377 736 360 752.5Q343 769 343 795Q343 820 360 837Q377 854 402 854Q428 854 445.5 837Q463 820 463 795Q463 769 445 752.5Q427 736 402 736Z" glyph-name="Adieresis" horiz-adv-x="631" unicode="&#196;" /><glyph d="M441 228H181L95 0H-2L258 692H361L633 0H530ZM212 312H408L309 567ZM276 855 350 729H259L181 855Z" glyph-name="Agrave" horiz-adv-x="631" unicode="&#192;" /><glyph d="M441 228H181L95 0H-2L258 692H361L633 0H530ZM212 312H408L309 567ZM189 818H429V745H189Z" glyph-name="Amacron" horiz-adv-x="631" unicode="&#256;" /><glyph d="M441 228H181L95 0H-2L258 692H361L634 -3Q602 -13 589.5 -28.5Q577 -44 577 -62Q577 -85 594 -95Q611 -105 634 -106V-175Q561 -177 525 -149.5Q489 -122 489 -80Q489 -57 499.5 -35.5Q510 -14 530 0ZM212 312H408L309 567Z" glyph-name="Aogonek" horiz-adv-x="631" unicode="&#260;" /><glyph d="M441 228H181L95 0H-2L258 692H361L633 0H530ZM212 312H408L309 567ZM206 817Q206 862 234.5 890.5Q263 919 308 919Q357 919 385 890.5Q413 862 413 819Q413 775 385 746.5Q357 718 309 718Q263 718 234.5 746.5Q206 775 206 817ZM262 818Q262 797 274.5 783.5Q287 770 309 770Q332 770 344.5 783.5Q357 797 357 819Q357 840 344.5 853.5Q332 867 309 867Q287 867 274.5 853.5Q262 840 262 818Z" glyph-name="Aring" horiz-adv-x="631" unicode="&#197;" /><glyph d="M441 228H181L95 0H-2L258 692H361L633 0H530ZM212 312H408L309 567ZM205 817Q205 862 233.5 890.5Q262 919 307 919Q356 919 384 890.5Q412 862 412 819Q412 775 384 746.5Q356 718 308 718Q262 718 233.5 746.5Q205 775 205 817ZM261 818Q261 797 273.5 783.5Q286 770 308 770Q331 770 343.5 783.5Q356 797 356 819Q356 840 343.5 853.5Q331 867 308 867Q286 867 273.5 853.5Q261 840 261 818ZM433 1067 355 941H262L337 1067Z" glyph-name="Aringacute" horiz-adv-x="631" unicode="&#506;" /><glyph d="M441 228H181L95 0H-2L258 692H361L633 0H530ZM212 312H408L309 567ZM369 736Q349 736 334 742.5Q319 749 306 757.5Q293 766 280.5 772.5Q268 779 254 779Q238 779 229.5 768Q221 757 221 737H151Q149 786 175.5 819.5Q202 853 250 853Q270 853 285 846.5Q300 840 312.5 832Q325 824 337 817.5Q349 811 363 811Q394 811 396 853H466Q467 800 440.5 768Q414 736 369 736Z" glyph-name="Atilde" horiz-adv-x="631" unicode="&#195;" /><glyph d="M452 200Q452 153 436.5 115.5Q421 78 393.5 52.5Q366 27 328 13.5Q290 0 244 0H54V692H232Q329 692 381 646Q433 600 433 510Q433 460 412 422.5Q391 385 354 365Q400 345 426 304.5Q452 264 452 200ZM151 315V86H233Q291 86 320.5 118Q350 150 350 203Q350 254 321 284.5Q292 315 233 315ZM151 606V398H227Q278 398 305 425.5Q332 453 332 503Q332 553 306 579.5Q280 606 227 606Z" glyph-name="B" horiz-adv-x="478" unicode="B" /><glyph d="M611 78Q594 61 571 44.5Q548 28 519.5 15.5Q491 3 456.5 -5Q422 -13 383 -13Q303 -13 237 14Q171 41 124 88.5Q77 136 51.5 202Q26 268 26 346Q26 424 52 490Q78 556 125 604Q172 652 237 679Q302 706 381 706Q449 706 505.5 685Q562 664 604 626L546 554Q516 580 474 597.5Q432 615 381 615Q323 615 276.5 595Q230 575 197 539Q164 503 146.5 453.5Q129 404 129 346Q129 287 147.5 238Q166 189 200 153.5Q234 118 281 98Q328 78 384 78Q443 78 485 100Q527 122 554 146Z" glyph-name="C" horiz-adv-x="624" unicode="C" /><glyph d="M489 855 411 729H318L393 855ZM611 78Q594 61 571 44.5Q548 28 519.5 15.5Q491 3 456.5 -5Q422 -13 383 -13Q303 -13 237 14Q171 41 124 88.5Q77 136 51.5 202Q26 268 26 346Q26 424 52 490Q78 556 125 604Q172 652 237 679Q302 706 381 706Q449 706 505.5 685Q562 664 604 626L546 554Q516 580 474 597.5Q432 615 381 615Q323 615 276.5 595Q230 575 197 539Q164 503 146.5 453.5Q129 404 129 346Q129 287 147.5 238Q166 189 200 153.5Q234 118 281 98Q328 78 384 78Q443 78 485 100Q527 122 554 146Z" glyph-name="Cacute" horiz-adv-x="624" unicode="&#262;" /><glyph d="M456 855 412 729H328L370 855ZM611 78Q594 61 571 44.5Q548 28 519.5 15.5Q491 3 456.5 -5Q422 -13 383 -13Q303 -13 237 14Q171 41 124 88.5Q77 136 51.5 202Q26 268 26 346Q26 424 52 490Q78 556 125 604Q172 652 237 679Q302 706 381 706Q449 706 505.5 685Q562 664 604 626L546 554Q516 580 474 597.5Q432 615 381 615Q323 615 276.5 595Q230 575 197 539Q164 503 146.5 453.5Q129 404 129 346Q129 287 147.5 238Q166 189 200 153.5Q234 118 281 98Q328 78 384 78Q443 78 485 100Q527 122 554 146Z" glyph-name="Cacute.pl" horiz-adv-x="624" /><glyph d="M323 729 216 855H308L373 785L438 855H529L421 729ZM611 78Q594 61 571 44.5Q548 28 519.5 15.5Q491 3 456.5 -5Q422 -13 383 -13Q303 -13 237 14Q171 41 124 88.5Q77 136 51.5 202Q26 268 26 346Q26 424 52 490Q78 556 125 604Q172 652 237 679Q302 706 381 706Q449 706 505.5 685Q562 664 604 626L546 554Q516 580 474 597.5Q432 615 381 615Q323 615 276.5 595Q230 575 197 539Q164 503 146.5 453.5Q129 404 129 346Q129 287 147.5 238Q166 189 200 153.5Q234 118 281 98Q328 78 384 78Q443 78 485 100Q527 122 554 146Z" glyph-name="Ccaron" horiz-adv-x="624" unicode="&#268;" /><glyph d="M297 -252V-191H318Q341 -191 357 -180Q373 -169 373 -143Q373 -118 358.5 -106.5Q344 -95 318 -95H297V-4Q235 9 184.5 40Q134 71 99 117Q64 163 45 221Q26 279 26 346Q26 424 52 490Q78 556 125 604Q172 652 237 679Q302 706 381 706Q449 706 505.5 685Q562 664 604 626L546 554Q516 580 474 597.5Q432 615 381 615Q323 615 276.5 595Q230 575 197 539Q164 503 146.5 453.5Q129 404 129 346Q129 287 147.5 238Q166 189 200 153.5Q234 118 281 98Q328 78 384 78Q443 78 485 100Q527 122 554 146L611 78Q594 61 571 44.5Q548 28 519.5 15.5Q491 3 456.5 -5Q422 -13 383 -13Q376 -13 371 -13Q366 -13 357 -12V-39Q403 -48 423 -76Q443 -104 443 -143Q443 -197 407.5 -224.5Q372 -252 317 -252Z" glyph-name="Ccedilla" horiz-adv-x="624" unicode="&#199;" /><glyph d="M413 855 521 729H429L364 797L300 729H207L315 855ZM611 78Q594 61 571 44.5Q548 28 519.5 15.5Q491 3 456.5 -5Q422 -13 383 -13Q303 -13 237 14Q171 41 124 88.5Q77 136 51.5 202Q26 268 26 346Q26 424 52 490Q78 556 125 604Q172 652 237 679Q302 706 381 706Q449 706 505.5 685Q562 664 604 626L546 554Q516 580 474 597.5Q432 615 381 615Q323 615 276.5 595Q230 575 197 539Q164 503 146.5 453.5Q129 404 129 346Q129 287 147.5 238Q166 189 200 153.5Q234 118 281 98Q328 78 384 78Q443 78 485 100Q527 122 554 146Z" glyph-name="Ccircumflex" horiz-adv-x="624" unicode="&#264;" /><glyph d="M366 741Q340 741 322 758.5Q304 776 304 802Q304 828 321.5 845.5Q339 863 365 863Q391 863 409 845.5Q427 828 427 802Q427 776 409.5 758.5Q392 741 366 741ZM611 78Q594 61 571 44.5Q548 28 519.5 15.5Q491 3 456.5 -5Q422 -13 383 -13Q303 -13 237 14Q171 41 124 88.5Q77 136 51.5 202Q26 268 26 346Q26 424 52 490Q78 556 125 604Q172 652 237 679Q302 706 381 706Q449 706 505.5 685Q562 664 604 626L546 554Q516 580 474 597.5Q432 615 381 615Q323 615 276.5 595Q230 575 197 539Q164 503 146.5 453.5Q129 404 129 346Q129 287 147.5 238Q166 189 200 153.5Q234 118 281 98Q328 78 384 78Q443 78 485 100Q527 122 554 146Z" glyph-name="Cdotaccent" horiz-adv-x="624" unicode="&#266;" /><glyph d="M152 88H173Q292 87 356.5 155.5Q421 224 421 346Q421 468 357 536.5Q293 605 173 604H152ZM169 692Q253 692 318.5 667.5Q384 643 430 598Q476 553 500 489.5Q524 426 524 347Q524 269 499.5 205Q475 141 429.5 95.5Q384 50 318 25Q252 0 169 0H54V692Z" glyph-name="D" horiz-adv-x="550" unicode="D" /><glyph d="M152 88H173Q292 87 356.5 155.5Q421 224 421 346Q421 468 357 536.5Q293 605 173 604H152ZM169 692Q253 692 318.5 667.5Q384 643 430 598Q476 553 500 489.5Q524 426 524 347Q524 269 499.5 205Q475 141 429.5 95.5Q384 50 318 25Q252 0 169 0H54V692ZM207 729 100 855H192L257 785L322 855H413L305 729Z" glyph-name="Dcaron" horiz-adv-x="550" unicode="&#270;" /><glyph d="M180 692Q264 692 329.5 667.5Q395 643 441 598Q487 553 511 489.5Q535 426 535 347Q535 269 510.5 205Q486 141 440.5 95.5Q395 50 329 25Q263 0 180 0H65V307H9V398H65V692ZM163 398H283V307H163V88H184Q303 87 367.5 155.5Q432 224 432 346Q432 468 368 536.5Q304 605 184 604H163Z" glyph-name="Dcroat" horiz-adv-x="562" unicode="&#272;" /><glyph d="M54 0V692H355V601H152V401H350V311H152V91H358V0Z" glyph-name="E" horiz-adv-x="393" unicode="E" /><glyph d="M54 0V692H355V601H152V401H350V311H152V91H358V0ZM320 855 242 729H149L224 855Z" glyph-name="Eacute" horiz-adv-x="393" unicode="&#201;" /><glyph d="M54 0V692H355V601H152V401H350V311H152V91H358V0ZM208 730Q169 730 142.5 742.5Q116 755 100 774Q84 793 76.5 815Q69 837 69 857H145Q145 848 148.5 838Q152 828 159 819.5Q166 811 178 805.5Q190 800 208 800Q226 800 238 805.5Q250 811 257 819.5Q264 828 267.5 838Q271 848 271 857H345Q345 837 337.5 814.5Q330 792 314 773.5Q298 755 271.5 742.5Q245 730 208 730Z" glyph-name="Ebreve" horiz-adv-x="393" unicode="&#276;" /><glyph d="M54 0V692H355V601H152V401H350V311H152V91H358V0ZM157 729 50 855H142L207 785L272 855H363L255 729Z" glyph-name="Ecaron" horiz-adv-x="393" unicode="&#282;" /><glyph d="M54 0V692H355V601H152V401H350V311H152V91H358V0ZM252 855 360 729H268L203 797L139 729H46L154 855Z" glyph-name="Ecircumflex" horiz-adv-x="393" unicode="&#202;" /><glyph d="M54 0V692H355V601H152V401H350V311H152V91H358V0ZM116 736Q91 736 74 752.5Q57 769 57 795Q57 820 74 837Q91 854 116 854Q142 854 159.5 837Q177 820 177 795Q177 769 159 752.5Q141 736 116 736ZM303 736Q278 736 261 752.5Q244 769 244 795Q244 820 261 837Q278 854 303 854Q329 854 346.5 837Q364 820 364 795Q364 769 346 752.5Q328 736 303 736Z" glyph-name="Edieresis" horiz-adv-x="393" unicode="&#203;" /><glyph d="M54 0V692H355V601H152V401H350V311H152V91H358V0ZM203 741Q177 741 159 758.5Q141 776 141 802Q141 828 158.5 845.5Q176 863 202 863Q228 863 246 845.5Q264 828 264 802Q264 776 246.5 758.5Q229 741 203 741Z" glyph-name="Edotaccent" horiz-adv-x="393" unicode="&#278;" /><glyph d="M54 0V692H355V601H152V401H350V311H152V91H358V0ZM191 855 265 729H174L96 855Z" glyph-name="Egrave" horiz-adv-x="393" unicode="&#200;" /><glyph d="M54 0V692H355V601H152V401H350V311H152V91H358V0ZM90 818H330V745H90Z" glyph-name="Emacron" horiz-adv-x="393" unicode="&#274;" /><glyph d="M150 525V0H54V692H156L508 162V692H604V-36Q604 -68 597.5 -94.5Q591 -121 575.5 -139.5Q560 -158 532.5 -168Q505 -178 463 -178Q449 -178 436.5 -177.5Q424 -177 419 -177V-88H454Q485 -88 495 -72.5Q505 -57 506 -34V-2Z" glyph-name="Eng" horiz-adv-x="658" unicode="&#330;" /><glyph d="M318 0Q287 -9 274.5 -25.5Q262 -42 262 -60Q262 -84 278.5 -94.5Q295 -105 318 -106V-175Q245 -177 209 -149.5Q173 -122 173 -80Q173 -57 184 -36.5Q195 -16 220 0H54V692H355V601H152V401H350V311H152V91H358V0Z" glyph-name="Eogonek" horiz-adv-x="393" unicode="&#280;" /><glyph d="M180 692Q264 692 329.5 667.5Q395 643 441 598Q487 553 511 489.5Q535 426 535 347Q535 269 510.5 205Q486 141 440.5 95.5Q395 50 329 25Q263 0 180 0H65V307H9V398H65V692ZM163 398H283V307H163V88H184Q303 87 367.5 155.5Q432 224 432 346Q432 468 368 536.5Q304 605 184 604H163Z" glyph-name="Eth" horiz-adv-x="562" unicode="&#208;" /><glyph d="M81 466Q97 519 128 563Q159 607 202 638Q245 669 298 686Q351 703 413 703Q549 703 633 625L574 555Q544 582 503 598Q462 614 411 614Q349 614 299.5 590.5Q250 567 218 523Q200 496 188 466H431V391H169Q168 380 167.5 368.5Q167 357 167 346Q167 335 167 325.5Q167 316 169 306H431V231H188Q196 211 206.5 193Q217 175 230 159Q262 120 310 99.5Q358 79 416 79Q475 79 515.5 100Q556 121 583 145L640 80Q623 63 600.5 46.5Q578 30 550 17.5Q522 5 488.5 -2.5Q455 -10 415 -10Q352 -10 297.5 7.5Q243 25 200 56.5Q157 88 126 132.5Q95 177 79 231H17V306H66Q65 316 64.5 325.5Q64 335 64 346Q64 357 64.5 368.5Q65 380 66 391H17V466Z" glyph-name="Euro" horiz-adv-x="653" unicode="&#8364;" /><glyph d="M152 311V0H54V692H357V601H152V401H351V311Z" glyph-name="F" horiz-adv-x="390" unicode="F" /><glyph d="M668 0H572V51Q543 26 494 6.5Q445 -13 379 -13Q302 -13 237 13Q172 39 125 86.5Q78 134 52 200Q26 266 26 346Q26 423 52 489Q78 555 125 603Q172 651 237 678.5Q302 706 380 706Q432 706 474.5 695.5Q517 685 550 668Q583 651 607 629Q631 607 648 584L575 524Q561 540 543 556.5Q525 573 501 586Q477 599 446.5 607Q416 615 379 615Q324 615 278 595Q232 575 199 539.5Q166 504 147.5 454.5Q129 405 129 346Q129 286 148 236.5Q167 187 200.5 152Q234 117 280.5 97.5Q327 78 383 78Q446 78 493.5 98.5Q541 119 571 150V272H445V356H668Z" glyph-name="G" horiz-adv-x="716" unicode="G" /><glyph d="M668 0H572V51Q543 26 494 6.5Q445 -13 379 -13Q302 -13 237 13Q172 39 125 86.5Q78 134 52 200Q26 266 26 346Q26 423 52 489Q78 555 125 603Q172 651 237 678.5Q302 706 380 706Q432 706 474.5 695.5Q517 685 550 668Q583 651 607 629Q631 607 648 584L575 524Q561 540 543 556.5Q525 573 501 586Q477 599 446.5 607Q416 615 379 615Q324 615 278 595Q232 575 199 539.5Q166 504 147.5 454.5Q129 405 129 346Q129 286 148 236.5Q167 187 200.5 152Q234 117 280.5 97.5Q327 78 383 78Q446 78 493.5 98.5Q541 119 571 150V272H445V356H668ZM368 730Q329 730 302.5 742.5Q276 755 260 774Q244 793 236.5 815Q229 837 229 857H305Q305 848 308.5 838Q312 828 319 819.5Q326 811 338 805.5Q350 800 368 800Q386 800 398 805.5Q410 811 417 819.5Q424 828 427.5 838Q431 848 431 857H505Q505 837 497.5 814.5Q490 792 474 773.5Q458 755 431.5 742.5Q405 730 368 730Z" glyph-name="Gbreve" horiz-adv-x="716" unicode="&#286;" /><glyph d="M668 0H572V51Q543 26 494 6.5Q445 -13 379 -13Q302 -13 237 13Q172 39 125 86.5Q78 134 52 200Q26 266 26 346Q26 423 52 489Q78 555 125 603Q172 651 237 678.5Q302 706 380 706Q432 706 474.5 695.5Q517 685 550 668Q583 651 607 629Q631 607 648 584L575 524Q561 540 543 556.5Q525 573 501 586Q477 599 446.5 607Q416 615 379 615Q324 615 278 595Q232 575 199 539.5Q166 504 147.5 454.5Q129 405 129 346Q129 286 148 236.5Q167 187 200.5 152Q234 117 280.5 97.5Q327 78 383 78Q446 78 493.5 98.5Q541 119 571 150V272H445V356H668ZM426 855 534 729H442L377 797L313 729H220L328 855Z" glyph-name="Gcircumflex" horiz-adv-x="716" unicode="&#284;" /><glyph d="M668 0H572V51Q543 26 494 6.5Q445 -13 379 -13Q302 -13 237 13Q172 39 125 86.5Q78 134 52 200Q26 266 26 346Q26 423 52 489Q78 555 125 603Q172 651 237 678.5Q302 706 380 706Q432 706 474.5 695.5Q517 685 550 668Q583 651 607 629Q631 607 648 584L575 524Q561 540 543 556.5Q525 573 501 586Q477 599 446.5 607Q416 615 379 615Q324 615 278 595Q232 575 199 539.5Q166 504 147.5 454.5Q129 405 129 346Q129 286 148 236.5Q167 187 200.5 152Q234 117 280.5 97.5Q327 78 383 78Q446 78 493.5 98.5Q541 119 571 150V272H445V356H668ZM360 -156Q339 -151 326 -135.5Q313 -120 313 -97Q313 -71 330.5 -54Q348 -37 376 -37Q405 -37 421.5 -55Q438 -73 438 -99Q438 -117 432 -132Q426 -147 419 -161L380 -242H321Z" glyph-name="Gcommaaccent" horiz-adv-x="716" unicode="&#290;" /><glyph d="M668 0H572V51Q543 26 494 6.5Q445 -13 379 -13Q302 -13 237 13Q172 39 125 86.5Q78 134 52 200Q26 266 26 346Q26 423 52 489Q78 555 125 603Q172 651 237 678.5Q302 706 380 706Q432 706 474.5 695.5Q517 685 550 668Q583 651 607 629Q631 607 648 584L575 524Q561 540 543 556.5Q525 573 501 586Q477 599 446.5 607Q416 615 379 615Q324 615 278 595Q232 575 199 539.5Q166 504 147.5 454.5Q129 405 129 346Q129 286 148 236.5Q167 187 200.5 152Q234 117 280.5 97.5Q327 78 383 78Q446 78 493.5 98.5Q541 119 571 150V272H445V356H668ZM379 741Q353 741 335 758.5Q317 776 317 802Q317 828 334.5 845.5Q352 863 378 863Q404 863 422 845.5Q440 828 440 802Q440 776 422.5 758.5Q405 741 379 741Z" glyph-name="Gdotaccent" horiz-adv-x="716" unicode="&#288;" /><glyph d="M581 0H483V312H152V0H54V692H152V405H483V692H581Z" glyph-name="H" horiz-adv-x="635" unicode="H" /><glyph d="M587 592H645V516H587V0H489V312H158V0H60V516H4V592H60V692H158V592H489V692H587ZM489 405V516H158V405Z" glyph-name="Hbar" horiz-adv-x="649" unicode="&#294;" /><glyph d="M581 0H483V312H152V0H54V692H152V405H483V692H581ZM365 855 473 729H381L316 797L252 729H159L267 855Z" glyph-name="Hcircumflex" horiz-adv-x="635" unicode="&#292;" /><glyph d="M152 0H54V692H152Z" glyph-name="I" horiz-adv-x="206" unicode="I" /><glyph d="M152 0H54V692H152ZM415 142Q415 109 409 83Q403 57 387 38Q371 19 343.5 9Q316 -1 273 -1Q259 -1 245 -0.5Q231 0 225 0V89H264Q297 89 307 106.5Q317 124 317 150V692H415Z" glyph-name="IJ" horiz-adv-x="468" unicode="&#306;" /><glyph d="M152 0H54V692H152ZM230 855 152 729H59L134 855Z" glyph-name="Iacute" horiz-adv-x="206" unicode="&#205;" /><glyph d="M152 0H54V692H152ZM105 730Q66 730 39.5 742.5Q13 755 -3 774Q-19 793 -26.5 815Q-34 837 -34 857H42Q42 848 45.5 838Q49 828 56 819.5Q63 811 75 805.5Q87 800 105 800Q123 800 135 805.5Q147 811 154 819.5Q161 828 164.5 838Q168 848 168 857H242Q242 837 234.5 814.5Q227 792 211 773.5Q195 755 168.5 742.5Q142 730 105 730Z" glyph-name="Ibreve" horiz-adv-x="206" unicode="&#300;" /><glyph d="M151 855 251 729H162L103 798L44 729H-46L54 855ZM152 0H54V692H152Z" glyph-name="Icircumflex" horiz-adv-x="206" unicode="&#206;" /><glyph d="M19 736Q-6 736 -23 752.5Q-40 769 -40 795Q-40 820 -23 837Q-6 854 19 854Q45 854 62.5 837Q80 820 80 795Q80 769 62 752.5Q44 736 19 736ZM186 736Q160 736 143.5 752.5Q127 769 127 795Q127 820 143.5 837Q160 854 186 854Q211 854 229 837Q247 820 247 795Q247 769 229 752.5Q211 736 186 736ZM152 0H54V692H152Z" glyph-name="Idieresis" horiz-adv-x="206" unicode="&#207;" /><glyph d="M152 0H54V692H152ZM104 741Q78 741 60 758.5Q42 776 42 802Q42 828 59.5 845.5Q77 863 103 863Q129 863 147 845.5Q165 828 165 802Q165 776 147.5 758.5Q130 741 104 741Z" glyph-name="Idotaccent" horiz-adv-x="206" unicode="&#304;" /><glyph d="M152 0H54V692H152ZM76 855 150 729H59L-19 855Z" glyph-name="Igrave" horiz-adv-x="206" unicode="&#204;" /><glyph d="M152 0H54V692H152ZM-15 818H225V745H-15Z" glyph-name="Imacron" horiz-adv-x="206" unicode="&#298;" /><glyph d="M152 -3Q124 -14 113.5 -29.5Q103 -45 103 -62Q103 -85 119 -95Q135 -105 159 -106V-175Q85 -178 49.5 -150.5Q14 -123 14 -81Q14 -32 54 0V692H152Z" glyph-name="Iogonek" horiz-adv-x="206" unicode="&#302;" /><glyph d="M152 0H54V692H152ZM165 736Q145 736 130 742.5Q115 749 102 757.5Q89 766 76.5 772.5Q64 779 50 779Q34 779 25.5 768Q17 757 17 737H-53Q-55 786 -28.5 819.5Q-2 853 46 853Q66 853 81 846.5Q96 840 108.5 832Q121 824 133 817.5Q145 811 159 811Q190 811 192 853H262Q263 800 236.5 768Q210 736 165 736Z" glyph-name="Itilde" horiz-adv-x="206" unicode="&#296;" /><glyph d="M209 142Q209 109 203 83Q197 57 181 38Q165 19 137.5 9Q110 -1 67 -1Q53 -1 39 -0.5Q25 0 19 0V89H58Q91 89 101 106.5Q111 124 111 150V692H209Z" glyph-name="J" horiz-adv-x="262" unicode="J" /><glyph d="M202 855 302 729H213L154 798L95 729H5L104 855ZM208 142Q208 109 202 83Q196 57 180 38Q164 19 136.5 9Q109 -1 66 -1Q52 -1 38 -0.5Q24 0 18 0V89H57Q90 89 100 106.5Q110 124 110 150V692H208Z" glyph-name="Jcircumflex" horiz-adv-x="262" unicode="&#308;" /><glyph d="M152 393 403 692H520L238 362L529 0H412L152 316V0H54V692H152Z" glyph-name="K" horiz-adv-x="525" unicode="K" /><glyph d="M152 393 403 692H520L238 362L529 0H412L152 316V0H54V692H152ZM248 -156Q227 -151 214 -135.5Q201 -120 201 -97Q201 -71 218.5 -54Q236 -37 264 -37Q293 -37 309.5 -55Q326 -73 326 -99Q326 -117 320 -132Q314 -147 307 -161L268 -242H209Z" glyph-name="Kcommaaccent" horiz-adv-x="525" unicode="&#310;" /><glyph d="M54 0V692H152V91H353V0Z" glyph-name="L" horiz-adv-x="374" unicode="L" /><glyph d="M54 0V692H152V91H353V0ZM234 855 156 729H63L138 855Z" glyph-name="Lacute" horiz-adv-x="374" unicode="&#313;" /><glyph d="M54 0V692H152V91H353V0ZM285 693 269 539H191L205 693Z" glyph-name="Lcaron" horiz-adv-x="374" unicode="&#317;" /><glyph d="M54 0V692H152V91H353V0ZM186 -156Q165 -151 152 -135.5Q139 -120 139 -97Q139 -71 156.5 -54Q174 -37 202 -37Q231 -37 247.5 -55Q264 -73 264 -99Q264 -117 258 -132Q252 -147 245 -161L206 -242H147Z" glyph-name="Lcommaaccent" horiz-adv-x="374" unicode="&#315;" /><glyph d="M303 286Q274 286 254.5 305.5Q235 325 235 354Q235 383 254.5 402Q274 421 303 421Q332 421 351 402Q370 383 370 354Q370 325 351 305.5Q332 286 303 286ZM54 0V692H152V91H353V0Z" glyph-name="Ldot" horiz-adv-x="399" unicode="&#319;" /><glyph d="M60 0V215L9 185V275L60 306V692H158V365L290 446V351L158 273V91H359V0Z" glyph-name="Lslash" horiz-adv-x="376" unicode="&#321;" /><glyph d="M470 0H375L146 563V0H54V692H196L425 118L654 692H793V0H697V563Z" glyph-name="M" horiz-adv-x="847" unicode="M" /><glyph d="M150 525V0H54V692H155L507 161V692H603V0H504Z" glyph-name="N" horiz-adv-x="657" unicode="N" /><glyph glyph-name="NULL" horiz-adv-x="0" /><glyph d="M150 525V0H54V692H155L507 161V692H603V0H504ZM449 855 371 729H278L353 855Z" glyph-name="Nacute" horiz-adv-x="657" unicode="&#323;" /><glyph d="M150 525V0H54V692H155L507 161V692H603V0H504ZM417 855 373 729H289L331 855Z" glyph-name="Nacute.pl" horiz-adv-x="657" /><glyph d="M150 525V0H54V692H155L507 161V692H603V0H504ZM287 729 180 855H272L337 785L402 855H493L385 729Z" glyph-name="Ncaron" horiz-adv-x="657" unicode="&#327;" /><glyph d="M150 525V0H54V692H155L507 161V692H603V0H504ZM321 -156Q300 -151 287 -135.5Q274 -120 274 -97Q274 -71 291.5 -54Q309 -37 337 -37Q366 -37 382.5 -55Q399 -73 399 -99Q399 -117 393 -132Q387 -147 380 -161L341 -242H282Z" glyph-name="Ncommaaccent" horiz-adv-x="657" unicode="&#325;" /><glyph d="M150 525V0H54V692H155L507 161V692H603V0H504ZM405 736Q385 736 370 742.5Q355 749 342 757.5Q329 766 316.5 772.5Q304 779 290 779Q274 779 265.5 768Q257 757 257 737H187Q185 786 211.5 819.5Q238 853 286 853Q306 853 321 846.5Q336 840 348.5 832Q361 824 373 817.5Q385 811 399 811Q430 811 432 853H502Q503 800 476.5 768Q450 736 405 736Z" glyph-name="Ntilde" horiz-adv-x="657" unicode="&#209;" /><glyph d="M26 346Q26 424 52.5 490Q79 556 126 604Q173 652 237.5 679Q302 706 379 706Q458 706 523.5 679Q589 652 636 604Q683 556 709 490Q735 424 735 347Q735 270 709 204Q683 138 636 90Q589 42 523.5 14.5Q458 -13 380 -13Q302 -13 236.5 13.5Q171 40 124.5 88Q78 136 52 202Q26 268 26 346ZM129 346Q129 287 147.5 238Q166 189 199 153.5Q232 118 278 98Q324 78 380 78Q437 78 483.5 98Q530 118 563 153.5Q596 189 614 238Q632 287 632 346Q632 404 613.5 453.5Q595 503 562 539Q529 575 482.5 595Q436 615 380 615Q323 615 277 595Q231 575 198 539Q165 503 147 453.5Q129 404 129 346Z" glyph-name="O" horiz-adv-x="761" unicode="O" /><glyph d="M378 601Q259 601 194.5 532.5Q130 464 130 346Q130 228 195 159.5Q260 91 378 91ZM679 692V601H476V401H674V311H476V91H682V0H382Q299 0 233 25.5Q167 51 121 96.5Q75 142 50.5 206Q26 270 26 347Q26 423 50.5 486.5Q75 550 121 596Q167 642 232.5 667Q298 692 381 692Z" glyph-name="OE" horiz-adv-x="717" unicode="&#338;" /><glyph d="M26 346Q26 424 52.5 490Q79 556 126 604Q173 652 237.5 679Q302 706 379 706Q458 706 523.5 679Q589 652 636 604Q683 556 709 490Q735 424 735 347Q735 270 709 204Q683 138 636 90Q589 42 523.5 14.5Q458 -13 380 -13Q302 -13 236.5 13.5Q171 40 124.5 88Q78 136 52 202Q26 268 26 346ZM129 346Q129 287 147.5 238Q166 189 199 153.5Q232 118 278 98Q324 78 380 78Q437 78 483.5 98Q530 118 563 153.5Q596 189 614 238Q632 287 632 346Q632 404 613.5 453.5Q595 503 562 539Q529 575 482.5 595Q436 615 380 615Q323 615 277 595Q231 575 198 539Q165 503 147 453.5Q129 404 129 346ZM503 855 425 729H332L407 855Z" glyph-name="Oacute" horiz-adv-x="761" unicode="&#211;" /><glyph d="M26 346Q26 424 52.5 490Q79 556 126 604Q173 652 237.5 679Q302 706 379 706Q458 706 523.5 679Q589 652 636 604Q683 556 709 490Q735 424 735 347Q735 270 709 204Q683 138 636 90Q589 42 523.5 14.5Q458 -13 380 -13Q302 -13 236.5 13.5Q171 40 124.5 88Q78 136 52 202Q26 268 26 346ZM129 346Q129 287 147.5 238Q166 189 199 153.5Q232 118 278 98Q324 78 380 78Q437 78 483.5 98Q530 118 563 153.5Q596 189 614 238Q632 287 632 346Q632 404 613.5 453.5Q595 503 562 539Q529 575 482.5 595Q436 615 380 615Q323 615 277 595Q231 575 198 539Q165 503 147 453.5Q129 404 129 346ZM469 855 425 729H341L383 855Z" glyph-name="Oacute.pl" horiz-adv-x="761" /><glyph d="M26 346Q26 424 52.5 490Q79 556 126 604Q173 652 237.5 679Q302 706 379 706Q458 706 523.5 679Q589 652 636 604Q683 556 709 490Q735 424 735 347Q735 270 709 204Q683 138 636 90Q589 42 523.5 14.5Q458 -13 380 -13Q302 -13 236.5 13.5Q171 40 124.5 88Q78 136 52 202Q26 268 26 346ZM129 346Q129 287 147.5 238Q166 189 199 153.5Q232 118 278 98Q324 78 380 78Q437 78 483.5 98Q530 118 563 153.5Q596 189 614 238Q632 287 632 346Q632 404 613.5 453.5Q595 503 562 539Q529 575 482.5 595Q436 615 380 615Q323 615 277 595Q231 575 198 539Q165 503 147 453.5Q129 404 129 346ZM382 730Q343 730 316.5 742.5Q290 755 274 774Q258 793 250.5 815Q243 837 243 857H319Q319 848 322.5 838Q326 828 333 819.5Q340 811 352 805.5Q364 800 382 800Q400 800 412 805.5Q424 811 431 819.5Q438 828 441.5 838Q445 848 445 857H519Q519 837 511.5 814.5Q504 792 488 773.5Q472 755 445.5 742.5Q419 730 382 730Z" glyph-name="Obreve" horiz-adv-x="761" unicode="&#334;" /><glyph d="M26 346Q26 424 52.5 490Q79 556 126 604Q173 652 237.5 679Q302 706 379 706Q458 706 523.5 679Q589 652 636 604Q683 556 709 490Q735 424 735 347Q735 270 709 204Q683 138 636 90Q589 42 523.5 14.5Q458 -13 380 -13Q302 -13 236.5 13.5Q171 40 124.5 88Q78 136 52 202Q26 268 26 346ZM129 346Q129 287 147.5 238Q166 189 199 153.5Q232 118 278 98Q324 78 380 78Q437 78 483.5 98Q530 118 563 153.5Q596 189 614 238Q632 287 632 346Q632 404 613.5 453.5Q595 503 562 539Q529 575 482.5 595Q436 615 380 615Q323 615 277 595Q231 575 198 539Q165 503 147 453.5Q129 404 129 346ZM429 855 537 729H445L380 797L316 729H223L331 855Z" glyph-name="Ocircumflex" horiz-adv-x="761" unicode="&#212;" /><glyph d="M26 346Q26 424 52.5 490Q79 556 126 604Q173 652 237.5 679Q302 706 379 706Q458 706 523.5 679Q589 652 636 604Q683 556 709 490Q735 424 735 347Q735 270 709 204Q683 138 636 90Q589 42 523.5 14.5Q458 -13 380 -13Q302 -13 236.5 13.5Q171 40 124.5 88Q78 136 52 202Q26 268 26 346ZM129 346Q129 287 147.5 238Q166 189 199 153.5Q232 118 278 98Q324 78 380 78Q437 78 483.5 98Q530 118 563 153.5Q596 189 614 238Q632 287 632 346Q632 404 613.5 453.5Q595 503 562 539Q529 575 482.5 595Q436 615 380 615Q323 615 277 595Q231 575 198 539Q165 503 147 453.5Q129 404 129 346ZM287 736Q262 736 245 752.5Q228 769 228 795Q228 820 245 837Q262 854 287 854Q313 854 330.5 837Q348 820 348 795Q348 769 330 752.5Q312 736 287 736ZM474 736Q449 736 432 752.5Q415 769 415 795Q415 820 432 837Q449 854 474 854Q500 854 517.5 837Q535 820 535 795Q535 769 517 752.5Q499 736 474 736Z" glyph-name="Odieresis" horiz-adv-x="761" unicode="&#214;" /><glyph d="M26 346Q26 424 52.5 490Q79 556 126 604Q173 652 237.5 679Q302 706 379 706Q458 706 523.5 679Q589 652 636 604Q683 556 709 490Q735 424 735 347Q735 270 709 204Q683 138 636 90Q589 42 523.5 14.5Q458 -13 380 -13Q302 -13 236.5 13.5Q171 40 124.5 88Q78 136 52 202Q26 268 26 346ZM129 346Q129 287 147.5 238Q166 189 199 153.5Q232 118 278 98Q324 78 380 78Q437 78 483.5 98Q530 118 563 153.5Q596 189 614 238Q632 287 632 346Q632 404 613.5 453.5Q595 503 562 539Q529 575 482.5 595Q436 615 380 615Q323 615 277 595Q231 575 198 539Q165 503 147 453.5Q129 404 129 346ZM351 855 425 729H334L256 855Z" glyph-name="Ograve" horiz-adv-x="761" unicode="&#210;" /><glyph d="M26 346Q26 424 52.5 490Q79 556 126 604Q173 652 237.5 679Q302 706 379 706Q458 706 523.5 679Q589 652 636 604Q683 556 709 490Q735 424 735 347Q735 270 709 204Q683 138 636 90Q589 42 523.5 14.5Q458 -13 380 -13Q302 -13 236.5 13.5Q171 40 124.5 88Q78 136 52 202Q26 268 26 346ZM129 346Q129 287 147.5 238Q166 189 199 153.5Q232 118 278 98Q324 78 380 78Q437 78 483.5 98Q530 118 563 153.5Q596 189 614 238Q632 287 632 346Q632 404 613.5 453.5Q595 503 562 539Q529 575 482.5 595Q436 615 380 615Q323 615 277 595Q231 575 198 539Q165 503 147 453.5Q129 404 129 346ZM418 855 355 729H265L326 855ZM569 855 505 729H416L478 855Z" glyph-name="Ohungarumlaut" horiz-adv-x="761" unicode="&#336;" /><glyph d="M26 346Q26 424 52.5 490Q79 556 126 604Q173 652 237.5 679Q302 706 379 706Q458 706 523.5 679Q589 652 636 604Q683 556 709 490Q735 424 735 347Q735 270 709 204Q683 138 636 90Q589 42 523.5 14.5Q458 -13 380 -13Q302 -13 236.5 13.5Q171 40 124.5 88Q78 136 52 202Q26 268 26 346ZM129 346Q129 287 147.5 238Q166 189 199 153.5Q232 118 278 98Q324 78 380 78Q437 78 483.5 98Q530 118 563 153.5Q596 189 614 238Q632 287 632 346Q632 404 613.5 453.5Q595 503 562 539Q529 575 482.5 595Q436 615 380 615Q323 615 277 595Q231 575 198 539Q165 503 147 453.5Q129 404 129 346ZM260 818H500V745H260Z" glyph-name="Omacron" horiz-adv-x="761" unicode="&#332;" /><glyph d="M26 346Q26 424 52.5 489.5Q79 555 126 603Q173 651 237.5 678Q302 705 378 705Q437 705 489 689.5Q541 674 581 645L634 706L699 650L647 589Q686 544 710 482.5Q734 421 734 347Q734 270 708 204.5Q682 139 634.5 91Q587 43 522 15.5Q457 -12 379 -12Q319 -12 267.5 4Q216 20 177 48L123 -15L59 40L113 102Q71 149 48.5 211Q26 273 26 346ZM633 346Q633 396 619.5 438.5Q606 481 582 516L238 118Q268 98 303 87.5Q338 77 380 77Q437 77 483.5 97Q530 117 563 152.5Q596 188 614.5 237.5Q633 287 633 346ZM128 346Q128 296 141 253.5Q154 211 178 177L521 575Q491 595 455.5 605.5Q420 616 379 616Q322 616 276 596Q230 576 197 540Q164 504 146 454.5Q128 405 128 346Z" glyph-name="Oslash" horiz-adv-x="761" unicode="&#216;" /><glyph d="M503 855 425 729H332L407 855ZM26 346Q26 424 52.5 489.5Q79 555 126 603Q173 651 237.5 678Q302 705 378 705Q437 705 489 689.5Q541 674 581 645L634 706L699 650L647 589Q686 544 710 482.5Q734 421 734 347Q734 270 708 204.5Q682 139 634.5 91Q587 43 522 15.5Q457 -12 379 -12Q319 -12 267.5 4Q216 20 177 48L123 -15L59 40L113 102Q71 149 48.5 211Q26 273 26 346ZM633 346Q633 396 619.5 438.5Q606 481 582 516L238 118Q268 98 303 87.5Q338 77 380 77Q437 77 483.5 97Q530 117 563 152.5Q596 188 614.5 237.5Q633 287 633 346ZM128 346Q128 296 141 253.5Q154 211 178 177L521 575Q491 595 455.5 605.5Q420 616 379 616Q322 616 276 596Q230 576 197 540Q164 504 146 454.5Q128 405 128 346Z" glyph-name="Oslashacute" horiz-adv-x="761" unicode="&#510;" /><glyph d="M26 346Q26 424 52.5 490Q79 556 126 604Q173 652 237.5 679Q302 706 379 706Q458 706 523.5 679Q589 652 636 604Q683 556 709 490Q735 424 735 347Q735 270 709 204Q683 138 636 90Q589 42 523.5 14.5Q458 -13 380 -13Q302 -13 236.5 13.5Q171 40 124.5 88Q78 136 52 202Q26 268 26 346ZM129 346Q129 287 147.5 238Q166 189 199 153.5Q232 118 278 98Q324 78 380 78Q437 78 483.5 98Q530 118 563 153.5Q596 189 614 238Q632 287 632 346Q632 404 613.5 453.5Q595 503 562 539Q529 575 482.5 595Q436 615 380 615Q323 615 277 595Q231 575 198 539Q165 503 147 453.5Q129 404 129 346ZM440 736Q420 736 405 742.5Q390 749 377 757.5Q364 766 351.5 772.5Q339 779 325 779Q309 779 300.5 768Q292 757 292 737H222Q220 786 246.5 819.5Q273 853 321 853Q341 853 356 846.5Q371 840 383.5 832Q396 824 408 817.5Q420 811 434 811Q465 811 467 853H537Q538 800 511.5 768Q485 736 440 736Z" glyph-name="Otilde" horiz-adv-x="761" unicode="&#213;" /><glyph d="M436 504Q436 458 421 422Q406 386 379.5 361Q353 336 315.5 323Q278 310 233 310H152V0H54V692H233Q330 692 383 645Q436 598 436 504ZM152 606V396H228Q281 396 307.5 425Q334 454 334 503Q334 551 307.5 578.5Q281 606 228 606Z" glyph-name="P" horiz-adv-x="456" unicode="P" /><glyph d="M26 346Q26 424 52.5 490Q79 556 126 604Q173 652 237.5 679Q302 706 379 706Q458 706 523.5 679Q589 652 636 604Q683 556 709 490Q735 424 735 347Q735 279 714.5 220.5Q694 162 656 115L716 61L653 -10L587 50Q544 20 492 3.5Q440 -13 380 -13Q302 -13 236.5 13.5Q171 40 124.5 88Q78 136 52 202Q26 268 26 346ZM128 346Q128 287 146.5 237.5Q165 188 198 152.5Q231 117 277.5 97Q324 77 380 77Q458 77 517 114L452 173L514 243L585 179Q633 247 633 346Q633 405 614.5 454.5Q596 504 563 540Q530 576 483.5 596Q437 616 380 616Q323 616 276.5 596Q230 576 197 540Q164 504 146 454.5Q128 405 128 346Z" glyph-name="Q" horiz-adv-x="761" unicode="Q" /><glyph d="M436 504Q436 440 407.5 396Q379 352 328 331L502 0H397L234 313H152V0H54V692H233Q330 692 383 645Q436 598 436 504ZM152 606V396H228Q281 396 307.5 425Q334 454 334 503Q334 551 307.5 578.5Q281 606 228 606Z" glyph-name="R" horiz-adv-x="495" unicode="R" /><glyph d="M436 504Q436 440 407.5 396Q379 352 328 331L502 0H397L234 313H152V0H54V692H233Q330 692 383 645Q436 598 436 504ZM152 606V396H228Q281 396 307.5 425Q334 454 334 503Q334 551 307.5 578.5Q281 606 228 606ZM343 855 265 729H172L247 855Z" glyph-name="Racute" horiz-adv-x="495" unicode="&#340;" /><glyph d="M436 504Q436 440 407.5 396Q379 352 328 331L502 0H397L234 313H152V0H54V692H233Q330 692 383 645Q436 598 436 504ZM152 606V396H228Q281 396 307.5 425Q334 454 334 503Q334 551 307.5 578.5Q281 606 228 606ZM183 729 76 855H168L233 785L298 855H389L281 729Z" glyph-name="Rcaron" horiz-adv-x="495" unicode="&#344;" /><glyph d="M436 504Q436 440 407.5 396Q379 352 328 331L502 0H397L234 313H152V0H54V692H233Q330 692 383 645Q436 598 436 504ZM152 606V396H228Q281 396 307.5 425Q334 454 334 503Q334 551 307.5 578.5Q281 606 228 606ZM243 -156Q222 -151 209 -135.5Q196 -120 196 -97Q196 -71 213.5 -54Q231 -37 259 -37Q288 -37 304.5 -55Q321 -73 321 -99Q321 -117 315 -132Q309 -147 302 -161L263 -242H204Z" glyph-name="Rcommaaccent" horiz-adv-x="496" unicode="&#342;" /><glyph d="M141 527Q141 492 158.5 469.5Q176 447 208 431Q239 417 271 404.5Q303 392 336 375Q392 348 423 304Q454 260 454 191Q454 146 438.5 108.5Q423 71 395.5 44.5Q368 18 328.5 3Q289 -12 241 -12Q181 -12 139.5 6Q98 24 73 54.5Q48 85 37.5 124.5Q27 164 28 207H123Q123 179 129.5 154.5Q136 130 150 112Q164 94 186.5 83.5Q209 73 241 73Q290 73 322 100.5Q354 128 354 182Q354 224 334 248.5Q314 273 280 290Q246 308 211.5 320.5Q177 333 142 352Q95 378 69.5 420Q44 462 44 524Q44 562 57.5 595Q71 628 96.5 652.5Q122 677 158 691Q194 705 239 705Q294 705 331.5 688.5Q369 672 392 645Q415 618 424.5 583Q434 548 433 510H343Q341 558 315.5 589.5Q290 621 239 621Q191 621 166 594.5Q141 568 141 527Z" glyph-name="S" horiz-adv-x="482" unicode="S" /><glyph d="M141 527Q141 492 158.5 469.5Q176 447 208 431Q239 417 271 404.5Q303 392 336 375Q392 348 423 304Q454 260 454 191Q454 146 438.5 108.5Q423 71 395.5 44.5Q368 18 328.5 3Q289 -12 241 -12Q181 -12 139.5 6Q98 24 73 54.5Q48 85 37.5 124.5Q27 164 28 207H123Q123 179 129.5 154.5Q136 130 150 112Q164 94 186.5 83.5Q209 73 241 73Q290 73 322 100.5Q354 128 354 182Q354 224 334 248.5Q314 273 280 290Q246 308 211.5 320.5Q177 333 142 352Q95 378 69.5 420Q44 462 44 524Q44 562 57.5 595Q71 628 96.5 652.5Q122 677 158 691Q194 705 239 705Q294 705 331.5 688.5Q369 672 392 645Q415 618 424.5 583Q434 548 433 510H343Q341 558 315.5 589.5Q290 621 239 621Q191 621 166 594.5Q141 568 141 527ZM361 855 283 729H190L265 855Z" glyph-name="Sacute" horiz-adv-x="482" unicode="&#346;" /><glyph d="M141 527Q141 492 158.5 469.5Q176 447 208 431Q239 417 271 404.5Q303 392 336 375Q392 348 423 304Q454 260 454 191Q454 146 438.5 108.5Q423 71 395.5 44.5Q368 18 328.5 3Q289 -12 241 -12Q181 -12 139.5 6Q98 24 73 54.5Q48 85 37.5 124.5Q27 164 28 207H123Q123 179 129.5 154.5Q136 130 150 112Q164 94 186.5 83.5Q209 73 241 73Q290 73 322 100.5Q354 128 354 182Q354 224 334 248.5Q314 273 280 290Q246 308 211.5 320.5Q177 333 142 352Q95 378 69.5 420Q44 462 44 524Q44 562 57.5 595Q71 628 96.5 652.5Q122 677 158 691Q194 705 239 705Q294 705 331.5 688.5Q369 672 392 645Q415 618 424.5 583Q434 548 433 510H343Q341 558 315.5 589.5Q290 621 239 621Q191 621 166 594.5Q141 568 141 527ZM329 855 285 729H201L243 855Z" glyph-name="Sacute.pl" horiz-adv-x="482" /><glyph d="M141 527Q141 492 158.5 469.5Q176 447 208 431Q239 417 271 404.5Q303 392 336 375Q392 348 423 304Q454 260 454 191Q454 146 438.5 108.5Q423 71 395.5 44.5Q368 18 328.5 3Q289 -12 241 -12Q181 -12 139.5 6Q98 24 73 54.5Q48 85 37.5 124.5Q27 164 28 207H123Q123 179 129.5 154.5Q136 130 150 112Q164 94 186.5 83.5Q209 73 241 73Q290 73 322 100.5Q354 128 354 182Q354 224 334 248.5Q314 273 280 290Q246 308 211.5 320.5Q177 333 142 352Q95 378 69.5 420Q44 462 44 524Q44 562 57.5 595Q71 628 96.5 652.5Q122 677 158 691Q194 705 239 705Q294 705 331.5 688.5Q369 672 392 645Q415 618 424.5 583Q434 548 433 510H343Q341 558 315.5 589.5Q290 621 239 621Q191 621 166 594.5Q141 568 141 527ZM191 729 84 855H176L241 785L306 855H397L289 729Z" glyph-name="Scaron" horiz-adv-x="482" unicode="&#352;" /><glyph d="M171 -252V-191H192Q215 -191 231 -180Q247 -169 247 -143Q247 -118 232.5 -106.5Q218 -95 192 -95H171V-4Q131 5 103.5 25.5Q76 46 59 74.5Q42 103 34.5 137Q27 171 28 207H123Q123 179 129.5 154.5Q136 130 150 112Q164 94 186.5 83.5Q209 73 241 73Q290 73 322 100.5Q354 128 354 182Q354 224 334 248.5Q314 273 280 290Q246 308 211.5 320.5Q177 333 142 352Q95 378 69.5 420Q44 462 44 524Q44 562 57.5 595Q71 628 96.5 652.5Q122 677 158 691Q194 705 239 705Q294 705 331.5 688.5Q369 672 392 645Q415 618 424.5 583Q434 548 433 510H343Q341 558 315.5 589.5Q290 621 239 621Q191 621 166 594.5Q141 568 141 527Q141 492 158.5 469.5Q176 447 208 431Q239 417 271 404.5Q303 392 336 375Q392 348 423 304Q454 260 454 191Q454 146 438.5 108.5Q423 71 395.5 44.5Q368 18 328.5 3Q289 -12 241 -12H231V-39Q277 -48 297 -76Q317 -104 317 -143Q317 -197 281.5 -224.5Q246 -252 191 -252Z" glyph-name="Scedilla" horiz-adv-x="482" unicode="&#350;" /><glyph d="M141 527Q141 492 158.5 469.5Q176 447 208 431Q239 417 271 404.5Q303 392 336 375Q392 348 423 304Q454 260 454 191Q454 146 438.5 108.5Q423 71 395.5 44.5Q368 18 328.5 3Q289 -12 241 -12Q181 -12 139.5 6Q98 24 73 54.5Q48 85 37.5 124.5Q27 164 28 207H123Q123 179 129.5 154.5Q136 130 150 112Q164 94 186.5 83.5Q209 73 241 73Q290 73 322 100.5Q354 128 354 182Q354 224 334 248.5Q314 273 280 290Q246 308 211.5 320.5Q177 333 142 352Q95 378 69.5 420Q44 462 44 524Q44 562 57.5 595Q71 628 96.5 652.5Q122 677 158 691Q194 705 239 705Q294 705 331.5 688.5Q369 672 392 645Q415 618 424.5 583Q434 548 433 510H343Q341 558 315.5 589.5Q290 621 239 621Q191 621 166 594.5Q141 568 141 527ZM288 855 396 729H304L239 797L175 729H82L190 855Z" glyph-name="Scircumflex" horiz-adv-x="482" unicode="&#348;" /><glyph d="M141 527Q141 492 158.5 469.5Q176 447 208 431Q239 417 271 404.5Q303 392 336 375Q392 348 423 304Q454 260 454 191Q454 146 438.5 108.5Q423 71 395.5 44.5Q368 18 328.5 3Q289 -12 241 -12Q181 -12 139.5 6Q98 24 73 54.5Q48 85 37.5 124.5Q27 164 28 207H123Q123 179 129.5 154.5Q136 130 150 112Q164 94 186.5 83.5Q209 73 241 73Q290 73 322 100.5Q354 128 354 182Q354 224 334 248.5Q314 273 280 290Q246 308 211.5 320.5Q177 333 142 352Q95 378 69.5 420Q44 462 44 524Q44 562 57.5 595Q71 628 96.5 652.5Q122 677 158 691Q194 705 239 705Q294 705 331.5 688.5Q369 672 392 645Q415 618 424.5 583Q434 548 433 510H343Q341 558 315.5 589.5Q290 621 239 621Q191 621 166 594.5Q141 568 141 527ZM224 -156Q203 -151 190 -135.5Q177 -120 177 -97Q177 -71 194.5 -54Q212 -37 240 -37Q269 -37 285.5 -55Q302 -73 302 -99Q302 -117 296 -132Q290 -147 283 -161L244 -242H185Z" glyph-name="Scommaaccent" horiz-adv-x="482" unicode="&#536;" /><glyph d="M257 601V0H159V601H17V692H399V601Z" glyph-name="T" horiz-adv-x="416" unicode="T" /><glyph d="M257 601V430H357V354H257V0H159V354H60V430H159V601H17V692H399V601Z" glyph-name="Tbar" horiz-adv-x="416" unicode="&#358;" /><glyph d="M257 601V0H159V601H17V692H399V601ZM157 729 50 855H142L207 785L272 855H363L255 729Z" glyph-name="Tcaron" horiz-adv-x="416" unicode="&#356;" /><glyph d="M257 601V0H159V601H17V692H399V601ZM193 -156Q172 -151 159 -135.5Q146 -120 146 -97Q146 -71 163.5 -54Q181 -37 209 -37Q238 -37 254.5 -55Q271 -73 271 -99Q271 -117 265 -132Q259 -147 252 -161L213 -242H154Z" glyph-name="Tcommaaccent" horiz-adv-x="416" unicode="&#354;" /><glyph d="M436 355Q436 262 380 211.5Q324 161 233 161H152V0H54V692H152V544H233Q330 544 383 496.5Q436 449 436 355ZM152 458V248H228Q281 248 307.5 276.5Q334 305 334 355Q334 403 307.5 430.5Q281 458 228 458Z" glyph-name="Thorn" horiz-adv-x="460" unicode="&#222;" /><glyph d="M312 -13Q245 -13 196 6.5Q147 26 114.5 62Q82 98 66 148.5Q50 199 50 261V692H148V261Q148 178 187.5 128Q227 78 313 78Q394 78 435.5 129.5Q477 181 477 262V692H574V261Q574 201 556.5 151Q539 101 506 64.5Q473 28 424 7.5Q375 -13 312 -13Z" glyph-name="U" horiz-adv-x="624" unicode="U" /><glyph d="M312 -13Q245 -13 196 6.5Q147 26 114.5 62Q82 98 66 148.5Q50 199 50 261V692H148V261Q148 178 187.5 128Q227 78 313 78Q394 78 435.5 129.5Q477 181 477 262V692H574V261Q574 201 556.5 151Q539 101 506 64.5Q473 28 424 7.5Q375 -13 312 -13ZM427 855 349 729H256L331 855Z" glyph-name="Uacute" horiz-adv-x="624" unicode="&#218;" /><glyph d="M312 -13Q245 -13 196 6.5Q147 26 114.5 62Q82 98 66 148.5Q50 199 50 261V692H148V261Q148 178 187.5 128Q227 78 313 78Q394 78 435.5 129.5Q477 181 477 262V692H574V261Q574 201 556.5 151Q539 101 506 64.5Q473 28 424 7.5Q375 -13 312 -13ZM312 730Q273 730 246.5 742.5Q220 755 204 774Q188 793 180.5 815Q173 837 173 857H249Q249 848 252.5 838Q256 828 263 819.5Q270 811 282 805.5Q294 800 312 800Q330 800 342 805.5Q354 811 361 819.5Q368 828 371.5 838Q375 848 375 857H449Q449 837 441.5 814.5Q434 792 418 773.5Q402 755 375.5 742.5Q349 730 312 730Z" glyph-name="Ubreve" horiz-adv-x="624" unicode="&#364;" /><glyph d="M312 -13Q245 -13 196 6.5Q147 26 114.5 62Q82 98 66 148.5Q50 199 50 261V692H148V261Q148 178 187.5 128Q227 78 313 78Q394 78 435.5 129.5Q477 181 477 262V692H574V261Q574 201 556.5 151Q539 101 506 64.5Q473 28 424 7.5Q375 -13 312 -13ZM362 855 470 729H378L313 797L249 729H156L264 855Z" glyph-name="Ucircumflex" horiz-adv-x="624" unicode="&#219;" /><glyph d="M312 -13Q245 -13 196 6.5Q147 26 114.5 62Q82 98 66 148.5Q50 199 50 261V692H148V261Q148 178 187.5 128Q227 78 313 78Q394 78 435.5 129.5Q477 181 477 262V692H574V261Q574 201 556.5 151Q539 101 506 64.5Q473 28 424 7.5Q375 -13 312 -13ZM218 736Q193 736 176 752.5Q159 769 159 795Q159 820 176 837Q193 854 218 854Q244 854 261.5 837Q279 820 279 795Q279 769 261 752.5Q243 736 218 736ZM405 736Q380 736 363 752.5Q346 769 346 795Q346 820 363 837Q380 854 405 854Q431 854 448.5 837Q466 820 466 795Q466 769 448 752.5Q430 736 405 736Z" glyph-name="Udieresis" horiz-adv-x="624" unicode="&#220;" /><glyph d="M312 -13Q245 -13 196 6.5Q147 26 114.5 62Q82 98 66 148.5Q50 199 50 261V692H148V261Q148 178 187.5 128Q227 78 313 78Q394 78 435.5 129.5Q477 181 477 262V692H574V261Q574 201 556.5 151Q539 101 506 64.5Q473 28 424 7.5Q375 -13 312 -13ZM296 855 370 729H279L201 855Z" glyph-name="Ugrave" horiz-adv-x="624" unicode="&#217;" /><glyph d="M312 -13Q245 -13 196 6.5Q147 26 114.5 62Q82 98 66 148.5Q50 199 50 261V692H148V261Q148 178 187.5 128Q227 78 313 78Q394 78 435.5 129.5Q477 181 477 262V692H574V261Q574 201 556.5 151Q539 101 506 64.5Q473 28 424 7.5Q375 -13 312 -13ZM336 855 273 729H183L244 855ZM487 855 423 729H334L396 855Z" glyph-name="Uhungarumlaut" horiz-adv-x="624" unicode="&#368;" /><glyph d="M312 -13Q245 -13 196 6.5Q147 26 114.5 62Q82 98 66 148.5Q50 199 50 261V692H148V261Q148 178 187.5 128Q227 78 313 78Q394 78 435.5 129.5Q477 181 477 262V692H574V261Q574 201 556.5 151Q539 101 506 64.5Q473 28 424 7.5Q375 -13 312 -13ZM195 827H425V754H195Z" glyph-name="Umacron" horiz-adv-x="624" unicode="&#362;" /><glyph d="M405 1Q370 -10 358 -27.5Q346 -45 346 -62Q346 -83 362 -94Q378 -105 403 -106V-175Q329 -178 293 -150.5Q257 -123 257 -82Q257 -43 291 -12Q229 -9 183.5 12Q138 33 108.5 68.5Q79 104 64.5 153Q50 202 50 261V692H148V261Q148 220 157.5 186.5Q167 153 187 129Q207 105 238 91.5Q269 78 312 78Q353 78 384 91.5Q415 105 435.5 129.5Q456 154 466.5 187.5Q477 221 477 261V692H575V261Q575 164 531.5 96Q488 28 405 1Z" glyph-name="Uogonek" horiz-adv-x="624" unicode="&#370;" /><glyph d="M312 -13Q245 -13 196 6.5Q147 26 114.5 62Q82 98 66 148.5Q50 199 50 261V692H148V261Q148 178 187.5 128Q227 78 313 78Q394 78 435.5 129.5Q477 181 477 262V692H574V261Q574 201 556.5 151Q539 101 506 64.5Q473 28 424 7.5Q375 -13 312 -13ZM208 817Q208 862 236.5 890.5Q265 919 310 919Q359 919 387 890.5Q415 862 415 819Q415 775 387 746.5Q359 718 311 718Q265 718 236.5 746.5Q208 775 208 817ZM264 818Q264 797 276.5 783.5Q289 770 311 770Q334 770 346.5 783.5Q359 797 359 819Q359 840 346.5 853.5Q334 867 311 867Q289 867 276.5 853.5Q264 840 264 818Z" glyph-name="Uring" horiz-adv-x="624" unicode="&#366;" /><glyph d="M312 -13Q245 -13 196 6.5Q147 26 114.5 62Q82 98 66 148.5Q50 199 50 261V692H148V261Q148 178 187.5 128Q227 78 313 78Q394 78 435.5 129.5Q477 181 477 262V692H574V261Q574 201 556.5 151Q539 101 506 64.5Q473 28 424 7.5Q375 -13 312 -13ZM373 739Q353 739 338.5 745.5Q324 752 311 760.5Q298 769 286 775.5Q274 782 260 782Q244 782 237 771Q230 760 229 740H159Q158 789 183 822.5Q208 856 256 856Q276 856 291 849.5Q306 843 318.5 834.5Q331 826 342.5 819.5Q354 813 368 813Q398 813 398 856H468Q469 803 443.5 771Q418 739 373 739Z" glyph-name="Utilde" horiz-adv-x="624" unicode="&#360;" /><glyph d="M-1 692H109L323 122L538 692H642L373 0H268Z" glyph-name="V" horiz-adv-x="641" unicode="V" /><glyph d="M492 547 322 0H215L1 692H107L273 134L441 692H547L715 134L880 692H980L769 0H661Z" glyph-name="W" horiz-adv-x="981" unicode="W" /><glyph d="M492 547 322 0H215L1 692H107L273 134L441 692H547L715 134L880 692H980L769 0H661ZM616 855 538 729H445L520 855Z" glyph-name="Wacute" horiz-adv-x="981" unicode="&#7810;" /><glyph d="M492 547 322 0H215L1 692H107L273 134L441 692H547L715 134L880 692H980L769 0H661ZM538 855 646 729H554L489 797L425 729H332L440 855Z" glyph-name="Wcircumflex" horiz-adv-x="981" unicode="&#372;" /><glyph d="M492 547 322 0H215L1 692H107L273 134L441 692H547L715 134L880 692H980L769 0H661ZM398 736Q373 736 356 752.5Q339 769 339 795Q339 820 356 837Q373 854 398 854Q424 854 441.5 837Q459 820 459 795Q459 769 441 752.5Q423 736 398 736ZM585 736Q560 736 543 752.5Q526 769 526 795Q526 820 543 837Q560 854 585 854Q611 854 628.5 837Q646 820 646 795Q646 769 628 752.5Q610 736 585 736Z" glyph-name="Wdieresis" horiz-adv-x="981" unicode="&#7812;" /><glyph d="M492 547 322 0H215L1 692H107L273 134L441 692H547L715 134L880 692H980L769 0H661ZM459 855 533 729H442L364 855Z" glyph-name="Wgrave" horiz-adv-x="981" unicode="&#7808;" /><glyph d="M248 360 14 692H134L309 443L482 692H598L366 359L615 0H502L305 277L109 0H-1Z" glyph-name="X" horiz-adv-x="614" unicode="X" /><glyph d="M-4 692H106L243 451L380 692H485L289 356V0H191V355Z" glyph-name="Y" horiz-adv-x="481" unicode="Y" /><glyph d="M-4 692H106L243 451L380 692H485L289 356V0H191V355ZM367 855 289 729H196L271 855Z" glyph-name="Yacute" horiz-adv-x="481" unicode="&#221;" /><glyph d="M-4 692H106L243 451L380 692H485L289 356V0H191V355ZM291 855 399 729H307L242 797L178 729H85L193 855Z" glyph-name="Ycircumflex" horiz-adv-x="481" unicode="&#374;" /><glyph d="M-4 692H106L243 451L380 692H485L289 356V0H191V355ZM148 736Q123 736 106 752.5Q89 769 89 795Q89 820 106 837Q123 854 148 854Q174 854 191.5 837Q209 820 209 795Q209 769 191 752.5Q173 736 148 736ZM335 736Q310 736 293 752.5Q276 769 276 795Q276 820 293 837Q310 854 335 854Q361 854 378.5 837Q396 820 396 795Q396 769 378 752.5Q360 736 335 736Z" glyph-name="Ydieresis" horiz-adv-x="481" unicode="&#376;" /><glyph d="M-4 692H106L243 451L380 692H485L289 356V0H191V355ZM217 855 291 729H200L122 855Z" glyph-name="Ygrave" horiz-adv-x="481" unicode="&#7922;" /><glyph d="M28 0V73L424 602H34V692H559V619L159 90H560V0Z" glyph-name="Z" horiz-adv-x="588" unicode="Z" /><glyph d="M28 0V73L424 602H34V692H559V619L159 90H560V0ZM405 855 327 729H234L309 855Z" glyph-name="Zacute" horiz-adv-x="588" unicode="&#377;" /><glyph d="M28 0V73L424 602H34V692H559V619L159 90H560V0ZM370 855 326 729H242L284 855Z" glyph-name="Zacute.pl" horiz-adv-x="588" /><glyph d="M28 0V73L424 602H34V692H559V619L159 90H560V0ZM244 729 137 855H229L294 785L359 855H450L342 729Z" glyph-name="Zcaron" horiz-adv-x="588" unicode="&#381;" /><glyph d="M28 0V73L424 602H34V692H559V619L159 90H560V0ZM293 741Q267 741 249 758.5Q231 776 231 802Q231 828 248.5 845.5Q266 863 292 863Q318 863 336 845.5Q354 828 354 802Q354 776 336.5 758.5Q319 741 293 741Z" glyph-name="Zdotaccent" horiz-adv-x="588" unicode="&#379;" /><glyph d="M26 171Q26 209 39 241.5Q52 274 76 297.5Q100 321 133.5 334Q167 347 207 347Q248 347 276 335.5Q304 324 318 311V356Q318 408 294.5 436Q271 464 223 464Q174 464 154.5 438Q135 412 134 379H45Q45 414 56.5 444Q68 474 90 495.5Q112 517 145.5 529Q179 541 224 541Q275 541 310.5 527Q346 513 368.5 487.5Q391 462 401.5 425.5Q412 389 412 345V0H328V42Q309 20 279.5 6Q250 -8 207 -8Q169 -8 136 4.5Q103 17 78.5 40Q54 63 40 96.5Q26 130 26 171ZM118 171Q118 128 145.5 99Q173 70 218 70Q262 70 291 99Q320 128 320 171Q320 215 291 243Q262 271 217 271Q172 271 145 242.5Q118 214 118 171Z" glyph-name="a" horiz-adv-x="459" unicode="a" /><glyph d="M482 79Q473 65 457 50Q441 35 418 21.5Q395 8 364.5 -0.5Q334 -9 297 -9Q237 -9 186.5 11Q136 31 100 67Q64 103 44 154Q24 205 24 267Q24 327 44 377.5Q64 428 100.5 465Q137 502 187 523Q237 544 297 544Q357 544 406 520.5Q455 497 481 462V535H572V0H482ZM120 267Q120 225 133 190Q146 155 170 129.5Q194 104 227.5 90Q261 76 301 76Q341 76 374 90Q407 104 431 129.5Q455 155 468 190Q481 225 481 267Q481 309 467.5 344Q454 379 430 404.5Q406 430 373 444.5Q340 459 300 459Q260 459 227 444.5Q194 430 170 404.5Q146 379 133 344Q120 309 120 267Z" glyph-name="a.alt" horiz-adv-x="621" /><glyph d="M26 171Q26 209 39 241.5Q52 274 76 297.5Q100 321 133.5 334Q167 347 207 347Q248 347 276 335.5Q304 324 318 311V356Q318 408 294.5 436Q271 464 223 464Q174 464 154.5 438Q135 412 134 379H45Q45 414 56.5 444Q68 474 90 495.5Q112 517 145.5 529Q179 541 224 541Q275 541 310.5 527Q346 513 368.5 487.5Q391 462 401.5 425.5Q412 389 412 345V0H328V42Q309 20 279.5 6Q250 -8 207 -8Q169 -8 136 4.5Q103 17 78.5 40Q54 63 40 96.5Q26 130 26 171ZM118 171Q118 128 145.5 99Q173 70 218 70Q262 70 291 99Q320 128 320 171Q320 215 291 243Q262 271 217 271Q172 271 145 242.5Q118 214 118 171ZM356 714 276 579H184L262 714Z" glyph-name="aacute" horiz-adv-x="459" unicode="&#225;" /><glyph d="M419 714 339 579H247L325 714ZM482 79Q473 65 457 50Q441 35 418 21.5Q395 8 364.5 -0.5Q334 -9 297 -9Q237 -9 186.5 11Q136 31 100 67Q64 103 44 154Q24 205 24 267Q24 327 44 377.5Q64 428 100.5 465Q137 502 187 523Q237 544 297 544Q357 544 406 520.5Q455 497 481 462V535H572V0H482ZM120 267Q120 225 133 190Q146 155 170 129.5Q194 104 227.5 90Q261 76 301 76Q341 76 374 90Q407 104 431 129.5Q455 155 468 190Q481 225 481 267Q481 309 467.5 344Q454 379 430 404.5Q406 430 373 444.5Q340 459 300 459Q260 459 227 444.5Q194 430 170 404.5Q146 379 133 344Q120 309 120 267Z" glyph-name="aacute.alt" horiz-adv-x="621" /><glyph d="M26 171Q26 209 39 241.5Q52 274 76 297.5Q100 321 133.5 334Q167 347 207 347Q248 347 276 335.5Q304 324 318 311V356Q318 408 294.5 436Q271 464 223 464Q174 464 154.5 438Q135 412 134 379H45Q45 414 56.5 444Q68 474 90 495.5Q112 517 145.5 529Q179 541 224 541Q275 541 310.5 527Q346 513 368.5 487.5Q391 462 401.5 425.5Q412 389 412 345V0H328V42Q309 20 279.5 6Q250 -8 207 -8Q169 -8 136 4.5Q103 17 78.5 40Q54 63 40 96.5Q26 130 26 171ZM118 171Q118 128 145.5 99Q173 70 218 70Q262 70 291 99Q320 128 320 171Q320 215 291 243Q262 271 217 271Q172 271 145 242.5Q118 214 118 171ZM222 571Q183 571 156.5 584Q130 597 114 617Q98 637 91 660.5Q84 684 84 704H158Q158 693 161.5 682Q165 671 172 661Q179 651 191.5 645Q204 639 222 639Q240 639 252 645Q264 651 271.5 661Q279 671 282.5 682Q286 693 286 704H358Q358 683 351 660Q344 637 328 617Q312 597 286 584Q260 571 222 571Z" glyph-name="abreve" horiz-adv-x="459" unicode="&#259;" /><glyph d="M302 571Q263 571 236.5 584Q210 597 194 617Q178 637 171 660.5Q164 684 164 704H238Q238 693 241.5 682Q245 671 252 661Q259 651 271.5 645Q284 639 302 639Q320 639 332 645Q344 651 351.5 661Q359 671 362.5 682Q366 693 366 704H438Q438 683 431 660Q424 637 408 617Q392 597 366 584Q340 571 302 571ZM482 79Q473 65 457 50Q441 35 418 21.5Q395 8 364.5 -0.5Q334 -9 297 -9Q237 -9 186.5 11Q136 31 100 67Q64 103 44 154Q24 205 24 267Q24 327 44 377.5Q64 428 100.5 465Q137 502 187 523Q237 544 297 544Q357 544 406 520.5Q455 497 481 462V535H572V0H482ZM120 267Q120 225 133 190Q146 155 170 129.5Q194 104 227.5 90Q261 76 301 76Q341 76 374 90Q407 104 431 129.5Q455 155 468 190Q481 225 481 267Q481 309 467.5 344Q454 379 430 404.5Q406 430 373 444.5Q340 459 300 459Q260 459 227 444.5Q194 430 170 404.5Q146 379 133 344Q120 309 120 267Z" glyph-name="abreve.alt" horiz-adv-x="621" /><glyph d="M26 171Q26 209 39 241.5Q52 274 76 297.5Q100 321 133.5 334Q167 347 207 347Q248 347 276 335.5Q304 324 318 311V356Q318 408 294.5 436Q271 464 223 464Q174 464 154.5 438Q135 412 134 379H45Q45 414 56.5 444Q68 474 90 495.5Q112 517 145.5 529Q179 541 224 541Q275 541 310.5 527Q346 513 368.5 487.5Q391 462 401.5 425.5Q412 389 412 345V0H328V42Q309 20 279.5 6Q250 -8 207 -8Q169 -8 136 4.5Q103 17 78.5 40Q54 63 40 96.5Q26 130 26 171ZM118 171Q118 128 145.5 99Q173 70 218 70Q262 70 291 99Q320 128 320 171Q320 215 291 243Q262 271 217 271Q172 271 145 242.5Q118 214 118 171ZM276 715 378 575H291L229 654L167 575H80L181 715Z" glyph-name="acircumflex" horiz-adv-x="459" unicode="&#226;" /><glyph d="M351 715 453 575H366L304 654L242 575H155L256 715ZM482 79Q473 65 457 50Q441 35 418 21.5Q395 8 364.5 -0.5Q334 -9 297 -9Q237 -9 186.5 11Q136 31 100 67Q64 103 44 154Q24 205 24 267Q24 327 44 377.5Q64 428 100.5 465Q137 502 187 523Q237 544 297 544Q357 544 406 520.5Q455 497 481 462V535H572V0H482ZM120 267Q120 225 133 190Q146 155 170 129.5Q194 104 227.5 90Q261 76 301 76Q341 76 374 90Q407 104 431 129.5Q455 155 468 190Q481 225 481 267Q481 309 467.5 344Q454 379 430 404.5Q406 430 373 444.5Q340 459 300 459Q260 459 227 444.5Q194 430 170 404.5Q146 379 133 344Q120 309 120 267Z" glyph-name="acircumflex.alt" horiz-adv-x="621" /><glyph d="M370 714 290 579H198L276 714Z" glyph-name="acute" horiz-adv-x="476" unicode="&#180;" /><glyph d="M326 714 282 579H199L242 714Z" glyph-name="acute.pl" horiz-adv-x="476" /><glyph d="M369 855 291 729H198L273 855Z" glyph-name="acute.uc" horiz-adv-x="476" /><glyph d="M336 855 292 729H208L250 855Z" glyph-name="acute.ucpl" horiz-adv-x="476" /><glyph d="M26 171Q26 209 39 241.5Q52 274 76 297.5Q100 321 133.5 334Q167 347 207 347Q248 347 276 335.5Q304 324 318 311V356Q318 408 294.5 436Q271 464 223 464Q174 464 154.5 438Q135 412 134 379H45Q45 414 56.5 444Q68 474 90 495.5Q112 517 145.5 529Q179 541 224 541Q275 541 310.5 527Q346 513 368.5 487.5Q391 462 401.5 425.5Q412 389 412 345V0H328V42Q309 20 279.5 6Q250 -8 207 -8Q169 -8 136 4.5Q103 17 78.5 40Q54 63 40 96.5Q26 130 26 171ZM118 171Q118 128 145.5 99Q173 70 218 70Q262 70 291 99Q320 128 320 171Q320 215 291 243Q262 271 217 271Q172 271 145 242.5Q118 214 118 171ZM139 590Q114 590 97 607Q80 624 80 649Q80 674 97 691Q114 708 139 708Q165 708 182.5 691Q200 674 200 649Q200 624 182 607Q164 590 139 590ZM310 590Q284 590 267 607Q250 624 250 649Q250 674 267 691Q284 708 310 708Q335 708 352.5 691Q370 674 370 649Q370 624 352 607Q334 590 310 590Z" glyph-name="adieresis" horiz-adv-x="459" unicode="&#228;" /><glyph d="M215 590Q190 590 173 607Q156 624 156 649Q156 674 173 691Q190 708 215 708Q241 708 258.5 691Q276 674 276 649Q276 624 258 607Q240 590 215 590ZM386 590Q360 590 343 607Q326 624 326 649Q326 674 343 691Q360 708 386 708Q411 708 428.5 691Q446 674 446 649Q446 624 428 607Q410 590 386 590ZM482 79Q473 65 457 50Q441 35 418 21.5Q395 8 364.5 -0.5Q334 -9 297 -9Q237 -9 186.5 11Q136 31 100 67Q64 103 44 154Q24 205 24 267Q24 327 44 377.5Q64 428 100.5 465Q137 502 187 523Q237 544 297 544Q357 544 406 520.5Q455 497 481 462V535H572V0H482ZM120 267Q120 225 133 190Q146 155 170 129.5Q194 104 227.5 90Q261 76 301 76Q341 76 374 90Q407 104 431 129.5Q455 155 468 190Q481 225 481 267Q481 309 467.5 344Q454 379 430 404.5Q406 430 373 444.5Q340 459 300 459Q260 459 227 444.5Q194 430 170 404.5Q146 379 133 344Q120 309 120 267Z" glyph-name="adieresis.alt" horiz-adv-x="621" /><glyph d="M580 -7Q512 -7 458.5 18Q405 43 371 89Q364 74 352 56.5Q340 39 321.5 24.5Q303 10 276.5 0.5Q250 -9 214 -9Q173 -9 139 3.5Q105 16 79.5 39Q54 62 40 94.5Q26 127 26 168Q26 206 39 238Q52 270 75.5 293.5Q99 317 132.5 330Q166 343 207 343Q245 343 273 332.5Q301 322 316 308V356Q316 407 294 435.5Q272 464 224 464Q200 464 183 457Q166 450 156 438Q146 426 141.5 410.5Q137 395 137 379H48Q48 413 59 443Q70 473 92 494.5Q114 516 147 528.5Q180 541 225 541Q286 541 324 516.5Q362 492 379 450Q408 491 456.5 516.5Q505 542 570 542Q628 542 676 523.5Q724 505 757.5 471.5Q791 438 810 389.5Q829 341 830 281Q830 274 829.5 261.5Q829 249 828 238H410Q411 203 423.5 174Q436 145 458 123Q480 101 511 89Q542 77 580 77Q643 77 682 107Q721 137 744 185L817 146Q804 115 783 87.5Q762 60 733 39Q704 18 665.5 5.5Q627 -7 580 -7ZM569 460Q534 460 506 448Q478 436 458 416Q438 396 426 368.5Q414 341 412 311H730Q727 381 682.5 420.5Q638 460 569 460ZM117 170Q117 126 145 97.5Q173 69 218 69Q263 69 292 97.5Q321 126 321 170Q321 215 292 243.5Q263 272 217 272Q171 272 144 243Q117 214 117 170Z" glyph-name="ae" horiz-adv-x="849" unicode="&#230;" /><glyph d="M580 -7Q512 -7 458.5 18Q405 43 371 89Q364 74 352 56.5Q340 39 321.5 24.5Q303 10 276.5 0.5Q250 -9 214 -9Q173 -9 139 3.5Q105 16 79.5 39Q54 62 40 94.5Q26 127 26 168Q26 206 39 238Q52 270 75.5 293.5Q99 317 132.5 330Q166 343 207 343Q245 343 273 332.5Q301 322 316 308V356Q316 407 294 435.5Q272 464 224 464Q200 464 183 457Q166 450 156 438Q146 426 141.5 410.5Q137 395 137 379H48Q48 413 59 443Q70 473 92 494.5Q114 516 147 528.5Q180 541 225 541Q286 541 324 516.5Q362 492 379 450Q408 491 456.5 516.5Q505 542 570 542Q628 542 676 523.5Q724 505 757.5 471.5Q791 438 810 389.5Q829 341 830 281Q830 274 829.5 261.5Q829 249 828 238H410Q411 203 423.5 174Q436 145 458 123Q480 101 511 89Q542 77 580 77Q643 77 682 107Q721 137 744 185L817 146Q804 115 783 87.5Q762 60 733 39Q704 18 665.5 5.5Q627 -7 580 -7ZM569 460Q534 460 506 448Q478 436 458 416Q438 396 426 368.5Q414 341 412 311H730Q727 381 682.5 420.5Q638 460 569 460ZM117 170Q117 126 145 97.5Q173 69 218 69Q263 69 292 97.5Q321 126 321 170Q321 215 292 243.5Q263 272 217 272Q171 272 144 243Q117 214 117 170ZM522 714 442 579H350L428 714Z" glyph-name="aeacute" horiz-adv-x="849" unicode="&#509;" /><glyph d="M26 171Q26 209 39 241.5Q52 274 76 297.5Q100 321 133.5 334Q167 347 207 347Q248 347 276 335.5Q304 324 318 311V356Q318 408 294.5 436Q271 464 223 464Q174 464 154.5 438Q135 412 134 379H45Q45 414 56.5 444Q68 474 90 495.5Q112 517 145.5 529Q179 541 224 541Q275 541 310.5 527Q346 513 368.5 487.5Q391 462 401.5 425.5Q412 389 412 345V0H328V42Q309 20 279.5 6Q250 -8 207 -8Q169 -8 136 4.5Q103 17 78.5 40Q54 63 40 96.5Q26 130 26 171ZM118 171Q118 128 145.5 99Q173 70 218 70Q262 70 291 99Q320 128 320 171Q320 215 291 243Q262 271 217 271Q172 271 145 242.5Q118 214 118 171ZM196 714 272 579H181L102 714Z" glyph-name="agrave" horiz-adv-x="459" unicode="&#224;" /><glyph d="M280 714 356 579H265L186 714ZM482 79Q473 65 457 50Q441 35 418 21.5Q395 8 364.5 -0.5Q334 -9 297 -9Q237 -9 186.5 11Q136 31 100 67Q64 103 44 154Q24 205 24 267Q24 327 44 377.5Q64 428 100.5 465Q137 502 187 523Q237 544 297 544Q357 544 406 520.5Q455 497 481 462V535H572V0H482ZM120 267Q120 225 133 190Q146 155 170 129.5Q194 104 227.5 90Q261 76 301 76Q341 76 374 90Q407 104 431 129.5Q455 155 468 190Q481 225 481 267Q481 309 467.5 344Q454 379 430 404.5Q406 430 373 444.5Q340 459 300 459Q260 459 227 444.5Q194 430 170 404.5Q146 379 133 344Q120 309 120 267Z" glyph-name="agrave.alt" horiz-adv-x="621" /><glyph d="M26 171Q26 209 39 241.5Q52 274 76 297.5Q100 321 133.5 334Q167 347 207 347Q248 347 276 335.5Q304 324 318 311V356Q318 408 294.5 436Q271 464 223 464Q174 464 154.5 438Q135 412 134 379H45Q45 414 56.5 444Q68 474 90 495.5Q112 517 145.5 529Q179 541 224 541Q275 541 310.5 527Q346 513 368.5 487.5Q391 462 401.5 425.5Q412 389 412 345V0H328V42Q309 20 279.5 6Q250 -8 207 -8Q169 -8 136 4.5Q103 17 78.5 40Q54 63 40 96.5Q26 130 26 171ZM118 171Q118 128 145.5 99Q173 70 218 70Q262 70 291 99Q320 128 320 171Q320 215 291 243Q262 271 217 271Q172 271 145 242.5Q118 214 118 171ZM111 670H341V597H111Z" glyph-name="amacron" horiz-adv-x="459" unicode="&#257;" /><glyph d="M187 670H417V597H187ZM482 79Q473 65 457 50Q441 35 418 21.5Q395 8 364.5 -0.5Q334 -9 297 -9Q237 -9 186.5 11Q136 31 100 67Q64 103 44 154Q24 205 24 267Q24 327 44 377.5Q64 428 100.5 465Q137 502 187 523Q237 544 297 544Q357 544 406 520.5Q455 497 481 462V535H572V0H482ZM120 267Q120 225 133 190Q146 155 170 129.5Q194 104 227.5 90Q261 76 301 76Q341 76 374 90Q407 104 431 129.5Q455 155 468 190Q481 225 481 267Q481 309 467.5 344Q454 379 430 404.5Q406 430 373 444.5Q340 459 300 459Q260 459 227 444.5Q194 430 170 404.5Q146 379 133 344Q120 309 120 267Z" glyph-name="amacron.alt" horiz-adv-x="621" /><glyph d="M471 57Q436 26 389.5 8Q343 -10 281 -10Q222 -10 175.5 5.5Q129 21 97 49Q65 77 47.5 114.5Q30 152 30 197Q30 260 60.5 308Q91 356 144 384Q112 407 93 442Q74 477 74 523Q74 557 86.5 589.5Q99 622 123 647.5Q147 673 183 688Q219 703 266 703Q312 703 348.5 689.5Q385 676 410 652Q435 628 448.5 595.5Q462 563 462 524Q462 487 450 456.5Q438 426 417 404Q396 382 368 368.5Q340 355 308 352L464 191Q483 229 489 276Q495 323 493 371H583Q587 306 574.5 241.5Q562 177 529 123L648 0H528ZM283 76Q324 76 355 87.5Q386 99 409 120L204 328Q169 310 150.5 278.5Q132 247 132 205Q132 178 143 154Q154 130 174 113Q194 96 221.5 86Q249 76 283 76ZM167 522Q167 477 196 449Q225 421 270 421Q315 421 343 449.5Q371 478 371 524Q370 568 341.5 596Q313 624 267 624Q221 624 194 595.5Q167 567 167 522Z" glyph-name="ampersand" horiz-adv-x="639" unicode="&amp;" /><glyph d="M26 171Q26 209 39 241.5Q52 274 76 297.5Q100 321 133.5 334Q167 347 207 347Q248 347 276 335.5Q304 324 318 311V356Q318 408 294.5 436Q271 464 223 464Q174 464 154.5 438Q135 412 134 379H45Q45 414 56.5 444Q68 474 90 495.5Q112 517 145.5 529Q179 541 224 541Q275 541 310.5 527Q346 513 368.5 487.5Q391 462 401.5 425.5Q412 389 412 345V-3Q380 -13 368 -28.5Q356 -44 356 -63Q356 -86 372 -96.5Q388 -107 412 -107V-176Q338 -179 302.5 -151.5Q267 -124 267 -81Q267 -56 281 -33Q295 -10 328 7V42Q309 20 279.5 6Q250 -8 207 -8Q169 -8 136 4.5Q103 17 78.5 40Q54 63 40 96.5Q26 130 26 171ZM118 171Q118 128 145.5 99Q173 70 218 70Q262 70 291 99Q320 128 320 171Q320 215 291 243Q262 271 217 271Q172 271 145 242.5Q118 214 118 171Z" glyph-name="aogonek" horiz-adv-x="459" unicode="&#261;" /><glyph d="M427 -81Q427 -28 482 4V79Q473 65 457 50Q441 35 418 21.5Q395 8 364.5 -0.5Q334 -9 297 -9Q237 -9 186.5 11Q136 31 100 67Q64 103 44 154Q24 205 24 267Q24 327 44 377.5Q64 428 100.5 465Q137 502 187 523Q237 544 297 544Q357 544 406 520.5Q455 497 481 462V535H572V-3Q541 -13 528.5 -28.5Q516 -44 516 -62Q516 -85 532 -95Q548 -105 572 -106V-175Q498 -178 462.5 -150.5Q427 -123 427 -81ZM120 267Q120 225 133 190Q146 155 170 129.5Q194 104 227.5 90Q261 76 301 76Q341 76 374 90Q407 104 431 129.5Q455 155 468 190Q481 225 481 267Q481 309 467.5 344Q454 379 430 404.5Q406 430 373 444.5Q340 459 300 459Q260 459 227 444.5Q194 430 170 404.5Q146 379 133 344Q120 309 120 267Z" glyph-name="aogonek.alt" horiz-adv-x="621" /><glyph d="M26 171Q26 209 39 241.5Q52 274 76 297.5Q100 321 133.5 334Q167 347 207 347Q248 347 276 335.5Q304 324 318 311V356Q318 408 294.5 436Q271 464 223 464Q174 464 154.5 438Q135 412 134 379H45Q45 414 56.5 444Q68 474 90 495.5Q112 517 145.5 529Q179 541 224 541Q275 541 310.5 527Q346 513 368.5 487.5Q391 462 401.5 425.5Q412 389 412 345V0H328V42Q309 20 279.5 6Q250 -8 207 -8Q169 -8 136 4.5Q103 17 78.5 40Q54 63 40 96.5Q26 130 26 171ZM118 171Q118 128 145.5 99Q173 70 218 70Q262 70 291 99Q320 128 320 171Q320 215 291 243Q262 271 217 271Q172 271 145 242.5Q118 214 118 171ZM121 662Q121 706 149.5 734.5Q178 763 223 763Q272 763 300 734.5Q328 706 328 664Q328 619 300 590.5Q272 562 224 562Q178 562 149.5 590.5Q121 619 121 662ZM175 662Q175 641 188.5 627Q202 613 224 613Q248 613 261 627Q274 641 274 664Q274 684 261 698.5Q248 713 224 713Q201 713 188 698.5Q175 684 175 662Z" glyph-name="aring" horiz-adv-x="459" unicode="&#229;" /><glyph d="M196 662Q196 706 224.5 734.5Q253 763 298 763Q347 763 375 734.5Q403 706 403 664Q403 619 375 590.5Q347 562 299 562Q253 562 224.5 590.5Q196 619 196 662ZM250 662Q250 641 263.5 627Q277 613 299 613Q323 613 336 627Q349 641 349 664Q349 684 336 698.5Q323 713 299 713Q276 713 263 698.5Q250 684 250 662ZM482 79Q473 65 457 50Q441 35 418 21.5Q395 8 364.5 -0.5Q334 -9 297 -9Q237 -9 186.5 11Q136 31 100 67Q64 103 44 154Q24 205 24 267Q24 327 44 377.5Q64 428 100.5 465Q137 502 187 523Q237 544 297 544Q357 544 406 520.5Q455 497 481 462V535H572V0H482ZM120 267Q120 225 133 190Q146 155 170 129.5Q194 104 227.5 90Q261 76 301 76Q341 76 374 90Q407 104 431 129.5Q455 155 468 190Q481 225 481 267Q481 309 467.5 344Q454 379 430 404.5Q406 430 373 444.5Q340 459 300 459Q260 459 227 444.5Q194 430 170 404.5Q146 379 133 344Q120 309 120 267Z" glyph-name="aring.alt" horiz-adv-x="621" /><glyph d="M26 171Q26 209 39 241.5Q52 274 76 297.5Q100 321 133.5 334Q167 347 207 347Q248 347 276 335.5Q304 324 318 311V356Q318 408 294.5 436Q271 464 223 464Q174 464 154.5 438Q135 412 134 379H45Q45 414 56.5 444Q68 474 90 495.5Q112 517 145.5 529Q179 541 224 541Q275 541 310.5 527Q346 513 368.5 487.5Q391 462 401.5 425.5Q412 389 412 345V0H328V42Q309 20 279.5 6Q250 -8 207 -8Q169 -8 136 4.5Q103 17 78.5 40Q54 63 40 96.5Q26 130 26 171ZM118 171Q118 128 145.5 99Q173 70 218 70Q262 70 291 99Q320 128 320 171Q320 215 291 243Q262 271 217 271Q172 271 145 242.5Q118 214 118 171ZM129 662Q129 706 157.5 734.5Q186 763 231 763Q280 763 308 734.5Q336 706 336 664Q336 619 308 590.5Q280 562 232 562Q186 562 157.5 590.5Q129 619 129 662ZM183 662Q183 641 196.5 627Q210 613 232 613Q256 613 269 627Q282 641 282 664Q282 684 269 698.5Q256 713 232 713Q209 713 196 698.5Q183 684 183 662ZM361 915 283 789H190L265 915Z" glyph-name="aringacute" horiz-adv-x="459" unicode="&#507;" /><glyph d="M198 662Q198 706 226.5 734.5Q255 763 300 763Q349 763 377 734.5Q405 706 405 664Q405 619 377 590.5Q349 562 301 562Q255 562 226.5 590.5Q198 619 198 662ZM252 662Q252 641 265.5 627Q279 613 301 613Q325 613 338 627Q351 641 351 664Q351 684 338 698.5Q325 713 301 713Q278 713 265 698.5Q252 684 252 662ZM482 79Q473 65 457 50Q441 35 418 21.5Q395 8 364.5 -0.5Q334 -9 297 -9Q237 -9 186.5 11Q136 31 100 67Q64 103 44 154Q24 205 24 267Q24 327 44 377.5Q64 428 100.5 465Q137 502 187 523Q237 544 297 544Q357 544 406 520.5Q455 497 481 462V535H572V0H482ZM120 267Q120 225 133 190Q146 155 170 129.5Q194 104 227.5 90Q261 76 301 76Q341 76 374 90Q407 104 431 129.5Q455 155 468 190Q481 225 481 267Q481 309 467.5 344Q454 379 430 404.5Q406 430 373 444.5Q340 459 300 459Q260 459 227 444.5Q194 430 170 404.5Q146 379 133 344Q120 309 120 267ZM425 915 347 789H254L329 915Z" glyph-name="aringacute.alt" horiz-adv-x="621" /><glyph d="M440 385H343L226 602L109 385H12L178 692H275Z" glyph-name="asciicircum" horiz-adv-x="452" unicode="^" /><glyph d="M228 260Q207 274 191 283Q175 292 155 292Q126 292 114.5 272Q103 252 101 229H20Q20 258 28 285.5Q36 313 52 334Q68 355 92.5 367.5Q117 380 151 380Q178 380 199.5 372Q221 364 247 347Q267 333 284 324Q301 315 321 315Q350 315 360.5 335Q371 355 373 379H454Q454 349 446 321.5Q438 294 422.5 273Q407 252 382.5 239.5Q358 227 325 227Q298 227 276 235.5Q254 244 228 260Z" glyph-name="asciitilde" horiz-adv-x="474" unicode="~" /><glyph d="M65 636 162 578V692H230V577L327 636L360 579L261 521L360 464L327 406L230 464V350H162V464L65 406L32 463L131 520L31 578Z" glyph-name="asterisk" horiz-adv-x="392" unicode="*" /><glyph d="M622 145Q613 132 598 119Q583 106 563.5 95.5Q544 85 519.5 78.5Q495 72 467 72Q419 72 380 87.5Q341 103 313 131Q285 159 269.5 198Q254 237 254 283Q254 328 269.5 367Q285 406 313 435Q341 464 379.5 480.5Q418 497 463 497Q509 497 544.5 481.5Q580 466 597 444V490H684V223Q684 188 698 168Q712 148 747 148Q789 148 817 198.5Q845 249 845 336Q845 412 819.5 472.5Q794 533 747.5 575Q701 617 634 639.5Q567 662 485 662Q398 662 329 632Q260 602 212 551Q164 500 139 431.5Q114 363 114 286Q114 201 142.5 132Q171 63 223 14.5Q275 -34 348 -60Q421 -86 509 -86Q592 -86 657.5 -59Q723 -32 771 10L817 -46Q795 -68 763.5 -89Q732 -110 692 -126Q652 -142 605.5 -152Q559 -162 507 -162Q394 -162 304.5 -128Q215 -94 153 -34Q91 26 58.5 107.5Q26 189 26 284Q26 382 60 465Q94 548 155 608.5Q216 669 301 703Q386 737 488 737Q593 737 675 706Q757 675 813.5 621.5Q870 568 899.5 495.5Q929 423 929 340Q929 275 914.5 225.5Q900 176 874.5 142Q849 108 814 90.5Q779 73 738 73Q687 73 659.5 94.5Q632 116 622 145ZM345 284Q345 227 379 190.5Q413 154 468 154Q495 154 519 163Q543 172 560 189Q577 206 587 230Q597 254 597 284Q597 314 587 338Q577 362 559.5 379.5Q542 397 518 406Q494 415 467 415Q412 415 378.5 378.5Q345 342 345 284Z" glyph-name="at" horiz-adv-x="955" unicode="@" /><glyph d="M622 174Q613 161 598 148Q583 135 563.5 124.5Q544 114 519.5 107.5Q495 101 467 101Q419 101 380 117Q341 133 313 161Q285 189 269.5 228Q254 267 254 313Q254 358 269.5 397Q285 436 313 464.5Q341 493 379.5 509.5Q418 526 463 526Q509 526 544.5 510.5Q580 495 597 473V520H684V253Q684 218 698 198Q712 178 747 178Q789 178 817 228Q845 278 845 366Q845 441 819.5 501.5Q794 562 747.5 604.5Q701 647 634 669.5Q567 692 485 692Q398 692 329 662Q260 632 212 580.5Q164 529 139 460.5Q114 392 114 316Q114 231 142.5 162Q171 93 223 44.5Q275 -4 348 -30.5Q421 -57 509 -57Q592 -57 657.5 -30Q723 -3 771 39L817 -16Q795 -39 763.5 -59.5Q732 -80 692 -96.5Q652 -113 605.5 -122.5Q559 -132 507 -132Q394 -132 304.5 -98Q215 -64 153 -4Q91 56 58.5 137.5Q26 219 26 314Q26 412 60 495Q94 578 155 638.5Q216 699 301 733Q386 767 488 767Q593 767 675 736Q757 705 813.5 651.5Q870 598 899.5 525.5Q929 453 929 369Q929 305 914.5 255Q900 205 874.5 171Q849 137 814 119.5Q779 102 738 102Q687 102 659.5 123.5Q632 145 622 174ZM345 314Q345 256 379 220Q413 184 468 184Q523 184 560 218.5Q597 253 597 314Q597 344 587 368Q577 392 559.5 409Q542 426 518 435Q494 444 467 444Q412 444 378.5 407.5Q345 371 345 314Z" glyph-name="at.uc" horiz-adv-x="955" /><glyph d="M26 171Q26 209 39 241.5Q52 274 76 297.5Q100 321 133.5 334Q167 347 207 347Q248 347 276 335.5Q304 324 318 311V356Q318 408 294.5 436Q271 464 223 464Q174 464 154.5 438Q135 412 134 379H45Q45 414 56.5 444Q68 474 90 495.5Q112 517 145.5 529Q179 541 224 541Q275 541 310.5 527Q346 513 368.5 487.5Q391 462 401.5 425.5Q412 389 412 345V0H328V42Q309 20 279.5 6Q250 -8 207 -8Q169 -8 136 4.5Q103 17 78.5 40Q54 63 40 96.5Q26 130 26 171ZM118 171Q118 128 145.5 99Q173 70 218 70Q262 70 291 99Q320 128 320 171Q320 215 291 243Q262 271 217 271Q172 271 145 242.5Q118 214 118 171ZM286 582Q266 582 251.5 588.5Q237 595 224 603.5Q211 612 199 618.5Q187 625 173 625Q157 625 150 614Q143 603 142 583H72Q71 632 96 665.5Q121 699 169 699Q189 699 204 692.5Q219 686 231.5 677.5Q244 669 255.5 662.5Q267 656 281 656Q311 656 311 699H381Q382 646 356.5 614Q331 582 286 582Z" glyph-name="atilde" horiz-adv-x="459" unicode="&#227;" /><glyph d="M361 582Q341 582 326.5 588.5Q312 595 299 603.5Q286 612 274 618.5Q262 625 248 625Q232 625 225 614Q218 603 217 583H147Q146 632 171 665.5Q196 699 244 699Q264 699 279 692.5Q294 686 306.5 677.5Q319 669 330.5 662.5Q342 656 356 656Q386 656 386 699H456Q457 646 431.5 614Q406 582 361 582ZM482 79Q473 65 457 50Q441 35 418 21.5Q395 8 364.5 -0.5Q334 -9 297 -9Q237 -9 186.5 11Q136 31 100 67Q64 103 44 154Q24 205 24 267Q24 327 44 377.5Q64 428 100.5 465Q137 502 187 523Q237 544 297 544Q357 544 406 520.5Q455 497 481 462V535H572V0H482ZM120 267Q120 225 133 190Q146 155 170 129.5Q194 104 227.5 90Q261 76 301 76Q341 76 374 90Q407 104 431 129.5Q455 155 468 190Q481 225 481 267Q481 309 467.5 344Q454 379 430 404.5Q406 430 373 444.5Q340 459 300 459Q260 459 227 444.5Q194 430 170 404.5Q146 379 133 344Q120 309 120 267Z" glyph-name="atilde.alt" horiz-adv-x="621" /><glyph d="M140 267Q140 225 153 190Q166 155 190 129.5Q214 104 247.5 90Q281 76 321 76Q361 76 394.5 90Q428 104 451.5 129.5Q475 155 488 190Q501 225 501 267Q501 309 488 344Q475 379 451 404.5Q427 430 394 444.5Q361 459 321 459Q280 459 247 444.5Q214 430 190 404.5Q166 379 153 344Q140 309 140 267ZM140 0H49V731H144V461Q156 476 173.5 491Q191 506 214.5 517.5Q238 529 267 536.5Q296 544 329 544Q389 544 438 524Q487 504 522.5 468Q558 432 577.5 381Q597 330 597 268Q597 209 577.5 158Q558 107 522.5 70Q487 33 436.5 12Q386 -9 324 -9Q289 -9 260 -1Q231 7 207.5 19Q184 31 167 45Q150 59 140 72Z" glyph-name="b" horiz-adv-x="621" unicode="b" /><glyph d="M4 731H93L449 -175H360Z" glyph-name="backslash" horiz-adv-x="453" unicode="\" /><glyph d="M4 731H93L401 -55H313Z" glyph-name="backslash.uc" horiz-adv-x="453" /><glyph d="M154 -175H71V731H154Z" glyph-name="bar" horiz-adv-x="225" unicode="|" /><glyph d="M154 -55H71V731H154Z" glyph-name="bar.uc" horiz-adv-x="225" /><glyph d="M172 -8Q172 -27 174.5 -42.5Q177 -58 185.5 -69Q194 -80 208.5 -86Q223 -92 247 -92H265V-175H244Q159 -175 120.5 -134.5Q82 -94 82 -10V191Q82 223 72.5 240.5Q63 258 25 258H21V344H25Q63 344 72.5 361.5Q82 379 82 411V610Q82 694 120.5 734.5Q159 775 244 775H265V692H247Q223 692 208.5 686Q194 680 185.5 669Q177 658 174.5 642.5Q172 627 172 608V404Q172 352 157 330Q142 308 117 301Q142 294 157 272Q172 250 172 197V-8Z" glyph-name="braceleft" horiz-adv-x="279" unicode="{" /><glyph d="M172 -8Q172 -27 174.5 -42.5Q177 -58 185.5 -69Q194 -80 208.5 -86Q223 -92 247 -92H265V-175H244Q159 -175 120.5 -134.5Q82 -94 82 -10V191Q82 223 72.5 240.5Q63 258 25 258H21V344H25Q63 344 72.5 361.5Q82 379 82 411V610Q82 694 120.5 734.5Q159 775 244 775H265V692H247Q223 692 208.5 686Q194 680 185.5 669Q177 658 174.5 642.5Q172 627 172 608V404Q172 352 157 330Q142 308 117 301Q142 294 157 272Q172 250 172 197V-8Z" glyph-name="braceleft.uc" horiz-adv-x="279" /><glyph d="M106 197Q106 250 121.5 272Q137 294 162 301Q136 308 121 330Q106 352 106 404V608Q106 627 103.5 642.5Q101 658 93 669Q85 680 70.5 686Q56 692 32 692H14V775H35Q120 775 158.5 734.5Q197 694 197 610V411Q197 379 206.5 361.5Q216 344 254 344H258V258H254Q216 258 206.5 240.5Q197 223 197 191V-10Q197 -94 158.5 -134.5Q120 -175 35 -175H14V-92H32Q56 -92 70.5 -86Q85 -80 93 -69Q101 -58 103.5 -42.5Q106 -27 106 -8Z" glyph-name="braceright" horiz-adv-x="279" unicode="}" /><glyph d="M106 197Q106 250 121.5 272Q137 294 162 301Q136 308 121 330Q106 352 106 404V608Q106 627 103.5 642.5Q101 658 93 669Q85 680 70.5 686Q56 692 32 692H14V775H35Q120 775 158.5 734.5Q197 694 197 610V411Q197 379 206.5 361.5Q216 344 254 344H258V258H254Q216 258 206.5 240.5Q197 223 197 191V-10Q197 -94 158.5 -134.5Q120 -175 35 -175H14V-92H32Q56 -92 70.5 -86Q85 -80 93 -69Q101 -58 103.5 -42.5Q106 -27 106 -8Z" glyph-name="braceright.uc" horiz-adv-x="279" /><glyph d="M51 775H234V692H141V-92H233V-175H51Z" glyph-name="bracketleft" horiz-adv-x="248" unicode="[" /><glyph d="M51 775H234V692H141V-92H233V-175H51Z" glyph-name="bracketleft.uc" horiz-adv-x="248" /><glyph d="M197 -175H14V-92H106V692H14V775H197Z" glyph-name="bracketright" horiz-adv-x="248" unicode="]" /><glyph d="M197 -175H14V-92H106V692H14V775H197Z" glyph-name="bracketright.uc" horiz-adv-x="248" /><glyph d="M202 571Q163 571 136.5 584Q110 597 94 617Q78 637 71 660.5Q64 684 64 704H138Q138 693 141.5 682Q145 671 152 661Q159 651 171.5 645Q184 639 202 639Q220 639 232 645Q244 651 251.5 661Q259 671 262.5 682Q266 693 266 704H338Q338 683 331 660Q324 637 308 617Q292 597 266 584Q240 571 202 571Z" glyph-name="breve" horiz-adv-x="400" unicode="&#728;" /><glyph d="M202 730Q163 730 136.5 742.5Q110 755 94 774Q78 793 70.5 815Q63 837 63 857H139Q139 848 142.5 838Q146 828 153 819.5Q160 811 172 805.5Q184 800 202 800Q220 800 232 805.5Q244 811 251 819.5Q258 828 261.5 838Q265 848 265 857H339Q339 837 331.5 814.5Q324 792 308 773.5Q292 755 265.5 742.5Q239 730 202 730Z" glyph-name="breve.uc" horiz-adv-x="400" /><glyph d="M154 -175H71V255H154ZM154 312H71V731H154Z" glyph-name="brokenbar" horiz-adv-x="225" unicode="&#166;" /><glyph d="M25 297Q25 322 34 343.5Q43 365 58.5 381Q74 397 95.5 406Q117 415 142 415Q167 415 189 406Q211 397 227 381Q243 365 252 343.5Q261 322 261 297Q261 272 252 250.5Q243 229 227 213.5Q211 198 189 189Q167 180 142 180Q117 180 95.5 189Q74 198 58.5 213.5Q43 229 34 250.5Q25 272 25 297Z" glyph-name="bullet" horiz-adv-x="286" unicode="&#8226;" /><glyph d="M299 77Q326 77 347.5 83Q369 89 386 98Q403 107 416.5 117.5Q430 128 440 138L496 79Q484 65 466 49.5Q448 34 423.5 21Q399 8 367.5 -0.5Q336 -9 298 -9Q236 -9 185.5 12Q135 33 99 70Q63 107 43.5 157.5Q24 208 24 267Q24 326 44.5 376.5Q65 427 101.5 464.5Q138 502 188 523Q238 544 297 544Q336 544 368 536Q400 528 424.5 515.5Q449 503 467 487.5Q485 472 496 458L437 398Q416 421 382.5 439.5Q349 458 298 458Q258 458 225.5 443.5Q193 429 169.5 403.5Q146 378 133.5 343Q121 308 121 267Q121 224 134.5 189Q148 154 172 129Q196 104 228.5 90.5Q261 77 299 77Z" glyph-name="c" horiz-adv-x="509" unicode="c" /><glyph d="M299 77Q326 77 347.5 83Q369 89 386 98Q403 107 416.5 117.5Q430 128 440 138L496 79Q484 65 466 49.5Q448 34 423.5 21Q399 8 367.5 -0.5Q336 -9 298 -9Q236 -9 185.5 12Q135 33 99 70Q63 107 43.5 157.5Q24 208 24 267Q24 326 44.5 376.5Q65 427 101.5 464.5Q138 502 188 523Q238 544 297 544Q336 544 368 536Q400 528 424.5 515.5Q449 503 467 487.5Q485 472 496 458L437 398Q416 421 382.5 439.5Q349 458 298 458Q258 458 225.5 443.5Q193 429 169.5 403.5Q146 378 133.5 343Q121 308 121 267Q121 224 134.5 189Q148 154 172 129Q196 104 228.5 90.5Q261 77 299 77ZM411 714 331 579H239L317 714Z" glyph-name="cacute" horiz-adv-x="509" unicode="&#263;" /><glyph d="M299 77Q326 77 347.5 83Q369 89 386 98Q403 107 416.5 117.5Q430 128 440 138L496 79Q484 65 466 49.5Q448 34 423.5 21Q399 8 367.5 -0.5Q336 -9 298 -9Q236 -9 185.5 12Q135 33 99 70Q63 107 43.5 157.5Q24 208 24 267Q24 326 44.5 376.5Q65 427 101.5 464.5Q138 502 188 523Q238 544 297 544Q336 544 368 536Q400 528 424.5 515.5Q449 503 467 487.5Q485 472 496 458L437 398Q416 421 382.5 439.5Q349 458 298 458Q258 458 225.5 443.5Q193 429 169.5 403.5Q146 378 133.5 343Q121 308 121 267Q121 224 134.5 189Q148 154 172 129Q196 104 228.5 90.5Q261 77 299 77ZM368 714 324 579H241L284 714Z" glyph-name="cacute.pl" horiz-adv-x="504" /><glyph d="M152 578 51 718H138L200 638L262 718H349L247 578Z" glyph-name="caron" horiz-adv-x="400" unicode="&#711;" /><glyph d="M350 731 334 577H256L270 731Z" glyph-name="caron.alt" horiz-adv-x="476" /><glyph d="M150 729 43 855H135L200 785L265 855H356L248 729Z" glyph-name="caron.uc" horiz-adv-x="400" /><glyph d="M299 77Q326 77 347.5 83Q369 89 386 98Q403 107 416.5 117.5Q430 128 440 138L496 79Q484 65 466 49.5Q448 34 423.5 21Q399 8 367.5 -0.5Q336 -9 298 -9Q236 -9 185.5 12Q135 33 99 70Q63 107 43.5 157.5Q24 208 24 267Q24 326 44.5 376.5Q65 427 101.5 464.5Q138 502 188 523Q238 544 297 544Q336 544 368 536Q400 528 424.5 515.5Q449 503 467 487.5Q485 472 496 458L437 398Q416 421 382.5 439.5Q349 458 298 458Q258 458 225.5 443.5Q193 429 169.5 403.5Q146 378 133.5 343Q121 308 121 267Q121 224 134.5 189Q148 154 172 129Q196 104 228.5 90.5Q261 77 299 77ZM233 578 132 718H219L281 638L343 718H430L328 578Z" glyph-name="ccaron" horiz-adv-x="509" unicode="&#269;" /><glyph d="M224 -252V-191H245Q268 -191 284 -180Q300 -169 300 -143Q300 -118 285.5 -106.5Q271 -95 245 -95H224V-1Q178 10 141 34.5Q104 59 77.5 94Q51 129 37 173Q23 217 23 267Q23 326 43.5 376.5Q64 427 100.5 464.5Q137 502 187 523Q237 544 296 544Q335 544 367 536Q399 528 423.5 515.5Q448 503 466 487.5Q484 472 495 458L436 398Q415 421 381.5 439.5Q348 458 297 458Q257 458 224.5 443.5Q192 429 168.5 403.5Q145 378 132.5 343Q120 308 120 267Q120 224 133.5 189Q147 154 171 129Q195 104 227.5 90.5Q260 77 298 77Q325 77 346.5 83Q368 89 385 98Q402 107 415.5 117.5Q429 128 439 138L495 79Q483 65 465 49.5Q447 34 422.5 21Q398 8 366.5 -0.5Q335 -9 297 -9H284V-39Q330 -48 350 -76Q370 -104 370 -143Q370 -197 334.5 -224.5Q299 -252 244 -252Z" glyph-name="ccedilla" horiz-adv-x="509" unicode="&#231;" /><glyph d="M299 77Q326 77 347.5 83Q369 89 386 98Q403 107 416.5 117.5Q430 128 440 138L496 79Q484 65 466 49.5Q448 34 423.5 21Q399 8 367.5 -0.5Q336 -9 298 -9Q236 -9 185.5 12Q135 33 99 70Q63 107 43.5 157.5Q24 208 24 267Q24 326 44.5 376.5Q65 427 101.5 464.5Q138 502 188 523Q238 544 297 544Q336 544 368 536Q400 528 424.5 515.5Q449 503 467 487.5Q485 472 496 458L437 398Q416 421 382.5 439.5Q349 458 298 458Q258 458 225.5 443.5Q193 429 169.5 403.5Q146 378 133.5 343Q121 308 121 267Q121 224 134.5 189Q148 154 172 129Q196 104 228.5 90.5Q261 77 299 77ZM330 715 432 575H345L283 654L221 575H134L235 715Z" glyph-name="ccircumflex" horiz-adv-x="509" unicode="&#265;" /><glyph d="M299 77Q326 77 347.5 83Q369 89 386 98Q403 107 416.5 117.5Q430 128 440 138L496 79Q484 65 466 49.5Q448 34 423.5 21Q399 8 367.5 -0.5Q336 -9 298 -9Q236 -9 185.5 12Q135 33 99 70Q63 107 43.5 157.5Q24 208 24 267Q24 326 44.5 376.5Q65 427 101.5 464.5Q138 502 188 523Q238 544 297 544Q336 544 368 536Q400 528 424.5 515.5Q449 503 467 487.5Q485 472 496 458L437 398Q416 421 382.5 439.5Q349 458 298 458Q258 458 225.5 443.5Q193 429 169.5 403.5Q146 378 133.5 343Q121 308 121 267Q121 224 134.5 189Q148 154 172 129Q196 104 228.5 90.5Q261 77 299 77ZM282 589Q256 589 238 606.5Q220 624 220 650Q220 676 237.5 693.5Q255 711 281 711Q307 711 325 693.5Q343 676 343 650Q343 624 325.5 606.5Q308 589 282 589Z" glyph-name="cdotaccent" horiz-adv-x="509" unicode="&#267;" /><glyph d="M129 -252V-191H150Q173 -191 189 -180Q205 -169 205 -143Q205 -118 190.5 -106.5Q176 -95 150 -95H129V17H189V-39Q235 -48 255 -76Q275 -104 275 -143Q275 -197 239.5 -224.5Q204 -252 149 -252Z" glyph-name="cedilla" horiz-adv-x="400" unicode="&#184;" /><glyph d="M326 540Q359 537 386 528.5Q413 520 434 508Q455 496 470.5 482.5Q486 469 496 456L439 396Q420 417 392 434Q364 451 326 456V79Q366 84 394 100.5Q422 117 443 140L497 81Q486 68 470 54Q454 40 432.5 27.5Q411 15 384 6.5Q357 -2 326 -5V-68H256V-4Q203 3 160 26Q117 49 87 84.5Q57 120 40.5 166.5Q24 213 24 267Q24 320 41 366.5Q58 413 89 449Q120 485 162.5 508.5Q205 532 256 539V604H326ZM119 267Q119 231 129.5 200Q140 169 158 145Q176 121 201 105Q226 89 256 82V454Q193 440 156 389.5Q119 339 119 267Z" glyph-name="cent" horiz-adv-x="511" unicode="&#162;" /><glyph d="M247 715 349 575H262L200 654L138 575H51L152 715Z" glyph-name="circumflex" horiz-adv-x="400" unicode="&#710;" /><glyph d="M248 855 356 729H264L199 797L135 729H42L150 855Z" glyph-name="circumflex.uc" horiz-adv-x="400" /><glyph d="M91 341Q63 341 44 360Q25 379 25 408Q25 437 43.5 456Q62 475 91 475Q120 475 139 456Q158 437 158 408Q158 379 139 360Q120 341 91 341ZM91 -9Q63 -9 44 10Q25 29 25 58Q25 87 43.5 106Q62 125 91 125Q120 125 139 106Q158 87 158 58Q158 29 139 10Q120 -9 91 -9Z" glyph-name="colon" horiz-adv-x="183" unicode=":" /><glyph d="M74 -4Q51 2 38 19Q25 36 25 59Q24 88 43 106.5Q62 125 92 125Q121 125 139 106Q157 87 157 58Q157 41 152 25.5Q147 10 139 -8L95 -109H26Z" glyph-name="comma" horiz-adv-x="183" unicode="," /><glyph d="M26 346Q26 421 52.5 487Q79 553 126 601.5Q173 650 239 678Q305 706 385 706Q469 706 537 678.5Q605 651 653 603Q701 555 726.5 490Q752 425 752 349Q752 273 726.5 207Q701 141 654 92Q607 43 540 15Q473 -13 390 -13Q307 -13 240 14.5Q173 42 125.5 90.5Q78 139 52 204.5Q26 270 26 346ZM97 346Q97 283 117.5 228.5Q138 174 176 134.5Q214 95 268 72Q322 49 390 49Q458 49 512 71.5Q566 94 603.5 133.5Q641 173 661 228Q681 283 681 348Q681 412 661 466.5Q641 521 602.5 560Q564 599 509 621Q454 643 385 643Q320 643 267 620.5Q214 598 176 558.5Q138 519 117.5 464.5Q97 410 97 346ZM486 436Q475 447 454 457.5Q433 468 401 468Q348 468 318.5 433Q289 398 289 346Q289 295 319.5 260Q350 225 404 225Q430 225 452 234Q474 243 488 256L533 202Q509 176 476 163.5Q443 151 404 151Q358 151 321 166Q284 181 258.5 207.5Q233 234 219.5 269.5Q206 305 206 346Q206 387 220 423Q234 459 260 485.5Q286 512 322 527Q358 542 402 542Q446 542 478 529.5Q510 517 533 497Z" glyph-name="copyright" horiz-adv-x="778" unicode="&#169;" /><glyph d="M482 79Q471 64 454 48Q437 32 413.5 19.5Q390 7 360.5 -1Q331 -9 297 -9Q237 -9 186.5 11Q136 31 100 67.5Q64 104 44 154.5Q24 205 24 267Q24 326 44 376.5Q64 427 100 464.5Q136 502 186 523Q236 544 295 544Q359 544 405 521Q451 498 477 467V731H572V0H482ZM120 267Q120 225 133.5 190Q147 155 171 129.5Q195 104 228 90Q261 76 300 76Q340 76 373.5 90Q407 104 431 129.5Q455 155 468 190Q481 225 481 267Q481 309 467.5 344Q454 379 430 404.5Q406 430 373 444.5Q340 459 300 459Q260 459 227 444.5Q194 430 170 404.5Q146 379 133 344Q120 309 120 267Z" glyph-name="d" horiz-adv-x="621" unicode="d" /><glyph d="M229 459V0H135V459H22V546H135V692H229V546H341V459Z" glyph-name="dagger" horiz-adv-x="364" unicode="&#8224;" /><glyph d="M139 241V459H26V546H139V692H233V546H345V459H233V241H345V155H233V0H139V155H26V241Z" glyph-name="daggerdbl" horiz-adv-x="371" unicode="&#8225;" /><glyph d="M482 79Q471 64 454 48Q437 32 413.5 19.5Q390 7 360.5 -1Q331 -9 297 -9Q237 -9 186.5 11Q136 31 100 67.5Q64 104 44 154.5Q24 205 24 267Q24 326 44 376.5Q64 427 100 464.5Q136 502 186 523Q236 544 295 544Q359 544 405 521Q451 498 477 467V731H572V0H482ZM120 267Q120 225 133.5 190Q147 155 171 129.5Q195 104 228 90Q261 76 300 76Q340 76 373.5 90Q407 104 431 129.5Q455 155 468 190Q481 225 481 267Q481 309 467.5 344Q454 379 430 404.5Q406 430 373 444.5Q340 459 300 459Q260 459 227 444.5Q194 430 170 404.5Q146 379 133 344Q120 309 120 267ZM704 731 688 577H610L624 731Z" glyph-name="dcaron" horiz-adv-x="621" unicode="&#271;" /><glyph d="M351 662H477V731H572V662H624V591H572V0H482V79Q471 64 454 48Q437 32 413.5 19.5Q390 7 360.5 -1Q331 -9 297 -9Q237 -9 186.5 11Q136 31 100 67.5Q64 104 44 154.5Q24 205 24 267Q24 326 44 376.5Q64 427 100 464.5Q136 502 186 523Q236 544 295 544Q359 544 405 521Q451 498 477 467V591H351ZM120 267Q120 225 133.5 190Q147 155 171 129.5Q195 104 228 90Q261 76 300 76Q340 76 373.5 90Q407 104 431 129.5Q455 155 468 190Q481 225 481 267Q481 309 467.5 344Q454 379 430 404.5Q406 430 373 444.5Q340 459 300 459Q260 459 227 444.5Q194 430 170 404.5Q146 379 133 344Q120 309 120 267Z" glyph-name="dcroat" horiz-adv-x="628" unicode="&#273;" /><glyph d="M22 552Q22 583 33 611Q44 639 64 659Q84 679 112 691Q140 703 174 703Q209 703 237.5 691.5Q266 680 286 659.5Q306 639 316.5 612Q327 585 327 554Q327 522 316 494.5Q305 467 285.5 446.5Q266 426 237.5 414.5Q209 403 175 403Q140 403 111.5 414.5Q83 426 63 446.5Q43 467 32.5 494Q22 521 22 552ZM94 552Q94 517 115.5 493Q137 469 175 469Q213 469 234 493.5Q255 518 255 553Q255 589 233.5 613Q212 637 174 637Q137 637 115.5 612.5Q94 588 94 552Z" glyph-name="degree" horiz-adv-x="349" unicode="&#176;" /><glyph d="M158 590Q133 590 116 607Q99 624 99 649Q99 674 116 691Q133 708 158 708Q184 708 201.5 691Q219 674 219 649Q219 624 201 607Q183 590 158 590ZM329 590Q303 590 286 607Q269 624 269 649Q269 674 286 691Q303 708 329 708Q354 708 371.5 691Q389 674 389 649Q389 624 371 607Q353 590 329 590Z" glyph-name="dieresis" horiz-adv-x="476" unicode="&#168;" /><glyph d="M141 736Q116 736 99 752.5Q82 769 82 795Q82 820 99 837Q116 854 141 854Q167 854 184.5 837Q202 820 202 795Q202 769 184 752.5Q166 736 141 736ZM328 736Q303 736 286 752.5Q269 769 269 795Q269 820 286 837Q303 854 328 854Q354 854 371.5 837Q389 820 389 795Q389 769 371 752.5Q353 736 328 736Z" glyph-name="dieresis.uc" horiz-adv-x="476" /><glyph d="M231 104Q205 104 186.5 122.5Q168 141 168 167Q168 193 186 211.5Q204 230 231 230Q258 230 275.5 211.5Q293 193 293 167Q293 141 275 122.5Q257 104 231 104ZM231 440Q205 440 186.5 458Q168 476 168 503Q168 529 186 547Q204 565 231 565Q258 565 275.5 547Q293 529 293 503Q293 476 275 458Q257 440 231 440ZM24 377H439V297H24Z" glyph-name="divide" horiz-adv-x="462" unicode="&#247;" /><glyph d="M277 702Q320 696 350 678Q380 660 398 634Q416 608 424 576Q432 544 431 510H349Q347 552 329.5 581.5Q312 611 277 623V399Q291 394 307.5 386.5Q324 379 334 374Q390 345 422.5 302Q455 259 455 186Q455 147 442.5 113.5Q430 80 406.5 54.5Q383 29 350 12.5Q317 -4 277 -9V-68H205V-10Q156 -4 122 15.5Q88 35 67 64.5Q46 94 36.5 131Q27 168 28 207H116Q117 156 137 118.5Q157 81 205 70V326Q191 331 175 338.5Q159 346 151 351Q100 377 70.5 418.5Q41 460 41 528Q41 561 52.5 590.5Q64 620 85 643.5Q106 667 136.5 682.5Q167 698 205 703V762H277ZM281 293Q279 293 277 295V70Q315 79 338.5 107Q362 135 362 180Q362 202 356.5 219Q351 236 340.5 249Q330 262 315 272.5Q300 283 281 293ZM131 529Q131 491 150.5 468Q170 445 205 428V626Q169 618 150 592Q131 566 131 529Z" glyph-name="dollar" horiz-adv-x="483" unicode="$" /><glyph d="M202 589Q176 589 158 606.5Q140 624 140 650Q140 676 157.5 693.5Q175 711 201 711Q227 711 245 693.5Q263 676 263 650Q263 624 245.5 606.5Q228 589 202 589Z" glyph-name="dotaccent" horiz-adv-x="400" unicode="&#729;" /><glyph d="M202 741Q176 741 158 758.5Q140 776 140 802Q140 828 157.5 845.5Q175 863 201 863Q227 863 245 845.5Q263 828 263 802Q263 776 245.5 758.5Q228 741 202 741Z" glyph-name="dotaccent.uc" horiz-adv-x="400" /><glyph d="M144 0H49V535H144Z" glyph-name="dotlessi" horiz-adv-x="192" unicode="&#305;" /><glyph d="M122 239Q127 163 173 119.5Q219 76 295 76Q359 76 397.5 105Q436 134 462 182L535 144Q522 113 500.5 85.5Q479 58 449 37Q419 16 380.5 3.5Q342 -9 295 -9Q235 -9 185 10.5Q135 30 99 66Q63 102 43.5 152.5Q24 203 24 266Q24 327 43.5 378Q63 429 97.5 466Q132 503 180 523.5Q228 544 285 544Q344 544 392 525.5Q440 507 474 473Q508 439 527 390.5Q546 342 547 282Q547 274 547 262.5Q547 251 545 239ZM284 462Q218 462 176 423Q134 384 125 316H448Q443 382 398.5 422Q354 462 284 462Z" glyph-name="e" horiz-adv-x="566" unicode="e" /><glyph d="M122 239Q127 163 173 119.5Q219 76 295 76Q359 76 397.5 105Q436 134 462 182L535 144Q522 113 500.5 85.5Q479 58 449 37Q419 16 380.5 3.5Q342 -9 295 -9Q235 -9 185 10.5Q135 30 99 66Q63 102 43.5 152.5Q24 203 24 266Q24 327 43.5 378Q63 429 97.5 466Q132 503 180 523.5Q228 544 285 544Q344 544 392 525.5Q440 507 474 473Q508 439 527 390.5Q546 342 547 282Q547 274 547 262.5Q547 251 545 239ZM284 462Q218 462 176 423Q134 384 125 316H448Q443 382 398.5 422Q354 462 284 462ZM412 714 332 579H240L318 714Z" glyph-name="eacute" horiz-adv-x="566" unicode="&#233;" /><glyph d="M122 239Q127 163 173 119.5Q219 76 295 76Q359 76 397.5 105Q436 134 462 182L535 144Q522 113 500.5 85.5Q479 58 449 37Q419 16 380.5 3.5Q342 -9 295 -9Q235 -9 185 10.5Q135 30 99 66Q63 102 43.5 152.5Q24 203 24 266Q24 327 43.5 378Q63 429 97.5 466Q132 503 180 523.5Q228 544 285 544Q344 544 392 525.5Q440 507 474 473Q508 439 527 390.5Q546 342 547 282Q547 274 547 262.5Q547 251 545 239ZM284 462Q218 462 176 423Q134 384 125 316H448Q443 382 398.5 422Q354 462 284 462ZM286 571Q247 571 220.5 584Q194 597 178 617Q162 637 155 660.5Q148 684 148 704H222Q222 693 225.5 682Q229 671 236 661Q243 651 255.5 645Q268 639 286 639Q304 639 316 645Q328 651 335.5 661Q343 671 346.5 682Q350 693 350 704H422Q422 683 415 660Q408 637 392 617Q376 597 350 584Q324 571 286 571Z" glyph-name="ebreve" horiz-adv-x="566" unicode="&#277;" /><glyph d="M122 239Q127 163 173 119.5Q219 76 295 76Q359 76 397.5 105Q436 134 462 182L535 144Q522 113 500.5 85.5Q479 58 449 37Q419 16 380.5 3.5Q342 -9 295 -9Q235 -9 185 10.5Q135 30 99 66Q63 102 43.5 152.5Q24 203 24 266Q24 327 43.5 378Q63 429 97.5 466Q132 503 180 523.5Q228 544 285 544Q344 544 392 525.5Q440 507 474 473Q508 439 527 390.5Q546 342 547 282Q547 274 547 262.5Q547 251 545 239ZM284 462Q218 462 176 423Q134 384 125 316H448Q443 382 398.5 422Q354 462 284 462ZM238 578 137 718H224L286 638L348 718H435L333 578Z" glyph-name="ecaron" horiz-adv-x="566" unicode="&#283;" /><glyph d="M122 239Q127 163 173 119.5Q219 76 295 76Q359 76 397.5 105Q436 134 462 182L535 144Q522 113 500.5 85.5Q479 58 449 37Q419 16 380.5 3.5Q342 -9 295 -9Q235 -9 185 10.5Q135 30 99 66Q63 102 43.5 152.5Q24 203 24 266Q24 327 43.5 378Q63 429 97.5 466Q132 503 180 523.5Q228 544 285 544Q344 544 392 525.5Q440 507 474 473Q508 439 527 390.5Q546 342 547 282Q547 274 547 262.5Q547 251 545 239ZM284 462Q218 462 176 423Q134 384 125 316H448Q443 382 398.5 422Q354 462 284 462ZM332 715 434 575H347L285 654L223 575H136L237 715Z" glyph-name="ecircumflex" horiz-adv-x="566" unicode="&#234;" /><glyph d="M122 239Q127 163 173 119.5Q219 76 295 76Q359 76 397.5 105Q436 134 462 182L535 144Q522 113 500.5 85.5Q479 58 449 37Q419 16 380.5 3.5Q342 -9 295 -9Q235 -9 185 10.5Q135 30 99 66Q63 102 43.5 152.5Q24 203 24 266Q24 327 43.5 378Q63 429 97.5 466Q132 503 180 523.5Q228 544 285 544Q344 544 392 525.5Q440 507 474 473Q508 439 527 390.5Q546 342 547 282Q547 274 547 262.5Q547 251 545 239ZM284 462Q218 462 176 423Q134 384 125 316H448Q443 382 398.5 422Q354 462 284 462ZM199 590Q174 590 157 607Q140 624 140 649Q140 674 157 691Q174 708 199 708Q225 708 242.5 691Q260 674 260 649Q260 624 242 607Q224 590 199 590ZM370 590Q344 590 327 607Q310 624 310 649Q310 674 327 691Q344 708 370 708Q395 708 412.5 691Q430 674 430 649Q430 624 412 607Q394 590 370 590Z" glyph-name="edieresis" horiz-adv-x="566" unicode="&#235;" /><glyph d="M122 239Q127 163 173 119.5Q219 76 295 76Q359 76 397.5 105Q436 134 462 182L535 144Q522 113 500.5 85.5Q479 58 449 37Q419 16 380.5 3.5Q342 -9 295 -9Q235 -9 185 10.5Q135 30 99 66Q63 102 43.5 152.5Q24 203 24 266Q24 327 43.5 378Q63 429 97.5 466Q132 503 180 523.5Q228 544 285 544Q344 544 392 525.5Q440 507 474 473Q508 439 527 390.5Q546 342 547 282Q547 274 547 262.5Q547 251 545 239ZM284 462Q218 462 176 423Q134 384 125 316H448Q443 382 398.5 422Q354 462 284 462ZM285 589Q259 589 241 606.5Q223 624 223 650Q223 676 240.5 693.5Q258 711 284 711Q310 711 328 693.5Q346 676 346 650Q346 624 328.5 606.5Q311 589 285 589Z" glyph-name="edotaccent" horiz-adv-x="566" unicode="&#279;" /><glyph d="M122 239Q127 163 173 119.5Q219 76 295 76Q359 76 397.5 105Q436 134 462 182L535 144Q522 113 500.5 85.5Q479 58 449 37Q419 16 380.5 3.5Q342 -9 295 -9Q235 -9 185 10.5Q135 30 99 66Q63 102 43.5 152.5Q24 203 24 266Q24 327 43.5 378Q63 429 97.5 466Q132 503 180 523.5Q228 544 285 544Q344 544 392 525.5Q440 507 474 473Q508 439 527 390.5Q546 342 547 282Q547 274 547 262.5Q547 251 545 239ZM284 462Q218 462 176 423Q134 384 125 316H448Q443 382 398.5 422Q354 462 284 462ZM261 714 337 579H246L167 714Z" glyph-name="egrave" horiz-adv-x="566" unicode="&#232;" /><glyph d="M136 510Q136 462 166 431Q196 400 245 400Q294 400 324 431Q354 462 354 510Q354 558 324 588.5Q294 619 245 619Q195 619 165.5 588.5Q136 558 136 510ZM37 513Q37 552 50.5 587Q64 622 90.5 648.5Q117 675 156 690.5Q195 706 245 706Q295 706 333.5 690.5Q372 675 398.5 649Q425 623 438.5 588Q452 553 452 513Q452 459 428 420.5Q404 382 368 360Q413 337 439 295Q465 253 465 191Q465 149 449.5 112Q434 75 405.5 47.5Q377 20 336 3.5Q295 -13 244 -13Q191 -13 150.5 3Q110 19 81.5 46.5Q53 74 38.5 111Q24 148 24 191Q24 252 50.5 294Q77 336 119 359Q84 382 60.5 420.5Q37 459 37 513ZM125 194Q125 142 157.5 108Q190 74 244 74Q298 74 331.5 107.5Q365 141 365 194Q365 248 331.5 281.5Q298 315 244 315Q187 315 156 281Q125 247 125 194Z" glyph-name="eight" horiz-adv-x="490" unicode="8" /><glyph d="M30 265Q30 285 37.5 303.5Q45 322 59.5 336Q74 350 96 358.5Q118 367 148 367Q208 367 238 337Q268 307 268 265Q268 237 257 217Q246 197 226 186Q275 163 275 102Q275 57 243 25Q211 -7 148 -8Q85 -7 54 24.5Q23 56 23 101Q23 129 35 151Q47 173 71 186Q53 197 41.5 216.5Q30 236 30 265ZM103 260Q103 240 116 226.5Q129 213 149 213Q169 213 182 226.5Q195 240 195 260Q195 281 182 294.5Q169 308 149 308Q128 308 115.5 294.5Q103 281 103 260ZM98 104Q98 81 112 66Q126 51 149 51Q171 51 185.5 65.5Q200 80 200 104Q200 127 185.5 141Q171 155 149 155Q126 155 112 141Q98 127 98 104Z" glyph-name="eight.den" horiz-adv-x="298" /><glyph d="M30 599Q30 619 37.5 637.5Q45 656 59.5 670Q74 684 96 692.5Q118 701 148 701Q208 701 238 671Q268 641 268 599Q268 571 257 551Q246 531 226 520Q275 497 275 436Q275 391 243 359Q211 327 148 326Q85 327 54 358.5Q23 390 23 435Q23 463 35 485Q47 507 71 520Q53 531 41.5 550.5Q30 570 30 599ZM103 594Q103 574 116 560.5Q129 547 149 547Q169 547 182 560.5Q195 574 195 594Q195 615 182 628.5Q169 642 149 642Q128 642 115.5 628.5Q103 615 103 594ZM98 438Q98 415 112 400Q126 385 149 385Q171 385 185.5 399.5Q200 414 200 438Q200 461 185.5 475Q171 489 149 489Q126 489 112 475Q98 461 98 438Z" glyph-name="eight.num" horiz-adv-x="298" /><glyph d="M478 -9Q450 -9 431 10Q412 29 412 58Q412 87 430.5 106Q449 125 478 125Q507 125 526 106Q545 87 545 58Q545 29 526 10Q507 -9 478 -9ZM284 -9Q256 -9 237 10Q218 29 218 58Q218 87 236.5 106Q255 125 284 125Q313 125 332 106Q351 87 351 58Q351 29 332 10Q313 -9 284 -9ZM91 -9Q63 -9 44 10Q25 29 25 58Q25 87 43.5 106Q62 125 91 125Q120 125 139 106Q158 87 158 58Q158 29 139 10Q120 -9 91 -9Z" glyph-name="ellipsis" horiz-adv-x="570" unicode="&#8230;" /><glyph d="M122 239Q127 163 173 119.5Q219 76 295 76Q359 76 397.5 105Q436 134 462 182L535 144Q522 113 500.5 85.5Q479 58 449 37Q419 16 380.5 3.5Q342 -9 295 -9Q235 -9 185 10.5Q135 30 99 66Q63 102 43.5 152.5Q24 203 24 266Q24 327 43.5 378Q63 429 97.5 466Q132 503 180 523.5Q228 544 285 544Q344 544 392 525.5Q440 507 474 473Q508 439 527 390.5Q546 342 547 282Q547 274 547 262.5Q547 251 545 239ZM284 462Q218 462 176 423Q134 384 125 316H448Q443 382 398.5 422Q354 462 284 462ZM170 670H400V597H170Z" glyph-name="emacron" horiz-adv-x="566" unicode="&#275;" /><glyph d="M36 244V324H901V244Z" glyph-name="emdash" horiz-adv-x="937" unicode="&#8212;" /><glyph d="M36 281V361H901V281Z" glyph-name="emdash.uc" horiz-adv-x="937" /><glyph d="M36 244V324H569V244Z" glyph-name="endash" horiz-adv-x="605" unicode="&#8211;" /><glyph d="M36 281V361H569V281Z" glyph-name="endash.uc" horiz-adv-x="605" /><glyph d="M432 -11Q432 -48 424.5 -78.5Q417 -109 399 -130.5Q381 -152 351.5 -163.5Q322 -175 279 -175H248V-93H270Q292 -93 305 -86.5Q318 -80 325 -69Q332 -58 334.5 -43.5Q337 -29 337 -12V344Q337 397 314 427Q291 457 242 457Q194 457 169 425.5Q144 394 144 341V0H49V535H144V487Q150 495 160 504.5Q170 514 185 522Q200 530 220 535.5Q240 541 265 541Q311 541 342.5 526Q374 511 394 485.5Q414 460 423 426Q432 392 432 353Z" glyph-name="eng" horiz-adv-x="479" unicode="&#331;" /><glyph d="M295 -9Q235 -9 185 10.5Q135 30 99 66Q63 102 43.5 152.5Q24 203 24 266Q24 327 43.5 378Q63 429 97.5 466Q132 503 180 523.5Q228 544 285 544Q344 544 392 525.5Q440 507 474 473Q508 439 527 390.5Q546 342 547 282Q547 274 547 262.5Q547 251 545 239H122Q127 163 173 119.5Q219 76 295 76Q359 76 397.5 105Q436 134 462 182L535 144Q522 115 503 89Q484 63 456 40Q420 10 405.5 -13Q391 -36 391 -59Q391 -86 411 -96.5Q431 -107 462 -107V-175Q421 -177 391 -171Q361 -165 341.5 -152Q322 -139 312.5 -121.5Q303 -104 303 -83Q303 -63 312 -43Q321 -23 338 -6Q317 -9 295 -9ZM284 462Q218 462 176 423Q134 384 125 316H448Q443 382 398.5 422Q354 462 284 462Z" glyph-name="eogonek" horiz-adv-x="566" unicode="&#281;" /><glyph d="M29 449H444V372H29ZM29 292H444V215H29Z" glyph-name="equal" horiz-adv-x="474" unicode="=" /><glyph d="M306 677 416 711 436 642 362 620 459 522Q519 462 548.5 402Q578 342 578 269Q578 209 557 158Q536 107 499.5 70Q463 33 412.5 12Q362 -9 302 -9Q242 -9 191.5 10.5Q141 30 103.5 66Q66 102 45 152.5Q24 203 24 265Q24 328 45.5 378Q67 428 104 463.5Q141 499 190 517.5Q239 536 295 536Q304 536 313 535Q322 534 328 532L272 593L142 554L121 622L218 651L144 731H254ZM120 265Q120 223 133.5 188.5Q147 154 171 129Q195 104 228.5 90Q262 76 301 76Q341 76 374 90Q407 104 431 129Q455 154 468 188.5Q481 223 481 265Q481 306 467.5 341Q454 376 430 401.5Q406 427 373 441.5Q340 456 300 456Q260 456 227 442Q194 428 170 402.5Q146 377 133 342Q120 307 120 265Z" glyph-name="eth" horiz-adv-x="601" unicode="&#240;" /><glyph d="M155 172H58V692H155ZM107 -8Q79 -8 59.5 11Q40 30 40 58Q40 86 59.5 105Q79 124 107 124Q134 124 153.5 105Q173 86 173 58Q173 30 153.5 11Q134 -8 107 -8Z" glyph-name="exclam" horiz-adv-x="212" unicode="!" /><glyph d="M155 -103H58V420H155ZM106 599Q134 599 153.5 579.5Q173 560 173 532Q173 504 153.5 485Q134 466 106 466Q78 466 59 485Q40 504 40 532Q40 560 59 579.5Q78 599 106 599Z" glyph-name="exclamdown" horiz-adv-x="212" unicode="&#161;" /><glyph d="M152 0H56V523H152ZM103 702Q131 702 150.5 682.5Q170 663 170 635Q170 607 150.5 588Q131 569 103 569Q76 569 56.5 588Q37 607 37 635Q37 663 56.5 682.5Q76 702 103 702Z" glyph-name="exclamdown.uc" horiz-adv-x="207" /><glyph d="M160 535H252V454H160V0H65V454H11V535H65V569Q65 606 73 636Q81 666 99 687Q117 708 146.5 719.5Q176 731 219 731H254V650H228Q207 650 193.5 643.5Q180 637 172.5 626Q165 615 162.5 600.5Q160 586 160 569Z" glyph-name="f" horiz-adv-x="266" unicode="f" /><glyph d="M160 535H245V454H160V0H65V454H11V535H65V569Q65 606 73 636Q81 666 99 687Q117 708 146.5 719.5Q176 731 219 731H247V650H228Q207 650 193.5 643.5Q180 637 172.5 626Q165 615 162.5 600.5Q160 586 160 569Z" glyph-name="f.short" horiz-adv-x="259" /><glyph d="M301 569Q301 606 309 636Q317 666 335 687Q353 708 382 719.5Q411 731 454 731H490V650H464Q442 650 429 643.5Q416 637 408.5 626Q401 615 398.5 600.5Q396 586 396 569V535H488V454H396V0H301V454H160V0H65V454H11V535H65V569Q65 606 73 636Q81 666 99 687Q117 708 146.5 719.5Q176 731 219 731H254V650H228Q207 650 193.5 643.5Q180 637 172.5 626Q165 615 162.5 600.5Q160 586 160 569V535H301Z" glyph-name="f_f" horiz-adv-x="502" unicode="&#64256;" /><glyph d="M160 535H301V569Q301 606 309 636Q317 666 335 687Q353 708 382 719.5Q411 731 454 731H483V650H464Q442 650 429 643.5Q416 637 408.5 626Q401 615 398.5 600.5Q396 586 396 569V535H481V454H396V0H301V454H160V0H65V454H11V535H65V569Q65 606 73 636Q81 666 99 687Q117 708 146.5 719.5Q176 731 219 731H254V650H228Q207 650 193.5 643.5Q180 637 172.5 626Q165 615 162.5 600.5Q160 586 160 569Z" glyph-name="f_f.short" horiz-adv-x="495" /><glyph d="M160 535H245V454H160V0H65V454H11V535H65V569Q65 606 73 636Q81 666 99 687Q117 708 146.5 719.5Q176 731 219 731H247V650H228Q207 650 193.5 643.5Q180 637 172.5 626Q165 615 162.5 600.5Q160 586 160 569ZM402 0H307V535H402ZM354 587Q328 587 309.5 605.5Q291 624 291 650Q291 677 309.5 695Q328 713 354 713Q380 713 399 695Q418 677 418 650Q418 624 399 605.5Q380 587 354 587Z" glyph-name="f_i" horiz-adv-x="451" unicode="&#64257;" /><glyph d="M160 535H245V454H160V0H65V454H11V535H65V569Q65 606 73 636Q81 666 99 687Q117 708 146.5 719.5Q176 731 219 731H247V650H228Q207 650 193.5 643.5Q180 637 172.5 626Q165 615 162.5 600.5Q160 586 160 569ZM402 0H307V731H402Z" glyph-name="f_l" horiz-adv-x="451" unicode="&#64258;" /><glyph d="M132 194Q135 143 160.5 110.5Q186 78 244 78Q301 78 329.5 113.5Q358 149 358 209V234Q358 291 332 326Q306 361 247 361Q225 361 208 356Q191 351 179 343.5Q167 336 159 326.5Q151 317 146 307H50V692H417V603H145V411Q161 428 191 440Q221 452 263 452Q362 452 408.5 395Q455 338 455 235V210Q455 163 441.5 122Q428 81 401.5 51Q375 21 335.5 4Q296 -13 244 -13Q188 -13 148.5 3Q109 19 84 47Q59 75 47.5 112.5Q36 150 35 194Z" glyph-name="five" horiz-adv-x="485" unicode="5" /><glyph d="M99 108Q99 85 110.5 71Q122 57 148 57Q171 57 183 72Q195 87 195 110V125Q195 175 147 175Q129 175 119 168Q109 161 104 153H33V358H252V294H105V219Q112 226 127 232Q142 238 165 238Q218 238 244.5 208.5Q271 179 271 126V112Q271 59 238 25.5Q205 -8 148 -8Q112 -8 88.5 2Q65 12 51 28.5Q37 45 31 65.5Q25 86 25 108Z" glyph-name="five.den" horiz-adv-x="292" /><glyph d="M99 442Q99 419 110.5 405Q122 391 148 391Q171 391 183 406Q195 421 195 444V459Q195 509 147 509Q129 509 119 502Q109 495 104 487H33V692H252V628H105V553Q112 560 127 566Q142 572 165 572Q218 572 244.5 542.5Q271 513 271 460V446Q271 393 238 359.5Q205 326 148 326Q112 326 88.5 336Q65 346 51 362.5Q37 379 31 399.5Q25 420 25 442Z" glyph-name="five.num" horiz-adv-x="292" /><glyph d="M119 442Q119 419 130.5 405Q142 391 168 391Q191 391 203 406Q215 421 215 444V459Q215 509 167 509Q149 509 139 502Q129 495 124 487H53V692H272V628H125V553Q132 560 147 566Q162 572 185 572Q238 572 264.5 542.5Q291 513 291 460V446Q291 393 258 359.5Q225 326 168 326Q132 326 108.5 336Q85 346 71 362.5Q57 379 51 399.5Q45 420 45 442ZM476 265Q476 285 483.5 303.5Q491 322 505.5 336Q520 350 542 358.5Q564 367 594 367Q654 367 684 337Q714 307 714 265Q714 237 703 217Q692 197 672 186Q721 163 721 102Q721 57 689 25Q657 -7 594 -8Q531 -7 500 24.5Q469 56 469 101Q469 129 481 151Q493 173 517 186Q499 197 487.5 216.5Q476 236 476 265ZM549 260Q549 240 562 226.5Q575 213 595 213Q615 213 628 226.5Q641 240 641 260Q641 281 628 294.5Q615 308 595 308Q574 308 561.5 294.5Q549 281 549 260ZM544 104Q544 81 558 66Q572 51 595 51Q617 51 631.5 65.5Q646 80 646 104Q646 127 631.5 141Q617 155 595 155Q572 155 558 141Q544 127 544 104ZM165 0H83L599 692H681Z" glyph-name="fiveeighths" horiz-adv-x="763" unicode="&#8541;" /><glyph d="M198 418H281V337H183L94 -175H0L90 337H38V418H104L126 542Q140 623 177.5 658Q215 693 287 693Q289 693 294.5 693Q300 693 306 692.5Q312 692 316.5 692Q321 692 323 692V612H293Q254 612 239.5 592Q225 572 220 539Z" glyph-name="florin" horiz-adv-x="336" unicode="&#402;" /><glyph d="M409 219V0H313V219H12V303L313 692H409V306H490V219ZM117 306H313V559Z" glyph-name="four" horiz-adv-x="504" unicode="4" /><glyph d="M253 94V1H180V94H17V157L179 359H253V160H294V94ZM92 160H180V271Z" glyph-name="four.den" horiz-adv-x="307" /><glyph d="M253 427V334H180V427H17V490L179 692H253V493H294V427ZM92 493H180V604Z" glyph-name="four.num" horiz-adv-x="307" /><glyph d="M107 0H25L541 692H623Z" glyph-name="fraction" horiz-adv-x="653" unicode="&#8260;" /><glyph d="M480 535H572V91Q572 16 550.5 -36.5Q529 -89 491 -121.5Q453 -154 402 -168.5Q351 -183 292 -183Q223 -183 169 -164.5Q115 -146 83 -125L120 -50Q146 -67 190 -83.5Q234 -100 293 -100Q330 -100 363.5 -91Q397 -82 422.5 -62.5Q448 -43 462.5 -12.5Q477 18 477 61V76Q468 62 452.5 47Q437 32 414.5 19.5Q392 7 363 -1Q334 -9 298 -9Q238 -9 187.5 11Q137 31 100.5 67Q64 103 44 154Q24 205 24 267Q24 326 44.5 376.5Q65 427 101 464.5Q137 502 187 523Q237 544 296 544Q358 544 406 521Q454 498 480 463ZM120 267Q120 225 133.5 190Q147 155 171 129.5Q195 104 228 90Q261 76 300 76Q340 76 373.5 90Q407 104 431 129.5Q455 155 468 190Q481 225 481 267Q481 309 467.5 344Q454 379 430 404.5Q406 430 373 444.5Q340 459 300 459Q260 459 227 444.5Q194 430 170 404.5Q146 379 133 344Q120 309 120 267Z" glyph-name="g" horiz-adv-x="620" unicode="g" /><glyph d="M480 535H572V91Q572 16 550.5 -36.5Q529 -89 491 -121.5Q453 -154 402 -168.5Q351 -183 292 -183Q223 -183 169 -164.5Q115 -146 83 -125L120 -50Q146 -67 190 -83.5Q234 -100 293 -100Q330 -100 363.5 -91Q397 -82 422.5 -62.5Q448 -43 462.5 -12.5Q477 18 477 61V76Q468 62 452.5 47Q437 32 414.5 19.5Q392 7 363 -1Q334 -9 298 -9Q238 -9 187.5 11Q137 31 100.5 67Q64 103 44 154Q24 205 24 267Q24 326 44.5 376.5Q65 427 101 464.5Q137 502 187 523Q237 544 296 544Q358 544 406 521Q454 498 480 463ZM120 267Q120 225 133.5 190Q147 155 171 129.5Q195 104 228 90Q261 76 300 76Q340 76 373.5 90Q407 104 431 129.5Q455 155 468 190Q481 225 481 267Q481 309 467.5 344Q454 379 430 404.5Q406 430 373 444.5Q340 459 300 459Q260 459 227 444.5Q194 430 170 404.5Q146 379 133 344Q120 309 120 267ZM301 571Q262 571 235.5 584Q209 597 193 617Q177 637 170 660.5Q163 684 163 704H237Q237 693 240.5 682Q244 671 251 661Q258 651 270.5 645Q283 639 301 639Q319 639 331 645Q343 651 350.5 661Q358 671 361.5 682Q365 693 365 704H437Q437 683 430 660Q423 637 407 617Q391 597 365 584Q339 571 301 571Z" glyph-name="gbreve" horiz-adv-x="620" unicode="&#287;" /><glyph d="M480 535H572V91Q572 16 550.5 -36.5Q529 -89 491 -121.5Q453 -154 402 -168.5Q351 -183 292 -183Q223 -183 169 -164.5Q115 -146 83 -125L120 -50Q146 -67 190 -83.5Q234 -100 293 -100Q330 -100 363.5 -91Q397 -82 422.5 -62.5Q448 -43 462.5 -12.5Q477 18 477 61V76Q468 62 452.5 47Q437 32 414.5 19.5Q392 7 363 -1Q334 -9 298 -9Q238 -9 187.5 11Q137 31 100.5 67Q64 103 44 154Q24 205 24 267Q24 326 44.5 376.5Q65 427 101 464.5Q137 502 187 523Q237 544 296 544Q358 544 406 521Q454 498 480 463ZM120 267Q120 225 133.5 190Q147 155 171 129.5Q195 104 228 90Q261 76 300 76Q340 76 373.5 90Q407 104 431 129.5Q455 155 468 190Q481 225 481 267Q481 309 467.5 344Q454 379 430 404.5Q406 430 373 444.5Q340 459 300 459Q260 459 227 444.5Q194 430 170 404.5Q146 379 133 344Q120 309 120 267ZM352 715 454 575H367L305 654L243 575H156L257 715Z" glyph-name="gcircumflex" horiz-adv-x="620" unicode="&#285;" /><glyph d="M480 535H572V91Q572 16 550.5 -36.5Q529 -89 491 -121.5Q453 -154 402 -168.5Q351 -183 292 -183Q223 -183 169 -164.5Q115 -146 83 -125L120 -50Q146 -67 190 -83.5Q234 -100 293 -100Q330 -100 363.5 -91Q397 -82 422.5 -62.5Q448 -43 462.5 -12.5Q477 18 477 61V76Q468 62 452.5 47Q437 32 414.5 19.5Q392 7 363 -1Q334 -9 298 -9Q238 -9 187.5 11Q137 31 100.5 67Q64 103 44 154Q24 205 24 267Q24 326 44.5 376.5Q65 427 101 464.5Q137 502 187 523Q237 544 296 544Q358 544 406 521Q454 498 480 463ZM120 267Q120 225 133.5 190Q147 155 171 129.5Q195 104 228 90Q261 76 300 76Q340 76 373.5 90Q407 104 431 129.5Q455 155 468 190Q481 225 481 267Q481 309 467.5 344Q454 379 430 404.5Q406 430 373 444.5Q340 459 300 459Q260 459 227 444.5Q194 430 170 404.5Q146 379 133 344Q120 309 120 267ZM313 692Q334 687 347 672.5Q360 658 360 635Q360 609 343 591.5Q326 574 297 574Q268 574 251.5 592Q235 610 235 635Q235 654 241 668.5Q247 683 254 697L293 779H352Z" glyph-name="gcommaaccent" horiz-adv-x="620" unicode="&#291;" /><glyph d="M480 535H572V91Q572 16 550.5 -36.5Q529 -89 491 -121.5Q453 -154 402 -168.5Q351 -183 292 -183Q223 -183 169 -164.5Q115 -146 83 -125L120 -50Q146 -67 190 -83.5Q234 -100 293 -100Q330 -100 363.5 -91Q397 -82 422.5 -62.5Q448 -43 462.5 -12.5Q477 18 477 61V76Q468 62 452.5 47Q437 32 414.5 19.5Q392 7 363 -1Q334 -9 298 -9Q238 -9 187.5 11Q137 31 100.5 67Q64 103 44 154Q24 205 24 267Q24 326 44.5 376.5Q65 427 101 464.5Q137 502 187 523Q237 544 296 544Q358 544 406 521Q454 498 480 463ZM120 267Q120 225 133.5 190Q147 155 171 129.5Q195 104 228 90Q261 76 300 76Q340 76 373.5 90Q407 104 431 129.5Q455 155 468 190Q481 225 481 267Q481 309 467.5 344Q454 379 430 404.5Q406 430 373 444.5Q340 459 300 459Q260 459 227 444.5Q194 430 170 404.5Q146 379 133 344Q120 309 120 267ZM299 589Q273 589 255 606.5Q237 624 237 650Q237 676 254.5 693.5Q272 711 298 711Q324 711 342 693.5Q360 676 360 650Q360 624 342.5 606.5Q325 589 299 589Z" glyph-name="gdotaccent" horiz-adv-x="620" unicode="&#289;" /><glyph d="M211 81H223Q254 81 283 90Q312 99 334.5 118Q357 137 370.5 167Q384 197 384 238Q384 279 370.5 309Q357 339 334.5 358Q312 377 283 386Q254 395 224 395H211V474H226Q268 474 295 499Q322 524 322 566Q322 608 298 632.5Q274 657 232 657Q207 657 190 648Q173 639 163 624.5Q153 610 148.5 591.5Q144 573 144 553V0H49V548Q49 585 58.5 619.5Q68 654 89.5 680Q111 706 146.5 721.5Q182 737 234 737Q280 737 314.5 724Q349 711 371.5 689Q394 667 405 636.5Q416 606 416 572Q416 526 396 495.5Q376 465 349 450Q376 438 400 419.5Q424 401 442 375Q460 349 470.5 315Q481 281 481 239Q481 180 461.5 135.5Q442 91 408 60.5Q374 30 327 14.5Q280 -1 225 0H211Z" glyph-name="germandbls" horiz-adv-x="506" unicode="&#223;" /><glyph d="M216 714 292 579H201L122 714Z" glyph-name="grave" horiz-adv-x="476" unicode="`" /><glyph d="M213 855 287 729H196L118 855Z" glyph-name="grave.uc" horiz-adv-x="476" /><glyph d="M385 295 26 131V216L293 339L26 459V545L385 380Z" glyph-name="greater" horiz-adv-x="409" unicode="&gt;" /><glyph d="M99 105 16 268 99 432H184L100 268L183 105ZM247 105 164 268 247 432H332L248 268L331 105Z" glyph-name="guillemotleft" horiz-adv-x="348" unicode="&#171;" /><glyph d="M99 105 16 268 99 432H184L100 268L183 105ZM247 105 164 268 247 432H332L248 268L331 105Z" glyph-name="guillemotleft.uc" horiz-adv-x="348" /><glyph d="M100 432 184 269 100 105H16L100 269L16 432ZM248 432 332 269 248 105H164L248 269L164 432Z" glyph-name="guillemotright" horiz-adv-x="348" unicode="&#187;" /><glyph d="M100 432 184 269 100 105H16L100 269L16 432ZM248 432 332 269 248 105H164L248 269L164 432Z" glyph-name="guillemotright.uc" horiz-adv-x="348" /><glyph d="M99 105 16 268 99 432H184L100 268L183 105Z" glyph-name="guilsinglleft" horiz-adv-x="200" unicode="&#8249;" /><glyph d="M99 105 16 268 99 432H184L100 268L183 105Z" glyph-name="guilsinglleft.uc" horiz-adv-x="200" /><glyph d="M100 432 184 269 100 105H16L100 269L16 432Z" glyph-name="guilsinglright" horiz-adv-x="200" unicode="&#8250;" /><glyph d="M100 432 184 269 100 105H16L100 269L16 432Z" glyph-name="guilsinglright.uc" horiz-adv-x="200" /><glyph d="M337 343Q337 397 314 426.5Q291 456 242 456Q194 456 169 424.5Q144 393 144 340V0H49V731H144V485Q156 503 185.5 522Q215 541 265 541Q311 541 342.5 526Q374 511 394 485.5Q414 460 423 426Q432 392 432 353V0H337Z" glyph-name="h" horiz-adv-x="479" unicode="h" /><glyph d="M4 662H55V731H150V662H272V591H150V485Q162 503 191.5 522Q221 541 271 541Q317 541 348.5 526Q380 511 400 485.5Q420 460 429 426Q438 392 438 353V0H343V343Q343 397 320 426.5Q297 456 248 456Q200 456 175 424.5Q150 393 150 340V0H55V591H4Z" glyph-name="hbar" horiz-adv-x="486" unicode="&#295;" /><glyph d="M337 343Q337 397 314 426.5Q291 456 242 456Q194 456 169 424.5Q144 393 144 340V0H49V731H144V485Q156 503 185.5 522Q215 541 265 541Q311 541 342.5 526Q374 511 394 485.5Q414 460 423 426Q432 392 432 353V0H337ZM285 891 393 765H301L236 833L172 765H79L187 891Z" glyph-name="hcircumflex" horiz-adv-x="479" unicode="&#293;" /><glyph d="M209 714 144 579H55L117 714ZM360 714 293 579H205L269 714Z" glyph-name="hungarumlaut" horiz-adv-x="400" unicode="&#733;" /><glyph d="M198 855 135 729H45L106 855ZM349 855 285 729H196L258 855Z" glyph-name="hungarumlaut.uc" horiz-adv-x="400" /><glyph d="M36 331H247V241H36Z" glyph-name="hyphen" horiz-adv-x="282" unicode="-" /><glyph d="M36 368H247V278H36Z" glyph-name="hyphen.uc" horiz-adv-x="282" /><glyph d="M144 0H49V535H144ZM96 587Q70 587 51.5 605.5Q33 624 33 650Q33 677 51.5 695Q70 713 96 713Q122 713 141 695Q160 677 160 650Q160 624 141 605.5Q122 587 96 587Z" glyph-name="i" horiz-adv-x="193" unicode="i" /><glyph d="M144 0H49V535H144ZM224 714 144 579H52L130 714Z" glyph-name="iacute" horiz-adv-x="193" unicode="&#237;" /><glyph d="M144 0H49V535H144ZM98 571Q59 571 32.5 584Q6 597 -10 617Q-26 637 -33 660.5Q-40 684 -40 704H34Q34 693 37.5 682Q41 671 48 661Q55 651 67.5 645Q80 639 98 639Q116 639 128 645Q140 651 147.5 661Q155 671 158.5 682Q162 693 162 704H234Q234 683 227 660Q220 637 204 617Q188 597 162 584Q136 571 98 571Z" glyph-name="ibreve" horiz-adv-x="193" unicode="&#301;" /><glyph d="M143 715 236 575H151L96 655L42 575H-43L49 715ZM144 0H49V535H144Z" glyph-name="icircumflex" horiz-adv-x="193" unicode="&#238;" /><glyph d="M19 590Q-7 590 -24 607Q-41 624 -41 649Q-41 674 -24 691Q-7 708 19 708Q44 708 61.5 691Q79 674 79 649Q79 624 61.5 607Q44 590 19 590ZM175 590Q149 590 132 607Q115 624 115 649Q115 674 132 691Q149 708 175 708Q200 708 217.5 691Q235 674 235 649Q235 624 217 607Q199 590 175 590ZM144 0H49V535H144Z" glyph-name="idieresis" horiz-adv-x="193" unicode="&#239;" /><glyph d="M144 0H49V535H144ZM96 587Q70 587 51.5 605.5Q33 624 33 650Q33 677 51.5 695Q70 713 96 713Q122 713 141 695Q160 677 160 650Q160 624 141 605.5Q122 587 96 587Z" glyph-name="idotaccent" horiz-adv-x="193" /><glyph d="M144 0H49V535H144ZM67 714 143 579H52L-27 714Z" glyph-name="igrave" horiz-adv-x="193" unicode="&#236;" /><glyph d="M144 0H49V535H144ZM96 587Q70 587 51.5 605.5Q33 624 33 650Q33 677 51.5 695Q70 713 96 713Q122 713 141 695Q160 677 160 650Q160 624 141 605.5Q122 587 96 587ZM336 -11Q336 -48 328.5 -78.5Q321 -109 303 -130.5Q285 -152 255.5 -163.5Q226 -175 183 -175H152V-93H174Q196 -93 209 -86.5Q222 -80 229 -69Q236 -58 238.5 -43.5Q241 -29 241 -12V535H336ZM288 587Q262 587 243.5 605.5Q225 624 225 650Q225 677 243.5 695Q262 713 288 713Q314 713 333 695Q352 677 352 650Q352 624 333 605.5Q314 587 288 587Z" glyph-name="ij" horiz-adv-x="385" unicode="&#307;" /><glyph d="M-7 670H200V597H-7ZM144 0H49V535H144Z" glyph-name="imacron" horiz-adv-x="193" unicode="&#299;" /><glyph d="M144 -3Q112 -13 99.5 -28.5Q87 -44 87 -62Q87 -85 103.5 -95Q120 -105 144 -106V-175Q71 -178 35 -151Q-1 -124 -1 -80Q-1 -56 10.5 -34.5Q22 -13 49 5V535H144ZM96 587Q70 587 51.5 605.5Q33 624 33 650Q33 677 51.5 695Q70 713 96 713Q122 713 141 695Q160 677 160 650Q160 624 141 605.5Q122 587 96 587Z" glyph-name="iogonek" horiz-adv-x="193" unicode="&#303;" /><glyph d="M144 0H49V535H144ZM157 582Q137 582 122.5 588.5Q108 595 95 603.5Q82 612 70 618.5Q58 625 44 625Q28 625 21 614Q14 603 13 583H-57Q-58 632 -33 665.5Q-8 699 40 699Q60 699 75 692.5Q90 686 102.5 677.5Q115 669 126.5 662.5Q138 656 152 656Q182 656 182 699H252Q253 646 227.5 614Q202 582 157 582Z" glyph-name="itilde" horiz-adv-x="193" unicode="&#297;" /><glyph d="M144 -11Q144 -48 136.5 -78.5Q129 -109 111 -130.5Q93 -152 63.5 -163.5Q34 -175 -9 -175H-40V-93H-18Q4 -93 17 -86.5Q30 -80 37 -69Q44 -58 46.5 -43.5Q49 -29 49 -12V535H144ZM96 587Q70 587 51.5 605.5Q33 624 33 650Q33 677 51.5 695Q70 713 96 713Q122 713 141 695Q160 677 160 650Q160 624 141 605.5Q122 587 96 587Z" glyph-name="j" horiz-adv-x="193" unicode="j" /><glyph d="M144 -11Q144 -48 136.5 -78.5Q129 -109 111 -130.5Q93 -152 63.5 -163.5Q34 -175 -9 -175H-40V-93H-18Q4 -93 17 -86.5Q30 -80 37 -69Q44 -58 46.5 -43.5Q49 -29 49 -12V535H144ZM145 715 247 575H160L98 654L36 575H-51L50 715Z" glyph-name="jcircumflex" horiz-adv-x="193" unicode="&#309;" /><glyph d="M236 286 463 0H346L144 251V0H49V731H144V309L340 535H455Z" glyph-name="k" horiz-adv-x="463" unicode="k" /><glyph d="M451 0H339L145 215V0H50V731H145V499Q158 513 186 527.5Q214 542 257 542Q298 542 331 529Q364 516 387.5 492.5Q411 469 423.5 437Q436 405 436 366Q436 329 424 299Q412 269 391 246.5Q370 224 341.5 211Q313 198 280 195ZM344 361Q344 405 317 434Q290 463 244 463Q199 463 170.5 434.5Q142 406 142 361Q142 316 170.5 288Q199 260 244 260Q289 260 316.5 289Q344 318 344 361Z" glyph-name="k.alt" horiz-adv-x="462" /><glyph d="M236 286 463 0H346L144 251V0H49V731H144V309L340 535H455ZM225 -156Q204 -151 191 -135.5Q178 -120 178 -97Q178 -71 195.5 -54Q213 -37 241 -37Q270 -37 286.5 -55Q303 -73 303 -99Q303 -117 297 -132Q291 -147 284 -161L245 -242H186Z" glyph-name="kcommaaccent" horiz-adv-x="463" unicode="&#311;" /><glyph d="M225 -156Q204 -151 191 -135.5Q178 -120 178 -97Q178 -71 195.5 -54Q213 -37 241 -37Q270 -37 286.5 -55Q303 -73 303 -99Q303 -117 297 -132Q291 -147 284 -161L245 -242H186ZM451 0H339L145 215V0H50V731H145V499Q158 513 186 527.5Q214 542 257 542Q298 542 331 529Q364 516 387.5 492.5Q411 469 423.5 437Q436 405 436 366Q436 329 424 299Q412 269 391 246.5Q370 224 341.5 211Q313 198 280 195ZM344 361Q344 405 317 434Q290 463 244 463Q199 463 170.5 434.5Q142 406 142 361Q142 316 170.5 288Q199 260 244 260Q289 260 316.5 289Q344 318 344 361Z" glyph-name="kcommaaccent.alt" horiz-adv-x="462" /><glyph d="M144 0H49V731H144Z" glyph-name="l" horiz-adv-x="193" unicode="l" /><glyph d="M144 0H49V731H144ZM222 891 144 765H51L126 891Z" glyph-name="lacute" horiz-adv-x="193" unicode="&#314;" /><glyph d="M144 0H49V731H144ZM277 731 261 577H183L197 731Z" glyph-name="lcaron" horiz-adv-x="193" unicode="&#318;" /><glyph d="M144 0H49V731H144ZM81 -156Q60 -151 47 -135.5Q34 -120 34 -97Q34 -71 51.5 -54Q69 -37 97 -37Q126 -37 142.5 -55Q159 -73 159 -99Q159 -117 153 -132Q147 -147 140 -161L101 -242H42Z" glyph-name="lcommaaccent" horiz-adv-x="193" unicode="&#316;" /><glyph d="M181 354Q181 381 199.5 399.5Q218 418 245 418Q272 418 290.5 399.5Q309 381 309 354Q309 327 290.5 308.5Q272 290 245 290Q218 290 199.5 308.5Q181 327 181 354ZM144 0H49V731H144Z" glyph-name="ldot" horiz-adv-x="299" unicode="&#320;" /><glyph d="M25 380 387 545V459L116 339L387 216V131L25 295Z" glyph-name="less" horiz-adv-x="413" unicode="&lt;" /><glyph d="M153 499 205 535V438L153 402V0H58V338L9 305V399L58 433V731H153Z" glyph-name="lslash" horiz-adv-x="212" unicode="&#322;" /><glyph d="M423 0H328V343Q328 395 306 425.5Q284 456 238 456Q190 456 167 423.5Q144 391 144 337V0H49V535H144V487Q150 496 160 505.5Q170 515 184.5 523Q199 531 218.5 536Q238 541 263 541Q316 541 347.5 520.5Q379 500 395 470Q413 499 446 520Q479 541 532 541Q578 541 611 526.5Q644 512 664 486.5Q684 461 693.5 427.5Q703 394 703 355V0H608V344Q608 396 586 426Q564 456 517 456Q471 456 447.5 425Q424 394 423 344Z" glyph-name="m" horiz-adv-x="750" unicode="m" /><glyph d="M85 670H315V597H85Z" glyph-name="macron" horiz-adv-x="400" unicode="&#175;" /><glyph d="M126 818H366V745H126Z" glyph-name="macron.uc" horiz-adv-x="476" /><glyph d="M24 377H439V297H24Z" glyph-name="minus" horiz-adv-x="462" unicode="&#8722;" /><glyph d="M77 519 203 392 329 518 385 462 259 335 387 207 330 151 202 278 76 152 20 208 146 334 19 461Z" glyph-name="multiply" horiz-adv-x="406" unicode="&#215;" /><glyph d="M337 343Q337 397 314 426.5Q291 456 242 456Q194 456 169 424.5Q144 393 144 340V0H49V535H144V487Q150 495 160 504.5Q170 514 185 522Q200 530 220 535.5Q240 541 265 541Q311 541 342.5 526Q374 511 394 485.5Q414 460 423 426Q432 392 432 353V0H337Z" glyph-name="n" horiz-adv-x="479" unicode="n" /><glyph d="M337 343Q337 397 314 426.5Q291 456 242 456Q194 456 169 424.5Q144 393 144 340V0H49V535H144V487Q150 495 160 504.5Q170 514 185 522Q200 530 220 535.5Q240 541 265 541Q311 541 342.5 526Q374 511 394 485.5Q414 460 423 426Q432 392 432 353V0H337ZM363 714 283 579H191L269 714Z" glyph-name="nacute" horiz-adv-x="479" unicode="&#324;" /><glyph d="M337 343Q337 397 314 426.5Q291 456 242 456Q194 456 169 424.5Q144 393 144 340V0H49V535H144V487Q150 495 160 504.5Q170 514 185 522Q200 530 220 535.5Q240 541 265 541Q311 541 342.5 526Q374 511 394 485.5Q414 460 423 426Q432 392 432 353V0H337ZM329 714 285 579H202L245 714Z" glyph-name="nacute.pl" horiz-adv-x="479" /><glyph d="M431 343Q431 397 408 426.5Q385 456 336 456Q288 456 263 424.5Q238 393 238 340V0H143V535H238V487Q244 495 254 504.5Q264 514 279 522Q294 530 314 535.5Q334 541 359 541Q405 541 436.5 526Q468 511 488 485.5Q508 460 517 426Q526 392 526 353V0H431ZM42 573Q20 579 6.5 594.5Q-7 610 -7 633Q-7 662 11.5 680.5Q30 699 59 699Q88 699 106.5 680.5Q125 662 125 633Q125 616 120 601.5Q115 587 106 567L64 469H-3Z" glyph-name="napostrophe" horiz-adv-x="573" unicode="&#329;" /><glyph d="M337 343Q337 397 314 426.5Q291 456 242 456Q194 456 169 424.5Q144 393 144 340V0H49V535H144V487Q150 495 160 504.5Q170 514 185 522Q200 530 220 535.5Q240 541 265 541Q311 541 342.5 526Q374 511 394 485.5Q414 460 423 426Q432 392 432 353V0H337ZM192 578 91 718H178L240 638L302 718H389L287 578Z" glyph-name="ncaron" horiz-adv-x="479" unicode="&#328;" /><glyph d="M337 343Q337 397 314 426.5Q291 456 242 456Q194 456 169 424.5Q144 393 144 340V0H49V535H144V487Q150 495 160 504.5Q170 514 185 522Q200 530 220 535.5Q240 541 265 541Q311 541 342.5 526Q374 511 394 485.5Q414 460 423 426Q432 392 432 353V0H337ZM229 -156Q208 -151 195 -135.5Q182 -120 182 -97Q182 -71 199.5 -54Q217 -37 245 -37Q274 -37 290.5 -55Q307 -73 307 -99Q307 -117 301 -132Q295 -147 288 -161L249 -242H190Z" glyph-name="ncommaaccent" horiz-adv-x="479" unicode="&#326;" /><glyph d="M120 134Q138 111 164.5 94.5Q191 78 237 78Q305 78 332 117Q359 156 359 218V287Q344 265 312 248.5Q280 232 235 232Q133 232 83 288.5Q33 345 33 449V486Q33 533 47 573.5Q61 614 87.5 643.5Q114 673 153.5 689.5Q193 706 244 706Q352 706 404.5 646.5Q457 587 457 487V220Q457 170 444.5 127.5Q432 85 406 54Q380 23 338.5 5Q297 -13 239 -13Q200 -13 170 -5Q140 3 117.5 15.5Q95 28 79.5 44Q64 60 53 76ZM246 323Q303 323 330.5 356Q358 389 360 443V487Q360 545 332 580Q304 615 244 615Q186 615 158.5 579Q131 543 131 487V447Q131 390 158.5 356.5Q186 323 246 323Z" glyph-name="nine" horiz-adv-x="503" unicode="9" /><glyph d="M86 87Q93 78 106.5 67.5Q120 57 142 57Q170 57 182.5 73.5Q195 90 195 116V139Q187 131 171.5 124.5Q156 118 136 118Q81 118 50.5 148.5Q20 179 20 232V247Q20 299 52 333Q84 367 144 367Q177 367 200.5 357Q224 347 239.5 330.5Q255 314 262 291Q269 268 269 243V120Q269 94 261.5 70.5Q254 47 238.5 29.5Q223 12 199 2Q175 -8 142 -8Q97 -8 71.5 8.5Q46 25 35 42ZM195 247Q195 270 182.5 286Q170 302 144 302Q120 302 106.5 287Q93 272 93 247V232Q93 209 106 194Q119 179 143 179Q169 179 182 194.5Q195 210 195 230Z" glyph-name="nine.den" horiz-adv-x="297" /><glyph d="M86 421Q93 412 106.5 401.5Q120 391 142 391Q170 391 182.5 407.5Q195 424 195 450V473Q187 465 171.5 458.5Q156 452 136 452Q81 452 50.5 482.5Q20 513 20 566V581Q20 633 52 667Q84 701 144 701Q177 701 200.5 691Q224 681 239.5 664.5Q255 648 262 625Q269 602 269 577V454Q269 428 261.5 404.5Q254 381 238.5 363.5Q223 346 199 336Q175 326 142 326Q97 326 71.5 342.5Q46 359 35 376ZM195 581Q195 604 182.5 620Q170 636 144 636Q120 636 106.5 621Q93 606 93 581V566Q93 543 106 528Q119 513 143 513Q169 513 182 528.5Q195 544 195 564Z" glyph-name="nine.num" horiz-adv-x="297" /><glyph glyph-name="nonmarkingreturn" horiz-adv-x="154" unicode="" /><glyph d="M337 343Q337 397 314 426.5Q291 456 242 456Q194 456 169 424.5Q144 393 144 340V0H49V535H144V487Q150 495 160 504.5Q170 514 185 522Q200 530 220 535.5Q240 541 265 541Q311 541 342.5 526Q374 511 394 485.5Q414 460 423 426Q432 392 432 353V0H337ZM298 582Q278 582 263.5 588.5Q249 595 236 603.5Q223 612 211 618.5Q199 625 185 625Q169 625 162 614Q155 603 154 583H84Q83 632 108 665.5Q133 699 181 699Q201 699 216 692.5Q231 686 243.5 677.5Q256 669 267.5 662.5Q279 656 293 656Q323 656 323 699H393Q394 646 368.5 614Q343 582 298 582Z" glyph-name="ntilde" horiz-adv-x="479" unicode="&#241;" /><glyph d="M395 187 350 0H262L307 187H191L146 0H58L103 187H17V267H123L168 450H80V530H187L227 692H315L275 530H390L429 692H517L478 530H565V450H458L414 267H502V187ZM211 267H326L370 450H256Z" glyph-name="numbersign" horiz-adv-x="581" unicode="#" /><glyph d="M120 267Q120 225 133.5 190.5Q147 156 171 130.5Q195 105 228 91Q261 77 300 77Q340 77 373 91Q406 105 430 130.5Q454 156 467 190.5Q480 225 480 267Q480 308 466.5 343Q453 378 429 403.5Q405 429 372 443.5Q339 458 300 458Q260 458 227 444Q194 430 170 404.5Q146 379 133 344Q120 309 120 267ZM24 267Q24 328 45 378.5Q66 429 103 466Q140 503 190.5 523.5Q241 544 300 544Q360 544 411 523.5Q462 503 498.5 466Q535 429 555.5 378.5Q576 328 576 268Q576 208 555 157Q534 106 497 69.5Q460 33 409 12Q358 -9 299 -9Q239 -9 188.5 11Q138 31 101.5 67.5Q65 104 44.5 155Q24 206 24 267Z" glyph-name="o" horiz-adv-x="600" unicode="o" /><glyph d="M120 267Q120 225 133.5 190.5Q147 156 171 130.5Q195 105 228 91Q261 77 300 77Q340 77 373 91Q406 105 430 130.5Q454 156 467 190.5Q480 225 480 267Q480 308 466.5 343Q453 378 429 403.5Q405 429 372 443.5Q339 458 300 458Q260 458 227 444Q194 430 170 404.5Q146 379 133 344Q120 309 120 267ZM24 267Q24 328 45 378.5Q66 429 103 466Q140 503 190.5 523.5Q241 544 300 544Q360 544 411 523.5Q462 503 498.5 466Q535 429 555.5 378.5Q576 328 576 268Q576 208 555 157Q534 106 497 69.5Q460 33 409 12Q358 -9 299 -9Q239 -9 188.5 11Q138 31 101.5 67.5Q65 104 44.5 155Q24 206 24 267ZM418 714 338 579H246L324 714Z" glyph-name="oacute" horiz-adv-x="600" unicode="&#243;" /><glyph d="M120 267Q120 225 133.5 190.5Q147 156 171 130.5Q195 105 228 91Q261 77 300 77Q340 77 373 91Q406 105 430 130.5Q454 156 467 190.5Q480 225 480 267Q480 308 466.5 343Q453 378 429 403.5Q405 429 372 443.5Q339 458 300 458Q260 458 227 444Q194 430 170 404.5Q146 379 133 344Q120 309 120 267ZM24 267Q24 328 45 378.5Q66 429 103 466Q140 503 190.5 523.5Q241 544 300 544Q360 544 411 523.5Q462 503 498.5 466Q535 429 555.5 378.5Q576 328 576 268Q576 208 555 157Q534 106 497 69.5Q460 33 409 12Q358 -9 299 -9Q239 -9 188.5 11Q138 31 101.5 67.5Q65 104 44.5 155Q24 206 24 267ZM385 714 341 579H258L301 714Z" glyph-name="oacute.pl" horiz-adv-x="600" /><glyph d="M120 267Q120 225 133.5 190.5Q147 156 171 130.5Q195 105 228 91Q261 77 300 77Q340 77 373 91Q406 105 430 130.5Q454 156 467 190.5Q480 225 480 267Q480 308 466.5 343Q453 378 429 403.5Q405 429 372 443.5Q339 458 300 458Q260 458 227 444Q194 430 170 404.5Q146 379 133 344Q120 309 120 267ZM24 267Q24 328 45 378.5Q66 429 103 466Q140 503 190.5 523.5Q241 544 300 544Q360 544 411 523.5Q462 503 498.5 466Q535 429 555.5 378.5Q576 328 576 268Q576 208 555 157Q534 106 497 69.5Q460 33 409 12Q358 -9 299 -9Q239 -9 188.5 11Q138 31 101.5 67.5Q65 104 44.5 155Q24 206 24 267ZM300 571Q261 571 234.5 584Q208 597 192 617Q176 637 169 660.5Q162 684 162 704H236Q236 693 239.5 682Q243 671 250 661Q257 651 269.5 645Q282 639 300 639Q318 639 330 645Q342 651 349.5 661Q357 671 360.5 682Q364 693 364 704H436Q436 683 429 660Q422 637 406 617Q390 597 364 584Q338 571 300 571Z" glyph-name="obreve" horiz-adv-x="600" unicode="&#335;" /><glyph d="M120 267Q120 225 133.5 190.5Q147 156 171 130.5Q195 105 228 91Q261 77 300 77Q340 77 373 91Q406 105 430 130.5Q454 156 467 190.5Q480 225 480 267Q480 308 466.5 343Q453 378 429 403.5Q405 429 372 443.5Q339 458 300 458Q260 458 227 444Q194 430 170 404.5Q146 379 133 344Q120 309 120 267ZM24 267Q24 328 45 378.5Q66 429 103 466Q140 503 190.5 523.5Q241 544 300 544Q360 544 411 523.5Q462 503 498.5 466Q535 429 555.5 378.5Q576 328 576 268Q576 208 555 157Q534 106 497 69.5Q460 33 409 12Q358 -9 299 -9Q239 -9 188.5 11Q138 31 101.5 67.5Q65 104 44.5 155Q24 206 24 267ZM346 715 448 575H361L299 654L237 575H150L251 715Z" glyph-name="ocircumflex" horiz-adv-x="600" unicode="&#244;" /><glyph d="M120 267Q120 225 133.5 190.5Q147 156 171 130.5Q195 105 228 91Q261 77 300 77Q340 77 373 91Q406 105 430 130.5Q454 156 467 190.5Q480 225 480 267Q480 308 466.5 343Q453 378 429 403.5Q405 429 372 443.5Q339 458 300 458Q260 458 227 444Q194 430 170 404.5Q146 379 133 344Q120 309 120 267ZM24 267Q24 328 45 378.5Q66 429 103 466Q140 503 190.5 523.5Q241 544 300 544Q360 544 411 523.5Q462 503 498.5 466Q535 429 555.5 378.5Q576 328 576 268Q576 208 555 157Q534 106 497 69.5Q460 33 409 12Q358 -9 299 -9Q239 -9 188.5 11Q138 31 101.5 67.5Q65 104 44.5 155Q24 206 24 267ZM213 590Q188 590 171 607Q154 624 154 649Q154 674 171 691Q188 708 213 708Q239 708 256.5 691Q274 674 274 649Q274 624 256 607Q238 590 213 590ZM384 590Q358 590 341 607Q324 624 324 649Q324 674 341 691Q358 708 384 708Q409 708 426.5 691Q444 674 444 649Q444 624 426 607Q408 590 384 590Z" glyph-name="odieresis" horiz-adv-x="600" unicode="&#246;" /><glyph d="M120 267Q120 225 133.5 190.5Q147 156 171 130.5Q195 105 228 91Q261 77 300 77Q340 77 373 91Q406 105 430 130.5Q454 156 467 190.5Q480 225 480 267Q480 309 466.5 344Q453 379 429 404.5Q405 430 372 444Q339 458 300 458Q260 458 227 444Q194 430 170 404.5Q146 379 133 344Q120 309 120 267ZM738 460Q703 460 675 448Q647 436 627 416Q607 396 595 368.5Q583 341 581 311H899Q897 345 884.5 373Q872 401 851 420Q830 439 801 449.5Q772 460 738 460ZM749 -7Q674 -7 616.5 24Q559 55 525 112Q490 55 430.5 23Q371 -9 299 -9Q239 -9 188.5 11Q138 31 101.5 67.5Q65 104 44.5 155Q24 206 24 267Q24 328 45 378.5Q66 429 103 466Q140 503 190.5 523.5Q241 544 300 544Q374 544 433 511.5Q492 479 527 422Q559 478 614 510Q669 542 739 542Q797 542 844.5 523.5Q892 505 926 471.5Q960 438 979 389.5Q998 341 999 281Q999 274 998.5 261.5Q998 249 997 238H579Q580 203 592.5 174Q605 145 627 123Q649 101 680 89Q711 77 749 77Q812 77 850.5 107Q889 137 912 185L986 146Q973 115 952 87.5Q931 60 902 39Q873 18 834.5 5.5Q796 -7 749 -7Z" glyph-name="oe" horiz-adv-x="1019" unicode="&#339;" /><glyph d="M251 0Q222 -13 210 -28Q198 -43 198 -62Q198 -85 214 -95Q230 -105 255 -106V-175Q181 -178 145.5 -151Q110 -124 110 -80Q110 -57 120 -37Q130 -17 152 0Z" glyph-name="ogonek" horiz-adv-x="400" unicode="&#731;" /><glyph d="M120 267Q120 225 133.5 190.5Q147 156 171 130.5Q195 105 228 91Q261 77 300 77Q340 77 373 91Q406 105 430 130.5Q454 156 467 190.5Q480 225 480 267Q480 308 466.5 343Q453 378 429 403.5Q405 429 372 443.5Q339 458 300 458Q260 458 227 444Q194 430 170 404.5Q146 379 133 344Q120 309 120 267ZM24 267Q24 328 45 378.5Q66 429 103 466Q140 503 190.5 523.5Q241 544 300 544Q360 544 411 523.5Q462 503 498.5 466Q535 429 555.5 378.5Q576 328 576 268Q576 208 555 157Q534 106 497 69.5Q460 33 409 12Q358 -9 299 -9Q239 -9 188.5 11Q138 31 101.5 67.5Q65 104 44.5 155Q24 206 24 267ZM274 714 350 579H259L180 714Z" glyph-name="ograve" horiz-adv-x="600" unicode="&#242;" /><glyph d="M120 267Q120 225 133.5 190.5Q147 156 171 130.5Q195 105 228 91Q261 77 300 77Q340 77 373 91Q406 105 430 130.5Q454 156 467 190.5Q480 225 480 267Q480 308 466.5 343Q453 378 429 403.5Q405 429 372 443.5Q339 458 300 458Q260 458 227 444Q194 430 170 404.5Q146 379 133 344Q120 309 120 267ZM24 267Q24 328 45 378.5Q66 429 103 466Q140 503 190.5 523.5Q241 544 300 544Q360 544 411 523.5Q462 503 498.5 466Q535 429 555.5 378.5Q576 328 576 268Q576 208 555 157Q534 106 497 69.5Q460 33 409 12Q358 -9 299 -9Q239 -9 188.5 11Q138 31 101.5 67.5Q65 104 44.5 155Q24 206 24 267ZM335 714 270 579H181L243 714ZM486 714 419 579H331L395 714Z" glyph-name="ohungarumlaut" horiz-adv-x="600" unicode="&#337;" /><glyph d="M120 267Q120 225 133.5 190.5Q147 156 171 130.5Q195 105 228 91Q261 77 300 77Q340 77 373 91Q406 105 430 130.5Q454 156 467 190.5Q480 225 480 267Q480 308 466.5 343Q453 378 429 403.5Q405 429 372 443.5Q339 458 300 458Q260 458 227 444Q194 430 170 404.5Q146 379 133 344Q120 309 120 267ZM24 267Q24 328 45 378.5Q66 429 103 466Q140 503 190.5 523.5Q241 544 300 544Q360 544 411 523.5Q462 503 498.5 466Q535 429 555.5 378.5Q576 328 576 268Q576 208 555 157Q534 106 497 69.5Q460 33 409 12Q358 -9 299 -9Q239 -9 188.5 11Q138 31 101.5 67.5Q65 104 44.5 155Q24 206 24 267ZM184 670H414V597H184Z" glyph-name="omacron" horiz-adv-x="600" unicode="&#333;" /><glyph d="M180 0H82V592L13 565V658L89 692H180Z" glyph-name="one" horiz-adv-x="232" unicode="1" /><glyph d="M125 1H50V290L9 273V337L56 358H125Z" glyph-name="one.den" horiz-adv-x="162" /><glyph d="M125 335H50V624L9 607V671L56 692H125Z" glyph-name="one.num" horiz-adv-x="162" /><glyph d="M168 335H93V624L52 607V671L99 692H168ZM396 265Q396 285 403.5 303.5Q411 322 425.5 336Q440 350 462 358.5Q484 367 514 367Q574 367 604 337Q634 307 634 265Q634 237 623 217Q612 197 592 186Q641 163 641 102Q641 57 609 25Q577 -7 514 -8Q451 -7 420 24.5Q389 56 389 101Q389 129 401 151Q413 173 437 186Q419 197 407.5 216.5Q396 236 396 265ZM469 260Q469 240 482 226.5Q495 213 515 213Q535 213 548 226.5Q561 240 561 260Q561 281 548 294.5Q535 308 515 308Q494 308 481.5 294.5Q469 281 469 260ZM464 104Q464 81 478 66Q492 51 515 51Q537 51 551.5 65.5Q566 80 566 104Q566 127 551.5 141Q537 155 515 155Q492 155 478 141Q464 127 464 104ZM88 0H6L522 692H604Z" glyph-name="oneeighth" horiz-adv-x="683" unicode="&#8539;" /><glyph d="M168 335H93V624L52 607V671L99 692H168ZM390 1V59L516 179Q536 198 546 214Q556 230 556 250Q556 270 544 284Q532 298 510 298Q496 298 487 293Q478 288 472.5 280.5Q467 273 465.5 264Q464 255 464 247H391Q390 266 395.5 287Q401 308 415 326Q429 344 452 355.5Q475 367 510 367Q570 367 601.5 335Q633 303 633 254Q633 219 618 195Q603 171 576 145L498 67H637V1ZM88 0H6L522 692H604Z" glyph-name="onehalf" horiz-adv-x="674" unicode="&#189;" /><glyph d="M168 335H93V624L52 607V671L99 692H168ZM574 94V1H501V94H338V157L500 359H574V160H615V94ZM413 160H501V271ZM88 0H6L522 692H604Z" glyph-name="onequarter" horiz-adv-x="651" unicode="&#188;" /><glyph d="M133 335H57V623L16 606V671L63 692H133Z" glyph-name="onesuperior" horiz-adv-x="181" unicode="&#185;" /><glyph d="M168 335H93V624L52 607V671L99 692H168ZM472 214 550 295H419V359H635V297L559 218Q576 216 593 209.5Q610 203 623.5 190Q637 177 645 158Q653 139 653 113Q653 59 618.5 26Q584 -7 525 -7Q492 -7 468.5 2.5Q445 12 429.5 28Q414 44 406.5 65.5Q399 87 399 111H473Q473 86 486.5 71Q500 56 526 56Q549 56 563 71Q577 86 577 111Q577 137 561.5 150Q546 163 518 163H472ZM88 0H6L522 692H604Z" glyph-name="onethird" horiz-adv-x="691" unicode="&#8531;" /><glyph d="M25 417Q25 475 62 511.5Q99 548 161 548Q192 548 210.5 540.5Q229 533 240 524V558Q240 593 224.5 613.5Q209 634 175 634Q140 634 127 616.5Q114 599 113 576H40Q40 629 73 663.5Q106 698 175 698Q251 698 283.5 657.5Q316 617 316 551V289H248V314Q234 300 213 291.5Q192 283 162 283Q103 283 64.5 318.5Q26 354 25 417ZM100 417Q100 386 119 366.5Q138 347 170 347Q201 347 221 366Q241 385 241 417Q241 449 221 468.5Q201 488 170 488Q138 488 119 468.5Q100 449 100 417Z" glyph-name="ordfeminine" horiz-adv-x="352" unicode="&#170;" /><glyph d="M95 491Q95 431 131 394Q167 357 223 357Q280 357 315 394Q350 431 350 491Q350 520 340.5 545Q331 570 314 588Q297 606 273.5 616Q250 626 223 626Q194 626 170.5 616Q147 606 130.5 588Q114 570 104.5 545.5Q95 521 95 491ZM16 491Q16 537 32 575Q48 613 75.5 640.5Q103 668 141 683Q179 698 223 698Q268 698 306 682.5Q344 667 371 640Q398 613 413.5 575Q429 537 429 492Q429 447 413.5 409Q398 371 370 343.5Q342 316 304.5 300.5Q267 285 223 285Q178 285 140 300Q102 315 74.5 342Q47 369 31.5 407Q16 445 16 491Z" glyph-name="ordmasculine" horiz-adv-x="446" unicode="&#186;" /><glyph d="M24 267Q24 328 45 378.5Q66 429 103 466Q140 503 190.5 523.5Q241 544 300 544Q345 544 383 532Q421 520 452 500L493 548L549 500L509 453Q541 417 558.5 370Q576 323 576 268Q576 208 555 157Q534 106 497 69.5Q460 33 409 12Q358 -9 299 -9Q254 -9 215.5 2Q177 13 148 33L107 -14L52 32L92 79Q60 114 42 162Q24 210 24 267ZM118 267Q118 198 152 149L396 434Q352 461 300 461Q259 461 225.5 446.5Q192 432 168 406.5Q144 381 131 345Q118 309 118 267ZM482 267Q482 333 449 383L204 99Q244 74 300 74Q340 74 373.5 88.5Q407 103 431 128.5Q455 154 468.5 189.5Q482 225 482 267Z" glyph-name="oslash" horiz-adv-x="600" unicode="&#248;" /><glyph d="M426 714 346 579H254L332 714ZM24 267Q24 328 45 378.5Q66 429 103 466Q140 503 190.5 523.5Q241 544 300 544Q345 544 383 532Q421 520 452 500L493 548L549 500L509 453Q541 417 558.5 370Q576 323 576 268Q576 208 555 157Q534 106 497 69.5Q460 33 409 12Q358 -9 299 -9Q254 -9 215.5 2Q177 13 148 33L107 -14L52 32L92 79Q60 114 42 162Q24 210 24 267ZM118 267Q118 198 152 149L396 434Q352 461 300 461Q259 461 225.5 446.5Q192 432 168 406.5Q144 381 131 345Q118 309 118 267ZM482 267Q482 333 449 383L204 99Q244 74 300 74Q340 74 373.5 88.5Q407 103 431 128.5Q455 154 468.5 189.5Q482 225 482 267Z" glyph-name="oslashacute" horiz-adv-x="600" unicode="&#511;" /><glyph d="M120 267Q120 225 133.5 190.5Q147 156 171 130.5Q195 105 228 91Q261 77 300 77Q340 77 373 91Q406 105 430 130.5Q454 156 467 190.5Q480 225 480 267Q480 308 466.5 343Q453 378 429 403.5Q405 429 372 443.5Q339 458 300 458Q260 458 227 444Q194 430 170 404.5Q146 379 133 344Q120 309 120 267ZM24 267Q24 328 45 378.5Q66 429 103 466Q140 503 190.5 523.5Q241 544 300 544Q360 544 411 523.5Q462 503 498.5 466Q535 429 555.5 378.5Q576 328 576 268Q576 208 555 157Q534 106 497 69.5Q460 33 409 12Q358 -9 299 -9Q239 -9 188.5 11Q138 31 101.5 67.5Q65 104 44.5 155Q24 206 24 267ZM359 582Q339 582 324.5 588.5Q310 595 297 603.5Q284 612 272 618.5Q260 625 246 625Q230 625 223 614Q216 603 215 583H145Q144 632 169 665.5Q194 699 242 699Q262 699 277 692.5Q292 686 304.5 677.5Q317 669 328.5 662.5Q340 656 354 656Q384 656 384 699H454Q455 646 429.5 614Q404 582 359 582Z" glyph-name="otilde" horiz-adv-x="600" unicode="&#245;" /><glyph d="M140 267Q140 225 153 190Q166 155 190 129.5Q214 104 247.5 90Q281 76 321 76Q361 76 394.5 90Q428 104 451.5 129.5Q475 155 488 190Q501 225 501 267Q501 309 488 344Q475 379 451 404.5Q427 430 394 444.5Q361 459 321 459Q280 459 247 444.5Q214 430 190 404.5Q166 379 153 344Q140 309 140 267ZM144 -175H49V535H140V458Q152 474 169.5 489.5Q187 505 210.5 517Q234 529 263.5 536.5Q293 544 328 544Q388 544 437.5 524Q487 504 522.5 467.5Q558 431 577.5 380Q597 329 597 268Q597 209 578 158.5Q559 108 523.5 71Q488 34 437.5 12.5Q387 -9 324 -9Q289 -9 260 -1.5Q231 6 208.5 17Q186 28 169.5 41.5Q153 55 144 66Z" glyph-name="p" horiz-adv-x="621" unicode="p" /><glyph d="M164 0V418Q134 419 108 429Q82 439 62.5 457Q43 475 32 500Q21 525 21 556Q21 619 62.5 655.5Q104 692 172 692H243V0ZM387 0H309V692H387Z" glyph-name="paragraph" horiz-adv-x="441" unicode="&#182;" /><glyph d="M51 610Q51 694 89.5 734.5Q128 775 213 775H234V693H216Q192 693 177.5 687Q163 681 154.5 669.5Q146 658 143.5 642.5Q141 627 141 608V-8Q141 -27 143.5 -42.5Q146 -58 154.5 -69.5Q163 -81 177.5 -87Q192 -93 216 -93H234V-175H213Q128 -175 89.5 -134.5Q51 -94 51 -10Z" glyph-name="parenleft" horiz-adv-x="248" unicode="(" /><glyph d="M51 610Q51 694 89.5 734.5Q128 775 213 775H234V693H216Q192 693 177.5 687Q163 681 154.5 669.5Q146 658 143.5 642.5Q141 627 141 608V-8Q141 -27 143.5 -42.5Q146 -58 154.5 -69.5Q163 -81 177.5 -87Q192 -93 216 -93H234V-175H213Q128 -175 89.5 -134.5Q51 -94 51 -10Z" glyph-name="parenleft.uc" horiz-adv-x="248" /><glyph d="M197 -10Q197 -94 158.5 -134.5Q120 -175 35 -175H14V-93H32Q56 -93 70.5 -87Q85 -81 93 -69.5Q101 -58 103.5 -42.5Q106 -27 106 -8V608Q106 627 103.5 642.5Q101 658 93 669.5Q85 681 70.5 687Q56 693 32 693H14V775H35Q120 775 158.5 734.5Q197 694 197 610Z" glyph-name="parenright" horiz-adv-x="248" unicode=")" /><glyph d="M197 -10Q197 -94 158.5 -134.5Q120 -175 35 -175H14V-93H32Q56 -93 70.5 -87Q85 -81 93 -69.5Q101 -58 103.5 -42.5Q106 -27 106 -8V608Q106 627 103.5 642.5Q101 658 93 669.5Q85 681 70.5 687Q56 693 32 693H14V775H35Q120 775 158.5 734.5Q197 694 197 610Z" glyph-name="parenright.uc" horiz-adv-x="248" /><glyph d="M496 160Q496 120 520.5 93Q545 66 587 66Q631 66 654 93Q677 120 677 160Q677 201 652.5 228Q628 255 585 255Q543 255 519.5 227.5Q496 200 496 160ZM417 160Q417 195 429 225Q441 255 463 277.5Q485 300 516 313Q547 326 584 326Q623 326 654.5 313.5Q686 301 708.5 278.5Q731 256 743.5 225.5Q756 195 756 160Q756 125 743.5 95Q731 65 708.5 42.5Q686 20 655 7Q624 -6 586 -6Q548 -6 517 6.5Q486 19 463.5 41.5Q441 64 429 94.5Q417 125 417 160ZM173 0H87L612 691H698ZM103 533Q103 492 127.5 465Q152 438 194 438Q239 438 262 465.5Q285 493 285 533Q285 574 260.5 600.5Q236 627 192 627Q150 627 126.5 600Q103 573 103 533ZM24 532Q24 567 36.5 597.5Q49 628 71 650.5Q93 673 123.5 686Q154 699 191 699Q230 699 261.5 686Q293 673 315.5 650.5Q338 628 350.5 597.5Q363 567 363 532Q363 497 351 467Q339 437 316.5 415Q294 393 262.5 380Q231 367 193 367Q155 367 124 379.5Q93 392 71 414Q49 436 36.5 466.5Q24 497 24 532Z" glyph-name="percent" horiz-adv-x="780" unicode="%" /><glyph d="M91 -9Q63 -9 44 10Q25 29 25 58Q25 87 43.5 106Q62 125 91 125Q120 125 139 106Q158 87 158 58Q158 29 139 10Q120 -9 91 -9Z" glyph-name="period" horiz-adv-x="183" unicode="." /><glyph d="M94 261Q66 261 47 280Q28 299 28 328Q28 357 46.5 376Q65 395 94 395Q123 395 142 376Q161 357 161 328Q161 299 142 280Q123 261 94 261Z" glyph-name="periodcentered" horiz-adv-x="190" unicode="&#183;" /><glyph d="M874 160Q874 120 898.5 93Q923 66 965 66Q1010 66 1033 93Q1056 120 1056 160Q1056 201 1031.5 228Q1007 255 963 255Q921 255 897.5 227.5Q874 200 874 160ZM796 160Q796 195 808 225Q820 255 842 277.5Q864 300 895 313Q926 326 963 326Q1002 326 1033.5 313.5Q1065 301 1087.5 278.5Q1110 256 1122.5 225.5Q1135 195 1135 160Q1135 125 1122.5 95Q1110 65 1087.5 42.5Q1065 20 1034 7Q1003 -6 965 -6Q927 -6 896 6.5Q865 19 842.5 41.5Q820 64 808 94.5Q796 125 796 160ZM496 160Q496 120 520.5 93Q545 66 587 66Q631 66 654 93Q677 120 677 160Q677 201 652.5 228Q628 255 585 255Q543 255 519.5 227.5Q496 200 496 160ZM417 160Q417 195 429 225Q441 255 463 277.5Q485 300 516 313Q547 326 584 326Q623 326 654.5 313.5Q686 301 708.5 278.5Q731 256 743.5 225.5Q756 195 756 160Q756 125 743.5 95Q731 65 708.5 42.5Q686 20 655 7Q624 -6 586 -6Q548 -6 517 6.5Q486 19 463.5 41.5Q441 64 429 94.5Q417 125 417 160ZM173 0H87L612 691H698ZM103 533Q103 492 127.5 465Q152 438 194 438Q239 438 262 465.5Q285 493 285 533Q285 574 260.5 600.5Q236 627 192 627Q150 627 126.5 600Q103 573 103 533ZM24 532Q24 567 36.5 597.5Q49 628 71 650.5Q93 673 123.5 686Q154 699 191 699Q230 699 261.5 686Q293 673 315.5 650.5Q338 628 350.5 597.5Q363 567 363 532Q363 497 351 467Q339 437 316.5 415Q294 393 262.5 380Q231 367 193 367Q155 367 124 379.5Q93 392 71 414Q49 436 36.5 466.5Q24 497 24 532Z" glyph-name="perthousand" horiz-adv-x="1159" unicode="&#8240;" /><glyph d="M24 377H188V546H275V377H439V297H275V127H188V297H24Z" glyph-name="plus" horiz-adv-x="462" unicode="+" /><glyph d="M477 73Q468 59 451.5 44.5Q435 30 412 18Q389 6 360 -1.5Q331 -9 297 -9Q237 -9 186.5 11Q136 31 100 67Q64 103 44 154Q24 205 24 267Q24 327 44 377.5Q64 428 100.5 465Q137 502 187 523Q237 544 297 544Q357 544 406 520.5Q455 497 481 462V535H572V-175H477ZM120 267Q120 225 133 190Q146 155 170 129.5Q194 104 227.5 90Q261 76 301 76Q341 76 374 90Q407 104 431 129.5Q455 155 468 190Q481 225 481 267Q481 309 467.5 344Q454 379 430 404.5Q406 430 373 444.5Q340 459 300 459Q260 459 227 444.5Q194 430 170 404.5Q146 379 133 344Q120 309 120 267Z" glyph-name="q" horiz-adv-x="621" unicode="q" /><glyph d="M265 172H170V396H223Q274 396 307.5 423Q341 450 341 506Q341 557 311 588Q281 619 230 619Q195 619 173 606Q151 593 139 574Q127 555 123 533Q119 511 119 494H24Q23 519 30 555Q37 591 59 624Q81 657 122 680Q163 703 230 703Q280 703 319 687.5Q358 672 384.5 645.5Q411 619 425 583.5Q439 548 439 507Q439 468 426.5 435.5Q414 403 391 379Q368 355 336 340.5Q304 326 265 324ZM218 -8Q190 -8 170.5 11Q151 30 151 58Q151 86 170.5 105Q190 124 218 124Q245 124 264.5 105Q284 86 284 58Q284 30 264.5 11Q245 -8 218 -8Z" glyph-name="question" horiz-adv-x="462" unicode="?" /><glyph d="M197 420H292V193H239Q188 193 154.5 166Q121 139 121 84Q121 33 151 1.5Q181 -30 232 -30Q267 -30 289 -17Q311 -4 323 15.5Q335 35 339 56.5Q343 78 343 96H438Q439 70 432 34.5Q425 -1 402.5 -34Q380 -67 339 -90Q298 -113 232 -113Q181 -113 142 -98Q103 -83 76.5 -56.5Q50 -30 36.5 5.5Q23 41 23 82Q23 120 35.5 152.5Q48 185 71 209Q94 233 126 247.5Q158 262 197 265ZM245 599Q272 599 291.5 580Q311 561 311 533Q311 504 291.5 485Q272 466 245 466Q217 466 197.5 485Q178 504 178 533Q178 561 197.5 580Q217 599 245 599Z" glyph-name="questiondown" horiz-adv-x="462" unicode="&#191;" /><glyph d="M197 522H292V294H239Q188 294 154.5 267.5Q121 241 121 185Q121 134 151 102.5Q181 71 232 71Q267 71 289 84Q311 97 323 116.5Q335 136 339 157.5Q343 179 343 197H438Q439 171 432 135.5Q425 100 402.5 67Q380 34 339 11Q298 -12 232 -12Q181 -12 142 3Q103 18 76.5 44.5Q50 71 36.5 106.5Q23 142 23 183Q23 221 35.5 253.5Q48 286 71 310Q94 334 126 348.5Q158 363 197 366ZM245 701Q272 701 291.5 682Q311 663 311 635Q311 606 291.5 587Q272 568 245 568Q217 568 197.5 587Q178 606 178 635Q178 663 197.5 682Q217 701 245 701Z" glyph-name="questiondown.uc" horiz-adv-x="462" /><glyph d="M119 692V462H31V692ZM264 692V462H176V692Z" glyph-name="quotedbl" horiz-adv-x="295" unicode="&quot;" /><glyph d="M237 4Q215 10 201.5 25.5Q188 41 188 64Q188 93 206.5 111.5Q225 130 254 130Q283 130 301.5 111.5Q320 93 320 64Q320 47 315 32.5Q310 18 301 -2L259 -100H192ZM72 4Q50 10 36.5 25.5Q23 41 23 64Q23 93 41.5 111.5Q60 130 89 130Q118 130 136.5 111.5Q155 93 155 64Q155 47 150 32.5Q145 18 136 -2L94 -100H27Z" glyph-name="quotedblbase" horiz-adv-x="344" unicode="&#8222;" /><glyph d="M270 589Q292 583 305 567Q318 551 318 528Q318 499 300 480.5Q282 462 253 462Q224 462 205.5 480.5Q187 499 187 528Q187 545 192 559.5Q197 574 205 594L248 692H315ZM107 589Q129 583 142 567Q155 551 155 528Q155 499 137 480.5Q119 462 90 462Q61 462 42.5 480.5Q24 499 24 528Q24 545 29 559.5Q34 574 42 594L85 692H152Z" glyph-name="quotedblleft" horiz-adv-x="342" unicode="&#8220;" /><glyph d="M235 573Q213 579 199.5 594.5Q186 610 186 633Q186 662 204.5 680.5Q223 699 252 699Q281 699 299.5 680.5Q318 662 318 633Q318 616 313 601.5Q308 587 299 567L257 469H190ZM72 573Q50 579 36.5 594.5Q23 610 23 633Q23 662 41.5 680.5Q60 699 89 699Q118 699 136.5 680.5Q155 662 155 633Q155 616 150 601.5Q145 587 136 567L94 469H27Z" glyph-name="quotedblright" horiz-adv-x="342" unicode="&#8221;" /><glyph d="M107 589Q129 583 142 567Q155 551 155 528Q155 499 137 480.5Q119 462 90 462Q61 462 42.5 480.5Q24 499 24 528Q24 545 29 559.5Q34 574 42 594L85 692H152Z" glyph-name="quoteleft" horiz-adv-x="179" unicode="&#8216;" /><glyph d="M72 573Q50 579 36.5 594.5Q23 610 23 633Q23 662 41.5 680.5Q60 699 89 699Q118 699 136.5 680.5Q155 662 155 633Q155 616 150 601.5Q145 587 136 567L94 469H27Z" glyph-name="quoteright" horiz-adv-x="179" unicode="&#8217;" /><glyph d="M72 4Q50 10 36.5 25.5Q23 41 23 64Q23 93 41.5 111.5Q60 130 89 130Q118 130 136.5 111.5Q155 93 155 64Q155 47 150 32.5Q145 18 136 -2L94 -100H27Z" glyph-name="quotesinglbase" horiz-adv-x="179" unicode="&#8218;" /><glyph d="M119 692V462H31V692Z" glyph-name="quotesingle" horiz-adv-x="149" unicode="'" /><glyph d="M263 439H237Q188 439 166 412Q144 385 144 336V0H49V535H144V483Q158 506 186 521.5Q214 537 263 536Z" glyph-name="r" horiz-adv-x="281" unicode="r" /><glyph d="M263 439H237Q188 439 166 412Q144 385 144 336V0H49V535H144V483Q158 506 186 521.5Q214 537 263 536ZM277 714 197 579H105L183 714Z" glyph-name="racute" horiz-adv-x="281" unicode="&#341;" /><glyph d="M263 439H237Q188 439 166 412Q144 385 144 336V0H49V535H144V483Q158 506 186 521.5Q214 537 263 536ZM109 578 8 718H95L157 638L219 718H306L204 578Z" glyph-name="rcaron" horiz-adv-x="281" unicode="&#345;" /><glyph d="M263 439H237Q188 439 166 412Q144 385 144 336V0H49V535H144V483Q158 506 186 521.5Q214 537 263 536ZM82 -156Q61 -151 48 -135.5Q35 -120 35 -97Q35 -71 52.5 -54Q70 -37 98 -37Q127 -37 143.5 -55Q160 -73 160 -99Q160 -117 154 -132Q148 -147 141 -161L102 -242H43Z" glyph-name="rcommaaccent" horiz-adv-x="281" unicode="&#343;" /><glyph d="M206 517V429H156V649H232Q269 649 287.5 631.5Q306 614 306 583Q306 563 297 549Q288 535 275 528L315 429H263L227 517ZM206 605V559H231Q254 559 254 583Q254 605 231 605ZM20 535Q20 577 34.5 614Q49 651 75.5 678.5Q102 706 139.5 722Q177 738 223 738Q271 738 309.5 722.5Q348 707 375 679.5Q402 652 416.5 615Q431 578 431 536Q431 494 416.5 457.5Q402 421 375 393Q348 365 310 349Q272 333 225 333Q178 333 140 348.5Q102 364 75.5 391Q49 418 34.5 455Q20 492 20 535ZM67 535Q67 501 78 472Q89 443 109 421.5Q129 400 158.5 388Q188 376 225 376Q262 376 291.5 388Q321 400 341.5 421Q362 442 372.5 471.5Q383 501 383 536Q383 607 341 651Q299 695 223 695Q187 695 158 683Q129 671 108.5 650Q88 629 77.5 599.5Q67 570 67 535Z" glyph-name="registered" horiz-adv-x="450" unicode="&#174;" /><glyph d="M96 662Q96 706 124.5 734.5Q153 763 198 763Q247 763 275 734.5Q303 706 303 664Q303 619 275 590.5Q247 562 199 562Q153 562 124.5 590.5Q96 619 96 662ZM150 662Q150 641 163.5 627Q177 613 199 613Q223 613 236 627Q249 641 249 664Q249 684 236 698.5Q223 713 199 713Q176 713 163 698.5Q150 684 150 662Z" glyph-name="ring" horiz-adv-x="400" unicode="&#730;" /><glyph d="M133 817Q133 862 161.5 890.5Q190 919 235 919Q284 919 312 890.5Q340 862 340 819Q340 775 312 746.5Q284 718 236 718Q190 718 161.5 746.5Q133 775 133 817ZM189 818Q189 797 201.5 783.5Q214 770 236 770Q259 770 271.5 783.5Q284 797 284 819Q284 840 271.5 853.5Q259 867 236 867Q214 867 201.5 853.5Q189 840 189 818Z" glyph-name="ring.uc" horiz-adv-x="473" /><glyph d="M124 401Q124 352 178 333Q199 325 220 320Q241 315 263 307Q319 287 349 252.5Q379 218 379 153Q379 114 364.5 84Q350 54 325.5 34Q301 14 268 4Q235 -6 198 -6Q147 -6 112.5 8Q78 22 57 46Q36 70 27 101.5Q18 133 19 168H111Q111 148 115.5 130.5Q120 113 130.5 100Q141 87 157.5 79Q174 71 200 71Q235 70 260.5 89Q286 108 286 144Q286 177 270 194Q254 211 224 222Q201 230 178 236Q155 242 129 253Q76 276 54 311.5Q32 347 32 395Q32 428 44.5 455Q57 482 79.5 501Q102 520 132.5 530.5Q163 541 200 541Q284 541 324.5 496.5Q365 452 366 379H278Q276 420 256.5 443.5Q237 467 198 467Q164 467 144 449.5Q124 432 124 401Z" glyph-name="s" horiz-adv-x="399" unicode="s" /><glyph d="M124 401Q124 352 178 333Q199 325 220 320Q241 315 263 307Q319 287 349 252.5Q379 218 379 153Q379 114 364.5 84Q350 54 325.5 34Q301 14 268 4Q235 -6 198 -6Q147 -6 112.5 8Q78 22 57 46Q36 70 27 101.5Q18 133 19 168H111Q111 148 115.5 130.5Q120 113 130.5 100Q141 87 157.5 79Q174 71 200 71Q235 70 260.5 89Q286 108 286 144Q286 177 270 194Q254 211 224 222Q201 230 178 236Q155 242 129 253Q76 276 54 311.5Q32 347 32 395Q32 428 44.5 455Q57 482 79.5 501Q102 520 132.5 530.5Q163 541 200 541Q284 541 324.5 496.5Q365 452 366 379H278Q276 420 256.5 443.5Q237 467 198 467Q164 467 144 449.5Q124 432 124 401ZM331 714 251 579H159L237 714Z" glyph-name="sacute" horiz-adv-x="399" unicode="&#347;" /><glyph d="M124 401Q124 352 178 333Q199 325 220 320Q241 315 263 307Q319 287 349 252.5Q379 218 379 153Q379 114 364.5 84Q350 54 325.5 34Q301 14 268 4Q235 -6 198 -6Q147 -6 112.5 8Q78 22 57 46Q36 70 27 101.5Q18 133 19 168H111Q111 148 115.5 130.5Q120 113 130.5 100Q141 87 157.5 79Q174 71 200 71Q235 70 260.5 89Q286 108 286 144Q286 177 270 194Q254 211 224 222Q201 230 178 236Q155 242 129 253Q76 276 54 311.5Q32 347 32 395Q32 428 44.5 455Q57 482 79.5 501Q102 520 132.5 530.5Q163 541 200 541Q284 541 324.5 496.5Q365 452 366 379H278Q276 420 256.5 443.5Q237 467 198 467Q164 467 144 449.5Q124 432 124 401ZM286 714 242 579H159L202 714Z" glyph-name="sacute.pl" horiz-adv-x="398" /><glyph d="M124 401Q124 352 178 333Q199 325 220 320Q241 315 263 307Q319 287 349 252.5Q379 218 379 153Q379 114 364.5 84Q350 54 325.5 34Q301 14 268 4Q235 -6 198 -6Q147 -6 112.5 8Q78 22 57 46Q36 70 27 101.5Q18 133 19 168H111Q111 148 115.5 130.5Q120 113 130.5 100Q141 87 157.5 79Q174 71 200 71Q235 70 260.5 89Q286 108 286 144Q286 177 270 194Q254 211 224 222Q201 230 178 236Q155 242 129 253Q76 276 54 311.5Q32 347 32 395Q32 428 44.5 455Q57 482 79.5 501Q102 520 132.5 530.5Q163 541 200 541Q284 541 324.5 496.5Q365 452 366 379H278Q276 420 256.5 443.5Q237 467 198 467Q164 467 144 449.5Q124 432 124 401ZM152 578 51 718H138L200 638L262 718H349L247 578Z" glyph-name="scaron" horiz-adv-x="399" unicode="&#353;" /><glyph d="M133 -252V-191H154Q177 -191 193 -180Q209 -169 209 -143Q209 -118 194.5 -106.5Q180 -95 154 -95H133V1Q101 10 78.5 26.5Q56 43 42.5 65Q29 87 23 113Q17 139 18 168H110Q110 148 114.5 130.5Q119 113 129.5 100Q140 87 156.5 79Q173 71 199 71Q234 70 259.5 89Q285 108 285 144Q285 177 269 194Q253 211 223 222Q200 230 177 236Q154 242 128 253Q75 276 53 311.5Q31 347 31 395Q31 428 43.5 455Q56 482 78.5 501Q101 520 131.5 530.5Q162 541 199 541Q283 541 323.5 496.5Q364 452 365 379H277Q275 420 255.5 443.5Q236 467 197 467Q163 467 143 449.5Q123 432 123 401Q123 352 177 333Q198 325 219 320Q240 315 262 307Q318 287 348 252.5Q378 218 378 153Q378 114 363.5 84Q349 54 324.5 34Q300 14 267 4Q234 -6 197 -6H193V-39Q239 -48 259 -76Q279 -104 279 -143Q279 -197 243.5 -224.5Q208 -252 153 -252Z" glyph-name="scedilla" horiz-adv-x="399" unicode="&#351;" /><glyph d="M124 401Q124 352 178 333Q199 325 220 320Q241 315 263 307Q319 287 349 252.5Q379 218 379 153Q379 114 364.5 84Q350 54 325.5 34Q301 14 268 4Q235 -6 198 -6Q147 -6 112.5 8Q78 22 57 46Q36 70 27 101.5Q18 133 19 168H111Q111 148 115.5 130.5Q120 113 130.5 100Q141 87 157.5 79Q174 71 200 71Q235 70 260.5 89Q286 108 286 144Q286 177 270 194Q254 211 224 222Q201 230 178 236Q155 242 129 253Q76 276 54 311.5Q32 347 32 395Q32 428 44.5 455Q57 482 79.5 501Q102 520 132.5 530.5Q163 541 200 541Q284 541 324.5 496.5Q365 452 366 379H278Q276 420 256.5 443.5Q237 467 198 467Q164 467 144 449.5Q124 432 124 401ZM247 715 349 575H262L200 654L138 575H51L152 715Z" glyph-name="scircumflex" horiz-adv-x="399" unicode="&#349;" /><glyph d="M124 401Q124 352 178 333Q199 325 220 320Q241 315 263 307Q319 287 349 252.5Q379 218 379 153Q379 114 364.5 84Q350 54 325.5 34Q301 14 268 4Q235 -6 198 -6Q147 -6 112.5 8Q78 22 57 46Q36 70 27 101.5Q18 133 19 168H111Q111 148 115.5 130.5Q120 113 130.5 100Q141 87 157.5 79Q174 71 200 71Q235 70 260.5 89Q286 108 286 144Q286 177 270 194Q254 211 224 222Q201 230 178 236Q155 242 129 253Q76 276 54 311.5Q32 347 32 395Q32 428 44.5 455Q57 482 79.5 501Q102 520 132.5 530.5Q163 541 200 541Q284 541 324.5 496.5Q365 452 366 379H278Q276 420 256.5 443.5Q237 467 198 467Q164 467 144 449.5Q124 432 124 401ZM192 -156Q171 -151 158 -135.5Q145 -120 145 -97Q145 -71 162.5 -54Q180 -37 208 -37Q237 -37 253.5 -55Q270 -73 270 -99Q270 -117 264 -132Q258 -147 251 -161L212 -242H153Z" glyph-name="scommaaccent" horiz-adv-x="398" unicode="&#537;" /><glyph d="M378 -7Q378 26 359 50.5Q340 75 292 92L160 140Q98 163 64 201Q30 239 30 304Q30 361 60.5 396Q91 431 139 443Q116 468 106 498.5Q96 529 96 561Q96 596 108.5 628Q121 660 145 684Q169 708 205.5 722.5Q242 737 290 737Q347 737 384 719Q421 701 442.5 672.5Q464 644 472 609Q480 574 479 541H385Q385 558 380.5 577Q376 596 365 612.5Q354 629 335.5 640Q317 651 290 651Q238 651 215.5 625.5Q193 600 193 565Q193 533 212 508Q231 483 276 468L403 422Q473 399 505 359Q537 319 537 256Q537 227 528 203.5Q519 180 505 162Q491 144 472 132.5Q453 121 434 115Q457 92 466.5 60Q476 28 476 -4Q476 -40 462.5 -72.5Q449 -105 423.5 -129Q398 -153 361 -167.5Q324 -182 276 -182Q222 -182 184.5 -166Q147 -150 124 -122.5Q101 -95 91 -58.5Q81 -22 82 18H178Q178 -4 183 -24.5Q188 -45 199.5 -61Q211 -77 230 -86.5Q249 -96 277 -96Q327 -96 352.5 -71.5Q378 -47 378 -7ZM250 374Q222 384 199.5 383Q177 382 160.5 372.5Q144 363 135 347Q126 331 126 311Q126 277 145.5 259Q165 241 194 230L326 183Q347 175 367.5 176Q388 177 404.5 185.5Q421 194 431 209.5Q441 225 441 248Q441 283 421.5 300.5Q402 318 373 329Z" glyph-name="section" horiz-adv-x="568" unicode="&#167;" /><glyph d="M74 -4Q51 2 38 19Q25 36 25 59Q24 88 43 106.5Q62 125 92 125Q121 125 139 106Q157 87 157 58Q157 41 152 25.5Q147 10 139 -8L95 -109H26ZM91 340Q63 340 44 359Q25 378 25 407Q25 436 43.5 455Q62 474 91 474Q120 474 139 455Q158 436 158 407Q158 378 139 359Q120 340 91 340Z" glyph-name="semicolon" horiz-adv-x="183" unicode=";" /><glyph d="M179 0H72L310 603H15V692H421V620Z" glyph-name="seven" horiz-adv-x="446" unicode="7" /><glyph d="M129 1H48L149 290H11V358H234V303Z" glyph-name="seven.den" horiz-adv-x="248" /><glyph d="M129 335H48L149 624H11V692H234V637Z" glyph-name="seven.num" horiz-adv-x="248" /><glyph d="M175 335H94L195 624H57V692H280V637ZM407 265Q407 285 414.5 303.5Q422 322 436.5 336Q451 350 473 358.5Q495 367 525 367Q585 367 615 337Q645 307 645 265Q645 237 634 217Q623 197 603 186Q652 163 652 102Q652 57 620 25Q588 -7 525 -8Q462 -7 431 24.5Q400 56 400 101Q400 129 412 151Q424 173 448 186Q430 197 418.5 216.5Q407 236 407 265ZM480 260Q480 240 493 226.5Q506 213 526 213Q546 213 559 226.5Q572 240 572 260Q572 281 559 294.5Q546 308 526 308Q505 308 492.5 294.5Q480 281 480 260ZM475 104Q475 81 489 66Q503 51 526 51Q548 51 562.5 65.5Q577 80 577 104Q577 127 562.5 141Q548 155 526 155Q503 155 489 141Q475 127 475 104ZM99 0H17L533 692H615Z" glyph-name="seveneighths" horiz-adv-x="694" unicode="&#8542;" /><glyph d="M383 559Q366 582 338.5 598.5Q311 615 269 615Q234 615 210.5 604.5Q187 594 172 575.5Q157 557 150.5 531Q144 505 144 475V405Q158 425 191.5 443Q225 461 274 461Q374 461 422 404.5Q470 348 470 244V207Q470 160 456 119.5Q442 79 415 49.5Q388 20 348.5 3.5Q309 -13 258 -13Q204 -13 164 2.5Q124 18 97.5 47Q71 76 58.5 116.5Q46 157 46 207V473Q46 521 58.5 563.5Q71 606 98 637.5Q125 669 166.5 687.5Q208 706 266 706Q305 706 335.5 698Q366 690 388.5 677Q411 664 426 648Q441 632 451 617ZM260 370Q202 370 173.5 336.5Q145 303 144 250V206Q144 149 171 113.5Q198 78 258 78Q316 78 344.5 114.5Q373 151 373 206V245Q373 302 346.5 336Q320 370 260 370Z" glyph-name="six" horiz-adv-x="503" unicode="6" /><glyph d="M211 272Q204 282 191 292Q178 302 155 302Q127 302 115 285.5Q103 269 103 243V220Q111 228 127 234.5Q143 241 165 241Q219 241 248.5 210.5Q278 180 278 128V113Q278 61 245.5 26.5Q213 -8 154 -8Q121 -8 97 2Q73 12 58 29Q43 46 35.5 68.5Q28 91 28 116V239Q28 265 35.5 288Q43 311 59 328.5Q75 346 98.5 356.5Q122 367 155 367Q201 367 226 351Q251 335 262 317ZM103 112Q103 89 115 73Q127 57 153 57Q177 57 190.5 72Q204 87 204 112V127Q204 150 191.5 165Q179 180 154 180Q128 180 115.5 164.5Q103 149 103 129Z" glyph-name="six.den" horiz-adv-x="297" /><glyph d="M211 606Q204 616 191 626Q178 636 155 636Q127 636 115 619.5Q103 603 103 577V554Q111 562 127 568.5Q143 575 165 575Q219 575 248.5 544.5Q278 514 278 462V447Q278 395 245.5 360.5Q213 326 154 326Q121 326 97 336Q73 346 58 363Q43 380 35.5 402.5Q28 425 28 450V573Q28 599 35.5 622Q43 645 59 662.5Q75 680 98.5 690.5Q122 701 155 701Q201 701 226 685Q251 669 262 651ZM103 446Q103 423 115 407Q127 391 153 391Q177 391 190.5 406Q204 421 204 446V461Q204 484 191.5 499Q179 514 154 514Q128 514 115.5 498.5Q103 483 103 463Z" glyph-name="six.num" horiz-adv-x="297" /><glyph d="M93 -175H4L360 731H449Z" glyph-name="slash" horiz-adv-x="453" unicode="/" /><glyph d="M140 -55H51L360 731H449Z" glyph-name="slash.uc" horiz-adv-x="453" /><glyph glyph-name="space" horiz-adv-x="154" unicode=" " /><glyph d="M198 -156Q177 -151 164 -135.5Q151 -120 151 -97Q151 -71 168.5 -54Q186 -37 214 -37Q243 -37 259.5 -55Q276 -73 276 -99Q276 -117 270 -132Q264 -147 257 -161L218 -242H159Z" glyph-name="space_uni0326" horiz-adv-x="400" /><glyph d="M220 692Q241 687 254 672.5Q267 658 267 635Q267 609 250 591.5Q233 574 204 574Q175 574 158.5 592Q142 610 142 635Q142 654 148 668.5Q154 683 161 697L200 779H259Z" glyph-name="space_uni0326.alt" horiz-adv-x="400" /><glyph d="M191 379H335V294H191V88H497V0H24V88H93V294H24V379H93V502Q93 546 106 583.5Q119 621 144.5 648Q170 675 207.5 690.5Q245 706 295 706Q352 706 391 687Q430 668 453.5 638.5Q477 609 487 572Q497 535 496 499H399Q399 518 394.5 538.5Q390 559 378.5 576Q367 593 347 604Q327 615 295 615Q241 615 216 582Q191 549 191 497Z" glyph-name="sterling" horiz-adv-x="525" unicode="&#163;" /><glyph d="M160 535H259V454H160V153Q160 118 171 100Q182 82 220 82H258V0Q252 0 235.5 -2.5Q219 -5 196 -5Q122 -5 93.5 30Q65 65 65 129V454H11V535H65V617H160Z" glyph-name="t" horiz-adv-x="277" unicode="t" /><glyph d="M160 535H259V454H160V343H259V270H160V153Q160 118 171 100Q182 82 220 82H258V0Q252 0 235.5 -2.5Q219 -5 196 -5Q122 -5 93.5 30Q65 65 65 129V270H13V343H65V454H11V535H65V617H160Z" glyph-name="tbar" horiz-adv-x="277" unicode="&#359;" /><glyph d="M160 535H259V454H160V153Q160 118 171 100Q182 82 220 82H258V0Q252 0 235.5 -2.5Q219 -5 196 -5Q122 -5 93.5 30Q65 65 65 129V454H11V535H65V617H160ZM298 731 282 577H204L218 731Z" glyph-name="tcaron" horiz-adv-x="277" unicode="&#357;" /><glyph d="M160 535H259V454H160V153Q160 118 171 100Q182 82 220 82H258V0Q252 0 235.5 -2.5Q219 -5 196 -5Q122 -5 93.5 30Q65 65 65 129V454H11V535H65V617H160ZM147 -156Q126 -151 113 -135.5Q100 -120 100 -97Q100 -71 117.5 -54Q135 -37 163 -37Q192 -37 208.5 -55Q225 -73 225 -99Q225 -117 219 -132Q213 -147 206 -161L167 -242H108Z" glyph-name="tcommaaccent" horiz-adv-x="277" unicode="&#355;" /><glyph d="M140 267Q140 225 153 190Q166 155 190 129.5Q214 104 247.5 90Q281 76 321 76Q361 76 394 90Q427 104 451 129.5Q475 155 488 190Q501 225 501 267Q501 309 488 344Q475 379 451 404.5Q427 430 393.5 444.5Q360 459 320 459Q280 459 247 444.5Q214 430 190 404.5Q166 379 153 344Q140 309 140 267ZM144 -176H49V731H144V461Q168 492 215 518Q262 544 329 544Q389 544 438.5 524Q488 504 523.5 467.5Q559 431 578 380Q597 329 597 268Q597 209 577.5 158.5Q558 108 522.5 71Q487 34 436.5 12.5Q386 -9 323 -9Q288 -9 259 -1Q230 7 207.5 18.5Q185 30 169 43.5Q153 57 144 68Z" glyph-name="thorn" horiz-adv-x="621" unicode="&#254;" /><glyph d="M147 397 307 603H44V692H422V604L261 405Q300 402 335 389.5Q370 377 396 352Q422 327 437.5 290Q453 253 453 201Q453 154 436.5 115Q420 76 391 47.5Q362 19 322 3Q282 -13 235 -13Q175 -13 134 5Q93 23 67.5 52Q42 81 30.5 118.5Q19 156 19 194H117Q118 142 147.5 109.5Q177 77 234 77Q291 77 322 111.5Q353 146 353 200Q353 257 319 289Q285 321 222 321H147Z" glyph-name="three" horiz-adv-x="476" unicode="3" /><glyph d="M87 214 165 295H34V359H250V297L174 218Q191 216 208 209.5Q225 203 238.5 190Q252 177 260 158Q268 139 268 113Q268 59 233.5 26Q199 -7 140 -7Q107 -7 83.5 2.5Q60 12 44.5 28Q29 44 21.5 65.5Q14 87 14 111H88Q88 86 101.5 71Q115 56 141 56Q164 56 178 71Q192 86 192 111Q192 137 176.5 150Q161 163 133 163H87Z" glyph-name="three.den" horiz-adv-x="288" /><glyph d="M87 547 165 628H34V692H250V630L174 551Q191 549 208 542.5Q225 536 238.5 523Q252 510 260 491Q268 472 268 446Q268 392 233.5 359Q199 326 140 326Q107 326 83.5 335.5Q60 345 44.5 361Q29 377 21.5 398.5Q14 420 14 444H88Q88 419 101.5 404Q115 389 141 389Q164 389 178 404Q192 419 192 444Q192 470 176.5 483Q161 496 133 496H87Z" glyph-name="three.num" horiz-adv-x="288" /><glyph d="M108 547 186 628H55V692H271V630L195 551Q212 549 229 542.5Q246 536 259.5 523Q273 510 281 491Q289 472 289 446Q289 392 254.5 359Q220 326 161 326Q128 326 104.5 335.5Q81 345 65.5 361Q50 377 42.5 398.5Q35 420 35 444H109Q109 419 122.5 404Q136 389 162 389Q185 389 199 404Q213 419 213 444Q213 470 197.5 483Q182 496 154 496H108ZM472 265Q472 285 479.5 303.5Q487 322 501.5 336Q516 350 538 358.5Q560 367 590 367Q650 367 680 337Q710 307 710 265Q710 237 699 217Q688 197 668 186Q717 163 717 102Q717 57 685 25Q653 -7 590 -8Q527 -7 496 24.5Q465 56 465 101Q465 129 477 151Q489 173 513 186Q495 197 483.5 216.5Q472 236 472 265ZM545 260Q545 240 558 226.5Q571 213 591 213Q611 213 624 226.5Q637 240 637 260Q637 281 624 294.5Q611 308 591 308Q570 308 557.5 294.5Q545 281 545 260ZM540 104Q540 81 554 66Q568 51 591 51Q613 51 627.5 65.5Q642 80 642 104Q642 127 627.5 141Q613 155 591 155Q568 155 554 141Q540 127 540 104ZM162 0H80L596 692H678Z" glyph-name="threeeighths" horiz-adv-x="759" unicode="&#8540;" /><glyph d="M108 547 186 628H55V692H271V630L195 551Q212 549 229 542.5Q246 536 259.5 523Q273 510 281 491Q289 472 289 446Q289 392 254.5 359Q220 326 161 326Q128 326 104.5 335.5Q81 345 65.5 361Q50 377 42.5 398.5Q35 420 35 444H109Q109 419 122.5 404Q136 389 162 389Q185 389 199 404Q213 419 213 444Q213 470 197.5 483Q182 496 154 496H108ZM648 94V1H575V94H412V157L574 359H648V160H689V94ZM487 160H575V271ZM162 0H80L596 692H678Z" glyph-name="threequarters" horiz-adv-x="725" unicode="&#190;" /><glyph d="M99 549 175 627H45V692H263V629L186 552Q203 550 220 543.5Q237 537 250 524Q263 511 271 492Q279 473 279 448Q279 395 244 362Q209 329 151 329Q118 329 94.5 338.5Q71 348 55.5 364Q40 380 32.5 401.5Q25 423 25 447H100Q100 422 113.5 408Q127 394 152 394Q175 394 188.5 407.5Q202 421 202 446Q202 471 187 483.5Q172 496 145 496H99Z" glyph-name="threesuperior" horiz-adv-x="311" unicode="&#179;" /><glyph d="M258 582Q238 582 223.5 588.5Q209 595 196 603.5Q183 612 171 618.5Q159 625 145 625Q129 625 122 614Q115 603 114 583H44Q43 632 68 665.5Q93 699 141 699Q161 699 176 692.5Q191 686 203.5 677.5Q216 669 227.5 662.5Q239 656 253 656Q283 656 283 699H353Q354 646 328.5 614Q303 582 258 582Z" glyph-name="tilde" horiz-adv-x="400" unicode="&#732;" /><glyph d="M301 736Q281 736 266 742.5Q251 749 238 757.5Q225 766 212.5 772.5Q200 779 186 779Q170 779 161.5 768Q153 757 153 737H83Q81 786 107.5 819.5Q134 853 182 853Q202 853 217 846.5Q232 840 244.5 832Q257 824 269 817.5Q281 811 295 811Q326 811 328 853H398Q399 800 372.5 768Q346 736 301 736Z" glyph-name="tilde.uc" horiz-adv-x="476" /><glyph d="M202 632H146V410H80V632H24V692H202ZM520 607 443 410H377L298 606V410H238V692H331L412 487L492 692H583V410H520Z" glyph-name="trademark" horiz-adv-x="607" unicode="&#8482;" /><glyph d="M29 0V88L262 349Q297 388 315.5 423.5Q334 459 334 502Q334 552 308 583.5Q282 615 230 615Q198 615 178.5 604Q159 593 148 576Q137 559 132.5 538.5Q128 518 128 499H31Q31 535 40.5 571.5Q50 608 73 638Q96 668 134.5 687Q173 706 230 706Q281 706 319.5 690.5Q358 675 384 648Q410 621 423 584.5Q436 548 436 506Q436 441 410.5 393Q385 345 339 296L153 89H444V0Z" glyph-name="two" horiz-adv-x="468" unicode="2" /><glyph d="M18 1V59L144 179Q164 198 174 214Q184 230 184 250Q184 270 172 284Q160 298 138 298Q124 298 115 293Q106 288 100.5 280.5Q95 273 93.5 264Q92 255 92 247H19Q18 266 23.5 287Q29 308 43 326Q57 344 80 355.5Q103 367 138 367Q198 367 229.5 335Q261 303 261 254Q261 219 246 195Q231 171 204 145L126 67H265V1Z" glyph-name="two.den" horiz-adv-x="281" /><glyph d="M18 335V393L144 513Q164 532 174 548Q184 564 184 584Q184 604 172 618Q160 632 138 632Q124 632 115 627Q106 622 100.5 614.5Q95 607 93.5 598Q92 589 92 581H19Q18 600 23.5 621Q29 642 43 660Q57 678 80 689.5Q103 701 138 701Q198 701 229.5 669Q261 637 261 588Q261 553 246 529Q231 505 204 479L126 401H265V335Z" glyph-name="two.num" horiz-adv-x="281" /><glyph d="M31 335V394L156 512Q176 531 186.5 546.5Q197 562 197 582Q197 602 185.5 615Q174 628 152 628Q124 628 115 611.5Q106 595 107 579H33Q32 598 37.5 619Q43 640 56.5 657.5Q70 675 93.5 686.5Q117 698 152 698Q212 698 243.5 666.5Q275 635 275 586Q275 551 259.5 528Q244 505 218 479L141 402H279V335Z" glyph-name="twosuperior" horiz-adv-x="306" unicode="&#178;" /><glyph d="M33 335V393L159 513Q179 532 189 548Q199 564 199 584Q199 604 187 618Q175 632 153 632Q139 632 130 627Q121 622 115.5 614.5Q110 607 108.5 598Q107 589 107 581H34Q33 600 38.5 621Q44 642 58 660Q72 678 95 689.5Q118 701 153 701Q213 701 244.5 669Q276 637 276 588Q276 553 261 529Q246 505 219 479L141 401H280V335ZM562 214 640 295H509V359H725V297L649 218Q666 216 683 209.5Q700 203 713.5 190Q727 177 735 158Q743 139 743 113Q743 59 708.5 26Q674 -7 615 -7Q582 -7 558.5 2.5Q535 12 519.5 28Q504 44 496.5 65.5Q489 87 489 111H563Q563 86 576.5 71Q590 56 616 56Q639 56 653 71Q667 86 667 111Q667 137 651.5 150Q636 163 608 163H562ZM177 0H95L611 692H693Z" glyph-name="twothirds" horiz-adv-x="781" unicode="&#8532;" /><glyph d="M141 193Q141 139 163.5 109.5Q186 80 234 80Q282 80 306.5 111.5Q331 143 331 196V535H427V0H332V49Q320 30 291 12Q262 -6 212 -6Q167 -6 135.5 8.5Q104 23 84 48.5Q64 74 55 108Q46 142 46 182V535H141Z" glyph-name="u" horiz-adv-x="475" unicode="u" /><glyph d="M423 535V193Q423 150 411 113.5Q399 77 375 50.5Q351 24 316 9Q281 -6 235 -6Q184 -6 148 9Q112 24 89.5 50.5Q67 77 57 113.5Q47 150 47 193V535H142V196Q142 143 165 113Q188 83 235 83Q282 83 305 113Q328 143 328 196V535Z" glyph-name="u.alt" horiz-adv-x="470" /><glyph d="M141 193Q141 139 163.5 109.5Q186 80 234 80Q282 80 306.5 111.5Q331 143 331 196V535H427V0H332V49Q320 30 291 12Q262 -6 212 -6Q167 -6 135.5 8.5Q104 23 84 48.5Q64 74 55 108Q46 142 46 182V535H141ZM360 714 280 579H188L266 714Z" glyph-name="uacute" horiz-adv-x="475" unicode="&#250;" /><glyph d="M357 714 277 579H185L263 714ZM423 535V193Q423 150 411 113.5Q399 77 375 50.5Q351 24 316 9Q281 -6 235 -6Q184 -6 148 9Q112 24 89.5 50.5Q67 77 57 113.5Q47 150 47 193V535H142V196Q142 143 165 113Q188 83 235 83Q282 83 305 113Q328 143 328 196V535Z" glyph-name="uacute.alt" horiz-adv-x="470" /><glyph d="M141 193Q141 139 163.5 109.5Q186 80 234 80Q282 80 306.5 111.5Q331 143 331 196V535H427V0H332V49Q320 30 291 12Q262 -6 212 -6Q167 -6 135.5 8.5Q104 23 84 48.5Q64 74 55 108Q46 142 46 182V535H141ZM236 571Q197 571 170.5 584Q144 597 128 617Q112 637 105 660.5Q98 684 98 704H172Q172 693 175.5 682Q179 671 186 661Q193 651 205.5 645Q218 639 236 639Q254 639 266 645Q278 651 285.5 661Q293 671 296.5 682Q300 693 300 704H372Q372 683 365 660Q358 637 342 617Q326 597 300 584Q274 571 236 571Z" glyph-name="ubreve" horiz-adv-x="475" unicode="&#365;" /><glyph d="M235 571Q196 571 169.5 584Q143 597 127 617Q111 637 104 660.5Q97 684 97 704H171Q171 693 174.5 682Q178 671 185 661Q192 651 204.5 645Q217 639 235 639Q253 639 265 645Q277 651 284.5 661Q292 671 295.5 682Q299 693 299 704H371Q371 683 364 660Q357 637 341 617Q325 597 299 584Q273 571 235 571ZM423 535V193Q423 150 411 113.5Q399 77 375 50.5Q351 24 316 9Q281 -6 235 -6Q184 -6 148 9Q112 24 89.5 50.5Q67 77 57 113.5Q47 150 47 193V535H142V196Q142 143 165 113Q188 83 235 83Q282 83 305 113Q328 143 328 196V535Z" glyph-name="ubreve.alt" horiz-adv-x="470" /><glyph d="M141 193Q141 139 163.5 109.5Q186 80 234 80Q282 80 306.5 111.5Q331 143 331 196V535H427V0H332V49Q320 30 291 12Q262 -6 212 -6Q167 -6 135.5 8.5Q104 23 84 48.5Q64 74 55 108Q46 142 46 182V535H141ZM284 715 386 575H299L237 654L175 575H88L189 715Z" glyph-name="ucircumflex" horiz-adv-x="475" unicode="&#251;" /><glyph d="M281 715 383 575H296L234 654L172 575H85L186 715ZM423 535V193Q423 150 411 113.5Q399 77 375 50.5Q351 24 316 9Q281 -6 235 -6Q184 -6 148 9Q112 24 89.5 50.5Q67 77 57 113.5Q47 150 47 193V535H142V196Q142 143 165 113Q188 83 235 83Q282 83 305 113Q328 143 328 196V535Z" glyph-name="ucircumflex.alt" horiz-adv-x="470" /><glyph d="M141 193Q141 139 163.5 109.5Q186 80 234 80Q282 80 306.5 111.5Q331 143 331 196V535H427V0H332V49Q320 30 291 12Q262 -6 212 -6Q167 -6 135.5 8.5Q104 23 84 48.5Q64 74 55 108Q46 142 46 182V535H141ZM151 590Q126 590 109 607Q92 624 92 649Q92 674 109 691Q126 708 151 708Q177 708 194.5 691Q212 674 212 649Q212 624 194 607Q176 590 151 590ZM322 590Q296 590 279 607Q262 624 262 649Q262 674 279 691Q296 708 322 708Q347 708 364.5 691Q382 674 382 649Q382 624 364 607Q346 590 322 590Z" glyph-name="udieresis" horiz-adv-x="475" unicode="&#252;" /><glyph d="M150 590Q125 590 108 607Q91 624 91 649Q91 674 108 691Q125 708 150 708Q176 708 193.5 691Q211 674 211 649Q211 624 193 607Q175 590 150 590ZM321 590Q295 590 278 607Q261 624 261 649Q261 674 278 691Q295 708 321 708Q346 708 363.5 691Q381 674 381 649Q381 624 363 607Q345 590 321 590ZM423 535V193Q423 150 411 113.5Q399 77 375 50.5Q351 24 316 9Q281 -6 235 -6Q184 -6 148 9Q112 24 89.5 50.5Q67 77 57 113.5Q47 150 47 193V535H142V196Q142 143 165 113Q188 83 235 83Q282 83 305 113Q328 143 328 196V535Z" glyph-name="udieresis.alt" horiz-adv-x="470" /><glyph d="M141 193Q141 139 163.5 109.5Q186 80 234 80Q282 80 306.5 111.5Q331 143 331 196V535H427V0H332V49Q320 30 291 12Q262 -6 212 -6Q167 -6 135.5 8.5Q104 23 84 48.5Q64 74 55 108Q46 142 46 182V535H141ZM218 714 294 579H203L124 714Z" glyph-name="ugrave" horiz-adv-x="475" unicode="&#249;" /><glyph d="M216 714 292 579H201L122 714ZM423 535V193Q423 150 411 113.5Q399 77 375 50.5Q351 24 316 9Q281 -6 235 -6Q184 -6 148 9Q112 24 89.5 50.5Q67 77 57 113.5Q47 150 47 193V535H142V196Q142 143 165 113Q188 83 235 83Q282 83 305 113Q328 143 328 196V535Z" glyph-name="ugrave.alt" horiz-adv-x="470" /><glyph d="M141 193Q141 139 163.5 109.5Q186 80 234 80Q282 80 306.5 111.5Q331 143 331 196V535H427V0H332V49Q320 30 291 12Q262 -6 212 -6Q167 -6 135.5 8.5Q104 23 84 48.5Q64 74 55 108Q46 142 46 182V535H141ZM266 714 201 579H112L174 714ZM417 714 350 579H262L326 714Z" glyph-name="uhungarumlaut" horiz-adv-x="475" unicode="&#369;" /><glyph d="M264 714 199 579H110L172 714ZM415 714 348 579H260L324 714ZM423 535V193Q423 150 411 113.5Q399 77 375 50.5Q351 24 316 9Q281 -6 235 -6Q184 -6 148 9Q112 24 89.5 50.5Q67 77 57 113.5Q47 150 47 193V535H142V196Q142 143 165 113Q188 83 235 83Q282 83 305 113Q328 143 328 196V535Z" glyph-name="uhungarumlaut.alt" horiz-adv-x="470" /><glyph d="M141 193Q141 139 163.5 109.5Q186 80 234 80Q282 80 306.5 111.5Q331 143 331 196V535H427V0H332V49Q320 30 291 12Q262 -6 212 -6Q167 -6 135.5 8.5Q104 23 84 48.5Q64 74 55 108Q46 142 46 182V535H141ZM122 670H352V597H122Z" glyph-name="umacron" horiz-adv-x="475" unicode="&#363;" /><glyph d="M119 670H349V597H119ZM423 535V193Q423 150 411 113.5Q399 77 375 50.5Q351 24 316 9Q281 -6 235 -6Q184 -6 148 9Q112 24 89.5 50.5Q67 77 57 113.5Q47 150 47 193V535H142V196Q142 143 165 113Q188 83 235 83Q282 83 305 113Q328 143 328 196V535Z" glyph-name="umacron.alt" horiz-adv-x="470" /><glyph d="M33 -45H592V-123H33Z" glyph-name="underscore" horiz-adv-x="625" unicode="_" /><glyph glyph-name="uni00A0" horiz-adv-x="154" unicode="&#160;" /><glyph d="M257 601V0H159V601H17V692H399V601ZM193 -156Q172 -151 159 -135.5Q146 -120 146 -97Q146 -71 163.5 -54Q181 -37 209 -37Q238 -37 254.5 -55Q271 -73 271 -99Q271 -117 265 -132Q259 -147 252 -161L213 -242H154Z" glyph-name="uni021A" horiz-adv-x="416" unicode="&#538;" /><glyph d="M160 535H259V454H160V153Q160 118 171 100Q182 82 220 82H258V0Q252 0 235.5 -2.5Q219 -5 196 -5Q122 -5 93.5 30Q65 65 65 129V454H11V535H65V617H160ZM147 -156Q126 -151 113 -135.5Q100 -120 100 -97Q100 -71 117.5 -54Q135 -37 163 -37Q192 -37 208.5 -55Q225 -73 225 -99Q225 -117 219 -132Q213 -147 206 -161L167 -242H108Z" glyph-name="uni021B" horiz-adv-x="277" unicode="&#539;" /><glyph d="M144 -11Q144 -48 136.5 -78.5Q129 -109 111 -130.5Q93 -152 63.5 -163.5Q34 -175 -9 -175H-40V-93H-18Q4 -93 17 -86.5Q30 -80 37 -69Q44 -58 46.5 -43.5Q49 -29 49 -12V535H144Z" glyph-name="uni0237" horiz-adv-x="193" unicode="&#567;" /><glyph glyph-name="uni2009" horiz-adv-x="15" unicode="&#8201;" /><glyph d="M532 424Q532 370 499 337.5Q466 305 410 305H366V157H291V538H409Q470 538 501 506.5Q532 475 532 424ZM366 473V370H396Q454 370 454 422Q454 473 396 473ZM26 346Q26 421 52.5 487Q79 553 126 601.5Q173 650 239 678Q305 706 385 706Q469 706 537 678.5Q605 651 653 603Q701 555 726.5 490Q752 425 752 349Q752 273 726.5 207Q701 141 654 92Q607 43 540 15Q473 -13 390 -13Q307 -13 240 14.5Q173 42 125.5 90.5Q78 139 52 204.5Q26 270 26 346ZM97 346Q97 283 117.5 228.5Q138 174 176 134.5Q214 95 268 72Q322 49 390 49Q458 49 512 71.5Q566 94 603.5 133.5Q641 173 661 228Q681 283 681 348Q681 412 661 466.5Q641 521 602.5 560.5Q564 600 509 622Q454 644 385 644Q320 644 267 621.5Q214 599 176 559Q138 519 117.5 464.5Q97 410 97 346Z" glyph-name="uni24C5" horiz-adv-x="778" unicode="&#9413;" /><glyph d="M141 193Q141 139 163.5 109.5Q186 80 234 80Q282 80 306.5 111.5Q331 143 331 196V535H427V-3Q395 -13 382.5 -28.5Q370 -44 370 -62Q370 -85 386 -95Q402 -105 427 -106V-175Q353 -178 317 -151Q281 -124 281 -80Q281 -56 293.5 -34Q306 -12 332 5V49Q320 30 291 12Q262 -6 212 -6Q167 -6 135.5 8.5Q104 23 84 48.5Q64 74 55 108Q46 142 46 182V535H141Z" glyph-name="uogonek" horiz-adv-x="475" unicode="&#371;" /><glyph d="M423 535V193Q423 131 399 84Q375 37 327 14Q281 -16 281 -57Q281 -81 297.5 -93Q314 -105 338 -106V-175Q264 -178 228.5 -149Q193 -120 193 -76Q193 -58 198.5 -40Q204 -22 218 -5Q171 -3 138.5 12.5Q106 28 86 54.5Q66 81 56.5 116Q47 151 47 193V535H142V196Q142 143 165 113Q188 83 235 83Q282 83 305 113Q328 143 328 196V535Z" glyph-name="uogonek.alt" horiz-adv-x="470" /><glyph d="M141 193Q141 139 163.5 109.5Q186 80 234 80Q282 80 306.5 111.5Q331 143 331 196V535H427V0H332V49Q320 30 291 12Q262 -6 212 -6Q167 -6 135.5 8.5Q104 23 84 48.5Q64 74 55 108Q46 142 46 182V535H141ZM134 662Q134 706 162.5 734.5Q191 763 236 763Q285 763 313 734.5Q341 706 341 664Q341 619 313 590.5Q285 562 237 562Q191 562 162.5 590.5Q134 619 134 662ZM188 662Q188 641 201.5 627Q215 613 237 613Q261 613 274 627Q287 641 287 664Q287 684 274 698.5Q261 713 237 713Q214 713 201 698.5Q188 684 188 662Z" glyph-name="uring" horiz-adv-x="475" unicode="&#367;" /><glyph d="M131 662Q131 706 159.5 734.5Q188 763 233 763Q282 763 310 734.5Q338 706 338 664Q338 619 310 590.5Q282 562 234 562Q188 562 159.5 590.5Q131 619 131 662ZM185 662Q185 641 198.5 627Q212 613 234 613Q258 613 271 627Q284 641 284 664Q284 684 271 698.5Q258 713 234 713Q211 713 198 698.5Q185 684 185 662ZM423 535V193Q423 150 411 113.5Q399 77 375 50.5Q351 24 316 9Q281 -6 235 -6Q184 -6 148 9Q112 24 89.5 50.5Q67 77 57 113.5Q47 150 47 193V535H142V196Q142 143 165 113Q188 83 235 83Q282 83 305 113Q328 143 328 196V535Z" glyph-name="uring.alt" horiz-adv-x="470" /><glyph d="M141 193Q141 139 163.5 109.5Q186 80 234 80Q282 80 306.5 111.5Q331 143 331 196V535H427V0H332V49Q320 30 291 12Q262 -6 212 -6Q167 -6 135.5 8.5Q104 23 84 48.5Q64 74 55 108Q46 142 46 182V535H141ZM298 582Q278 582 263.5 588.5Q249 595 236 603.5Q223 612 211 618.5Q199 625 185 625Q169 625 162 614Q155 603 154 583H84Q83 632 108 665.5Q133 699 181 699Q201 699 216 692.5Q231 686 243.5 677.5Q256 669 267.5 662.5Q279 656 293 656Q323 656 323 699H393Q394 646 368.5 614Q343 582 298 582Z" glyph-name="utilde" horiz-adv-x="475" unicode="&#361;" /><glyph d="M292 582Q272 582 257.5 588.5Q243 595 230 603.5Q217 612 205 618.5Q193 625 179 625Q163 625 156 614Q149 603 148 583H78Q77 632 102 665.5Q127 699 175 699Q195 699 210 692.5Q225 686 237.5 677.5Q250 669 261.5 662.5Q273 656 287 656Q317 656 317 699H387Q388 646 362.5 614Q337 582 292 582ZM423 535V193Q423 150 411 113.5Q399 77 375 50.5Q351 24 316 9Q281 -6 235 -6Q184 -6 148 9Q112 24 89.5 50.5Q67 77 57 113.5Q47 150 47 193V535H142V196Q142 143 165 113Q188 83 235 83Q282 83 305 113Q328 143 328 196V535Z" glyph-name="utilde.alt" horiz-adv-x="470" /><glyph d="M259 115 414 535H513L309 0H205L-2 535H103Z" glyph-name="v" horiz-adv-x="511" unicode="v" /><glyph d="M601 120 732 535H830L656 0H551L417 402L282 0H177L0 535H105L235 120L367 535H470Z" glyph-name="w" horiz-adv-x="830" unicode="w" /><glyph d="M704 535V190Q704 147 692 111Q680 75 656.5 49Q633 23 598 8.5Q563 -6 517 -6Q415 -6 374 60Q326 -6 234 -6Q183 -6 147.5 8.5Q112 23 89.5 49Q67 75 57 111Q47 147 47 190V535H142V196Q142 143 165 113Q188 83 235 83Q281 83 304 112Q327 141 328 193V535H423V193Q424 141 447 112Q470 83 516 83Q563 83 586 113Q609 143 609 196V535Z" glyph-name="w.alt" horiz-adv-x="751" /><glyph d="M601 120 732 535H830L656 0H551L417 402L282 0H177L0 535H105L235 120L367 535H470ZM547 714 467 579H375L453 714Z" glyph-name="wacute" horiz-adv-x="830" unicode="&#7811;" /><glyph d="M501 714 421 579H329L407 714ZM704 535V190Q704 147 692 111Q680 75 656.5 49Q633 23 598 8.5Q563 -6 517 -6Q415 -6 374 60Q326 -6 234 -6Q183 -6 147.5 8.5Q112 23 89.5 49Q67 75 57 111Q47 147 47 190V535H142V196Q142 143 165 113Q188 83 235 83Q281 83 304 112Q327 141 328 193V535H423V193Q424 141 447 112Q470 83 516 83Q563 83 586 113Q609 143 609 196V535Z" glyph-name="wacute.alt" horiz-adv-x="751" /><glyph d="M601 120 732 535H830L656 0H551L417 402L282 0H177L0 535H105L235 120L367 535H470ZM464 715 566 575H479L417 654L355 575H268L369 715Z" glyph-name="wcircumflex" horiz-adv-x="830" unicode="&#373;" /><glyph d="M422 715 524 575H437L375 654L313 575H226L327 715ZM704 535V190Q704 147 692 111Q680 75 656.5 49Q633 23 598 8.5Q563 -6 517 -6Q415 -6 374 60Q326 -6 234 -6Q183 -6 147.5 8.5Q112 23 89.5 49Q67 75 57 111Q47 147 47 190V535H142V196Q142 143 165 113Q188 83 235 83Q281 83 304 112Q327 141 328 193V535H423V193Q424 141 447 112Q470 83 516 83Q563 83 586 113Q609 143 609 196V535Z" glyph-name="wcircumflex.alt" horiz-adv-x="751" /><glyph d="M601 120 732 535H830L656 0H551L417 402L282 0H177L0 535H105L235 120L367 535H470ZM330 590Q305 590 288 607Q271 624 271 649Q271 674 288 691Q305 708 330 708Q356 708 373.5 691Q391 674 391 649Q391 624 373 607Q355 590 330 590ZM501 590Q475 590 458 607Q441 624 441 649Q441 674 458 691Q475 708 501 708Q526 708 543.5 691Q561 674 561 649Q561 624 543 607Q525 590 501 590Z" glyph-name="wdieresis" horiz-adv-x="830" unicode="&#7813;" /><glyph d="M289 590Q264 590 247 607Q230 624 230 649Q230 674 247 691Q264 708 289 708Q315 708 332.5 691Q350 674 350 649Q350 624 332 607Q314 590 289 590ZM460 590Q434 590 417 607Q400 624 400 649Q400 674 417 691Q434 708 460 708Q485 708 502.5 691Q520 674 520 649Q520 624 502 607Q484 590 460 590ZM704 535V190Q704 147 692 111Q680 75 656.5 49Q633 23 598 8.5Q563 -6 517 -6Q415 -6 374 60Q326 -6 234 -6Q183 -6 147.5 8.5Q112 23 89.5 49Q67 75 57 111Q47 147 47 190V535H142V196Q142 143 165 113Q188 83 235 83Q281 83 304 112Q327 141 328 193V535H423V193Q424 141 447 112Q470 83 516 83Q563 83 586 113Q609 143 609 196V535Z" glyph-name="wdieresis.alt" horiz-adv-x="751" /><glyph d="M601 120 732 535H830L656 0H551L417 402L282 0H177L0 535H105L235 120L367 535H470ZM383 714 459 579H368L289 714Z" glyph-name="wgrave" horiz-adv-x="830" unicode="&#7809;" /><glyph d="M344 714 420 579H329L250 714ZM704 535V190Q704 147 692 111Q680 75 656.5 49Q633 23 598 8.5Q563 -6 517 -6Q415 -6 374 60Q326 -6 234 -6Q183 -6 147.5 8.5Q112 23 89.5 49Q67 75 57 111Q47 147 47 190V535H142V196Q142 143 165 113Q188 83 235 83Q281 83 304 112Q327 141 328 193V535H423V193Q424 141 447 112Q470 83 516 83Q563 83 586 113Q609 143 609 196V535Z" glyph-name="wgrave.alt" horiz-adv-x="751" /><glyph d="M258 201 105 0H-1L205 275L11 535H124L262 352L400 535H508L314 277L520 0H411Z" glyph-name="x" horiz-adv-x="519" unicode="x" /><glyph d="M143 -175 214 10 -2 535H103L263 137L415 535H514L236 -175Z" glyph-name="y" horiz-adv-x="512" unicode="y" /><glyph d="M91 -65Q108 -74 141 -86.5Q174 -99 222 -99Q276 -99 305.5 -72.5Q335 -46 335 0V45Q323 26 295 9.5Q267 -7 219 -7Q172 -7 139 8Q106 23 85.5 48.5Q65 74 56 108.5Q47 143 47 182V535H142V193Q142 139 164 109.5Q186 80 234 80Q282 80 307 111.5Q332 143 332 196V535H427V10Q427 -33 414 -68.5Q401 -104 375.5 -129.5Q350 -155 311.5 -169Q273 -183 223 -183Q165 -183 124.5 -170Q84 -157 61 -144Z" glyph-name="y.alt" horiz-adv-x="476" /><glyph d="M143 -175 214 10 -2 535H103L263 137L415 535H514L236 -175ZM382 714 302 579H210L288 714Z" glyph-name="yacute" horiz-adv-x="512" unicode="&#253;" /><glyph d="M361 714 281 579H189L267 714ZM91 -65Q108 -74 141 -86.5Q174 -99 222 -99Q276 -99 305.5 -72.5Q335 -46 335 0V45Q323 26 295 9.5Q267 -7 219 -7Q172 -7 139 8Q106 23 85.5 48.5Q65 74 56 108.5Q47 143 47 182V535H142V193Q142 139 164 109.5Q186 80 234 80Q282 80 307 111.5Q332 143 332 196V535H427V10Q427 -33 414 -68.5Q401 -104 375.5 -129.5Q350 -155 311.5 -169Q273 -183 223 -183Q165 -183 124.5 -170Q84 -157 61 -144Z" glyph-name="yacute.alt" horiz-adv-x="476" /><glyph d="M143 -175 214 10 -2 535H103L263 137L415 535H514L236 -175ZM308 715 410 575H323L261 654L199 575H112L213 715Z" glyph-name="ycircumflex" horiz-adv-x="512" unicode="&#375;" /><glyph d="M285 715 387 575H300L238 654L176 575H89L190 715ZM91 -65Q108 -74 141 -86.5Q174 -99 222 -99Q276 -99 305.5 -72.5Q335 -46 335 0V45Q323 26 295 9.5Q267 -7 219 -7Q172 -7 139 8Q106 23 85.5 48.5Q65 74 56 108.5Q47 143 47 182V535H142V193Q142 139 164 109.5Q186 80 234 80Q282 80 307 111.5Q332 143 332 196V535H427V10Q427 -33 414 -68.5Q401 -104 375.5 -129.5Q350 -155 311.5 -169Q273 -183 223 -183Q165 -183 124.5 -170Q84 -157 61 -144Z" glyph-name="ycircumflex.alt" horiz-adv-x="476" /><glyph d="M143 -175 214 10 -2 535H103L263 137L415 535H514L236 -175ZM176 590Q151 590 134 607Q117 624 117 649Q117 674 134 691Q151 708 176 708Q202 708 219.5 691Q237 674 237 649Q237 624 219 607Q201 590 176 590ZM347 590Q321 590 304 607Q287 624 287 649Q287 674 304 691Q321 708 347 708Q372 708 389.5 691Q407 674 407 649Q407 624 389 607Q371 590 347 590Z" glyph-name="ydieresis" horiz-adv-x="512" unicode="&#255;" /><glyph d="M151 590Q126 590 109 607Q92 624 92 649Q92 674 109 691Q126 708 151 708Q177 708 194.5 691Q212 674 212 649Q212 624 194 607Q176 590 151 590ZM322 590Q296 590 279 607Q262 624 262 649Q262 674 279 691Q296 708 322 708Q347 708 364.5 691Q382 674 382 649Q382 624 364 607Q346 590 322 590ZM91 -65Q108 -74 141 -86.5Q174 -99 222 -99Q276 -99 305.5 -72.5Q335 -46 335 0V45Q323 26 295 9.5Q267 -7 219 -7Q172 -7 139 8Q106 23 85.5 48.5Q65 74 56 108.5Q47 143 47 182V535H142V193Q142 139 164 109.5Q186 80 234 80Q282 80 307 111.5Q332 143 332 196V535H427V10Q427 -33 414 -68.5Q401 -104 375.5 -129.5Q350 -155 311.5 -169Q273 -183 223 -183Q165 -183 124.5 -170Q84 -157 61 -144Z" glyph-name="ydieresis.alt" horiz-adv-x="476" /><glyph d="M188 412 4 692H117L249 490L380 692H486L301 412H445V339H294V253H445V180H294V0H196V180H45V253H196V339H45V412Z" glyph-name="yen" horiz-adv-x="492" unicode="&#165;" /><glyph d="M143 -175 214 10 -2 535H103L263 137L415 535H514L236 -175ZM237 714 313 579H222L143 714Z" glyph-name="ygrave" horiz-adv-x="512" unicode="&#7923;" /><glyph d="M218 714 294 579H203L124 714ZM91 -65Q108 -74 141 -86.5Q174 -99 222 -99Q276 -99 305.5 -72.5Q335 -46 335 0V45Q323 26 295 9.5Q267 -7 219 -7Q172 -7 139 8Q106 23 85.5 48.5Q65 74 56 108.5Q47 143 47 182V535H142V193Q142 139 164 109.5Q186 80 234 80Q282 80 307 111.5Q332 143 332 196V535H427V10Q427 -33 414 -68.5Q401 -104 375.5 -129.5Q350 -155 311.5 -169Q273 -183 223 -183Q165 -183 124.5 -170Q84 -157 61 -144Z" glyph-name="ygrave.alt" horiz-adv-x="476" /><glyph d="M133 80H418V0H23V73L302 455H29V535H418V462Z" glyph-name="z" horiz-adv-x="441" unicode="z" /><glyph d="M133 80H418V0H23V73L302 455H29V535H418V462ZM342 714 262 579H170L248 714Z" glyph-name="zacute" horiz-adv-x="441" unicode="&#378;" /><glyph d="M133 80H418V0H23V73L302 455H29V535H418V462ZM302 714 258 579H175L218 714Z" glyph-name="zacute.pl" horiz-adv-x="441" /><glyph d="M133 80H418V0H23V73L302 455H29V535H418V462ZM176 578 75 718H162L224 638L286 718H373L271 578Z" glyph-name="zcaron" horiz-adv-x="441" unicode="&#382;" /><glyph d="M133 80H418V0H23V73L302 455H29V535H418V462ZM224 589Q198 589 180 606.5Q162 624 162 650Q162 676 179.5 693.5Q197 711 223 711Q249 711 267 693.5Q285 676 285 650Q285 624 267.5 606.5Q250 589 224 589Z" glyph-name="zdotaccent" horiz-adv-x="441" unicode="&#380;" /><glyph d="M373 485Q373 542 344.5 578.5Q316 615 259 615Q199 615 172 579Q145 543 145 485V206Q145 149 172 113.5Q199 78 259 78Q316 78 344.5 114Q373 150 373 206ZM471 208Q471 158 456.5 117.5Q442 77 414.5 48Q387 19 347.5 3Q308 -13 258 -13Q149 -13 97.5 47Q46 107 46 208V485Q46 585 99 645.5Q152 706 259 706Q310 706 349.5 690Q389 674 416 644.5Q443 615 457 574.5Q471 534 471 485Z" glyph-name="zero" horiz-adv-x="517" unicode="0" /><glyph d="M278 120Q278 65 246 28.5Q214 -8 153 -8Q89 -8 58.5 27.5Q28 63 28 120V238Q28 294 59 330.5Q90 367 153 367Q216 367 247 330.5Q278 294 278 238ZM202 240Q202 265 189.5 280Q177 295 153 295Q129 295 117 280.5Q105 266 105 240V118Q105 93 117 78.5Q129 64 153 64Q177 64 189.5 78.5Q202 93 202 118Z" glyph-name="zero.den" horiz-adv-x="307" /><glyph d="M278 454Q278 399 246 362.5Q214 326 153 326Q89 326 58.5 361.5Q28 397 28 454V572Q28 628 59 664.5Q90 701 153 701Q216 701 247 664.5Q278 628 278 572ZM202 574Q202 599 189.5 614Q177 629 153 629Q129 629 117 614.5Q105 600 105 574V452Q105 427 117 412.5Q129 398 153 398Q177 398 189.5 412.5Q202 427 202 452Z" glyph-name="zero.num" horiz-adv-x="307" /></font>
</defs>
</svg>
