<?xml version="1.0" standalone="no"?><!DOCTYPE svg PUBLIC "-//W3C//DTD SVG 1.1//EN" "http://www.w3.org/Graphics/SVG/1.1/DTD/svg11.dtd" ><svg version="1.1" xmlns="http://www.w3.org/2000/svg"><defs><font horiz-adv-x="0" id="font"><font-face ascent="825" bbox="-57.1311 -259 1156 1073" cap-height="692" descent="-175" font-family="Platform Web" font-stretch="normal" font-style="normal" font-weight="500" units-per-em="1000" x-height="535" /><missing-glyph horiz-adv-x="151" /><glyph glyph-name=".null" horiz-adv-x="0" /><glyph d="M437 190H200L132 0H-5L245 692H391L653 0H506ZM243 308H394L318 516Z" glyph-name="A" horiz-adv-x="648" unicode="A" /><glyph d="M429 0V169H234L144 0H-11L370 692H746V562H568V418H740V290H568V130H748V0ZM429 287V536L296 287Z" glyph-name="AE" horiz-adv-x="781" unicode="&#198;" /><glyph d="M429 0V169H234L144 0H-11L370 692H746V562H568V418H740V290H568V130H748V0ZM429 287V536L296 287ZM657 854 580 724H451L524 854Z" glyph-name="AEacute" horiz-adv-x="781" unicode="&#508;" /><glyph d="M437 190H200L132 0H-5L245 692H391L653 0H506ZM243 308H394L318 516ZM462 854 385 724H256L329 854Z" glyph-name="Aacute" horiz-adv-x="648" unicode="&#193;" /><glyph d="M437 190H200L132 0H-5L245 692H391L653 0H506ZM243 308H394L318 516ZM317 723Q278 723 250 735Q222 747 204 766Q186 785 177.5 809Q169 833 169 857H271Q271 841 282 827.5Q293 814 318 814Q342 814 353.5 827.5Q365 841 365 857H466Q466 833 457.5 809Q449 785 431 766Q413 747 384.5 735Q356 723 317 723Z" glyph-name="Abreve" horiz-adv-x="648" unicode="&#258;" /><glyph d="M437 190H200L132 0H-5L245 692H391L653 0H506ZM243 308H394L318 516ZM386 854 489 724H366L317 778L267 724H144L247 854Z" glyph-name="Acircumflex" horiz-adv-x="648" unicode="&#194;" /><glyph d="M437 190H200L132 0H-5L245 692H391L653 0H506ZM243 308H394L318 516ZM217 722Q186 722 165 742.5Q144 763 144 795Q144 826 165 847Q186 868 217 868Q249 868 271 847Q293 826 293 795Q293 763 271 742.5Q249 722 217 722ZM415 722Q383 722 362 742.5Q341 763 341 795Q341 826 362 847Q383 868 415 868Q447 868 468.5 847Q490 826 490 795Q490 763 468.5 742.5Q447 722 415 722Z" glyph-name="Adieresis" horiz-adv-x="648" unicode="&#196;" /><glyph d="M437 190H200L132 0H-5L245 692H391L653 0H506ZM243 308H394L318 516ZM302 854 375 724H248L171 854Z" glyph-name="Agrave" horiz-adv-x="648" unicode="&#192;" /><glyph d="M437 190H200L132 0H-5L245 692H391L653 0H506ZM243 308H394L318 516ZM189 830H445V731H189Z" glyph-name="Amacron" horiz-adv-x="648" unicode="&#256;" /><glyph d="M437 190H200L132 0H-5L245 692H391L653 0Q627 -5 616 -18Q605 -31 605 -45Q605 -63 619 -72Q633 -81 653 -82V-175Q608 -178 575.5 -170.5Q543 -163 521.5 -149Q500 -135 490 -115.5Q480 -96 480 -74Q480 -49 488 -32Q496 -15 507 -2ZM243 308H394L318 516Z" glyph-name="Aogonek" horiz-adv-x="648" unicode="&#260;" /><glyph d="M437 190H200L132 0H-5L245 692H391L653 0H506ZM243 308H394L318 516ZM207 819Q207 866 237.5 896Q268 926 316 926Q368 926 398 896Q428 866 428 821Q428 774 398 744Q368 714 317 714Q268 714 237.5 744Q207 774 207 819ZM275 820Q275 800 286.5 788Q298 776 318 776Q338 776 349 788Q360 800 360 821Q360 840 349 852Q338 864 317 864Q297 864 286 852Q275 840 275 820Z" glyph-name="Aring" horiz-adv-x="648" unicode="&#197;" /><glyph d="M437 190H200L132 0H-5L245 692H391L653 0H506ZM243 308H394L318 516ZM207 819Q207 866 237.5 896Q268 926 316 926Q368 926 398 896Q428 866 428 821Q428 774 398 744Q368 714 317 714Q268 714 237.5 744Q207 774 207 819ZM275 820Q275 800 286.5 788Q298 776 318 776Q338 776 349 788Q360 800 360 821Q360 840 349 852Q338 864 317 864Q297 864 286 852Q275 840 275 820ZM461 1073 384 943H255L328 1073Z" glyph-name="Aringacute" horiz-adv-x="648" unicode="&#506;" /><glyph d="M437 190H200L132 0H-5L245 692H391L653 0H506ZM243 308H394L318 516ZM378 728Q359 728 344.5 733.5Q330 739 317.5 745Q305 751 294.5 756.5Q284 762 273 762Q244 762 244 727H149Q146 785 176 823Q206 861 258 861Q278 861 292.5 855.5Q307 850 319 844Q331 838 341 832.5Q351 827 362 827Q389 827 389 862H485Q487 801 458 764.5Q429 728 378 728Z" glyph-name="Atilde" horiz-adv-x="648" unicode="&#195;" /><glyph d="M482 203Q482 155 467 117.5Q452 80 424.5 54Q397 28 358.5 14Q320 0 273 0H46V692H259Q362 692 414 643Q466 594 466 505Q466 459 446 421Q426 383 393 365Q437 344 459.5 305Q482 266 482 203ZM183 295V121H253Q295 121 317 145.5Q339 170 339 209Q339 250 317 272.5Q295 295 253 295ZM183 572V413H247Q284 413 304 434Q324 455 324 493Q324 572 247 572Z" glyph-name="B" horiz-adv-x="503" unicode="B" /><glyph d="M614 78Q574 39 517 13Q460 -13 385 -13Q301 -13 234 14Q167 41 120 89Q73 137 47.5 202.5Q22 268 22 345Q22 421 48 487Q74 553 121 601.5Q168 650 234.5 677.5Q301 705 382 705Q457 705 513.5 683Q570 661 612 624L530 520Q506 541 468.5 558.5Q431 576 383 576Q333 576 293 558.5Q253 541 225 510Q197 479 182.5 437Q168 395 168 346Q168 297 183.5 255Q199 213 227.5 182.5Q256 152 296 134.5Q336 117 385 117Q438 117 474.5 136.5Q511 156 533 175Z" glyph-name="C" horiz-adv-x="627" unicode="C" /><glyph d="M513 854 436 724H307L380 854ZM614 78Q574 39 517 13Q460 -13 385 -13Q301 -13 234 14Q167 41 120 89Q73 137 47.5 202.5Q22 268 22 345Q22 421 48 487Q74 553 121 601.5Q168 650 234.5 677.5Q301 705 382 705Q457 705 513.5 683Q570 661 612 624L530 520Q506 541 468.5 558.5Q431 576 383 576Q333 576 293 558.5Q253 541 225 510Q197 479 182.5 437Q168 395 168 346Q168 297 183.5 255Q199 213 227.5 182.5Q256 152 296 134.5Q336 117 385 117Q438 117 474.5 136.5Q511 156 533 175Z" glyph-name="Cacute" horiz-adv-x="627" unicode="&#262;" /><glyph d="M475 854 429 724H310L354 854ZM614 78Q574 39 517 13Q460 -13 385 -13Q301 -13 234 14Q167 41 120 89Q73 137 47.5 202.5Q22 268 22 345Q22 421 48 487Q74 553 121 601.5Q168 650 234.5 677.5Q301 705 382 705Q457 705 513.5 683Q570 661 612 624L530 520Q506 541 468.5 558.5Q431 576 383 576Q333 576 293 558.5Q253 541 225 510Q197 479 182.5 437Q168 395 168 346Q168 297 183.5 255Q199 213 227.5 182.5Q256 152 296 134.5Q336 117 385 117Q438 117 474.5 136.5Q511 156 533 175Z" glyph-name="Cacute.pl" horiz-adv-x="627" /><glyph d="M302 724 199 854H323L372 799L421 854H544L441 724ZM614 78Q574 39 517 13Q460 -13 385 -13Q301 -13 234 14Q167 41 120 89Q73 137 47.5 202.5Q22 268 22 345Q22 421 48 487Q74 553 121 601.5Q168 650 234.5 677.5Q301 705 382 705Q457 705 513.5 683Q570 661 612 624L530 520Q506 541 468.5 558.5Q431 576 383 576Q333 576 293 558.5Q253 541 225 510Q197 479 182.5 437Q168 395 168 346Q168 297 183.5 255Q199 213 227.5 182.5Q256 152 296 134.5Q336 117 385 117Q438 117 474.5 136.5Q511 156 533 175Z" glyph-name="Ccaron" horiz-adv-x="627" unicode="&#268;" /><glyph d="M297 -259V-183H318Q338 -182 350 -173Q362 -164 362 -143Q362 -124 350 -114.5Q338 -105 318 -105H297V-4Q233 9 182.5 40.5Q132 72 96.5 117.5Q61 163 42 221Q23 279 23 345Q23 421 49 487Q75 553 122 601.5Q169 650 235.5 677.5Q302 705 383 705Q458 705 514.5 683Q571 661 613 624L531 520Q507 541 469.5 558.5Q432 576 384 576Q334 576 294 558.5Q254 541 226 510Q198 479 183.5 437Q169 395 169 346Q169 297 184.5 255Q200 213 228.5 182.5Q257 152 297 134.5Q337 117 386 117Q439 117 475.5 136.5Q512 156 534 175L615 78Q575 39 518 13Q461 -13 386 -13H373V-36Q417 -48 434 -77Q451 -106 451 -143Q451 -199 415.5 -229Q380 -259 317 -259Z" glyph-name="Ccedilla" horiz-adv-x="627" unicode="&#199;" /><glyph d="M433 854 536 724H413L364 778L314 724H191L294 854ZM614 78Q574 39 517 13Q460 -13 385 -13Q301 -13 234 14Q167 41 120 89Q73 137 47.5 202.5Q22 268 22 345Q22 421 48 487Q74 553 121 601.5Q168 650 234.5 677.5Q301 705 382 705Q457 705 513.5 683Q570 661 612 624L530 520Q506 541 468.5 558.5Q431 576 383 576Q333 576 293 558.5Q253 541 225 510Q197 479 182.5 437Q168 395 168 346Q168 297 183.5 255Q199 213 227.5 182.5Q256 152 296 134.5Q336 117 385 117Q438 117 474.5 136.5Q511 156 533 175Z" glyph-name="Ccircumflex" horiz-adv-x="627" unicode="&#264;" /><glyph d="M366 730Q335 730 312.5 752Q290 774 290 806Q290 837 311.5 859Q333 881 366 881Q398 881 421 859.5Q444 838 444 806Q444 774 421.5 752Q399 730 366 730ZM614 78Q574 39 517 13Q460 -13 385 -13Q301 -13 234 14Q167 41 120 89Q73 137 47.5 202.5Q22 268 22 345Q22 421 48 487Q74 553 121 601.5Q168 650 234.5 677.5Q301 705 382 705Q457 705 513.5 683Q570 661 612 624L530 520Q506 541 468.5 558.5Q431 576 383 576Q333 576 293 558.5Q253 541 225 510Q197 479 182.5 437Q168 395 168 346Q168 297 183.5 255Q199 213 227.5 182.5Q256 152 296 134.5Q336 117 385 117Q438 117 474.5 136.5Q511 156 533 175Z" glyph-name="Cdotaccent" horiz-adv-x="627" unicode="&#266;" /><glyph d="M185 123H193Q291 122 347.5 179.5Q404 237 404 347Q404 456 348.5 513Q293 570 193 569H185ZM186 692Q271 692 338.5 668.5Q406 645 452.5 600.5Q499 556 524 492Q549 428 549 347Q549 267 524 203Q499 139 452 94Q405 49 338 24.5Q271 0 186 0H46V692Z" glyph-name="D" horiz-adv-x="572" unicode="D" /><glyph d="M185 123H193Q291 122 347.5 179.5Q404 237 404 347Q404 456 348.5 513Q293 570 193 569H185ZM186 692Q271 692 338.5 668.5Q406 645 452.5 600.5Q499 556 524 492Q549 428 549 347Q549 267 524 203Q499 139 452 94Q405 49 338 24.5Q271 0 186 0H46V692ZM198 724 95 854H219L268 799L317 854H440L337 724Z" glyph-name="Dcaron" horiz-adv-x="572" unicode="&#270;" /><glyph d="M200 692Q285 692 352.5 668.5Q420 645 466.5 600.5Q513 556 538 492Q563 428 563 347Q563 267 538 203Q513 139 466 94Q419 49 352 24.5Q285 0 200 0H60V286H8V416H60V692ZM199 416H297V286H199V123H207Q305 122 361.5 179.5Q418 237 418 347Q418 456 362.5 513Q307 570 207 569H199Z" glyph-name="Dcroat" horiz-adv-x="587" unicode="&#272;" /><glyph d="M46 0V692H363V562H185V418H358V290H185V130H366V0Z" glyph-name="E" horiz-adv-x="398" unicode="E" /><glyph d="M46 0V692H363V562H185V418H358V290H185V130H366V0ZM338 854 261 724H132L205 854Z" glyph-name="Eacute" horiz-adv-x="398" unicode="&#201;" /><glyph d="M46 0V692H363V562H185V418H358V290H185V130H366V0ZM207 723Q168 723 140 735Q112 747 94 766Q76 785 67.5 809Q59 833 59 857H161Q161 841 172 827.5Q183 814 208 814Q232 814 243.5 827.5Q255 841 255 857H356Q356 833 347.5 809Q339 785 321 766Q303 747 274.5 735Q246 723 207 723Z" glyph-name="Ebreve" horiz-adv-x="398" unicode="&#276;" /><glyph d="M46 0V692H363V562H185V418H358V290H185V130H366V0ZM137 724 34 854H158L207 799L256 854H379L276 724Z" glyph-name="Ecaron" horiz-adv-x="398" unicode="&#282;" /><glyph d="M46 0V692H363V562H185V418H358V290H185V130H366V0ZM273 854 376 724H253L204 778L154 724H31L134 854Z" glyph-name="Ecircumflex" horiz-adv-x="398" unicode="&#202;" /><glyph d="M46 0V692H363V562H185V418H358V290H185V130H366V0ZM110 722Q79 722 58 742.5Q37 763 37 795Q37 826 58 847Q79 868 110 868Q142 868 164 847Q186 826 186 795Q186 763 164 742.5Q142 722 110 722ZM308 722Q276 722 255 742.5Q234 763 234 795Q234 826 255 847Q276 868 308 868Q340 868 361.5 847Q383 826 383 795Q383 763 361.5 742.5Q340 722 308 722Z" glyph-name="Edieresis" horiz-adv-x="398" unicode="&#203;" /><glyph d="M46 0V692H363V562H185V418H358V290H185V130H366V0ZM202 730Q171 730 148.5 752Q126 774 126 806Q126 837 147.5 859Q169 881 202 881Q234 881 257 859.5Q280 838 280 806Q280 774 257.5 752Q235 730 202 730Z" glyph-name="Edotaccent" horiz-adv-x="398" unicode="&#278;" /><glyph d="M46 0V692H363V562H185V418H358V290H185V130H366V0ZM209 854 282 724H155L78 854Z" glyph-name="Egrave" horiz-adv-x="398" unicode="&#200;" /><glyph d="M46 0V692H363V562H185V418H358V290H185V130H366V0ZM82 830H338V731H82Z" glyph-name="Emacron" horiz-adv-x="398" unicode="&#274;" /><glyph d="M180 456V0H46V692H189L487 231V692H621V-15Q621 -52 614 -82.5Q607 -113 589 -134.5Q571 -156 539 -168Q507 -180 458 -180Q447 -180 432 -179.5Q417 -179 408 -179V-51H440Q464 -51 473 -39.5Q482 -28 484 -11V2Z" glyph-name="Eng" horiz-adv-x="667" unicode="&#330;" /><glyph d="M330 0Q304 -5 293.5 -18Q283 -31 283 -45Q283 -64 296.5 -72.5Q310 -81 330 -82V-175Q285 -178 252.5 -171.5Q220 -165 199 -151.5Q178 -138 168 -119Q158 -100 158 -78Q158 -29 206 0H46V692H363V562H185V418H358V290H185V130H366V0Z" glyph-name="Eogonek" horiz-adv-x="398" unicode="&#280;" /><glyph d="M200 692Q285 692 352.5 668.5Q420 645 466.5 600.5Q513 556 538 492Q563 428 563 347Q563 267 538 203Q513 139 466 94Q419 49 352 24.5Q285 0 200 0H60V286H8V416H60V692ZM199 416H297V286H199V123H207Q305 122 361.5 179.5Q418 237 418 347Q418 456 362.5 513Q307 570 207 569H199Z" glyph-name="Eth" horiz-adv-x="587" unicode="&#208;" /><glyph d="M84 480Q102 530 133 571Q164 612 206 641.5Q248 671 300.5 687Q353 703 414 703Q489 703 544 682Q599 661 641 625L559 524Q535 546 497.5 562Q460 578 412 578Q359 578 316.5 559Q274 540 249 502Q245 497 242 491Q239 485 236 480H437V380H208Q207 372 207 363Q207 354 207 346Q207 338 207 331Q207 324 208 317H437V217H237Q245 201 255 188Q281 152 323.5 134Q366 116 417 116Q466 116 502 134Q538 152 562 172L644 79Q604 41 548 15.5Q492 -10 417 -10Q352 -10 298 6.5Q244 23 201.5 53Q159 83 128.5 124.5Q98 166 81 217H19V317H63Q62 324 62 330.5Q62 337 62 345Q62 354 62 362.5Q62 371 63 380H19V480Z" glyph-name="Euro" horiz-adv-x="656" unicode="&#8364;" /><glyph d="M185 290V0H46V692H366V562H185V418H361V290Z" glyph-name="F" horiz-adv-x="396" unicode="F" /><glyph d="M685 0H551V41Q524 19 481 3.5Q438 -12 378 -12Q299 -12 233.5 14Q168 40 121 87Q74 134 48 200Q22 266 22 347Q22 421 47.5 486Q73 551 119.5 600Q166 649 232 677Q298 705 378 705Q433 705 477.5 694Q522 683 557 664Q592 645 618 620.5Q644 596 662 568L554 488Q542 504 526 520Q510 536 488.5 548.5Q467 561 439.5 568.5Q412 576 378 576Q331 576 292 559Q253 542 225.5 512Q198 482 182.5 440Q167 398 167 347Q167 294 183.5 251.5Q200 209 229 179Q258 149 297.5 132.5Q337 116 384 116Q444 116 485.5 135Q527 154 549 177V256H436V372H685Z" glyph-name="G" horiz-adv-x="727" unicode="G" /><glyph d="M685 0H551V41Q524 19 481 3.5Q438 -12 378 -12Q299 -12 233.5 14Q168 40 121 87Q74 134 48 200Q22 266 22 347Q22 421 47.5 486Q73 551 119.5 600Q166 649 232 677Q298 705 378 705Q433 705 477.5 694Q522 683 557 664Q592 645 618 620.5Q644 596 662 568L554 488Q542 504 526 520Q510 536 488.5 548.5Q467 561 439.5 568.5Q412 576 378 576Q331 576 292 559Q253 542 225.5 512Q198 482 182.5 440Q167 398 167 347Q167 294 183.5 251.5Q200 209 229 179Q258 149 297.5 132.5Q337 116 384 116Q444 116 485.5 135Q527 154 549 177V256H436V372H685ZM372 723Q333 723 305 735Q277 747 259 766Q241 785 232.5 809Q224 833 224 857H326Q326 841 337 827.5Q348 814 373 814Q397 814 408.5 827.5Q420 841 420 857H521Q521 833 512.5 809Q504 785 486 766Q468 747 439.5 735Q411 723 372 723Z" glyph-name="Gbreve" horiz-adv-x="727" unicode="&#286;" /><glyph d="M685 0H551V41Q524 19 481 3.5Q438 -12 378 -12Q299 -12 233.5 14Q168 40 121 87Q74 134 48 200Q22 266 22 347Q22 421 47.5 486Q73 551 119.5 600Q166 649 232 677Q298 705 378 705Q433 705 477.5 694Q522 683 557 664Q592 645 618 620.5Q644 596 662 568L554 488Q542 504 526 520Q510 536 488.5 548.5Q467 561 439.5 568.5Q412 576 378 576Q331 576 292 559Q253 542 225.5 512Q198 482 182.5 440Q167 398 167 347Q167 294 183.5 251.5Q200 209 229 179Q258 149 297.5 132.5Q337 116 384 116Q444 116 485.5 135Q527 154 549 177V256H436V372H685ZM447 854 550 724H427L378 778L328 724H205L308 854Z" glyph-name="Gcircumflex" horiz-adv-x="727" unicode="&#284;" /><glyph d="M685 0H551V41Q524 19 481 3.5Q438 -12 378 -12Q299 -12 233.5 14Q168 40 121 87Q74 134 48 200Q22 266 22 347Q22 421 47.5 486Q73 551 119.5 600Q166 649 232 677Q298 705 378 705Q433 705 477.5 694Q522 683 557 664Q592 645 618 620.5Q644 596 662 568L554 488Q542 504 526 520Q510 536 488.5 548.5Q467 561 439.5 568.5Q412 576 378 576Q331 576 292 559Q253 542 225.5 512Q198 482 182.5 440Q167 398 167 347Q167 294 183.5 251.5Q200 209 229 179Q258 149 297.5 132.5Q337 116 384 116Q444 116 485.5 135Q527 154 549 177V256H436V372H685ZM350 -176Q326 -170 311 -152Q296 -134 296 -105Q296 -75 316.5 -53Q337 -31 374 -31Q410 -31 430 -54Q450 -77 450 -107Q450 -127 444 -143.5Q438 -160 431 -174L393 -250H316Z" glyph-name="Gcommaaccent" horiz-adv-x="727" unicode="&#290;" /><glyph d="M685 0H551V41Q524 19 481 3.5Q438 -12 378 -12Q299 -12 233.5 14Q168 40 121 87Q74 134 48 200Q22 266 22 347Q22 421 47.5 486Q73 551 119.5 600Q166 649 232 677Q298 705 378 705Q433 705 477.5 694Q522 683 557 664Q592 645 618 620.5Q644 596 662 568L554 488Q542 504 526 520Q510 536 488.5 548.5Q467 561 439.5 568.5Q412 576 378 576Q331 576 292 559Q253 542 225.5 512Q198 482 182.5 440Q167 398 167 347Q167 294 183.5 251.5Q200 209 229 179Q258 149 297.5 132.5Q337 116 384 116Q444 116 485.5 135Q527 154 549 177V256H436V372H685ZM380 730Q349 730 326.5 752Q304 774 304 806Q304 837 325.5 859Q347 881 380 881Q412 881 435 859.5Q458 838 458 806Q458 774 435.5 752Q413 730 380 730Z" glyph-name="Gdotaccent" horiz-adv-x="727" unicode="&#288;" /><glyph d="M600 0H461V289H185V0H46V692H185V421H461V692H600Z" glyph-name="H" horiz-adv-x="646" unicode="H" /><glyph d="M609 614H663V513H609V0H470V289H194V0H55V513H3V614H55V692H194V614H470V692H609ZM470 421V513H194V421Z" glyph-name="Hbar" horiz-adv-x="666" unicode="&#294;" /><glyph d="M600 0H461V289H185V0H46V692H185V421H461V692H600ZM391 854 494 724H371L322 778L272 724H149L252 854Z" glyph-name="Hcircumflex" horiz-adv-x="646" unicode="&#292;" /><glyph d="M185 0H46V692H185Z" glyph-name="I" horiz-adv-x="231" unicode="I" /><glyph d="M185 0H46V692H185ZM473 166Q473 128 466 97.5Q459 67 440 45Q421 23 389 11Q357 -1 307 -1Q297 -1 279 -1Q261 -1 248 0V128H287Q317 128 325.5 144Q334 160 334 181V692H473Z" glyph-name="IJ" horiz-adv-x="518" unicode="&#306;" /><glyph d="M185 0H46V692H185ZM259 854 182 724H53L126 854Z" glyph-name="Iacute" horiz-adv-x="231" unicode="&#205;" /><glyph d="M185 0H46V692H185ZM117 723Q78 723 50 735Q22 747 4 766Q-14 785 -22.5 809Q-31 833 -31 857H71Q71 841 82 827.5Q93 814 118 814Q142 814 153.5 827.5Q165 841 165 857H266Q266 833 257.5 809Q249 785 231 766Q213 747 184.5 735Q156 723 117 723Z" glyph-name="Ibreve" horiz-adv-x="231" unicode="&#300;" /><glyph d="M184 854 284 724H162L115 779L68 724H-54L45 854ZM185 0H46V692H185Z" glyph-name="Icircumflex" horiz-adv-x="231" unicode="&#206;" /><glyph d="M20 722Q-12 722 -33 742.5Q-54 763 -54 795Q-54 826 -33 847Q-12 868 20 868Q52 868 73.5 847Q95 826 95 795Q95 763 73.5 742.5Q52 722 20 722ZM209 722Q178 722 157 742.5Q136 763 136 795Q136 826 157 847Q178 868 209 868Q241 868 263 847Q285 826 285 795Q285 763 263 742.5Q241 722 209 722ZM185 0H46V692H185Z" glyph-name="Idieresis" horiz-adv-x="231" unicode="&#207;" /><glyph d="M185 0H46V692H185ZM116 730Q85 730 62.5 752Q40 774 40 806Q40 837 61.5 859Q83 881 116 881Q148 881 171 859.5Q194 838 194 806Q194 774 171.5 752Q149 730 116 730Z" glyph-name="Idotaccent" horiz-adv-x="231" unicode="&#304;" /><glyph d="M185 0H46V692H185ZM106 854 179 724H52L-25 854Z" glyph-name="Igrave" horiz-adv-x="231" unicode="&#204;" /><glyph d="M185 0H46V692H185ZM-10 830H246V731H-10Z" glyph-name="Imacron" horiz-adv-x="231" unicode="&#298;" /><glyph d="M185 0Q161 -5 151 -18.5Q141 -32 141 -45Q141 -63 154.5 -72Q168 -81 188 -82V-175Q98 -180 57 -150.5Q16 -121 16 -77Q16 -51 25 -32.5Q34 -14 46 0V692H185Z" glyph-name="Iogonek" horiz-adv-x="231" unicode="&#302;" /><glyph d="M185 0H46V692H185ZM178 728Q159 728 144.5 733.5Q130 739 117.5 745Q105 751 94.5 756.5Q84 762 73 762Q44 762 44 727H-51Q-54 785 -24 823Q6 861 58 861Q78 861 92.5 855.5Q107 850 119 844Q131 838 141 832.5Q151 827 162 827Q189 827 189 862H285Q287 801 258 764.5Q229 728 178 728Z" glyph-name="Itilde" horiz-adv-x="231" unicode="&#296;" /><glyph d="M243 166Q243 128 236 97.5Q229 67 210 45Q191 23 159 11Q127 -1 77 -1Q67 -1 49 -1Q31 -1 18 0V128H57Q87 128 95.5 144Q104 160 104 181V692H243Z" glyph-name="J" horiz-adv-x="288" unicode="J" /><glyph d="M237 166Q237 128 230 97.5Q223 67 204 45Q185 23 153 11Q121 -1 71 -1Q61 -1 43 -1Q25 -1 12 0V128H51Q81 128 89.5 144Q98 160 98 181V692H237ZM235 854 338 724H215L166 778L116 724H-7L96 854Z" glyph-name="Jcircumflex" horiz-adv-x="288" unicode="&#308;" /><glyph d="M185 409 399 692H560L302 361L564 0H401L185 297V0H46V692H185Z" glyph-name="K" horiz-adv-x="558" unicode="K" /><glyph d="M185 409 399 692H560L302 361L564 0H401L185 297V0H46V692H185ZM253 -176Q229 -170 214 -152Q199 -134 199 -105Q199 -75 219.5 -53Q240 -31 277 -31Q313 -31 333 -54Q353 -77 353 -107Q353 -127 347 -143.5Q341 -160 334 -174L296 -250H219Z" glyph-name="Kcommaaccent" horiz-adv-x="558" unicode="&#310;" /><glyph d="M46 0V692H185V130H360V0Z" glyph-name="L" horiz-adv-x="380" unicode="L" /><glyph d="M46 0V692H185V130H360V0ZM261 854 184 724H55L128 854Z" glyph-name="Lacute" horiz-adv-x="380" unicode="&#313;" /><glyph d="M46 0V692H185V130H360V0ZM339 693 325 534H219L231 693Z" glyph-name="Lcaron" horiz-adv-x="380" unicode="&#317;" /><glyph d="M46 0V692H185V130H360V0ZM175 -176Q151 -170 136 -152Q121 -134 121 -105Q121 -75 141.5 -53Q162 -31 199 -31Q235 -31 255 -54Q275 -77 275 -107Q275 -127 269 -143.5Q263 -160 256 -174L218 -250H141Z" glyph-name="Lcommaaccent" horiz-adv-x="380" unicode="&#315;" /><glyph d="M331 267Q294 267 269 292Q244 317 244 354Q244 391 268.5 416Q293 441 331 441Q369 441 393.5 416Q418 391 418 354Q418 317 393 292Q368 267 331 267ZM46 0V692H185V130H360V0Z" glyph-name="Ldot" horiz-adv-x="432" unicode="&#319;" /><glyph d="M55 0V201L7 175V298L55 325V692H194V404L304 467V335L194 276V130H369V0Z" glyph-name="Lslash" horiz-adv-x="381" unicode="&#321;" /><glyph d="M497 0H364L174 517V0H46V692H253L436 181L619 692H821V0H687V517Z" glyph-name="M" horiz-adv-x="867" unicode="M" /><glyph d="M181 456V0H46V692H190L487 228V692H622V0H484Z" glyph-name="N" horiz-adv-x="668" unicode="N" /><glyph d="M181 456V0H46V692H190L487 228V692H622V0H484ZM467 854 390 724H261L334 854Z" glyph-name="Nacute" horiz-adv-x="668" unicode="&#323;" /><glyph d="M181 456V0H46V692H190L487 228V692H622V0H484ZM439 854 393 724H274L318 854Z" glyph-name="Nacute.pl" horiz-adv-x="667" /><glyph d="M181 456V0H46V692H190L487 228V692H622V0H484ZM272 724 169 854H293L342 799L391 854H514L411 724Z" glyph-name="Ncaron" horiz-adv-x="668" unicode="&#327;" /><glyph d="M181 456V0H46V692H190L487 228V692H622V0H484ZM317 -176Q293 -170 278 -152Q263 -134 263 -105Q263 -75 283.5 -53Q304 -31 341 -31Q377 -31 397 -54Q417 -77 417 -107Q417 -127 411 -143.5Q405 -160 398 -174L360 -250H283Z" glyph-name="Ncommaaccent" horiz-adv-x="667" unicode="&#325;" /><glyph d="M181 456V0H46V692H190L487 228V692H622V0H484ZM405 728Q386 728 371.5 733.5Q357 739 344.5 745Q332 751 321.5 756.5Q311 762 300 762Q271 762 271 727H176Q173 785 203 823Q233 861 285 861Q305 861 319.5 855.5Q334 850 346 844Q358 838 368 832.5Q378 827 389 827Q416 827 416 862H512Q514 801 485 764.5Q456 728 405 728Z" glyph-name="Ntilde" horiz-adv-x="668" unicode="&#209;" /><glyph d="M22 345Q22 421 48 487Q74 553 121.5 601.5Q169 650 234.5 677.5Q300 705 379 705Q461 705 528.5 677.5Q596 650 643 602Q690 554 716 488.5Q742 423 742 347Q742 271 716.5 205Q691 139 643.5 90.5Q596 42 529.5 14.5Q463 -13 382 -13Q299 -13 232.5 14Q166 41 119.5 89Q73 137 47.5 202.5Q22 268 22 345ZM168 346Q168 297 183.5 255Q199 213 227 182.5Q255 152 294.5 134.5Q334 117 382 117Q432 117 472 134.5Q512 152 539.5 182.5Q567 213 581.5 255Q596 297 596 346Q596 395 581 437Q566 479 538 510Q510 541 470 558.5Q430 576 381 576Q331 576 291.5 558.5Q252 541 224.5 510Q197 479 182.5 437Q168 395 168 346Z" glyph-name="O" horiz-adv-x="764" unicode="O" /><glyph d="M379 562Q280 563 224 508Q168 453 168 347Q168 241 225 185Q282 129 379 130ZM696 692V562H518V418H691V290H518V130H699V0H386Q300 0 233 25Q166 50 119 95.5Q72 141 47.5 205Q23 269 23 347Q23 425 48 488.5Q73 552 120 597.5Q167 643 234.5 667.5Q302 692 386 692Z" glyph-name="OE" horiz-adv-x="731" unicode="&#338;" /><glyph d="M22 345Q22 421 48 487Q74 553 121.5 601.5Q169 650 234.5 677.5Q300 705 379 705Q461 705 528.5 677.5Q596 650 643 602Q690 554 716 488.5Q742 423 742 347Q742 271 716.5 205Q691 139 643.5 90.5Q596 42 529.5 14.5Q463 -13 382 -13Q299 -13 232.5 14Q166 41 119.5 89Q73 137 47.5 202.5Q22 268 22 345ZM168 346Q168 297 183.5 255Q199 213 227 182.5Q255 152 294.5 134.5Q334 117 382 117Q432 117 472 134.5Q512 152 539.5 182.5Q567 213 581.5 255Q596 297 596 346Q596 395 581 437Q566 479 538 510Q510 541 470 558.5Q430 576 381 576Q331 576 291.5 558.5Q252 541 224.5 510Q197 479 182.5 437Q168 395 168 346ZM518 854 441 724H312L385 854Z" glyph-name="Oacute" horiz-adv-x="764" unicode="&#211;" /><glyph d="M22 345Q22 421 48 487Q74 553 121.5 601.5Q169 650 234.5 677.5Q300 705 379 705Q461 705 528.5 677.5Q596 650 643 602Q690 554 716 488.5Q742 423 742 347Q742 271 716.5 205Q691 139 643.5 90.5Q596 42 529.5 14.5Q463 -13 382 -13Q299 -13 232.5 14Q166 41 119.5 89Q73 137 47.5 202.5Q22 268 22 345ZM168 346Q168 297 183.5 255Q199 213 227 182.5Q255 152 294.5 134.5Q334 117 382 117Q432 117 472 134.5Q512 152 539.5 182.5Q567 213 581.5 255Q596 297 596 346Q596 395 581 437Q566 479 538 510Q510 541 470 558.5Q430 576 381 576Q331 576 291.5 558.5Q252 541 224.5 510Q197 479 182.5 437Q168 395 168 346ZM488 854 442 724H323L367 854Z" glyph-name="Oacute.pl" horiz-adv-x="764" /><glyph d="M22 345Q22 421 48 487Q74 553 121.5 601.5Q169 650 234.5 677.5Q300 705 379 705Q461 705 528.5 677.5Q596 650 643 602Q690 554 716 488.5Q742 423 742 347Q742 271 716.5 205Q691 139 643.5 90.5Q596 42 529.5 14.5Q463 -13 382 -13Q299 -13 232.5 14Q166 41 119.5 89Q73 137 47.5 202.5Q22 268 22 345ZM168 346Q168 297 183.5 255Q199 213 227 182.5Q255 152 294.5 134.5Q334 117 382 117Q432 117 472 134.5Q512 152 539.5 182.5Q567 213 581.5 255Q596 297 596 346Q596 395 581 437Q566 479 538 510Q510 541 470 558.5Q430 576 381 576Q331 576 291.5 558.5Q252 541 224.5 510Q197 479 182.5 437Q168 395 168 346ZM381 723Q342 723 314 735Q286 747 268 766Q250 785 241.5 809Q233 833 233 857H335Q335 841 346 827.5Q357 814 382 814Q406 814 417.5 827.5Q429 841 429 857H530Q530 833 521.5 809Q513 785 495 766Q477 747 448.5 735Q420 723 381 723Z" glyph-name="Obreve" horiz-adv-x="764" unicode="&#334;" /><glyph d="M22 345Q22 421 48 487Q74 553 121.5 601.5Q169 650 234.5 677.5Q300 705 379 705Q461 705 528.5 677.5Q596 650 643 602Q690 554 716 488.5Q742 423 742 347Q742 271 716.5 205Q691 139 643.5 90.5Q596 42 529.5 14.5Q463 -13 382 -13Q299 -13 232.5 14Q166 41 119.5 89Q73 137 47.5 202.5Q22 268 22 345ZM168 346Q168 297 183.5 255Q199 213 227 182.5Q255 152 294.5 134.5Q334 117 382 117Q432 117 472 134.5Q512 152 539.5 182.5Q567 213 581.5 255Q596 297 596 346Q596 395 581 437Q566 479 538 510Q510 541 470 558.5Q430 576 381 576Q331 576 291.5 558.5Q252 541 224.5 510Q197 479 182.5 437Q168 395 168 346ZM451 854 554 724H431L382 778L332 724H209L312 854Z" glyph-name="Ocircumflex" horiz-adv-x="764" unicode="&#212;" /><glyph d="M22 345Q22 421 48 487Q74 553 121.5 601.5Q169 650 234.5 677.5Q300 705 379 705Q461 705 528.5 677.5Q596 650 643 602Q690 554 716 488.5Q742 423 742 347Q742 271 716.5 205Q691 139 643.5 90.5Q596 42 529.5 14.5Q463 -13 382 -13Q299 -13 232.5 14Q166 41 119.5 89Q73 137 47.5 202.5Q22 268 22 345ZM168 346Q168 297 183.5 255Q199 213 227 182.5Q255 152 294.5 134.5Q334 117 382 117Q432 117 472 134.5Q512 152 539.5 182.5Q567 213 581.5 255Q596 297 596 346Q596 395 581 437Q566 479 538 510Q510 541 470 558.5Q430 576 381 576Q331 576 291.5 558.5Q252 541 224.5 510Q197 479 182.5 437Q168 395 168 346ZM282 722Q251 722 230 742.5Q209 763 209 795Q209 826 230 847Q251 868 282 868Q314 868 336 847Q358 826 358 795Q358 763 336 742.5Q314 722 282 722ZM480 722Q448 722 427 742.5Q406 763 406 795Q406 826 427 847Q448 868 480 868Q512 868 533.5 847Q555 826 555 795Q555 763 533.5 742.5Q512 722 480 722Z" glyph-name="Odieresis" horiz-adv-x="764" unicode="&#214;" /><glyph d="M22 345Q22 421 48 487Q74 553 121.5 601.5Q169 650 234.5 677.5Q300 705 379 705Q461 705 528.5 677.5Q596 650 643 602Q690 554 716 488.5Q742 423 742 347Q742 271 716.5 205Q691 139 643.5 90.5Q596 42 529.5 14.5Q463 -13 382 -13Q299 -13 232.5 14Q166 41 119.5 89Q73 137 47.5 202.5Q22 268 22 345ZM168 346Q168 297 183.5 255Q199 213 227 182.5Q255 152 294.5 134.5Q334 117 382 117Q432 117 472 134.5Q512 152 539.5 182.5Q567 213 581.5 255Q596 297 596 346Q596 395 581 437Q566 479 538 510Q510 541 470 558.5Q430 576 381 576Q331 576 291.5 558.5Q252 541 224.5 510Q197 479 182.5 437Q168 395 168 346ZM374 854 447 724H320L243 854Z" glyph-name="Ograve" horiz-adv-x="764" unicode="&#210;" /><glyph d="M22 345Q22 421 48 487Q74 553 121.5 601.5Q169 650 234.5 677.5Q300 705 379 705Q461 705 528.5 677.5Q596 650 643 602Q690 554 716 488.5Q742 423 742 347Q742 271 716.5 205Q691 139 643.5 90.5Q596 42 529.5 14.5Q463 -13 382 -13Q299 -13 232.5 14Q166 41 119.5 89Q73 137 47.5 202.5Q22 268 22 345ZM168 346Q168 297 183.5 255Q199 213 227 182.5Q255 152 294.5 134.5Q334 117 382 117Q432 117 472 134.5Q512 152 539.5 182.5Q567 213 581.5 255Q596 297 596 346Q596 395 581 437Q566 479 538 510Q510 541 470 558.5Q430 576 381 576Q331 576 291.5 558.5Q252 541 224.5 510Q197 479 182.5 437Q168 395 168 346ZM424 853 363 724H240L296 853ZM597 853 532 724H410L470 853Z" glyph-name="Ohungarumlaut" horiz-adv-x="764" unicode="&#336;" /><glyph d="M22 345Q22 421 48 487Q74 553 121.5 601.5Q169 650 234.5 677.5Q300 705 379 705Q461 705 528.5 677.5Q596 650 643 602Q690 554 716 488.5Q742 423 742 347Q742 271 716.5 205Q691 139 643.5 90.5Q596 42 529.5 14.5Q463 -13 382 -13Q299 -13 232.5 14Q166 41 119.5 89Q73 137 47.5 202.5Q22 268 22 345ZM168 346Q168 297 183.5 255Q199 213 227 182.5Q255 152 294.5 134.5Q334 117 382 117Q432 117 472 134.5Q512 152 539.5 182.5Q567 213 581.5 255Q596 297 596 346Q596 395 581 437Q566 479 538 510Q510 541 470 558.5Q430 576 381 576Q331 576 291.5 558.5Q252 541 224.5 510Q197 479 182.5 437Q168 395 168 346ZM252 830H508V731H252Z" glyph-name="Omacron" horiz-adv-x="764" unicode="&#332;" /><glyph d="M22 345Q22 421 48 486.5Q74 552 121.5 600.5Q169 649 234 676.5Q299 704 377 704Q433 704 483 690.5Q533 677 570 652L620 709L709 631L661 576Q695 535 716.5 477Q738 419 738 347Q738 272 712.5 206.5Q687 141 640 92.5Q593 44 527 16.5Q461 -11 380 -11Q320 -11 272.5 3Q225 17 190 40L138 -20L49 57L99 115Q61 160 41.5 219Q22 278 22 345ZM165 346Q165 276 194 223L483 553Q436 578 379 578Q329 578 289.5 560.5Q250 543 222 511.5Q194 480 179.5 437.5Q165 395 165 346ZM594 346Q594 380 586.5 410.5Q579 441 565 467L277 139Q300 128 325 121.5Q350 115 379 115Q429 115 469 132.5Q509 150 536.5 181Q564 212 579 254.5Q594 297 594 346Z" glyph-name="Oslash" horiz-adv-x="764" unicode="&#216;" /><glyph d="M513 854 436 724H307L380 854ZM22 345Q22 421 48 486.5Q74 552 121.5 600.5Q169 649 234 676.5Q299 704 377 704Q433 704 483 690.5Q533 677 570 652L620 709L709 631L661 576Q695 535 716.5 477Q738 419 738 347Q738 272 712.5 206.5Q687 141 640 92.5Q593 44 527 16.5Q461 -11 380 -11Q320 -11 272.5 3Q225 17 190 40L138 -20L49 57L99 115Q61 160 41.5 219Q22 278 22 345ZM165 346Q165 276 194 223L483 553Q436 578 379 578Q329 578 289.5 560.5Q250 543 222 511.5Q194 480 179.5 437.5Q165 395 165 346ZM594 346Q594 380 586.5 410.5Q579 441 565 467L277 139Q300 128 325 121.5Q350 115 379 115Q429 115 469 132.5Q509 150 536.5 181Q564 212 579 254.5Q594 297 594 346Z" glyph-name="Oslashacute" horiz-adv-x="764" unicode="&#510;" /><glyph d="M22 345Q22 421 48 487Q74 553 121.5 601.5Q169 650 234.5 677.5Q300 705 379 705Q461 705 528.5 677.5Q596 650 643 602Q690 554 716 488.5Q742 423 742 347Q742 271 716.5 205Q691 139 643.5 90.5Q596 42 529.5 14.5Q463 -13 382 -13Q299 -13 232.5 14Q166 41 119.5 89Q73 137 47.5 202.5Q22 268 22 345ZM168 346Q168 297 183.5 255Q199 213 227 182.5Q255 152 294.5 134.5Q334 117 382 117Q432 117 472 134.5Q512 152 539.5 182.5Q567 213 581.5 255Q596 297 596 346Q596 395 581 437Q566 479 538 510Q510 541 470 558.5Q430 576 381 576Q331 576 291.5 558.5Q252 541 224.5 510Q197 479 182.5 437Q168 395 168 346ZM442 728Q423 728 408.5 733.5Q394 739 381.5 745Q369 751 358.5 756.5Q348 762 337 762Q308 762 308 727H213Q210 785 240 823Q270 861 322 861Q342 861 356.5 855.5Q371 850 383 844Q395 838 405 832.5Q415 827 426 827Q453 827 453 862H549Q551 801 522 764.5Q493 728 442 728Z" glyph-name="Otilde" horiz-adv-x="764" unicode="&#213;" /><glyph d="M472 493Q472 446 457 408.5Q442 371 414 344.5Q386 318 347 304Q308 290 260 290H184V0H46V692H260Q364 692 418 641Q472 590 472 493ZM184 572V410H249Q287 410 307.5 432.5Q328 455 328 492Q328 529 307.5 550.5Q287 572 249 572Z" glyph-name="P" horiz-adv-x="484" unicode="P" /><glyph d="M22 345Q22 421 48 487Q74 553 121.5 601.5Q169 650 234.5 677.5Q300 705 379 705Q461 705 528.5 677.5Q596 650 643 602Q690 554 716 488.5Q742 423 742 347Q742 290 726 238Q710 186 681 142L739 92L653 -9L587 48Q544 19 492.5 3Q441 -13 382 -13Q299 -13 232.5 14Q166 41 119.5 89Q73 137 47.5 202.5Q22 268 22 345ZM166 346Q166 296 181.5 253.5Q197 211 225.5 180Q254 149 293.5 131.5Q333 114 382 114Q439 114 485 137L430 185L515 286L575 233Q598 284 598 346Q598 396 583 438.5Q568 481 539.5 512Q511 543 471 560.5Q431 578 381 578Q331 578 291 560.5Q251 543 223 512Q195 481 180.5 438.5Q166 396 166 346Z" glyph-name="Q" horiz-adv-x="764" unicode="Q" /><glyph d="M472 493Q472 433 446.5 389.5Q421 346 376 322L540 0H391L244 296H184V0H46V692H260Q364 692 418 641Q472 590 472 493ZM184 572V410H249Q287 410 307.5 432.5Q328 455 328 492Q328 529 307.5 550.5Q287 572 249 572Z" glyph-name="R" horiz-adv-x="531" unicode="R" /><glyph d="M472 493Q472 433 446.5 389.5Q421 346 376 322L540 0H391L244 296H184V0H46V692H260Q364 692 418 641Q472 590 472 493ZM184 572V410H249Q287 410 307.5 432.5Q328 455 328 492Q328 529 307.5 550.5Q287 572 249 572ZM379 854 302 724H173L246 854Z" glyph-name="Racute" horiz-adv-x="531" unicode="&#340;" /><glyph d="M472 493Q472 433 446.5 389.5Q421 346 376 322L540 0H391L244 296H184V0H46V692H260Q364 692 418 641Q472 590 472 493ZM184 572V410H249Q287 410 307.5 432.5Q328 455 328 492Q328 529 307.5 550.5Q287 572 249 572ZM182 724 79 854H203L252 799L301 854H424L321 724Z" glyph-name="Rcaron" horiz-adv-x="531" unicode="&#344;" /><glyph d="M472 493Q472 433 446.5 389.5Q421 346 376 322L540 0H391L244 296H184V0H46V692H260Q364 692 418 641Q472 590 472 493ZM184 572V410H249Q287 410 307.5 432.5Q328 455 328 492Q328 529 307.5 550.5Q287 572 249 572ZM242 -176Q218 -170 203 -152Q188 -134 188 -105Q188 -75 208.5 -53Q229 -31 266 -31Q302 -31 322 -54Q342 -77 342 -107Q342 -127 336 -143.5Q330 -160 323 -174L285 -250H208Z" glyph-name="Rcommaaccent" horiz-adv-x="531" unicode="&#342;" /><glyph d="M172 517Q172 490 187.5 471Q203 452 237 438Q262 427 287 417.5Q312 408 341 395Q404 367 439 321.5Q474 276 474 202Q474 152 457 112.5Q440 73 410 45Q380 17 338 2Q296 -13 246 -13Q177 -13 133 7.5Q89 28 64.5 60Q40 92 31 132.5Q22 173 24 213H156Q156 192 160.5 173Q165 154 175.5 139Q186 124 203 115.5Q220 107 246 107Q283 107 307 127.5Q331 148 331 187Q331 222 311 242Q291 262 257 276Q228 290 197.5 301Q167 312 137 329Q86 355 60 401Q34 447 34 510Q34 552 49 588Q64 624 91.5 650Q119 676 158 690.5Q197 705 246 705Q304 705 344.5 688.5Q385 672 409.5 644Q434 616 444 578Q454 540 452 498H324Q324 536 304 561Q284 586 246 586Q210 586 191 566Q172 546 172 517Z" glyph-name="S" horiz-adv-x="498" unicode="S" /><glyph d="M172 517Q172 490 187.5 471Q203 452 237 438Q262 427 287 417.5Q312 408 341 395Q404 367 439 321.5Q474 276 474 202Q474 152 457 112.5Q440 73 410 45Q380 17 338 2Q296 -13 246 -13Q177 -13 133 7.5Q89 28 64.5 60Q40 92 31 132.5Q22 173 24 213H156Q156 192 160.5 173Q165 154 175.5 139Q186 124 203 115.5Q220 107 246 107Q283 107 307 127.5Q331 148 331 187Q331 222 311 242Q291 262 257 276Q228 290 197.5 301Q167 312 137 329Q86 355 60 401Q34 447 34 510Q34 552 49 588Q64 624 91.5 650Q119 676 158 690.5Q197 705 246 705Q304 705 344.5 688.5Q385 672 409.5 644Q434 616 444 578Q454 540 452 498H324Q324 536 304 561Q284 586 246 586Q210 586 191 566Q172 546 172 517ZM387 854 310 724H181L254 854Z" glyph-name="Sacute" horiz-adv-x="498" unicode="&#346;" /><glyph d="M172 517Q172 490 187.5 471Q203 452 237 438Q262 427 287 417.5Q312 408 341 395Q404 367 439 321.5Q474 276 474 202Q474 152 457 112.5Q440 73 410 45Q380 17 338 2Q296 -13 246 -13Q177 -13 133 7.5Q89 28 64.5 60Q40 92 31 132.5Q22 173 24 213H156Q156 192 160.5 173Q165 154 175.5 139Q186 124 203 115.5Q220 107 246 107Q283 107 307 127.5Q331 148 331 187Q331 222 311 242Q291 262 257 276Q228 290 197.5 301Q167 312 137 329Q86 355 60 401Q34 447 34 510Q34 552 49 588Q64 624 91.5 650Q119 676 158 690.5Q197 705 246 705Q304 705 344.5 688.5Q385 672 409.5 644Q434 616 444 578Q454 540 452 498H324Q324 536 304 561Q284 586 246 586Q210 586 191 566Q172 546 172 517ZM354 854 308 724H189L233 854Z" glyph-name="Sacute.pl" horiz-adv-x="498" /><glyph d="M172 517Q172 490 187.5 471Q203 452 237 438Q262 427 287 417.5Q312 408 341 395Q404 367 439 321.5Q474 276 474 202Q474 152 457 112.5Q440 73 410 45Q380 17 338 2Q296 -13 246 -13Q177 -13 133 7.5Q89 28 64.5 60Q40 92 31 132.5Q22 173 24 213H156Q156 192 160.5 173Q165 154 175.5 139Q186 124 203 115.5Q220 107 246 107Q283 107 307 127.5Q331 148 331 187Q331 222 311 242Q291 262 257 276Q228 290 197.5 301Q167 312 137 329Q86 355 60 401Q34 447 34 510Q34 552 49 588Q64 624 91.5 650Q119 676 158 690.5Q197 705 246 705Q304 705 344.5 688.5Q385 672 409.5 644Q434 616 444 578Q454 540 452 498H324Q324 536 304 561Q284 586 246 586Q210 586 191 566Q172 546 172 517ZM178 724 75 854H199L248 799L297 854H420L317 724Z" glyph-name="Scaron" horiz-adv-x="498" unicode="&#352;" /><glyph d="M170 -259V-183H191Q211 -182 223 -173Q235 -164 235 -143Q235 -124 223 -114.5Q211 -105 191 -105H170V-5Q125 6 96 28.5Q67 51 50.5 80.5Q34 110 28 144.5Q22 179 24 213H156Q156 192 160.5 173Q165 154 175.5 139Q186 124 203 115.5Q220 107 246 107Q283 107 307 127.5Q331 148 331 187Q331 222 311 242Q291 262 257 276Q228 290 197.5 301Q167 312 137 329Q86 355 60 401Q34 447 34 510Q34 552 49 588Q64 624 91.5 650Q119 676 158 690.5Q197 705 246 705Q304 705 344.5 688.5Q385 672 409.5 644Q434 616 444 578Q454 540 452 498H324Q324 536 304 561Q284 586 246 586Q210 586 191 566Q172 546 172 517Q172 490 187.5 471Q203 452 237 438Q262 427 287 417.5Q312 408 341 395Q404 367 439 321.5Q474 276 474 202Q474 152 457 112.5Q440 73 410 45Q380 17 338 2Q296 -13 246 -13V-36Q290 -48 307 -77Q324 -106 324 -143Q324 -199 288.5 -229Q253 -259 190 -259Z" glyph-name="Scedilla" horiz-adv-x="498" unicode="&#350;" /><glyph d="M172 517Q172 490 187.5 471Q203 452 237 438Q262 427 287 417.5Q312 408 341 395Q404 367 439 321.5Q474 276 474 202Q474 152 457 112.5Q440 73 410 45Q380 17 338 2Q296 -13 246 -13Q177 -13 133 7.5Q89 28 64.5 60Q40 92 31 132.5Q22 173 24 213H156Q156 192 160.5 173Q165 154 175.5 139Q186 124 203 115.5Q220 107 246 107Q283 107 307 127.5Q331 148 331 187Q331 222 311 242Q291 262 257 276Q228 290 197.5 301Q167 312 137 329Q86 355 60 401Q34 447 34 510Q34 552 49 588Q64 624 91.5 650Q119 676 158 690.5Q197 705 246 705Q304 705 344.5 688.5Q385 672 409.5 644Q434 616 444 578Q454 540 452 498H324Q324 536 304 561Q284 586 246 586Q210 586 191 566Q172 546 172 517ZM315 854 418 724H295L246 778L196 724H73L176 854Z" glyph-name="Scircumflex" horiz-adv-x="498" unicode="&#348;" /><glyph d="M172 517Q172 490 187.5 471Q203 452 237 438Q262 427 287 417.5Q312 408 341 395Q404 367 439 321.5Q474 276 474 202Q474 152 457 112.5Q440 73 410 45Q380 17 338 2Q296 -13 246 -13Q177 -13 133 7.5Q89 28 64.5 60Q40 92 31 132.5Q22 173 24 213H156Q156 192 160.5 173Q165 154 175.5 139Q186 124 203 115.5Q220 107 246 107Q283 107 307 127.5Q331 148 331 187Q331 222 311 242Q291 262 257 276Q228 290 197.5 301Q167 312 137 329Q86 355 60 401Q34 447 34 510Q34 552 49 588Q64 624 91.5 650Q119 676 158 690.5Q197 705 246 705Q304 705 344.5 688.5Q385 672 409.5 644Q434 616 444 578Q454 540 452 498H324Q324 536 304 561Q284 586 246 586Q210 586 191 566Q172 546 172 517ZM223 -176Q199 -170 184 -152Q169 -134 169 -105Q169 -75 189.5 -53Q210 -31 247 -31Q283 -31 303 -54Q323 -77 323 -107Q323 -127 317 -143.5Q311 -160 304 -174L266 -250H189Z" glyph-name="Scommaaccent" horiz-adv-x="498" unicode="&#536;" /><glyph d="M282 562V0H143V562H17V692H408V562Z" glyph-name="T" horiz-adv-x="425" unicode="T" /><glyph d="M282 562V436H370V335H282V0H143V335H55V436H143V562H17V692H408V562Z" glyph-name="Tbar" horiz-adv-x="425" unicode="&#358;" /><glyph d="M282 562V0H143V562H17V692H408V562ZM142 724 39 854H163L212 799L261 854H384L281 724Z" glyph-name="Tcaron" horiz-adv-x="425" unicode="&#356;" /><glyph d="M282 562V0H143V562H17V692H408V562ZM188 -176Q164 -170 149 -152Q134 -134 134 -105Q134 -75 154.5 -53Q175 -31 212 -31Q248 -31 268 -54Q288 -77 288 -107Q288 -127 282 -143.5Q276 -160 269 -174L231 -250H154Z" glyph-name="Tcommaaccent" horiz-adv-x="424" unicode="&#354;" /><glyph d="M472 354Q472 306 457 267.5Q442 229 414 202.5Q386 176 347 162Q308 148 260 148H184V0H46V692H184V553H260Q364 553 418 502Q472 451 472 354ZM184 432V271H249Q287 271 307.5 293Q328 315 328 353Q328 390 307.5 411Q287 432 249 432Z" glyph-name="Thorn" horiz-adv-x="491" unicode="&#222;" /><glyph d="M317 -13Q246 -13 194.5 7.5Q143 28 109 65Q75 102 58.5 154Q42 206 42 270V692H181V270Q181 202 214.5 159.5Q248 117 319 117Q387 117 421 160Q455 203 455 271V692H594V271Q594 209 576 157Q558 105 523 67.5Q488 30 436.5 8.5Q385 -13 317 -13Z" glyph-name="U" horiz-adv-x="636" unicode="U" /><glyph d="M317 -13Q246 -13 194.5 7.5Q143 28 109 65Q75 102 58.5 154Q42 206 42 270V692H181V270Q181 202 214.5 159.5Q248 117 319 117Q387 117 421 160Q455 203 455 271V692H594V271Q594 209 576 157Q558 105 523 67.5Q488 30 436.5 8.5Q385 -13 317 -13ZM455 854 378 724H249L322 854Z" glyph-name="Uacute" horiz-adv-x="636" unicode="&#218;" /><glyph d="M317 -13Q246 -13 194.5 7.5Q143 28 109 65Q75 102 58.5 154Q42 206 42 270V692H181V270Q181 202 214.5 159.5Q248 117 319 117Q387 117 421 160Q455 203 455 271V692H594V271Q594 209 576 157Q558 105 523 67.5Q488 30 436.5 8.5Q385 -13 317 -13ZM317 723Q278 723 250 735Q222 747 204 766Q186 785 177.5 809Q169 833 169 857H271Q271 841 282 827.5Q293 814 318 814Q342 814 353.5 827.5Q365 841 365 857H466Q466 833 457.5 809Q449 785 431 766Q413 747 384.5 735Q356 723 317 723Z" glyph-name="Ubreve" horiz-adv-x="636" unicode="&#364;" /><glyph d="M317 -13Q246 -13 194.5 7.5Q143 28 109 65Q75 102 58.5 154Q42 206 42 270V692H181V270Q181 202 214.5 159.5Q248 117 319 117Q387 117 421 160Q455 203 455 271V692H594V271Q594 209 576 157Q558 105 523 67.5Q488 30 436.5 8.5Q385 -13 317 -13ZM388 854 491 724H368L319 778L269 724H146L249 854Z" glyph-name="Ucircumflex" horiz-adv-x="636" unicode="&#219;" /><glyph d="M317 -13Q246 -13 194.5 7.5Q143 28 109 65Q75 102 58.5 154Q42 206 42 270V692H181V270Q181 202 214.5 159.5Q248 117 319 117Q387 117 421 160Q455 203 455 271V692H594V271Q594 209 576 157Q558 105 523 67.5Q488 30 436.5 8.5Q385 -13 317 -13ZM217 722Q186 722 165 742.5Q144 763 144 795Q144 826 165 847Q186 868 217 868Q249 868 271 847Q293 826 293 795Q293 763 271 742.5Q249 722 217 722ZM415 722Q383 722 362 742.5Q341 763 341 795Q341 826 362 847Q383 868 415 868Q447 868 468.5 847Q490 826 490 795Q490 763 468.5 742.5Q447 722 415 722Z" glyph-name="Udieresis" horiz-adv-x="636" unicode="&#220;" /><glyph d="M317 -13Q246 -13 194.5 7.5Q143 28 109 65Q75 102 58.5 154Q42 206 42 270V692H181V270Q181 202 214.5 159.5Q248 117 319 117Q387 117 421 160Q455 203 455 271V692H594V271Q594 209 576 157Q558 105 523 67.5Q488 30 436.5 8.5Q385 -13 317 -13ZM317 854 390 724H263L186 854Z" glyph-name="Ugrave" horiz-adv-x="636" unicode="&#217;" /><glyph d="M317 -13Q246 -13 194.5 7.5Q143 28 109 65Q75 102 58.5 154Q42 206 42 270V692H181V270Q181 202 214.5 159.5Q248 117 319 117Q387 117 421 160Q455 203 455 271V692H594V271Q594 209 576 157Q558 105 523 67.5Q488 30 436.5 8.5Q385 -13 317 -13ZM346 853 285 724H162L218 853ZM519 853 454 724H332L392 853Z" glyph-name="Uhungarumlaut" horiz-adv-x="636" unicode="&#368;" /><glyph d="M317 -13Q246 -13 194.5 7.5Q143 28 109 65Q75 102 58.5 154Q42 206 42 270V692H181V270Q181 202 214.5 159.5Q248 117 319 117Q387 117 421 160Q455 203 455 271V692H594V271Q594 209 576 157Q558 105 523 67.5Q488 30 436.5 8.5Q385 -13 317 -13ZM197 840H439V742H197Z" glyph-name="Umacron" horiz-adv-x="636" unicode="&#362;" /><glyph d="M421 3Q395 -6 385 -18.5Q375 -31 375 -45Q375 -63 388 -72Q401 -81 421 -82V-175Q377 -178 344.5 -171Q312 -164 291 -151Q270 -138 259.5 -120Q249 -102 249 -81Q249 -40 285 -12Q222 -7 176 15Q130 37 100 74Q70 111 56 160.5Q42 210 42 270V692H181V270Q181 202 214 159.5Q247 117 318 117Q387 117 421 159.5Q455 202 455 270V692H594V270Q594 172 551 102Q508 32 421 3Z" glyph-name="Uogonek" horiz-adv-x="636" unicode="&#370;" /><glyph d="M317 -13Q246 -13 194.5 7.5Q143 28 109 65Q75 102 58.5 154Q42 206 42 270V692H181V270Q181 202 214.5 159.5Q248 117 319 117Q387 117 421 160Q455 203 455 271V692H594V271Q594 209 576 157Q558 105 523 67.5Q488 30 436.5 8.5Q385 -13 317 -13ZM207 819Q207 866 237.5 896Q268 926 316 926Q368 926 398 896Q428 866 428 821Q428 774 398 744Q368 714 317 714Q268 714 237.5 744Q207 774 207 819ZM275 820Q275 800 286.5 788Q298 776 318 776Q338 776 349 788Q360 800 360 821Q360 840 349 852Q338 864 317 864Q297 864 286 852Q275 840 275 820Z" glyph-name="Uring" horiz-adv-x="636" unicode="&#366;" /><glyph d="M317 -13Q246 -13 194.5 7.5Q143 28 109 65Q75 102 58.5 154Q42 206 42 270V692H181V270Q181 202 214.5 159.5Q248 117 319 117Q387 117 421 160Q455 203 455 271V692H594V271Q594 209 576 157Q558 105 523 67.5Q488 30 436.5 8.5Q385 -13 317 -13ZM376 729Q358 729 344 734.5Q330 740 318 746Q306 752 295.5 757.5Q285 763 274 763Q248 763 248 729H153Q151 786 179.5 824Q208 862 261 862Q281 862 295 856.5Q309 851 320 845Q331 839 341 833.5Q351 828 362 828Q387 828 387 863H482Q484 802 455.5 765.5Q427 729 376 729Z" glyph-name="Utilde" horiz-adv-x="636" unicode="&#360;" /><glyph d="M-5 692H151L334 175L518 692H666L405 0H255Z" glyph-name="V" horiz-adv-x="661" unicode="V" /><glyph d="M496 480 356 0H199L-2 692H150L285 185L425 692H574L714 185L848 692H991L795 0H635Z" glyph-name="W" horiz-adv-x="989" unicode="W" /><glyph d="M496 480 356 0H199L-2 692H150L285 185L425 692H574L714 185L848 692H991L795 0H635ZM638 854 561 724H432L505 854Z" glyph-name="Wacute" horiz-adv-x="989" unicode="&#7810;" /><glyph d="M496 480 356 0H199L-2 692H150L285 185L425 692H574L714 185L848 692H991L795 0H635ZM563 854 666 724H543L494 778L444 724H321L424 854Z" glyph-name="Wcircumflex" horiz-adv-x="989" unicode="&#372;" /><glyph d="M496 480 356 0H199L-2 692H150L285 185L425 692H574L714 185L848 692H991L795 0H635ZM394 722Q363 722 342 742.5Q321 763 321 795Q321 826 342 847Q363 868 394 868Q426 868 448 847Q470 826 470 795Q470 763 448 742.5Q426 722 394 722ZM592 722Q560 722 539 742.5Q518 763 518 795Q518 826 539 847Q560 868 592 868Q624 868 645.5 847Q667 826 667 795Q667 763 645.5 742.5Q624 722 592 722Z" glyph-name="Wdieresis" horiz-adv-x="989" unicode="&#7812;" /><glyph d="M496 480 356 0H199L-2 692H150L285 185L425 692H574L714 185L848 692H991L795 0H635ZM482 854 555 724H428L351 854Z" glyph-name="Wgrave" horiz-adv-x="989" unicode="&#7808;" /><glyph d="M231 358 6 692H175L318 478L458 692H621L398 355L633 0H472L311 238L150 0H-5Z" glyph-name="X" horiz-adv-x="628" unicode="X" /><glyph d="M-9 692H146L258 482L372 692H519L323 348V0H184V346Z" glyph-name="Y" horiz-adv-x="510" unicode="Y" /><glyph d="M-9 692H146L258 482L372 692H519L323 348V0H184V346ZM401 854 324 724H195L268 854Z" glyph-name="Yacute" horiz-adv-x="510" unicode="&#221;" /><glyph d="M-9 692H146L258 482L372 692H519L323 348V0H184V346ZM327 854 430 724H307L258 778L208 724H85L188 854Z" glyph-name="Ycircumflex" horiz-adv-x="510" unicode="&#374;" /><glyph d="M-9 692H146L258 482L372 692H519L323 348V0H184V346ZM158 722Q127 722 106 742.5Q85 763 85 795Q85 826 106 847Q127 868 158 868Q190 868 212 847Q234 826 234 795Q234 763 212 742.5Q190 722 158 722ZM356 722Q324 722 303 742.5Q282 763 282 795Q282 826 303 847Q324 868 356 868Q388 868 409.5 847Q431 826 431 795Q431 763 409.5 742.5Q388 722 356 722Z" glyph-name="Ydieresis" horiz-adv-x="510" unicode="&#376;" /><glyph d="M-9 692H146L258 482L372 692H519L323 348V0H184V346ZM251 854 324 724H197L120 854Z" glyph-name="Ygrave" horiz-adv-x="510" unicode="&#7922;" /><glyph d="M26 0V94L359 564H30V692H554V598L217 127H556V0Z" glyph-name="Z" horiz-adv-x="582" unicode="Z" /><glyph d="M26 0V94L359 564H30V692H554V598L217 127H556V0ZM419 854 342 724H213L286 854Z" glyph-name="Zacute" horiz-adv-x="582" unicode="&#377;" /><glyph d="M26 0V94L359 564H30V692H554V598L217 127H556V0ZM390 854 344 724H225L269 854Z" glyph-name="Zacute.pl" horiz-adv-x="582" /><glyph d="M26 0V94L359 564H30V692H554V598L217 127H556V0ZM218 724 115 854H239L288 799L337 854H460L357 724Z" glyph-name="Zcaron" horiz-adv-x="582" unicode="&#381;" /><glyph d="M26 0V94L359 564H30V692H554V598L217 127H556V0ZM290 730Q259 730 236.5 752Q214 774 214 806Q214 837 235.5 859Q257 881 290 881Q322 881 345 859.5Q368 838 368 806Q368 774 345.5 752Q323 730 290 730Z" glyph-name="Zdotaccent" horiz-adv-x="582" unicode="&#379;" /><glyph d="M21 175Q21 212 34 244.5Q47 277 71 300.5Q95 324 129 337.5Q163 351 205 351Q241 351 265 343.5Q289 336 300 329V356Q300 391 284 413Q268 435 230 435Q211 435 198.5 429.5Q186 424 178.5 415Q171 406 168 395Q165 384 165 373H40Q42 449 88.5 495Q135 541 230 541Q288 541 326.5 526Q365 511 388.5 484Q412 457 422 419.5Q432 382 432 337V0H320V34Q309 22 281.5 7.5Q254 -7 207 -7Q167 -7 133 6Q99 19 74 42.5Q49 66 35 99.5Q21 133 21 175ZM147 176Q147 142 168.5 120.5Q190 99 225 99Q258 99 280 120.5Q302 142 302 176Q302 210 280 231Q258 252 224 252Q189 252 168 230Q147 208 147 176Z" glyph-name="a" horiz-adv-x="469" unicode="a" /><glyph d="M453 53Q445 43 431 32Q417 21 397 12Q377 3 351 -3Q325 -9 293 -9Q232 -9 181.5 11Q131 31 95 67.5Q59 104 39 155Q19 206 19 268Q19 327 38.5 377.5Q58 428 94 465Q130 502 180.5 523Q231 544 293 544Q343 544 385.5 527.5Q428 511 451 485V535H578V0H453ZM153 268Q153 234 163.5 205Q174 176 193.5 155Q213 134 240.5 122Q268 110 301 110Q335 110 362 122Q389 134 408 155Q427 176 437.5 205Q448 234 448 268Q448 302 437 330.5Q426 359 406.5 380Q387 401 360 413Q333 425 301 425Q267 425 239.5 413Q212 401 193 380Q174 359 163.5 330Q153 301 153 268Z" glyph-name="a.alt" horiz-adv-x="617" /><glyph d="M21 175Q21 212 34 244.5Q47 277 71 300.5Q95 324 129 337.5Q163 351 205 351Q241 351 265 343.5Q289 336 300 329V356Q300 391 284 413Q268 435 230 435Q211 435 198.5 429.5Q186 424 178.5 415Q171 406 168 395Q165 384 165 373H40Q42 449 88.5 495Q135 541 230 541Q288 541 326.5 526Q365 511 388.5 484Q412 457 422 419.5Q432 382 432 337V0H320V34Q309 22 281.5 7.5Q254 -7 207 -7Q167 -7 133 6Q99 19 74 42.5Q49 66 35 99.5Q21 133 21 175ZM147 176Q147 142 168.5 120.5Q190 99 225 99Q258 99 280 120.5Q302 142 302 176Q302 210 280 231Q258 252 224 252Q189 252 168 230Q147 208 147 176ZM382 710 301 572H175L251 710Z" glyph-name="aacute" horiz-adv-x="469" unicode="&#225;" /><glyph d="M443 710 362 572H236L312 710ZM453 53Q445 43 431 32Q417 21 397 12Q377 3 351 -3Q325 -9 293 -9Q232 -9 181.5 11Q131 31 95 67.5Q59 104 39 155Q19 206 19 268Q19 327 38.5 377.5Q58 428 94 465Q130 502 180.5 523Q231 544 293 544Q343 544 385.5 527.5Q428 511 451 485V535H578V0H453ZM153 268Q153 234 163.5 205Q174 176 193.5 155Q213 134 240.5 122Q268 110 301 110Q335 110 362 122Q389 134 408 155Q427 176 437.5 205Q448 234 448 268Q448 302 437 330.5Q426 359 406.5 380Q387 401 360 413Q333 425 301 425Q267 425 239.5 413Q212 401 193 380Q174 359 163.5 330Q153 301 153 268Z" glyph-name="aacute.alt" horiz-adv-x="617" /><glyph d="M21 175Q21 212 34 244.5Q47 277 71 300.5Q95 324 129 337.5Q163 351 205 351Q241 351 265 343.5Q289 336 300 329V356Q300 391 284 413Q268 435 230 435Q211 435 198.5 429.5Q186 424 178.5 415Q171 406 168 395Q165 384 165 373H40Q42 449 88.5 495Q135 541 230 541Q288 541 326.5 526Q365 511 388.5 484Q412 457 422 419.5Q432 382 432 337V0H320V34Q309 22 281.5 7.5Q254 -7 207 -7Q167 -7 133 6Q99 19 74 42.5Q49 66 35 99.5Q21 133 21 175ZM147 176Q147 142 168.5 120.5Q190 99 225 99Q258 99 280 120.5Q302 142 302 176Q302 210 280 231Q258 252 224 252Q189 252 168 230Q147 208 147 176ZM230 564Q191 564 163 577Q135 590 117.5 610.5Q100 631 92 656.5Q84 682 84 707H184Q184 687 195 671Q206 655 231 655Q256 655 267 671Q278 687 278 707H377Q377 682 369 656.5Q361 631 343 610.5Q325 590 297 577Q269 564 230 564Z" glyph-name="abreve" horiz-adv-x="469" unicode="&#259;" /><glyph d="M300 564Q261 564 233 577Q205 590 187.5 610.5Q170 631 162 656.5Q154 682 154 707H254Q254 687 265 671Q276 655 301 655Q326 655 337 671Q348 687 348 707H447Q447 682 439 656.5Q431 631 413 610.5Q395 590 367 577Q339 564 300 564ZM453 53Q445 43 431 32Q417 21 397 12Q377 3 351 -3Q325 -9 293 -9Q232 -9 181.5 11Q131 31 95 67.5Q59 104 39 155Q19 206 19 268Q19 327 38.5 377.5Q58 428 94 465Q130 502 180.5 523Q231 544 293 544Q343 544 385.5 527.5Q428 511 451 485V535H578V0H453ZM153 268Q153 234 163.5 205Q174 176 193.5 155Q213 134 240.5 122Q268 110 301 110Q335 110 362 122Q389 134 408 155Q427 176 437.5 205Q448 234 448 268Q448 302 437 330.5Q426 359 406.5 380Q387 401 360 413Q333 425 301 425Q267 425 239.5 413Q212 401 193 380Q174 359 163.5 330Q153 301 153 268Z" glyph-name="abreve.alt" horiz-adv-x="617" /><glyph d="M21 175Q21 212 34 244.5Q47 277 71 300.5Q95 324 129 337.5Q163 351 205 351Q241 351 265 343.5Q289 336 300 329V356Q300 391 284 413Q268 435 230 435Q211 435 198.5 429.5Q186 424 178.5 415Q171 406 168 395Q165 384 165 373H40Q42 449 88.5 495Q135 541 230 541Q288 541 326.5 526Q365 511 388.5 484Q412 457 422 419.5Q432 382 432 337V0H320V34Q309 22 281.5 7.5Q254 -7 207 -7Q167 -7 133 6Q99 19 74 42.5Q49 66 35 99.5Q21 133 21 175ZM147 176Q147 142 168.5 120.5Q190 99 225 99Q258 99 280 120.5Q302 142 302 176Q302 210 280 231Q258 252 224 252Q189 252 168 230Q147 208 147 176ZM301 712 397 570H280L234 632L188 570H71L167 712Z" glyph-name="acircumflex" horiz-adv-x="469" unicode="&#226;" /><glyph d="M369 712 465 570H348L302 632L256 570H139L235 712ZM453 53Q445 43 431 32Q417 21 397 12Q377 3 351 -3Q325 -9 293 -9Q232 -9 181.5 11Q131 31 95 67.5Q59 104 39 155Q19 206 19 268Q19 327 38.5 377.5Q58 428 94 465Q130 502 180.5 523Q231 544 293 544Q343 544 385.5 527.5Q428 511 451 485V535H578V0H453ZM153 268Q153 234 163.5 205Q174 176 193.5 155Q213 134 240.5 122Q268 110 301 110Q335 110 362 122Q389 134 408 155Q427 176 437.5 205Q448 234 448 268Q448 302 437 330.5Q426 359 406.5 380Q387 401 360 413Q333 425 301 425Q267 425 239.5 413Q212 401 193 380Q174 359 163.5 330Q153 301 153 268Z" glyph-name="acircumflex.alt" horiz-adv-x="617" /><glyph d="M387 710 306 572H180L256 710Z" glyph-name="acute" horiz-adv-x="476" unicode="&#180;" /><glyph d="M343 710 298 572H182L225 710Z" glyph-name="acute.pl" horiz-adv-x="476" /><glyph d="M387 854 310 724H181L254 854Z" glyph-name="acute.uc" horiz-adv-x="476" /><glyph d="M354 854 308 724H189L233 854Z" glyph-name="acute.ucpl" horiz-adv-x="476" /><glyph d="M21 175Q21 212 34 244.5Q47 277 71 300.5Q95 324 129 337.5Q163 351 205 351Q241 351 265 343.5Q289 336 300 329V356Q300 391 284 413Q268 435 230 435Q211 435 198.5 429.5Q186 424 178.5 415Q171 406 168 395Q165 384 165 373H40Q42 449 88.5 495Q135 541 230 541Q288 541 326.5 526Q365 511 388.5 484Q412 457 422 419.5Q432 382 432 337V0H320V34Q309 22 281.5 7.5Q254 -7 207 -7Q167 -7 133 6Q99 19 74 42.5Q49 66 35 99.5Q21 133 21 175ZM147 176Q147 142 168.5 120.5Q190 99 225 99Q258 99 280 120.5Q302 142 302 176Q302 210 280 231Q258 252 224 252Q189 252 168 230Q147 208 147 176ZM141 573Q109 573 88 594Q67 615 67 647Q67 677 88 698Q109 719 141 719Q173 719 194.5 698.5Q216 678 216 647Q216 615 194 594Q172 573 141 573ZM324 573Q293 573 272 594Q251 615 251 647Q251 677 272 698Q293 719 324 719Q357 719 378.5 698.5Q400 678 400 647Q400 615 378 594Q356 573 324 573Z" glyph-name="adieresis" horiz-adv-x="469" unicode="&#228;" /><glyph d="M208 573Q176 573 155 594Q134 615 134 647Q134 677 155 698Q176 719 208 719Q240 719 261.5 698.5Q283 678 283 647Q283 615 261 594Q239 573 208 573ZM391 573Q360 573 339 594Q318 615 318 647Q318 677 339 698Q360 719 391 719Q424 719 445.5 698.5Q467 678 467 647Q467 615 445 594Q423 573 391 573ZM453 53Q445 43 431 32Q417 21 397 12Q377 3 351 -3Q325 -9 293 -9Q232 -9 181.5 11Q131 31 95 67.5Q59 104 39 155Q19 206 19 268Q19 327 38.5 377.5Q58 428 94 465Q130 502 180.5 523Q231 544 293 544Q343 544 385.5 527.5Q428 511 451 485V535H578V0H453ZM153 268Q153 234 163.5 205Q174 176 193.5 155Q213 134 240.5 122Q268 110 301 110Q335 110 362 122Q389 134 408 155Q427 176 437.5 205Q448 234 448 268Q448 302 437 330.5Q426 359 406.5 380Q387 401 360 413Q333 425 301 425Q267 425 239.5 413Q212 401 193 380Q174 359 163.5 330Q153 301 153 268Z" glyph-name="adieresis.alt" horiz-adv-x="617" /><glyph d="M566 -8Q504 -8 454 12.5Q404 33 369 71Q361 58 348.5 44Q336 30 317.5 18Q299 6 274.5 -1.5Q250 -9 217 -9Q174 -9 138 3.5Q102 16 76 39.5Q50 63 35.5 96Q21 129 21 171Q21 210 34 243Q47 276 71 299.5Q95 323 129 336Q163 349 205 349Q238 349 262 341.5Q286 334 299 324V356Q299 390 283.5 412.5Q268 435 230 435Q194 435 180 415Q166 395 166 373H41Q43 449 89.5 495Q136 541 231 541Q289 541 325.5 522Q362 503 382 471Q405 499 448.5 521Q492 543 555 543Q615 543 663 524Q711 505 745 470.5Q779 436 797.5 387.5Q816 339 816 279Q816 270 815.5 253.5Q815 237 814 224H433Q434 201 443.5 180Q453 159 470.5 143.5Q488 128 512 119Q536 110 566 110Q617 110 648.5 134.5Q680 159 697 191L800 133Q788 107 768 81.5Q748 56 719.5 36Q691 16 652.5 4Q614 -8 566 -8ZM554 431Q527 431 506.5 422Q486 413 471 398Q456 383 447 363Q438 343 436 321H676Q673 369 640.5 400Q608 431 554 431ZM147 177Q147 143 168.5 121.5Q190 100 225 100Q258 100 280 121.5Q302 143 302 177Q302 211 280 232Q258 253 224 253Q189 253 168 231Q147 209 147 177Z" glyph-name="ae" horiz-adv-x="831" unicode="&#230;" /><glyph d="M566 -8Q504 -8 454 12.5Q404 33 369 71Q361 58 348.5 44Q336 30 317.5 18Q299 6 274.5 -1.5Q250 -9 217 -9Q174 -9 138 3.5Q102 16 76 39.5Q50 63 35.5 96Q21 129 21 171Q21 210 34 243Q47 276 71 299.5Q95 323 129 336Q163 349 205 349Q238 349 262 341.5Q286 334 299 324V356Q299 390 283.5 412.5Q268 435 230 435Q194 435 180 415Q166 395 166 373H41Q43 449 89.5 495Q136 541 231 541Q289 541 325.5 522Q362 503 382 471Q405 499 448.5 521Q492 543 555 543Q615 543 663 524Q711 505 745 470.5Q779 436 797.5 387.5Q816 339 816 279Q816 270 815.5 253.5Q815 237 814 224H433Q434 201 443.5 180Q453 159 470.5 143.5Q488 128 512 119Q536 110 566 110Q617 110 648.5 134.5Q680 159 697 191L800 133Q788 107 768 81.5Q748 56 719.5 36Q691 16 652.5 4Q614 -8 566 -8ZM554 431Q527 431 506.5 422Q486 413 471 398Q456 383 447 363Q438 343 436 321H676Q673 369 640.5 400Q608 431 554 431ZM147 177Q147 143 168.5 121.5Q190 100 225 100Q258 100 280 121.5Q302 143 302 177Q302 211 280 232Q258 253 224 253Q189 253 168 231Q147 209 147 177ZM535 710 454 572H328L404 710Z" glyph-name="aeacute" horiz-adv-x="831" unicode="&#509;" /><glyph d="M21 175Q21 212 34 244.5Q47 277 71 300.5Q95 324 129 337.5Q163 351 205 351Q241 351 265 343.5Q289 336 300 329V356Q300 391 284 413Q268 435 230 435Q211 435 198.5 429.5Q186 424 178.5 415Q171 406 168 395Q165 384 165 373H40Q42 449 88.5 495Q135 541 230 541Q288 541 326.5 526Q365 511 388.5 484Q412 457 422 419.5Q432 382 432 337V0H320V34Q309 22 281.5 7.5Q254 -7 207 -7Q167 -7 133 6Q99 19 74 42.5Q49 66 35 99.5Q21 133 21 175ZM147 176Q147 142 168.5 120.5Q190 99 225 99Q258 99 280 120.5Q302 142 302 176Q302 210 280 231Q258 252 224 252Q189 252 168 230Q147 208 147 176ZM226 710 302 572H176L95 710Z" glyph-name="agrave" horiz-adv-x="469" unicode="&#224;" /><glyph d="M296 710 372 572H246L165 710ZM453 53Q445 43 431 32Q417 21 397 12Q377 3 351 -3Q325 -9 293 -9Q232 -9 181.5 11Q131 31 95 67.5Q59 104 39 155Q19 206 19 268Q19 327 38.5 377.5Q58 428 94 465Q130 502 180.5 523Q231 544 293 544Q343 544 385.5 527.5Q428 511 451 485V535H578V0H453ZM153 268Q153 234 163.5 205Q174 176 193.5 155Q213 134 240.5 122Q268 110 301 110Q335 110 362 122Q389 134 408 155Q427 176 437.5 205Q448 234 448 268Q448 302 437 330.5Q426 359 406.5 380Q387 401 360 413Q333 425 301 425Q267 425 239.5 413Q212 401 193 380Q174 359 163.5 330Q153 301 153 268Z" glyph-name="agrave.alt" horiz-adv-x="617" /><glyph d="M21 175Q21 212 34 244.5Q47 277 71 300.5Q95 324 129 337.5Q163 351 205 351Q241 351 265 343.5Q289 336 300 329V356Q300 391 284 413Q268 435 230 435Q211 435 198.5 429.5Q186 424 178.5 415Q171 406 168 395Q165 384 165 373H40Q42 449 88.5 495Q135 541 230 541Q288 541 326.5 526Q365 511 388.5 484Q412 457 422 419.5Q432 382 432 337V0H320V34Q309 22 281.5 7.5Q254 -7 207 -7Q167 -7 133 6Q99 19 74 42.5Q49 66 35 99.5Q21 133 21 175ZM147 176Q147 142 168.5 120.5Q190 99 225 99Q258 99 280 120.5Q302 142 302 176Q302 210 280 231Q258 252 224 252Q189 252 168 230Q147 208 147 176ZM112 683H354V585H112Z" glyph-name="amacron" horiz-adv-x="469" unicode="&#257;" /><glyph d="M180 683H422V585H180ZM453 53Q445 43 431 32Q417 21 397 12Q377 3 351 -3Q325 -9 293 -9Q232 -9 181.5 11Q131 31 95 67.5Q59 104 39 155Q19 206 19 268Q19 327 38.5 377.5Q58 428 94 465Q130 502 180.5 523Q231 544 293 544Q343 544 385.5 527.5Q428 511 451 485V535H578V0H453ZM153 268Q153 234 163.5 205Q174 176 193.5 155Q213 134 240.5 122Q268 110 301 110Q335 110 362 122Q389 134 408 155Q427 176 437.5 205Q448 234 448 268Q448 302 437 330.5Q426 359 406.5 380Q387 401 360 413Q333 425 301 425Q267 425 239.5 413Q212 401 193 380Q174 359 163.5 330Q153 301 153 268Z" glyph-name="amacron.alt" horiz-adv-x="617" /><glyph d="M472 45Q437 19 392 4Q347 -11 290 -11Q226 -11 176 5.5Q126 22 91.5 50.5Q57 79 38.5 118Q20 157 20 203Q20 265 48.5 314Q77 363 131 390Q106 413 91 445.5Q76 478 76 520Q76 557 90 590.5Q104 624 130 649Q156 674 193.5 688.5Q231 703 278 703Q327 703 365 689Q403 675 429.5 650.5Q456 626 469.5 592.5Q483 559 483 520Q483 485 472 456Q461 427 442.5 405.5Q424 384 399 370.5Q374 357 346 353L459 237Q470 267 474.5 301.5Q479 336 477 371H607Q610 306 598 246Q586 186 554 135L684 0H516ZM293 110Q320 110 343 117Q366 124 383 135L210 311Q187 297 174.5 274Q162 251 162 221Q162 172 198 141Q234 110 293 110ZM204 516Q204 483 226.5 461Q249 439 282 439Q316 439 337.5 461Q359 483 359 518Q358 551 336.5 572Q315 593 280 593Q246 593 225 571Q204 549 204 516Z" glyph-name="ampersand" horiz-adv-x="664" unicode="&amp;" /><glyph d="M21 175Q21 212 34 244.5Q47 277 71 300.5Q95 324 129 337.5Q163 351 205 351Q241 351 265 343.5Q289 336 300 329V356Q300 391 284 413Q268 435 230 435Q211 435 198.5 429.5Q186 424 178.5 415Q171 406 168 395Q165 384 165 373H40Q42 449 88.5 495Q135 541 230 541Q288 541 326.5 526Q365 511 388.5 484Q412 457 422 419.5Q432 382 432 337V-1Q406 -6 395.5 -19Q385 -32 385 -46Q385 -64 398.5 -73Q412 -82 432 -82V-176Q387 -178 354.5 -171.5Q322 -165 301 -152Q280 -139 270 -120Q260 -101 260 -79Q260 -53 274.5 -31Q289 -9 320 5V34Q309 22 281.5 7.5Q254 -7 207 -7Q167 -7 133 6Q99 19 74 42.5Q49 66 35 99.5Q21 133 21 175ZM147 176Q147 142 168.5 120.5Q190 99 225 99Q258 99 280 120.5Q302 142 302 176Q302 210 280 231Q258 252 224 252Q189 252 168 230Q147 208 147 176Z" glyph-name="aogonek" horiz-adv-x="469" unicode="&#261;" /><glyph d="M406 -79Q406 -52 419 -32.5Q432 -13 453 1V53Q445 43 431 32Q417 21 397 12Q377 3 351 -3Q325 -9 293 -9Q232 -9 181.5 11Q131 31 95 67.5Q59 104 39 155Q19 206 19 268Q19 327 38.5 377.5Q58 428 94 465Q130 502 180.5 523Q231 544 293 544Q343 544 385.5 527.5Q428 511 451 485V535H578V-1Q552 -6 541.5 -18.5Q531 -31 531 -45Q531 -63 544.5 -72Q558 -81 578 -82V-175Q489 -180 447.5 -151.5Q406 -123 406 -79ZM153 268Q153 234 163.5 205Q174 176 193.5 155Q213 134 240.5 122Q268 110 301 110Q335 110 362 122Q389 134 408 155Q427 176 437.5 205Q448 234 448 268Q448 302 437 330.5Q426 359 406.5 380Q387 401 360 413Q333 425 301 425Q267 425 239.5 413Q212 401 193 380Q174 359 163.5 330Q153 301 153 268Z" glyph-name="aogonek.alt" horiz-adv-x="617" /><glyph d="M21 175Q21 212 34 244.5Q47 277 71 300.5Q95 324 129 337.5Q163 351 205 351Q241 351 265 343.5Q289 336 300 329V356Q300 391 284 413Q268 435 230 435Q211 435 198.5 429.5Q186 424 178.5 415Q171 406 168 395Q165 384 165 373H40Q42 449 88.5 495Q135 541 230 541Q288 541 326.5 526Q365 511 388.5 484Q412 457 422 419.5Q432 382 432 337V0H320V34Q309 22 281.5 7.5Q254 -7 207 -7Q167 -7 133 6Q99 19 74 42.5Q49 66 35 99.5Q21 133 21 175ZM147 176Q147 142 168.5 120.5Q190 99 225 99Q258 99 280 120.5Q302 142 302 176Q302 210 280 231Q258 252 224 252Q189 252 168 230Q147 208 147 176ZM122 664Q122 710 152.5 740.5Q183 771 230 771Q281 771 311 741Q341 711 341 666Q341 620 311 590Q281 560 231 560Q183 560 152.5 589.5Q122 619 122 664ZM187 666Q187 646 199.5 632.5Q212 619 232 619Q252 619 264 632.5Q276 646 276 666Q276 686 264 698.5Q252 711 231 711Q211 711 199 698.5Q187 686 187 666Z" glyph-name="aring" horiz-adv-x="469" unicode="&#229;" /><glyph d="M190 664Q190 710 220.5 740.5Q251 771 298 771Q349 771 379 741Q409 711 409 666Q409 620 379 590Q349 560 299 560Q251 560 220.5 589.5Q190 619 190 664ZM255 666Q255 646 267.5 632.5Q280 619 300 619Q320 619 332 632.5Q344 646 344 666Q344 686 332 698.5Q320 711 299 711Q279 711 267 698.5Q255 686 255 666ZM453 53Q445 43 431 32Q417 21 397 12Q377 3 351 -3Q325 -9 293 -9Q232 -9 181.5 11Q131 31 95 67.5Q59 104 39 155Q19 206 19 268Q19 327 38.5 377.5Q58 428 94 465Q130 502 180.5 523Q231 544 293 544Q343 544 385.5 527.5Q428 511 451 485V535H578V0H453ZM153 268Q153 234 163.5 205Q174 176 193.5 155Q213 134 240.5 122Q268 110 301 110Q335 110 362 122Q389 134 408 155Q427 176 437.5 205Q448 234 448 268Q448 302 437 330.5Q426 359 406.5 380Q387 401 360 413Q333 425 301 425Q267 425 239.5 413Q212 401 193 380Q174 359 163.5 330Q153 301 153 268Z" glyph-name="aring.alt" horiz-adv-x="617" /><glyph d="M21 175Q21 212 34 244.5Q47 277 71 300.5Q95 324 129 337.5Q163 351 205 351Q241 351 265 343.5Q289 336 300 329V356Q300 391 284 413Q268 435 230 435Q211 435 198.5 429.5Q186 424 178.5 415Q171 406 168 395Q165 384 165 373H40Q42 449 88.5 495Q135 541 230 541Q288 541 326.5 526Q365 511 388.5 484Q412 457 422 419.5Q432 382 432 337V0H320V34Q309 22 281.5 7.5Q254 -7 207 -7Q167 -7 133 6Q99 19 74 42.5Q49 66 35 99.5Q21 133 21 175ZM147 176Q147 142 168.5 120.5Q190 99 225 99Q258 99 280 120.5Q302 142 302 176Q302 210 280 231Q258 252 224 252Q189 252 168 230Q147 208 147 176ZM132 664Q132 710 162.5 740.5Q193 771 240 771Q291 771 321 741Q351 711 351 666Q351 620 321 590Q291 560 241 560Q193 560 162.5 589.5Q132 619 132 664ZM197 666Q197 646 209.5 632.5Q222 619 242 619Q262 619 274 632.5Q286 646 286 666Q286 686 274 698.5Q262 711 241 711Q221 711 209 698.5Q197 686 197 666ZM386 923 309 793H180L253 923Z" glyph-name="aringacute" horiz-adv-x="469" unicode="&#507;" /><glyph d="M191 664Q191 710 221.5 740.5Q252 771 299 771Q350 771 380 741Q410 711 410 666Q410 620 380 590Q350 560 300 560Q252 560 221.5 589.5Q191 619 191 664ZM256 666Q256 646 268.5 632.5Q281 619 301 619Q321 619 333 632.5Q345 646 345 666Q345 686 333 698.5Q321 711 300 711Q280 711 268 698.5Q256 686 256 666ZM453 53Q445 43 431 32Q417 21 397 12Q377 3 351 -3Q325 -9 293 -9Q232 -9 181.5 11Q131 31 95 67.5Q59 104 39 155Q19 206 19 268Q19 327 38.5 377.5Q58 428 94 465Q130 502 180.5 523Q231 544 293 544Q343 544 385.5 527.5Q428 511 451 485V535H578V0H453ZM153 268Q153 234 163.5 205Q174 176 193.5 155Q213 134 240.5 122Q268 110 301 110Q335 110 362 122Q389 134 408 155Q427 176 437.5 205Q448 234 448 268Q448 302 437 330.5Q426 359 406.5 380Q387 401 360 413Q333 425 301 425Q267 425 239.5 413Q212 401 193 380Q174 359 163.5 330Q153 301 153 268ZM436 923 359 793H230L303 923Z" glyph-name="aringacute.alt" horiz-adv-x="617" /><glyph d="M479 385H342L246 565L149 385H14L179 692H315Z" glyph-name="asciicircum" horiz-adv-x="493" unicode="^" /><glyph d="M234 238Q216 248 201.5 255Q187 262 171 262Q149 262 140 248Q131 234 130 215H18Q17 252 26.5 284Q36 316 54.5 339.5Q73 363 100 376.5Q127 390 163 390Q188 390 206.5 383.5Q225 377 243 366Q262 356 276 348Q290 340 307 340Q328 340 336.5 355Q345 370 346 390H458Q459 351 449.5 319Q440 287 422 263.5Q404 240 377 227Q350 214 316 214Q292 214 272.5 220.5Q253 227 234 238Z" glyph-name="asciitilde" horiz-adv-x="476" unicode="~" /><glyph d="M73 642 157 593V692H247V593L331 642L375 565L291 516L376 467L331 389L247 439V339H157V439L73 389L28 466L112 515L28 564Z" glyph-name="asterisk" horiz-adv-x="404" unicode="*" /><glyph d="M610 134Q590 109 553 90.5Q516 72 471 72Q421 72 381 88Q341 104 312.5 132.5Q284 161 269 199.5Q254 238 254 284Q254 328 269.5 366.5Q285 405 312.5 434Q340 463 378 480Q416 497 462 497Q499 497 526.5 486.5Q554 476 569 461V492H686V235Q686 206 697.5 190Q709 174 739 174Q757 174 772.5 186Q788 198 798.5 219.5Q809 241 815 270.5Q821 300 821 335Q821 407 798 463.5Q775 520 731.5 559Q688 598 626 618Q564 638 485 638Q403 638 338.5 610Q274 582 229.5 534Q185 486 161.5 422.5Q138 359 138 287Q138 207 165 143Q192 79 241 33.5Q290 -12 358.5 -36.5Q427 -61 509 -61Q584 -61 647.5 -36Q711 -11 754 26L815 -48Q792 -72 759.5 -92.5Q727 -113 688 -128.5Q649 -144 603 -153Q557 -162 507 -162Q394 -162 304 -128Q214 -94 151.5 -34Q89 26 56 107Q23 188 23 282Q23 382 57.5 466Q92 550 153.5 610Q215 670 300.5 703.5Q386 737 488 737Q594 737 676.5 707Q759 677 816 624Q873 571 903 498.5Q933 426 933 342Q933 280 918 230.5Q903 181 875.5 146Q848 111 810 92Q772 73 726 73Q679 73 650.5 91Q622 109 610 134ZM378 285Q378 242 403.5 214.5Q429 187 471 187Q514 187 540 213.5Q566 240 566 285Q566 330 539.5 357Q513 384 471 384Q428 384 403 356Q378 328 378 285Z" glyph-name="at" horiz-adv-x="955" unicode="@" /><glyph d="M610 163Q590 138 553 120Q516 102 471 102Q421 102 381 118Q341 134 312.5 162Q284 190 269 229Q254 268 254 313Q254 357 269.5 396Q285 435 312.5 464Q340 493 378 510Q416 527 462 527Q499 527 526.5 516Q554 505 569 490V521H686V265Q686 236 697.5 219.5Q709 203 739 203Q757 203 772.5 215Q788 227 798.5 248.5Q809 270 815 299.5Q821 329 821 364Q821 436 798 492.5Q775 549 731.5 588Q688 627 626 647Q564 667 485 667Q403 667 338.5 639Q274 611 229.5 563Q185 515 161.5 451.5Q138 388 138 316Q138 236 165 172Q192 108 241 62.5Q290 17 358.5 -7.5Q427 -32 509 -32Q584 -32 647.5 -6.5Q711 19 754 55L815 -19Q792 -43 759.5 -63.5Q727 -84 688 -99.5Q649 -115 603 -124Q557 -133 507 -133Q394 -133 304 -99Q214 -65 151.5 -5Q89 55 56 136.5Q23 218 23 312Q23 412 57.5 495.5Q92 579 153.5 639Q215 699 300.5 732.5Q386 766 488 766Q594 766 676.5 736Q759 706 816 653Q873 600 903 528Q933 456 933 371Q933 309 918 259.5Q903 210 875.5 175.5Q848 141 810 122Q772 103 726 103Q679 103 650.5 120.5Q622 138 610 163ZM378 314Q378 271 403.5 243.5Q429 216 471 216Q514 216 540 243Q566 270 566 314Q566 359 539.5 386Q513 413 471 413Q428 413 403 385.5Q378 358 378 314Z" glyph-name="at.uc" horiz-adv-x="955" /><glyph d="M21 175Q21 212 34 244.5Q47 277 71 300.5Q95 324 129 337.5Q163 351 205 351Q241 351 265 343.5Q289 336 300 329V356Q300 391 284 413Q268 435 230 435Q211 435 198.5 429.5Q186 424 178.5 415Q171 406 168 395Q165 384 165 373H40Q42 449 88.5 495Q135 541 230 541Q288 541 326.5 526Q365 511 388.5 484Q412 457 422 419.5Q432 382 432 337V0H320V34Q309 22 281.5 7.5Q254 -7 207 -7Q167 -7 133 6Q99 19 74 42.5Q49 66 35 99.5Q21 133 21 175ZM147 176Q147 142 168.5 120.5Q190 99 225 99Q258 99 280 120.5Q302 142 302 176Q302 210 280 231Q258 252 224 252Q189 252 168 230Q147 208 147 176ZM292 572Q274 572 260 577.5Q246 583 234 589Q222 595 211.5 600.5Q201 606 190 606Q164 606 164 572H69Q67 629 95.5 667Q124 705 177 705Q197 705 211 699.5Q225 694 236 688Q247 682 257 676.5Q267 671 278 671Q303 671 303 706H398Q400 645 371.5 608.5Q343 572 292 572Z" glyph-name="atilde" horiz-adv-x="469" unicode="&#227;" /><glyph d="M360 572Q342 572 328 577.5Q314 583 302 589Q290 595 279.5 600.5Q269 606 258 606Q232 606 232 572H137Q135 629 163.5 667Q192 705 245 705Q265 705 279 699.5Q293 694 304 688Q315 682 325 676.5Q335 671 346 671Q371 671 371 706H466Q468 645 439.5 608.5Q411 572 360 572ZM453 53Q445 43 431 32Q417 21 397 12Q377 3 351 -3Q325 -9 293 -9Q232 -9 181.5 11Q131 31 95 67.5Q59 104 39 155Q19 206 19 268Q19 327 38.5 377.5Q58 428 94 465Q130 502 180.5 523Q231 544 293 544Q343 544 385.5 527.5Q428 511 451 485V535H578V0H453ZM153 268Q153 234 163.5 205Q174 176 193.5 155Q213 134 240.5 122Q268 110 301 110Q335 110 362 122Q389 134 408 155Q427 176 437.5 205Q448 234 448 268Q448 302 437 330.5Q426 359 406.5 380Q387 401 360 413Q333 425 301 425Q267 425 239.5 413Q212 401 193 380Q174 359 163.5 330Q153 301 153 268Z" glyph-name="atilde.alt" horiz-adv-x="617" /><glyph d="M169 268Q169 233 179.5 204.5Q190 176 209.5 155Q229 134 256.5 122.5Q284 111 317 111Q351 111 378.5 122.5Q406 134 425 155Q444 176 454 205Q464 234 464 268Q464 302 453.5 331Q443 360 423.5 381Q404 402 376.5 413.5Q349 425 316 425Q282 425 254.5 413.5Q227 402 208 381Q189 360 179 331Q169 302 169 268ZM166 0H39V731H173V482Q195 505 236.5 524.5Q278 544 333 544Q393 544 442 524Q491 504 525.5 468Q560 432 579 381Q598 330 598 268Q598 209 578.5 158Q559 107 523 70Q487 33 436.5 12Q386 -9 324 -9Q272 -9 230.5 9.5Q189 28 166 51Z" glyph-name="b" horiz-adv-x="617" unicode="b" /><glyph d="M-2 731H122L466 -175H343Z" glyph-name="backslash" horiz-adv-x="464" unicode="\" /><glyph d="M-2 731H122L421 -56H298Z" glyph-name="backslash.uc" horiz-adv-x="464" /><glyph d="M178 -175H65V731H178Z" glyph-name="bar" horiz-adv-x="243" unicode="|" /><glyph d="M177 -55H64V731H177Z" glyph-name="bar.uc" horiz-adv-x="242" /><glyph d="M203 27Q203 -11 219.5 -33.5Q236 -56 281 -56H289V-175H280Q174 -175 125 -123Q76 -71 76 28V184Q76 216 66 233.5Q56 251 17 251H16V375H17Q56 375 66 392.5Q76 410 76 442V593Q76 691 125 743.5Q174 796 280 796H289V677H281Q236 677 219.5 654.5Q203 632 203 594V417Q203 391 197.5 372.5Q192 354 182.5 341.5Q173 329 160.5 322Q148 315 135 312Q162 306 182.5 283Q203 260 203 207V27Z" glyph-name="braceleft" horiz-adv-x="304" unicode="{" /><glyph d="M203 27Q203 -11 219.5 -33.5Q236 -56 281 -56H289V-175H280Q174 -175 125 -123Q76 -71 76 28V184Q76 216 66 233.5Q56 251 17 251H16V375H17Q56 375 66 392.5Q76 410 76 442V593Q76 691 125 743.5Q174 796 280 796H289V677H281Q236 677 219.5 654.5Q203 632 203 594V417Q203 391 197.5 372.5Q192 354 182.5 341.5Q173 329 160.5 322Q148 315 135 312Q162 306 182.5 283Q203 260 203 207V27Z" glyph-name="braceleft.uc" horiz-adv-x="304" /><glyph d="M101 207Q101 260 121.5 283Q142 306 170 312Q156 315 143.5 322Q131 329 121.5 341.5Q112 354 106.5 372.5Q101 391 101 417V594Q101 632 85 654.5Q69 677 23 677H16V796H24Q130 796 179 743.5Q228 691 228 593V442Q228 410 238 392.5Q248 375 287 375H289V251H287Q248 251 238 233.5Q228 216 228 184V28Q228 -71 179 -123Q130 -175 24 -175H16V-56H23Q69 -56 85 -33.5Q101 -11 101 27Z" glyph-name="braceright" horiz-adv-x="304" unicode="}" /><glyph d="M101 207Q101 260 121.5 283Q142 306 170 312Q156 315 143.5 322Q131 329 121.5 341.5Q112 354 106.5 372.5Q101 391 101 417V594Q101 632 85 654.5Q69 677 23 677H16V796H24Q130 796 179 743.5Q228 691 228 593V442Q228 410 238 392.5Q248 375 287 375H289V251H287Q248 251 238 233.5Q228 216 228 184V28Q228 -71 179 -123Q130 -175 24 -175H16V-56H23Q69 -56 85 -33.5Q101 -11 101 27Z" glyph-name="braceright.uc" horiz-adv-x="304" /><glyph d="M40 796H252V677H167V-56H252V-175H40Z" glyph-name="bracketleft" horiz-adv-x="268" unicode="[" /><glyph d="M40 796H252V677H167V-56H252V-175H40Z" glyph-name="bracketleft.uc" horiz-adv-x="268" /><glyph d="M228 -175H16V-56H101V677H16V796H228Z" glyph-name="bracketright" horiz-adv-x="268" unicode="]" /><glyph d="M228 -175H16V-56H101V677H16V796H228Z" glyph-name="bracketright.uc" horiz-adv-x="268" /><glyph d="M201 564Q162 564 134 577Q106 590 88.5 610.5Q71 631 63 656.5Q55 682 55 707H155Q155 687 166 671Q177 655 202 655Q227 655 238 671Q249 687 249 707H348Q348 682 340 656.5Q332 631 314 610.5Q296 590 268 577Q240 564 201 564Z" glyph-name="breve" horiz-adv-x="400" unicode="&#728;" /><glyph d="M201 723Q162 723 134 735Q106 747 88 766Q70 785 61.5 809Q53 833 53 857H155Q155 841 166 827.5Q177 814 202 814Q226 814 237.5 827.5Q249 841 249 857H350Q350 833 341.5 809Q333 785 315 766Q297 747 268.5 735Q240 723 201 723Z" glyph-name="breve.uc" horiz-adv-x="400" /><glyph d="M178 -175H65V255H178ZM178 312H65V731H178Z" glyph-name="brokenbar" horiz-adv-x="243" unicode="&#166;" /><glyph d="M20 297Q20 327 31 352.5Q42 378 61 397.5Q80 417 105.5 428Q131 439 161 439Q190 439 216 428Q242 417 261 397.5Q280 378 291 352.5Q302 327 302 297Q302 268 291 242Q280 216 261 197Q242 178 216 167Q190 156 161 156Q131 156 105.5 167Q80 178 61 197Q42 216 31 242Q20 268 20 297Z" glyph-name="bullet" horiz-adv-x="322" unicode="&#8226;" /><glyph d="M297 112Q338 112 364.5 126.5Q391 141 409 156L483 66Q471 53 453 40Q435 27 412 16Q389 5 359.5 -2Q330 -9 296 -9Q233 -9 181.5 12Q130 33 94 70Q58 107 38.5 157.5Q19 208 19 266Q19 324 39.5 375Q60 426 97 463.5Q134 501 184.5 522.5Q235 544 295 544Q331 544 360.5 537.5Q390 531 413.5 520.5Q437 510 454 497Q471 484 483 472L406 379Q389 395 362.5 409Q336 423 296 423Q263 423 236.5 411Q210 399 191.5 378Q173 357 163 328.5Q153 300 153 267Q153 231 164.5 202.5Q176 174 196 153.5Q216 133 242 122.5Q268 112 297 112Z" glyph-name="c" horiz-adv-x="488" unicode="c" /><glyph d="M297 112Q338 112 364.5 126.5Q391 141 409 156L483 66Q471 53 453 40Q435 27 412 16Q389 5 359.5 -2Q330 -9 296 -9Q233 -9 181.5 12Q130 33 94 70Q58 107 38.5 157.5Q19 208 19 266Q19 324 39.5 375Q60 426 97 463.5Q134 501 184.5 522.5Q235 544 295 544Q331 544 360.5 537.5Q390 531 413.5 520.5Q437 510 454 497Q471 484 483 472L406 379Q389 395 362.5 409Q336 423 296 423Q263 423 236.5 411Q210 399 191.5 378Q173 357 163 328.5Q153 300 153 267Q153 231 164.5 202.5Q176 174 196 153.5Q216 133 242 122.5Q268 112 297 112ZM430 710 349 572H223L299 710Z" glyph-name="cacute" horiz-adv-x="488" unicode="&#263;" /><glyph d="M297 112Q338 112 364.5 126.5Q391 141 409 156L483 66Q471 53 453 40Q435 27 412 16Q389 5 359.5 -2Q330 -9 296 -9Q233 -9 181.5 12Q130 33 94 70Q58 107 38.5 157.5Q19 208 19 266Q19 324 39.5 375Q60 426 97 463.5Q134 501 184.5 522.5Q235 544 295 544Q331 544 360.5 537.5Q390 531 413.5 520.5Q437 510 454 497Q471 484 483 472L406 379Q389 395 362.5 409Q336 423 296 423Q263 423 236.5 411Q210 399 191.5 378Q173 357 163 328.5Q153 300 153 267Q153 231 164.5 202.5Q176 174 196 153.5Q216 133 242 122.5Q268 112 297 112ZM383 710 338 572H222L265 710Z" glyph-name="cacute.pl" horiz-adv-x="487" /><glyph d="M133 571 37 713H154L200 651L246 713H363L267 571Z" glyph-name="caron" horiz-adv-x="400" unicode="&#711;" /><glyph d="M365 731 351 572H245L257 731Z" glyph-name="caron.alt" horiz-adv-x="476" /><glyph d="M130 724 27 854H151L200 799L249 854H372L269 724Z" glyph-name="caron.uc" horiz-adv-x="400" /><glyph d="M297 112Q338 112 364.5 126.5Q391 141 409 156L483 66Q471 53 453 40Q435 27 412 16Q389 5 359.5 -2Q330 -9 296 -9Q233 -9 181.5 12Q130 33 94 70Q58 107 38.5 157.5Q19 208 19 266Q19 324 39.5 375Q60 426 97 463.5Q134 501 184.5 522.5Q235 544 295 544Q331 544 360.5 537.5Q390 531 413.5 520.5Q437 510 454 497Q471 484 483 472L406 379Q389 395 362.5 409Q336 423 296 423Q263 423 236.5 411Q210 399 191.5 378Q173 357 163 328.5Q153 300 153 267Q153 231 164.5 202.5Q176 174 196 153.5Q216 133 242 122.5Q268 112 297 112ZM207 571 111 713H228L274 651L320 713H437L341 571Z" glyph-name="ccaron" horiz-adv-x="488" unicode="&#269;" /><glyph d="M212 -259V-183H233Q253 -182 265 -173Q277 -164 277 -143Q277 -124 265 -114.5Q253 -105 233 -105H212V2Q167 14 131 39Q95 64 70.5 98.5Q46 133 32.5 175.5Q19 218 19 266Q19 324 39.5 375Q60 426 97 463.5Q134 501 184.5 522.5Q235 544 295 544Q331 544 360.5 537.5Q390 531 413.5 520.5Q437 510 454 497Q471 484 483 472L406 379Q389 395 362.5 409Q336 423 296 423Q263 423 236.5 411Q210 399 191.5 378Q173 357 163 328.5Q153 300 153 267Q153 231 164.5 202.5Q176 174 196 153.5Q216 133 242 122.5Q268 112 297 112Q338 112 364.5 126.5Q391 141 409 156L483 66Q471 53 453 40Q435 27 412 16Q389 5 359.5 -2Q330 -9 296 -9H288V-36Q332 -48 349 -77Q366 -106 366 -143Q366 -199 330.5 -229Q295 -259 232 -259Z" glyph-name="ccedilla" horiz-adv-x="488" unicode="&#231;" /><glyph d="M297 112Q338 112 364.5 126.5Q391 141 409 156L483 66Q471 53 453 40Q435 27 412 16Q389 5 359.5 -2Q330 -9 296 -9Q233 -9 181.5 12Q130 33 94 70Q58 107 38.5 157.5Q19 208 19 266Q19 324 39.5 375Q60 426 97 463.5Q134 501 184.5 522.5Q235 544 295 544Q331 544 360.5 537.5Q390 531 413.5 520.5Q437 510 454 497Q471 484 483 472L406 379Q389 395 362.5 409Q336 423 296 423Q263 423 236.5 411Q210 399 191.5 378Q173 357 163 328.5Q153 300 153 267Q153 231 164.5 202.5Q176 174 196 153.5Q216 133 242 122.5Q268 112 297 112ZM343 712 439 570H322L276 632L230 570H113L209 712Z" glyph-name="ccircumflex" horiz-adv-x="488" unicode="&#265;" /><glyph d="M297 112Q338 112 364.5 126.5Q391 141 409 156L483 66Q471 53 453 40Q435 27 412 16Q389 5 359.5 -2Q330 -9 296 -9Q233 -9 181.5 12Q130 33 94 70Q58 107 38.5 157.5Q19 208 19 266Q19 324 39.5 375Q60 426 97 463.5Q134 501 184.5 522.5Q235 544 295 544Q331 544 360.5 537.5Q390 531 413.5 520.5Q437 510 454 497Q471 484 483 472L406 379Q389 395 362.5 409Q336 423 296 423Q263 423 236.5 411Q210 399 191.5 378Q173 357 163 328.5Q153 300 153 267Q153 231 164.5 202.5Q176 174 196 153.5Q216 133 242 122.5Q268 112 297 112ZM278 572Q246 572 224 593.5Q202 615 202 648Q202 680 223.5 701.5Q245 723 278 723Q310 723 333 701.5Q356 680 356 648Q356 615 334 593.5Q312 572 278 572Z" glyph-name="cdotaccent" horiz-adv-x="488" unicode="&#267;" /><glyph d="M127 -259V-183H148Q168 -182 180 -173Q192 -164 192 -143Q192 -124 180 -114.5Q168 -105 148 -105H127V15H203V-36Q247 -48 264 -77Q281 -106 281 -143Q281 -199 245.5 -229Q210 -259 147 -259Z" glyph-name="cedilla" horiz-adv-x="400" unicode="&#184;" /><glyph d="M328 541Q388 535 427 512Q466 489 488 467L414 377Q401 391 379.5 404.5Q358 418 328 423V111Q357 116 379 130Q401 144 416 158L489 69Q478 58 462.5 45.5Q447 33 427 22.5Q407 12 382 4.5Q357 -3 328 -6V-69H254V-5Q200 2 156.5 25Q113 48 82.5 84Q52 120 35.5 166.5Q19 213 19 266Q19 319 36.5 366Q54 413 85 449Q116 485 159 509Q202 533 254 540V604H328ZM150 267Q150 207 179.5 168Q209 129 254 115V420Q204 406 177 365Q150 324 150 267Z" glyph-name="cent" horiz-adv-x="495" unicode="&#162;" /><glyph d="M267 712 363 570H246L200 632L154 570H37L133 712Z" glyph-name="circumflex" horiz-adv-x="400" unicode="&#710;" /><glyph d="M269 854 372 724H249L200 778L150 724H27L130 854Z" glyph-name="circumflex.uc" horiz-adv-x="400" /><glyph d="M104 339Q68 339 43.5 364Q19 389 19 425Q19 462 43 486.5Q67 511 104 511Q141 511 165 486.5Q189 462 189 425Q189 389 165 364Q141 339 104 339ZM104 -11Q68 -11 43.5 14Q19 39 19 75Q19 112 43 136.5Q67 161 104 161Q141 161 165 136.5Q189 112 189 75Q189 39 165 14Q141 -11 104 -11Z" glyph-name="colon" horiz-adv-x="208" unicode=":" /><glyph d="M78 -2Q52 5 36 25.5Q20 46 19 76Q18 112 42.5 136.5Q67 161 105 161Q143 161 166 136.5Q189 112 189 75Q189 56 183.5 37.5Q178 19 168 -2L115 -111H23Z" glyph-name="comma" horiz-adv-x="208" unicode="," /><glyph d="M23 345Q23 420 49 486Q75 552 122.5 600.5Q170 649 236 677Q302 705 382 705Q467 705 535 677.5Q603 650 651 602Q699 554 724.5 489Q750 424 750 348Q750 273 724.5 207Q699 141 651.5 92Q604 43 537 15Q470 -13 387 -13Q304 -13 236.5 14.5Q169 42 121.5 90Q74 138 48.5 203.5Q23 269 23 345ZM110 345Q110 285 129 234Q148 183 183.5 145.5Q219 108 270.5 86.5Q322 65 387 65Q452 65 503 86Q554 107 589.5 145Q625 183 643.5 234.5Q662 286 662 348Q662 409 643 460.5Q624 512 588 549Q552 586 500 606.5Q448 627 382 627Q320 627 270 606Q220 585 184.5 547.5Q149 510 129.5 458Q110 406 110 345ZM465 416Q457 424 440 432.5Q423 441 398 441Q357 441 334 414.5Q311 388 311 346Q311 305 335.5 278.5Q360 252 401 252Q424 252 440.5 259.5Q457 267 466 275L528 200Q479 151 402 151Q355 151 318 166Q281 181 255.5 207Q230 233 216.5 268.5Q203 304 203 345Q203 387 217 423Q231 459 256.5 485.5Q282 512 318.5 527Q355 542 400 542Q444 542 474.5 530Q505 518 528 498Z" glyph-name="copyright" horiz-adv-x="772" unicode="&#169;" /><glyph d="M453 53Q429 27 387.5 9Q346 -9 295 -9Q233 -9 182 11.5Q131 32 95 68.5Q59 105 39 155.5Q19 206 19 266Q19 324 38.5 375Q58 426 94 463.5Q130 501 180 522.5Q230 544 290 544Q341 544 380 529.5Q419 515 444 492V731H578V0H453ZM153 268Q153 234 164 205.5Q175 177 194.5 156Q214 135 241 123Q268 111 301 111Q335 111 362 123Q389 135 408 156Q427 177 437.5 206Q448 235 448 268Q448 301 437.5 330Q427 359 407.5 380Q388 401 361 413Q334 425 301 425Q267 425 240 413Q213 401 193.5 380Q174 359 163.5 330Q153 301 153 268Z" glyph-name="d" horiz-adv-x="617" unicode="d" /><glyph d="M263 428V0H127V428H19V559H127V692H263V559H372V428Z" glyph-name="dagger" horiz-adv-x="391" unicode="&#8224;" /><glyph d="M133 273V428H24V559H133V692H269V559H378V428H269V273H378V142H269V0H133V142H24V273Z" glyph-name="daggerdbl" horiz-adv-x="402" unicode="&#8225;" /><glyph d="M453 53Q429 27 387.5 9Q346 -9 295 -9Q233 -9 182 11.5Q131 32 95 68.5Q59 105 39 155.5Q19 206 19 266Q19 324 38.5 375Q58 426 94 463.5Q130 501 180 522.5Q230 544 290 544Q341 544 380 529.5Q419 515 444 492V731H578V0H453ZM153 268Q153 234 164 205.5Q175 177 194.5 156Q214 135 241 123Q268 111 301 111Q335 111 362 123Q389 135 408 156Q427 177 437.5 206Q448 235 448 268Q448 301 437.5 330Q427 359 407.5 380Q388 401 361 413Q334 425 301 425Q267 425 240 413Q213 401 193.5 380Q174 359 163.5 330Q153 301 153 268ZM730 731 716 572H610L622 731Z" glyph-name="dcaron" horiz-adv-x="617" unicode="&#271;" /><glyph d="M318 673H444V731H578V673H624V579H578V0H453V53Q429 27 387.5 9Q346 -9 295 -9Q233 -9 182 11.5Q131 32 95 68.5Q59 105 39 155.5Q19 206 19 266Q19 324 38.5 375Q58 426 94 463.5Q130 501 180 522.5Q230 544 290 544Q341 544 380 529.5Q419 515 444 492V579H318ZM153 268Q153 234 164 205.5Q175 177 194.5 156Q214 135 241 123Q268 111 301 111Q335 111 362 123Q389 135 408 156Q427 177 437.5 206Q448 235 448 268Q448 301 437.5 330Q427 359 407.5 380Q388 401 361 413Q334 425 301 425Q267 425 240 413Q213 401 193.5 380Q174 359 163.5 330Q153 301 153 268Z" glyph-name="dcroat" horiz-adv-x="627" unicode="&#273;" /><glyph d="M19 545Q19 578 30.5 607Q42 636 63 657.5Q84 679 113 691Q142 703 177 703Q214 703 244 691Q274 679 295 658Q316 637 327 608.5Q338 580 338 547Q338 513 326.5 484Q315 455 294 434Q273 413 243.5 401Q214 389 178 389Q141 389 111.5 401Q82 413 61.5 434Q41 455 30 483.5Q19 512 19 545ZM111 545Q111 516 130 496Q149 476 179 476Q210 476 227.5 496.5Q245 517 245 545Q245 574 226.5 595Q208 616 178 616Q147 616 129 595Q111 574 111 545Z" glyph-name="degree" horiz-adv-x="357" unicode="&#176;" /><glyph d="M152 573Q120 573 99 594Q78 615 78 647Q78 677 99 698Q120 719 152 719Q184 719 205.5 698.5Q227 678 227 647Q227 615 205 594Q183 573 152 573ZM335 573Q304 573 283 594Q262 615 262 647Q262 677 283 698Q304 719 335 719Q368 719 389.5 698.5Q411 678 411 647Q411 615 389 594Q367 573 335 573Z" glyph-name="dieresis" horiz-adv-x="476" unicode="&#168;" /><glyph d="M135 722Q104 722 83 742.5Q62 763 62 795Q62 826 83 847Q104 868 135 868Q167 868 189 847Q211 826 211 795Q211 763 189 742.5Q167 722 135 722ZM333 722Q301 722 280 742.5Q259 763 259 795Q259 826 280 847Q301 868 333 868Q365 868 386.5 847Q408 826 408 795Q408 763 386.5 742.5Q365 722 333 722Z" glyph-name="dieresis.uc" horiz-adv-x="476" /><glyph d="M235 84Q203 84 180.5 106.5Q158 129 158 161Q158 193 180.5 215.5Q203 238 235 238Q268 238 290 215.5Q312 193 312 161Q312 129 289.5 106.5Q267 84 235 84ZM235 433Q203 433 180.5 456Q158 479 158 511Q158 543 180.5 565Q203 587 235 587Q268 587 290 565Q312 543 312 511Q312 479 289.5 456Q267 433 235 433ZM27 393H442V281H27Z" glyph-name="divide" horiz-adv-x="470" unicode="&#247;" /><glyph d="M287 702Q333 696 365.5 678Q398 660 417.5 632.5Q437 605 445 570.5Q453 536 452 498H341Q341 532 327 557Q313 582 287 593V412Q290 411 297.5 408Q305 405 313 401Q321 397 328 394Q335 391 337 390Q368 376 393.5 357.5Q419 339 437 315Q455 291 464.5 260.5Q474 230 474 190Q474 149 460.5 114.5Q447 80 422.5 54Q398 28 363.5 11.5Q329 -5 287 -10V-69H210V-11Q154 -5 118 16.5Q82 38 60.5 69.5Q39 101 31 138.5Q23 176 24 213H143Q142 171 157 140.5Q172 110 210 99V304L159 326Q99 355 66 399.5Q33 444 33 518Q33 553 45.5 584.5Q58 616 81 640Q104 664 136.5 680.5Q169 697 210 702V760H287ZM348 182Q348 216 331.5 234Q315 252 287 268V100Q316 108 332 129Q348 150 348 182ZM155 523Q155 494 169.5 477Q184 460 210 446V596Q155 581 155 523Z" glyph-name="dollar" horiz-adv-x="498" unicode="$" /><glyph d="M201 572Q169 572 147 593.5Q125 615 125 648Q125 680 146.5 701.5Q168 723 201 723Q233 723 256 701.5Q279 680 279 648Q279 615 257 593.5Q235 572 201 572Z" glyph-name="dotaccent" horiz-adv-x="400" unicode="&#729;" /><glyph d="M201 730Q170 730 147.5 752Q125 774 125 806Q125 837 146.5 859Q168 881 201 881Q233 881 256 859.5Q279 838 279 806Q279 774 256.5 752Q234 730 201 730Z" glyph-name="dotaccent.uc" horiz-adv-x="400" /><glyph d="M173 0H39V535H173Z" glyph-name="dotlessi" horiz-adv-x="212" unicode="&#305;" /><glyph d="M160 224Q165 170 200.5 140Q236 110 293 110Q344 110 375.5 133.5Q407 157 428 190L527 130Q515 105 495 80Q475 55 446.5 35.5Q418 16 380 3.5Q342 -9 293 -9Q232 -9 181.5 10Q131 29 95 64.5Q59 100 39 151Q19 202 19 266Q19 326 38.5 377Q58 428 92.5 465Q127 502 175.5 523Q224 544 282 544Q342 544 390.5 525Q439 506 473 471.5Q507 437 525.5 388Q544 339 544 279Q544 269 544 255Q544 241 542 224ZM281 431Q230 431 199 401Q168 371 163 325H405Q400 370 368 400.5Q336 431 281 431Z" glyph-name="e" horiz-adv-x="560" unicode="e" /><glyph d="M160 224Q165 170 200.5 140Q236 110 293 110Q344 110 375.5 133.5Q407 157 428 190L527 130Q515 105 495 80Q475 55 446.5 35.5Q418 16 380 3.5Q342 -9 293 -9Q232 -9 181.5 10Q131 29 95 64.5Q59 100 39 151Q19 202 19 266Q19 326 38.5 377Q58 428 92.5 465Q127 502 175.5 523Q224 544 282 544Q342 544 390.5 525Q439 506 473 471.5Q507 437 525.5 388Q544 339 544 279Q544 269 544 255Q544 241 542 224ZM281 431Q230 431 199 401Q168 371 163 325H405Q400 370 368 400.5Q336 431 281 431ZM428 710 347 572H221L297 710Z" glyph-name="eacute" horiz-adv-x="560" unicode="&#233;" /><glyph d="M160 224Q165 170 200.5 140Q236 110 293 110Q344 110 375.5 133.5Q407 157 428 190L527 130Q515 105 495 80Q475 55 446.5 35.5Q418 16 380 3.5Q342 -9 293 -9Q232 -9 181.5 10Q131 29 95 64.5Q59 100 39 151Q19 202 19 266Q19 326 38.5 377Q58 428 92.5 465Q127 502 175.5 523Q224 544 282 544Q342 544 390.5 525Q439 506 473 471.5Q507 437 525.5 388Q544 339 544 279Q544 269 544 255Q544 241 542 224ZM281 431Q230 431 199 401Q168 371 163 325H405Q400 370 368 400.5Q336 431 281 431ZM282 564Q243 564 215 577Q187 590 169.5 610.5Q152 631 144 656.5Q136 682 136 707H236Q236 687 247 671Q258 655 283 655Q308 655 319 671Q330 687 330 707H429Q429 682 421 656.5Q413 631 395 610.5Q377 590 349 577Q321 564 282 564Z" glyph-name="ebreve" horiz-adv-x="560" unicode="&#277;" /><glyph d="M160 224Q165 170 200.5 140Q236 110 293 110Q344 110 375.5 133.5Q407 157 428 190L527 130Q515 105 495 80Q475 55 446.5 35.5Q418 16 380 3.5Q342 -9 293 -9Q232 -9 181.5 10Q131 29 95 64.5Q59 100 39 151Q19 202 19 266Q19 326 38.5 377Q58 428 92.5 465Q127 502 175.5 523Q224 544 282 544Q342 544 390.5 525Q439 506 473 471.5Q507 437 525.5 388Q544 339 544 279Q544 269 544 255Q544 241 542 224ZM281 431Q230 431 199 401Q168 371 163 325H405Q400 370 368 400.5Q336 431 281 431ZM216 571 120 713H237L283 651L329 713H446L350 571Z" glyph-name="ecaron" horiz-adv-x="560" unicode="&#283;" /><glyph d="M160 224Q165 170 200.5 140Q236 110 293 110Q344 110 375.5 133.5Q407 157 428 190L527 130Q515 105 495 80Q475 55 446.5 35.5Q418 16 380 3.5Q342 -9 293 -9Q232 -9 181.5 10Q131 29 95 64.5Q59 100 39 151Q19 202 19 266Q19 326 38.5 377Q58 428 92.5 465Q127 502 175.5 523Q224 544 282 544Q342 544 390.5 525Q439 506 473 471.5Q507 437 525.5 388Q544 339 544 279Q544 269 544 255Q544 241 542 224ZM281 431Q230 431 199 401Q168 371 163 325H405Q400 370 368 400.5Q336 431 281 431ZM347 712 443 570H326L280 632L234 570H117L213 712Z" glyph-name="ecircumflex" horiz-adv-x="560" unicode="&#234;" /><glyph d="M160 224Q165 170 200.5 140Q236 110 293 110Q344 110 375.5 133.5Q407 157 428 190L527 130Q515 105 495 80Q475 55 446.5 35.5Q418 16 380 3.5Q342 -9 293 -9Q232 -9 181.5 10Q131 29 95 64.5Q59 100 39 151Q19 202 19 266Q19 326 38.5 377Q58 428 92.5 465Q127 502 175.5 523Q224 544 282 544Q342 544 390.5 525Q439 506 473 471.5Q507 437 525.5 388Q544 339 544 279Q544 269 544 255Q544 241 542 224ZM281 431Q230 431 199 401Q168 371 163 325H405Q400 370 368 400.5Q336 431 281 431ZM190 573Q158 573 137 594Q116 615 116 647Q116 677 137 698Q158 719 190 719Q222 719 243.5 698.5Q265 678 265 647Q265 615 243 594Q221 573 190 573ZM373 573Q342 573 321 594Q300 615 300 647Q300 677 321 698Q342 719 373 719Q406 719 427.5 698.5Q449 678 449 647Q449 615 427 594Q405 573 373 573Z" glyph-name="edieresis" horiz-adv-x="560" unicode="&#235;" /><glyph d="M160 224Q165 170 200.5 140Q236 110 293 110Q344 110 375.5 133.5Q407 157 428 190L527 130Q515 105 495 80Q475 55 446.5 35.5Q418 16 380 3.5Q342 -9 293 -9Q232 -9 181.5 10Q131 29 95 64.5Q59 100 39 151Q19 202 19 266Q19 326 38.5 377Q58 428 92.5 465Q127 502 175.5 523Q224 544 282 544Q342 544 390.5 525Q439 506 473 471.5Q507 437 525.5 388Q544 339 544 279Q544 269 544 255Q544 241 542 224ZM281 431Q230 431 199 401Q168 371 163 325H405Q400 370 368 400.5Q336 431 281 431ZM282 572Q250 572 228 593.5Q206 615 206 648Q206 680 227.5 701.5Q249 723 282 723Q314 723 337 701.5Q360 680 360 648Q360 615 338 593.5Q316 572 282 572Z" glyph-name="edotaccent" horiz-adv-x="560" unicode="&#279;" /><glyph d="M160 224Q165 170 200.5 140Q236 110 293 110Q344 110 375.5 133.5Q407 157 428 190L527 130Q515 105 495 80Q475 55 446.5 35.5Q418 16 380 3.5Q342 -9 293 -9Q232 -9 181.5 10Q131 29 95 64.5Q59 100 39 151Q19 202 19 266Q19 326 38.5 377Q58 428 92.5 465Q127 502 175.5 523Q224 544 282 544Q342 544 390.5 525Q439 506 473 471.5Q507 437 525.5 388Q544 339 544 279Q544 269 544 255Q544 241 542 224ZM281 431Q230 431 199 401Q168 371 163 325H405Q400 370 368 400.5Q336 431 281 431ZM275 710 351 572H225L144 710Z" glyph-name="egrave" horiz-adv-x="560" unicode="&#232;" /><glyph d="M172 500Q172 463 194.5 440Q217 417 255 417Q292 417 314.5 440Q337 463 337 500Q337 537 314.5 560Q292 583 254 583Q216 583 194 560Q172 537 172 500ZM33 506Q33 544 46.5 580Q60 616 87 643.5Q114 671 155.5 688Q197 705 254 705Q311 705 353 688Q395 671 422 643.5Q449 616 462.5 580Q476 544 476 506Q476 453 455 416Q434 379 402 357Q444 332 466 293.5Q488 255 488 197Q488 156 473.5 118Q459 80 429.5 51Q400 22 356.5 4.5Q313 -13 255 -13Q195 -13 151 4Q107 21 78 50Q49 79 35 117Q21 155 21 197Q21 252 43.5 292Q66 332 106 357Q74 380 53.5 416Q33 452 33 506ZM164 202Q164 162 189.5 136.5Q215 111 255 111Q296 111 321 136Q346 161 346 202Q346 242 321 267.5Q296 293 255 293Q213 293 188.5 267.5Q164 242 164 202Z" glyph-name="eight" horiz-adv-x="508" unicode="8" /><glyph d="M26 263Q26 283 34 302Q42 321 58 335.5Q74 350 99 358.5Q124 367 158 367Q226 367 258.5 336.5Q291 306 291 263Q291 235 279.5 214.5Q268 194 246 186Q272 176 284.5 154.5Q297 133 297 104Q297 58 263.5 25Q230 -8 158 -8Q122 -8 95.5 1Q69 10 52.5 25Q36 40 28 59.5Q20 79 20 101Q20 130 32 152Q44 174 70 186Q51 196 38.5 215Q26 234 26 263ZM122 257Q122 240 132 230.5Q142 221 159 221Q175 221 185 230.5Q195 240 195 257Q195 274 184.5 284Q174 294 159 294Q142 294 132 284Q122 274 122 257ZM118 106Q118 87 129.5 76Q141 65 159 65Q176 65 187.5 76Q199 87 199 106Q199 125 187.5 135.5Q176 146 159 146Q141 146 129.5 135.5Q118 125 118 106Z" glyph-name="eight.den" horiz-adv-x="317" /><glyph d="M26 597Q26 617 34 636Q42 655 58 669.5Q74 684 99 692.5Q124 701 158 701Q226 701 258.5 670.5Q291 640 291 597Q291 569 279.5 548.5Q268 528 246 520Q272 510 284.5 488.5Q297 467 297 438Q297 392 263.5 359Q230 326 158 326Q122 326 95.5 335Q69 344 52.5 359Q36 374 28 393.5Q20 413 20 435Q20 464 32 486Q44 508 70 520Q51 530 38.5 549Q26 568 26 597ZM122 591Q122 574 132 564.5Q142 555 159 555Q175 555 185 564.5Q195 574 195 591Q195 608 184.5 618Q174 628 159 628Q142 628 132 618Q122 608 122 591ZM118 440Q118 421 129.5 410Q141 399 159 399Q176 399 187.5 410Q199 421 199 440Q199 459 187.5 469.5Q176 480 159 480Q141 480 129.5 469.5Q118 459 118 440Z" glyph-name="eight.num" horiz-adv-x="317" /><glyph d="M544 -11Q508 -11 483.5 14Q459 39 459 75Q459 112 483 136.5Q507 161 544 161Q581 161 605 136.5Q629 112 629 75Q629 39 605 14Q581 -11 544 -11ZM324 -11Q288 -11 263.5 14Q239 39 239 75Q239 112 263 136.5Q287 161 324 161Q361 161 385 136.5Q409 112 409 75Q409 39 385 14Q361 -11 324 -11ZM104 -11Q68 -11 43.5 14Q19 39 19 75Q19 112 43 136.5Q67 161 104 161Q141 161 165 136.5Q189 112 189 75Q189 39 165 14Q141 -11 104 -11Z" glyph-name="ellipsis" horiz-adv-x="649" unicode="&#8230;" /><glyph d="M160 224Q165 170 200.5 140Q236 110 293 110Q344 110 375.5 133.5Q407 157 428 190L527 130Q515 105 495 80Q475 55 446.5 35.5Q418 16 380 3.5Q342 -9 293 -9Q232 -9 181.5 10Q131 29 95 64.5Q59 100 39 151Q19 202 19 266Q19 326 38.5 377Q58 428 92.5 465Q127 502 175.5 523Q224 544 282 544Q342 544 390.5 525Q439 506 473 471.5Q507 437 525.5 388Q544 339 544 279Q544 269 544 255Q544 241 542 224ZM281 431Q230 431 199 401Q168 371 163 325H405Q400 370 368 400.5Q336 431 281 431ZM162 683H404V585H162Z" glyph-name="emacron" horiz-adv-x="560" unicode="&#275;" /><glyph d="M31 229V339H920V229Z" glyph-name="emdash" horiz-adv-x="951" unicode="&#8212;" /><glyph d="M31 265V376H920V265Z" glyph-name="emdash.uc" horiz-adv-x="951" /><glyph d="M31 229V339H580V229Z" glyph-name="endash" horiz-adv-x="611" unicode="&#8211;" /><glyph d="M31 265V376H580V265Z" glyph-name="endash.uc" horiz-adv-x="611" /><glyph d="M453 0Q453 -39 444.5 -71.5Q436 -104 416.5 -127Q397 -150 364.5 -163Q332 -176 284 -176Q279 -176 267 -176Q255 -176 243 -175V-61H268Q302 -60 310.5 -42Q319 -24 319 0V337Q319 376 301.5 399Q284 422 247 422Q211 422 192 398.5Q173 375 173 337V0H39V535H173V495Q178 501 187 509Q196 517 209.5 524Q223 531 242 536Q261 541 286 541Q333 541 365 526Q397 511 416.5 485.5Q436 460 444.5 426Q453 392 453 353Z" glyph-name="eng" horiz-adv-x="490" unicode="&#331;" /><glyph d="M527 130Q516 107 499 85Q482 63 454 40Q423 15 411 -4Q399 -23 399 -42Q399 -65 415.5 -73.5Q432 -82 458 -82V-175Q409 -178 374 -172Q339 -166 317 -153Q295 -140 285 -122Q275 -104 275 -83Q275 -63 285.5 -43Q296 -23 316 -8Q311 -9 305 -9Q299 -9 293 -9Q232 -9 181.5 10Q131 29 95 64.5Q59 100 39 151Q19 202 19 266Q19 326 38.5 377Q58 428 92.5 465Q127 502 175.5 523Q224 544 282 544Q342 544 390.5 525Q439 506 473 471.5Q507 437 525.5 388Q544 339 544 279Q544 268 544 254.5Q544 241 542 224H160Q165 170 200.5 140Q236 110 293 110Q344 110 375.5 133.5Q407 157 428 190ZM281 431Q230 431 199 401Q168 371 163 325H405Q400 370 368 400.5Q336 431 281 431Z" glyph-name="eogonek" horiz-adv-x="560" unicode="&#281;" /><glyph d="M30 468H445V361H30ZM30 302H445V195H30Z" glyph-name="equal" horiz-adv-x="474" unicode="=" /><glyph d="M318 694 422 722 447 629 390 613 462 533Q516 472 547 411Q578 350 578 274Q578 214 558 162Q538 110 502 72Q466 34 415.5 12.5Q365 -9 303 -9Q241 -9 188.5 11Q136 31 98.5 67Q61 103 40 153.5Q19 204 19 265Q19 329 41 378.5Q63 428 99.5 462Q136 496 184.5 514Q233 532 286 533Q293 533 299 531L259 578L140 546L115 639L192 660L133 731H285ZM153 266Q153 232 164 204Q175 176 194.5 155.5Q214 135 240.5 123.5Q267 112 299 112Q332 112 359 123.5Q386 135 405 155.5Q424 176 434 204.5Q444 233 444 266Q444 299 433.5 327.5Q423 356 403.5 377Q384 398 357.5 409.5Q331 421 298 421Q265 421 238 409.5Q211 398 192.5 377Q174 356 163.5 327.5Q153 299 153 266Z" glyph-name="eth" horiz-adv-x="598" unicode="&#240;" /><glyph d="M186 190H50V692L186 691ZM119 -10Q101 -10 85.5 -3.5Q70 3 58.5 14.5Q47 26 40 41.5Q33 57 33 75Q33 110 58.5 134.5Q84 159 119 159Q136 159 151 152.5Q166 146 177.5 134.5Q189 123 195.5 108Q202 93 202 75Q202 57 195.5 41.5Q189 26 177.5 14.5Q166 3 151 -3.5Q136 -10 119 -10Z" glyph-name="exclam" horiz-adv-x="236" unicode="!" /><glyph d="M186 -105H50V403H186ZM117 599Q135 599 150.5 592.5Q166 586 177.5 574.5Q189 563 195.5 547.5Q202 532 202 515Q202 480 177 455Q152 430 117 430Q100 430 84.5 436.5Q69 443 57.5 454.5Q46 466 39.5 481.5Q33 497 33 515Q33 550 57.5 574.5Q82 599 117 599Z" glyph-name="exclamdown" horiz-adv-x="236" unicode="&#161;" /><glyph d="M185 0H49V507H185ZM116 704Q134 704 149.5 697.5Q165 691 176.5 679.5Q188 668 194.5 652.5Q201 637 201 620Q201 584 176 559.5Q151 535 116 535Q81 535 56.5 559.5Q32 584 32 620Q32 655 56.5 679.5Q81 704 116 704Z" glyph-name="exclamdown.uc" horiz-adv-x="234" /><glyph d="M196 535H275V422H196V0H62V422H12V535H62V559Q62 598 70.5 630Q79 662 99 684.5Q119 707 151.5 719.5Q184 732 232 732Q237 732 251 732Q265 732 275 731V619H250Q216 619 206 600.5Q196 582 196 558Z" glyph-name="f" horiz-adv-x="288" unicode="f" /><glyph d="M196 535H268V422H196V0H62V422H12V535H62V559Q62 598 70.5 630Q79 662 99 684.5Q119 707 151.5 719.5Q184 732 232 732Q238 732 248 732Q258 732 268 731V619H250Q216 619 206 600.5Q196 582 196 558Z" glyph-name="f.short" horiz-adv-x="281" /><glyph d="M314 559Q314 598 322.5 630Q331 662 351 684.5Q371 707 403.5 719.5Q436 732 484 732Q489 732 503 732Q517 732 527 731V619H502Q468 619 458 600.5Q448 582 448 558V535H527V422H448V0H314V422H196V0H62V422H12V535H62V559Q62 598 70.5 630Q79 662 99 684.5Q119 707 151.5 719.5Q184 732 232 732Q237 732 251 732Q265 732 275 731V619H250Q216 619 206 600.5Q196 582 196 558V535H314Z" glyph-name="f_f" horiz-adv-x="540" unicode="&#64256;" /><glyph d="M196 535H314V559Q314 598 322.5 630Q331 662 351 684.5Q371 707 403.5 719.5Q436 732 484 732Q490 732 500 732Q510 732 520 731V619H502Q468 619 458 600.5Q448 582 448 558V535H520V422H448V0H314V422H196V0H62V422H12V535H62V559Q62 598 70.5 630Q79 662 99 684.5Q119 707 151.5 719.5Q184 732 232 732Q237 732 251 732Q265 732 275 731V619H250Q216 619 206 600.5Q196 582 196 558Z" glyph-name="f_f.short" horiz-adv-x="533" /><glyph d="M196 535H268V422H196V0H62V422H12V535H62V559Q62 598 70.5 630Q79 662 99 684.5Q119 707 151.5 719.5Q184 732 232 732Q238 732 248 732Q258 732 268 731V619H250Q216 619 206 600.5Q196 582 196 558ZM454 0H320V535H454ZM387 569Q354 569 330.5 592Q307 615 307 648Q307 682 330.5 705.5Q354 729 387 729Q421 729 444 705.5Q467 682 467 648Q467 615 444 592Q421 569 387 569Z" glyph-name="f_i" horiz-adv-x="493" unicode="&#64257;" /><glyph d="M196 535H268V422H196V0H62V422H12V535H62V559Q62 598 70.5 630Q79 662 99 684.5Q119 707 151.5 719.5Q184 732 232 732Q238 732 248 732Q258 732 268 731V619H250Q216 619 206 600.5Q196 582 196 558ZM454 0H320V731H454Z" glyph-name="f_l" horiz-adv-x="493" unicode="&#64258;" /><glyph d="M172 206Q174 167 194 143Q214 119 256 119Q300 119 321 146.5Q342 174 342 218V238Q342 281 322.5 307.5Q303 334 258 334Q225 334 207.5 320.5Q190 307 182 291H47V692H440V567H181V430Q192 441 220 452.5Q248 464 289 464Q387 464 433 407Q479 350 479 242V217Q479 170 466 128.5Q453 87 425.5 55.5Q398 24 356 5.5Q314 -13 256 -13Q196 -13 153.5 4Q111 21 85 50.5Q59 80 47 120Q35 160 35 206Z" glyph-name="five" horiz-adv-x="504" unicode="5" /><glyph d="M119 110Q119 96 128 85Q137 74 157 74Q175 74 185 85Q195 96 195 114V120Q195 138 185.5 148.5Q176 159 156 159Q142 159 135 154Q128 149 124 144H31V358H276V275H126V224Q132 229 147 234Q162 239 185 239Q239 239 267.5 208Q296 177 296 124V118Q296 61 259 26.5Q222 -8 157 -8Q116 -8 90 2.5Q64 13 49 30Q34 47 28 68Q22 89 22 110Z" glyph-name="five.den" horiz-adv-x="314" /><glyph d="M119 444Q119 430 128 419Q137 408 157 408Q175 408 185 419Q195 430 195 448V454Q195 472 185.5 482.5Q176 493 156 493Q142 493 135 488Q128 483 124 478H31V692H276V609H126V558Q132 563 147 568Q162 573 185 573Q239 573 267.5 542Q296 511 296 458V452Q296 395 259 360.5Q222 326 157 326Q116 326 90 336.5Q64 347 49 364Q34 381 28 402Q22 423 22 444Z" glyph-name="five.num" horiz-adv-x="314" /><glyph d="M137 444Q137 430 146 419Q155 408 175 408Q193 408 203 419Q213 430 213 448V454Q213 472 203.5 482.5Q194 493 174 493Q160 493 153 488Q146 483 142 478H49V692H294V609H144V558Q150 563 165 568Q180 573 203 573Q257 573 285.5 542Q314 511 314 458V452Q314 395 277 360.5Q240 326 175 326Q134 326 108 336.5Q82 347 67 364Q52 381 46 402Q40 423 40 444ZM488 263Q488 283 496 302Q504 321 520 335.5Q536 350 561 358.5Q586 367 620 367Q688 367 720.5 336.5Q753 306 753 263Q753 235 741.5 214.5Q730 194 708 186Q734 176 746.5 154.5Q759 133 759 104Q759 58 725.5 25Q692 -8 620 -8Q584 -8 557.5 1Q531 10 514.5 25Q498 40 490 59.5Q482 79 482 101Q482 130 494 152Q506 174 532 186Q513 196 500.5 215Q488 234 488 263ZM584 257Q584 240 594 230.5Q604 221 621 221Q637 221 647 230.5Q657 240 657 257Q657 274 646.5 284Q636 294 621 294Q604 294 594 284Q584 274 584 257ZM580 106Q580 87 591.5 76Q603 65 621 65Q638 65 649.5 76Q661 87 661 106Q661 125 649.5 135.5Q638 146 621 146Q603 146 591.5 135.5Q580 125 580 106ZM195 0H88L602 692H710Z" glyph-name="fiveeighths" horiz-adv-x="797" unicode="&#8541;" /><glyph d="M233 434H302V320H213L126 -175H-6L81 320H33V434H101L118 532Q134 619 174 657.5Q214 696 294 696Q302 696 315 695.5Q328 695 334 693V583H310Q278 583 266 567.5Q254 552 249 526Z" glyph-name="florin" horiz-adv-x="350" unicode="&#402;" /><glyph d="M446 197V0H310V197H13V312L309 692H446V317H520V197ZM156 317H310V513Z" glyph-name="four" horiz-adv-x="538" unicode="4" /><glyph d="M282 72V1H183V72H17V157L182 361H282V160H320V72ZM112 160H183V249Z" glyph-name="four.den" horiz-adv-x="333" /><glyph d="M282 403V332H183V403H17V488L182 692H282V491H320V403ZM112 491H183V580Z" glyph-name="four.num" horiz-adv-x="333" /><glyph d="M119 0H12L526 692H634Z" glyph-name="fraction" horiz-adv-x="653" unicode="&#8260;" /><glyph d="M451 535H577V90Q577 15 555.5 -37.5Q534 -90 496 -122Q458 -154 405.5 -168.5Q353 -183 291 -183Q228 -183 176.5 -168.5Q125 -154 92 -135L135 -29Q159 -43 200 -55.5Q241 -68 292 -68Q323 -68 351 -61.5Q379 -55 399.5 -41.5Q420 -28 432 -6.5Q444 15 444 44V51Q435 41 421.5 30.5Q408 20 389.5 11Q371 2 347.5 -3.5Q324 -9 296 -9Q234 -9 183 11Q132 31 95.5 67.5Q59 104 39 154.5Q19 205 19 266Q19 324 39 375Q59 426 95 463.5Q131 501 181 522.5Q231 544 291 544Q343 544 384 528Q425 512 451 485ZM153 267Q153 233 164 204.5Q175 176 194.5 155Q214 134 241 122Q268 110 301 110Q335 110 362 122Q389 134 408 155Q427 176 437.5 205Q448 234 448 267Q448 301 437.5 330Q427 359 407.5 380Q388 401 361 413Q334 425 301 425Q267 425 240 413Q213 401 193.5 380Q174 359 163.5 330Q153 301 153 267Z" glyph-name="g" horiz-adv-x="615" unicode="g" /><glyph d="M451 535H577V90Q577 15 555.5 -37.5Q534 -90 496 -122Q458 -154 405.5 -168.5Q353 -183 291 -183Q228 -183 176.5 -168.5Q125 -154 92 -135L135 -29Q159 -43 200 -55.5Q241 -68 292 -68Q323 -68 351 -61.5Q379 -55 399.5 -41.5Q420 -28 432 -6.5Q444 15 444 44V51Q435 41 421.5 30.5Q408 20 389.5 11Q371 2 347.5 -3.5Q324 -9 296 -9Q234 -9 183 11Q132 31 95.5 67.5Q59 104 39 154.5Q19 205 19 266Q19 324 39 375Q59 426 95 463.5Q131 501 181 522.5Q231 544 291 544Q343 544 384 528Q425 512 451 485ZM153 267Q153 233 164 204.5Q175 176 194.5 155Q214 134 241 122Q268 110 301 110Q335 110 362 122Q389 134 408 155Q427 176 437.5 205Q448 234 448 267Q448 301 437.5 330Q427 359 407.5 380Q388 401 361 413Q334 425 301 425Q267 425 240 413Q213 401 193.5 380Q174 359 163.5 330Q153 301 153 267ZM298 564Q259 564 231 577Q203 590 185.5 610.5Q168 631 160 656.5Q152 682 152 707H252Q252 687 263 671Q274 655 299 655Q324 655 335 671Q346 687 346 707H445Q445 682 437 656.5Q429 631 411 610.5Q393 590 365 577Q337 564 298 564Z" glyph-name="gbreve" horiz-adv-x="615" unicode="&#287;" /><glyph d="M451 535H577V90Q577 15 555.5 -37.5Q534 -90 496 -122Q458 -154 405.5 -168.5Q353 -183 291 -183Q228 -183 176.5 -168.5Q125 -154 92 -135L135 -29Q159 -43 200 -55.5Q241 -68 292 -68Q323 -68 351 -61.5Q379 -55 399.5 -41.5Q420 -28 432 -6.5Q444 15 444 44V51Q435 41 421.5 30.5Q408 20 389.5 11Q371 2 347.5 -3.5Q324 -9 296 -9Q234 -9 183 11Q132 31 95.5 67.5Q59 104 39 154.5Q19 205 19 266Q19 324 39 375Q59 426 95 463.5Q131 501 181 522.5Q231 544 291 544Q343 544 384 528Q425 512 451 485ZM153 267Q153 233 164 204.5Q175 176 194.5 155Q214 134 241 122Q268 110 301 110Q335 110 362 122Q389 134 408 155Q427 176 437.5 205Q448 234 448 267Q448 301 437.5 330Q427 359 407.5 380Q388 401 361 413Q334 425 301 425Q267 425 240 413Q213 401 193.5 380Q174 359 163.5 330Q153 301 153 267ZM373 712 469 570H352L306 632L260 570H143L239 712Z" glyph-name="gcircumflex" horiz-adv-x="615" unicode="&#285;" /><glyph d="M451 535H577V90Q577 15 555.5 -37.5Q534 -90 496 -122Q458 -154 405.5 -168.5Q353 -183 291 -183Q228 -183 176.5 -168.5Q125 -154 92 -135L135 -29Q159 -43 200 -55.5Q241 -68 292 -68Q323 -68 351 -61.5Q379 -55 399.5 -41.5Q420 -28 432 -6.5Q444 15 444 44V51Q435 41 421.5 30.5Q408 20 389.5 11Q371 2 347.5 -3.5Q324 -9 296 -9Q234 -9 183 11Q132 31 95.5 67.5Q59 104 39 154.5Q19 205 19 266Q19 324 39 375Q59 426 95 463.5Q131 501 181 522.5Q231 544 291 544Q343 544 384 528Q425 512 451 485ZM153 267Q153 233 164 204.5Q175 176 194.5 155Q214 134 241 122Q268 110 301 110Q335 110 362 122Q389 134 408 155Q427 176 437.5 205Q448 234 448 267Q448 301 437.5 330Q427 359 407.5 380Q388 401 361 413Q334 425 301 425Q267 425 240 413Q213 401 193.5 380Q174 359 163.5 330Q153 301 153 267ZM316 711Q339 705 354.5 688Q370 671 370 642Q370 612 349.5 589Q329 566 292 566Q256 566 236 589.5Q216 613 216 642Q216 663 222 679Q228 695 235 709L272 785H349Z" glyph-name="gcommaaccent" horiz-adv-x="615" unicode="&#291;" /><glyph d="M451 535H577V90Q577 15 555.5 -37.5Q534 -90 496 -122Q458 -154 405.5 -168.5Q353 -183 291 -183Q228 -183 176.5 -168.5Q125 -154 92 -135L135 -29Q159 -43 200 -55.5Q241 -68 292 -68Q323 -68 351 -61.5Q379 -55 399.5 -41.5Q420 -28 432 -6.5Q444 15 444 44V51Q435 41 421.5 30.5Q408 20 389.5 11Q371 2 347.5 -3.5Q324 -9 296 -9Q234 -9 183 11Q132 31 95.5 67.5Q59 104 39 154.5Q19 205 19 266Q19 324 39 375Q59 426 95 463.5Q131 501 181 522.5Q231 544 291 544Q343 544 384 528Q425 512 451 485ZM153 267Q153 233 164 204.5Q175 176 194.5 155Q214 134 241 122Q268 110 301 110Q335 110 362 122Q389 134 408 155Q427 176 437.5 205Q448 234 448 267Q448 301 437.5 330Q427 359 407.5 380Q388 401 361 413Q334 425 301 425Q267 425 240 413Q213 401 193.5 380Q174 359 163.5 330Q153 301 153 267ZM294 572Q262 572 240 593.5Q218 615 218 648Q218 680 239.5 701.5Q261 723 294 723Q326 723 349 701.5Q372 680 372 648Q372 615 350 593.5Q328 572 294 572Z" glyph-name="gdotaccent" horiz-adv-x="615" unicode="&#289;" /><glyph d="M227 112H239Q291 113 329 145.5Q367 178 368 242Q368 273 357.5 297Q347 321 329 337.5Q311 354 287.5 362.5Q264 371 238 371H227V480H243Q276 480 296.5 501Q317 522 317 553Q317 586 298 605.5Q279 625 244 625Q224 625 210.5 618Q197 611 188.5 599.5Q180 588 176.5 574Q173 560 173 546V0H39V535Q39 577 50 613.5Q61 650 85.5 677.5Q110 705 150 721Q190 737 248 737Q344 737 396 690Q448 643 448 562Q448 519 429 489Q410 459 388 446Q412 433 432.5 414.5Q453 396 468.5 371Q484 346 493 313.5Q502 281 502 241Q502 184 483 138.5Q464 93 429.5 61.5Q395 30 347.5 14Q300 -2 242 0H227Z" glyph-name="germandbls" horiz-adv-x="522" unicode="&#223;" /><glyph d="M233 710 309 572H183L102 710Z" glyph-name="grave" horiz-adv-x="476" unicode="`" /><glyph d="M231 854 304 724H177L100 854Z" glyph-name="grave.uc" horiz-adv-x="476" /><glyph d="M383 279 28 122V242L254 339L28 436V555L383 394Z" glyph-name="greater" horiz-adv-x="410" unicode="&gt;" /><glyph d="M94 99 14 268 94 439H209L127 268L209 99ZM263 99 182 268 263 439H378L296 268L377 99Z" glyph-name="guillemotleft" horiz-adv-x="391" unicode="&#171;" /><glyph d="M94 99 14 268 94 439H209L127 268L209 99ZM263 99 182 268 263 439H378L296 268L377 99Z" glyph-name="guillemotleft.uc" horiz-adv-x="391" /><glyph d="M128 439 209 269 128 99H14L95 269L14 439ZM297 439 378 269 297 99H182L264 269L183 439Z" glyph-name="guillemotright" horiz-adv-x="391" unicode="&#187;" /><glyph d="M128 439 209 269 128 99H14L95 269L14 439ZM297 439 378 269 297 99H182L264 269L183 439Z" glyph-name="guillemotright.uc" horiz-adv-x="391" /><glyph d="M94 99 14 268 94 439H209L127 268L209 99Z" glyph-name="guilsinglleft" horiz-adv-x="222" unicode="&#8249;" /><glyph d="M94 99 14 268 94 439H209L127 268L209 99Z" glyph-name="guilsinglleft.uc" horiz-adv-x="222" /><glyph d="M128 439 209 269 128 99H14L95 269L14 439Z" glyph-name="guilsinglright" horiz-adv-x="222" unicode="&#8250;" /><glyph d="M128 439 209 269 128 99H14L95 269L14 439Z" glyph-name="guilsinglright.uc" horiz-adv-x="222" /><glyph d="M319 337Q319 376 301.5 399Q284 422 247 422Q211 422 192 398.5Q173 375 173 337V0H39V731H173V495Q178 501 187 509Q196 517 210 524Q224 531 242.5 536Q261 541 286 541Q333 541 365 526Q397 511 416.5 485.5Q436 460 444.5 426Q453 392 453 353V0H319Z" glyph-name="h" horiz-adv-x="490" unicode="h" /><glyph d="M2 673H48V731H182V673H302V579H182V495Q187 501 196 509Q205 517 219 524Q233 531 251.5 536Q270 541 295 541Q342 541 374 526Q406 511 425.5 485.5Q445 460 453.5 426Q462 392 462 353V0H328V337Q328 376 310.5 399Q293 422 256 422Q220 422 201 398.5Q182 375 182 337V0H48V579H2Z" glyph-name="hbar" horiz-adv-x="500" unicode="&#295;" /><glyph d="M319 337Q319 376 301.5 399Q284 422 247 422Q211 422 192 398.5Q173 375 173 337V0H39V731H173V495Q178 501 187 509Q196 517 210 524Q224 531 242.5 536Q261 541 286 541Q333 541 365 526Q397 511 416.5 485.5Q436 460 444.5 426Q453 392 453 353V0H319ZM309 893 412 763H289L240 817L190 763H67L170 893Z" glyph-name="hcircumflex" horiz-adv-x="490" unicode="&#293;" /><glyph d="M211 710 146 572H24L83 710ZM382 710 314 572H194L257 710Z" glyph-name="hungarumlaut" horiz-adv-x="400" unicode="&#733;" /><glyph d="M204 853 143 724H20L76 853ZM377 853 312 724H190L250 853Z" glyph-name="hungarumlaut.uc" horiz-adv-x="400" /><glyph d="M31 349H275V223H31Z" glyph-name="hyphen" horiz-adv-x="306" unicode="-" /><glyph d="M31 385H275V260H31Z" glyph-name="hyphen.uc" horiz-adv-x="306" /><glyph d="M173 0H39V535H173ZM106 569Q73 569 49.5 592Q26 615 26 648Q26 682 49.5 705.5Q73 729 106 729Q140 729 163 705.5Q186 682 186 648Q186 615 163 592Q140 569 106 569Z" glyph-name="i" horiz-adv-x="212" unicode="i" /><glyph d="M173 0H39V535H173ZM253 710 172 572H46L122 710Z" glyph-name="iacute" horiz-adv-x="212" unicode="&#237;" /><glyph d="M173 0H39V535H173ZM107 564Q68 564 40 577Q12 590 -5.5 610.5Q-23 631 -31 656.5Q-39 682 -39 707H61Q61 687 72 671Q83 655 108 655Q133 655 144 671Q155 687 155 707H254Q254 682 246 656.5Q238 631 220 610.5Q202 590 174 577Q146 564 107 564Z" glyph-name="ibreve" horiz-adv-x="212" unicode="&#301;" /><glyph d="M173 712 266 570H149L106 632L63 570H-53L39 712ZM173 0H39V535H173Z" glyph-name="icircumflex" horiz-adv-x="212" unicode="&#238;" /><glyph d="M17 573Q-15 573 -36 594Q-57 615 -57 647Q-57 677 -36 698Q-15 719 17 719Q49 719 70.5 698.5Q92 678 92 647Q92 615 70 594Q48 573 17 573ZM194 573Q163 573 142 594Q121 615 121 647Q121 677 142 698Q163 719 194 719Q227 719 248.5 698.5Q270 678 270 647Q270 615 248 594Q226 573 194 573ZM173 0H39V535H173Z" glyph-name="idieresis" horiz-adv-x="212" unicode="&#239;" /><glyph d="M173 0H39V535H173ZM106 569Q73 569 49.5 592Q26 615 26 648Q26 682 49.5 705.5Q73 729 106 729Q140 729 163 705.5Q186 682 186 648Q186 615 163 592Q140 569 106 569Z" glyph-name="idotaccent" horiz-adv-x="212" /><glyph d="M173 0H39V535H173ZM94 710 170 572H44L-37 710Z" glyph-name="igrave" horiz-adv-x="212" unicode="&#236;" /><glyph d="M173 0H39V535H173ZM106 569Q73 569 49.5 592Q26 615 26 648Q26 682 49.5 705.5Q73 729 106 729Q140 729 163 705.5Q186 682 186 648Q186 615 163 592Q140 569 106 569ZM384 0Q384 -39 375.5 -71Q367 -103 347 -126.5Q327 -150 294 -162.5Q261 -175 213 -175H174V-59H198Q215 -59 225.5 -54Q236 -49 241.5 -40.5Q247 -32 248.5 -21Q250 -10 250 2V535H384ZM317 569Q283 569 260 592Q237 615 237 648Q237 682 260 705.5Q283 729 317 729Q350 729 373.5 705.5Q397 682 397 648Q397 615 373.5 592Q350 569 317 569Z" glyph-name="ij" horiz-adv-x="424" unicode="&#307;" /><glyph d="M-10 683H222V585H-10ZM173 0H39V535H173Z" glyph-name="imacron" horiz-adv-x="212" unicode="&#299;" /><glyph d="M173 -1Q147 -6 136.5 -18.5Q126 -31 126 -45Q126 -63 139.5 -72Q153 -81 173 -82V-175Q84 -180 42.5 -152Q1 -124 1 -78Q1 -30 39 2V535H173ZM106 569Q73 569 49.5 592Q26 615 26 648Q26 682 49.5 705.5Q73 729 106 729Q140 729 163 705.5Q186 682 186 648Q186 615 163 592Q140 569 106 569Z" glyph-name="iogonek" horiz-adv-x="212" unicode="&#303;" /><glyph d="M173 0H39V535H173ZM166 572Q148 572 134 577.5Q120 583 108 589Q96 595 85.5 600.5Q75 606 64 606Q38 606 38 572H-57Q-59 629 -30.5 667Q-2 705 51 705Q71 705 85 699.5Q99 694 110 688Q121 682 131 676.5Q141 671 152 671Q177 671 177 706H272Q274 645 245.5 608.5Q217 572 166 572Z" glyph-name="itilde" horiz-adv-x="212" unicode="&#297;" /><glyph d="M173 0Q173 -39 164.5 -71Q156 -103 136 -126.5Q116 -150 83 -162.5Q50 -175 2 -175H-37V-59H-13Q4 -59 14.5 -54Q25 -49 30.5 -40.5Q36 -32 37.5 -21Q39 -10 39 2V535H173ZM106 569Q72 569 49 592Q26 615 26 648Q26 682 49 705.5Q72 729 106 729Q139 729 162.5 705.5Q186 682 186 648Q186 615 162.5 592Q139 569 106 569Z" glyph-name="j" horiz-adv-x="212" unicode="j" /><glyph d="M174 0Q174 -39 165.5 -71.5Q157 -104 137 -127Q117 -150 85 -163Q53 -176 5 -176Q-1 -176 -12.5 -176Q-24 -176 -37 -175V-61H-12Q22 -60 30.5 -42Q39 -24 39 0V535H174ZM174 712 270 570H153L107 632L61 570H-56L40 712Z" glyph-name="jcircumflex" horiz-adv-x="212" unicode="&#309;" /><glyph d="M296 288 496 0H334L173 236V0H39V731H173V325L332 535H489Z" glyph-name="k" horiz-adv-x="496" unicode="k" /><glyph d="M475 0H319L174 194V0H39V731H174V514Q184 523 209.5 533Q235 543 271 543Q356 543 403.5 493.5Q451 444 451 364Q451 330 441 301.5Q431 273 414.5 251.5Q398 230 375 215.5Q352 201 327 195ZM324 356Q324 390 303 412Q282 434 247 434Q212 434 190.5 412.5Q169 391 169 356Q169 322 191.5 301Q214 280 248 280Q282 280 303 302Q324 324 324 356Z" glyph-name="k.alt" horiz-adv-x="476" /><glyph d="M296 288 496 0H334L173 236V0H39V731H173V325L332 535H489ZM232 -176Q208 -170 193 -152Q178 -134 178 -105Q178 -75 198.5 -53Q219 -31 256 -31Q292 -31 312 -54Q332 -77 332 -107Q332 -127 326 -143.5Q320 -160 313 -174L275 -250H198Z" glyph-name="kcommaaccent" horiz-adv-x="496" unicode="&#311;" /><glyph d="M226 -176Q202 -170 187 -152Q172 -134 172 -105Q172 -75 192.5 -53Q213 -31 250 -31Q286 -31 306 -54Q326 -77 326 -107Q326 -127 320 -143.5Q314 -160 307 -174L269 -250H192ZM475 0H319L174 194V0H39V731H174V514Q184 523 209.5 533Q235 543 271 543Q356 543 403.5 493.5Q451 444 451 364Q451 330 441 301.5Q431 273 414.5 251.5Q398 230 375 215.5Q352 201 327 195ZM324 356Q324 390 303 412Q282 434 247 434Q212 434 190.5 412.5Q169 391 169 356Q169 322 191.5 301Q214 280 248 280Q282 280 303 302Q324 324 324 356Z" glyph-name="kcommaaccent.alt" horiz-adv-x="476" /><glyph d="M173 0H39V731H173Z" glyph-name="l" horiz-adv-x="212" unicode="l" /><glyph d="M173 0H39V731H173ZM249 892 172 762H43L116 892Z" glyph-name="lacute" horiz-adv-x="212" unicode="&#314;" /><glyph d="M173 0H39V731H173ZM327 731 313 572H207L219 731Z" glyph-name="lcaron" horiz-adv-x="212" unicode="&#318;" /><glyph d="M173 0H39V731H173ZM82 -176Q58 -170 43 -152Q28 -134 28 -105Q28 -75 48.5 -53Q69 -31 106 -31Q142 -31 162 -54Q182 -77 182 -107Q182 -127 176 -143.5Q170 -160 163 -174L125 -250H48Z" glyph-name="lcommaaccent" horiz-adv-x="212" unicode="&#316;" /><glyph d="M204 354Q204 389 228 413.5Q252 438 288 438Q323 438 347.5 413.5Q372 389 372 354Q372 319 347.5 295Q323 271 288 271Q252 271 228 295Q204 319 204 354ZM173 0H39V731H173Z" glyph-name="ldot" horiz-adv-x="365" unicode="&#320;" /><glyph d="M27 394 389 555V436L156 339L389 242V122L27 279Z" glyph-name="less" horiz-adv-x="417" unicode="&lt;" /><glyph d="M188 505 237 535V403L188 374V0H54V294L7 266V394L54 423V731H188Z" glyph-name="lslash" horiz-adv-x="243" unicode="&#322;" /><glyph d="M451 0H317V337Q317 375 299 398.5Q281 422 246 422Q210 422 191.5 398.5Q173 375 173 335V0H39V535H173V495Q184 508 210.5 524.5Q237 541 288 541Q336 541 366.5 525Q397 509 415 483Q433 504 464.5 522.5Q496 541 549 541Q598 541 632.5 526Q667 511 688.5 485.5Q710 460 719.5 426Q729 392 729 353V0H595V337Q595 376 577 399Q559 422 523 422Q487 422 469 397.5Q451 373 451 337Z" glyph-name="m" horiz-adv-x="766" unicode="m" /><glyph d="M79 683H321V585H79Z" glyph-name="macron" horiz-adv-x="400" unicode="&#175;" /><glyph d="M118 830H374V731H118Z" glyph-name="macron.uc" horiz-adv-x="476" /><glyph d="M27 393H442V281H27Z" glyph-name="minus" horiz-adv-x="470" unicode="&#8722;" /><glyph d="M95 530 211 413 327 529 405 451 289 335 405 219 328 141 211 257 95 141 17 219 133 335 17 451Z" glyph-name="multiply" horiz-adv-x="422" unicode="&#215;" /><glyph d="M319 337Q319 376 301.5 399Q284 422 247 422Q211 422 192 398.5Q173 375 173 337V0H39V535H173V495Q178 501 187 509Q196 517 209.5 524Q223 531 242 536Q261 541 286 541Q333 541 365 526Q397 511 416.5 485.5Q436 460 444.5 426Q453 392 453 353V0H319Z" glyph-name="n" horiz-adv-x="490" unicode="n" /><glyph d="M319 337Q319 376 301.5 399Q284 422 247 422Q211 422 192 398.5Q173 375 173 337V0H39V535H173V495Q178 501 187 509Q196 517 209.5 524Q223 531 242 536Q261 541 286 541Q333 541 365 526Q397 511 416.5 485.5Q436 460 444.5 426Q453 392 453 353V0H319ZM388 710 307 572H181L257 710Z" glyph-name="nacute" horiz-adv-x="490" unicode="&#324;" /><glyph d="M319 337Q319 376 301.5 399Q284 422 247 422Q211 422 192 398.5Q173 375 173 337V0H39V535H173V495Q178 501 187 509Q196 517 209.5 524Q223 531 242 536Q261 541 286 541Q333 541 365 526Q397 511 416.5 485.5Q436 460 444.5 426Q453 392 453 353V0H319ZM347 710 302 572H186L229 710Z" glyph-name="nacute.pl" horiz-adv-x="490" /><glyph d="M462 337Q462 376 444.5 399Q427 422 390 422Q354 422 335 398.5Q316 375 316 337V0H182V535H316V495Q321 501 330 509Q339 517 352.5 524Q366 531 385 536Q404 541 429 541Q476 541 508 526Q540 511 559.5 485.5Q579 460 587.5 426Q596 392 596 353V0H462ZM55 540Q31 548 14.5 566.5Q-2 585 -2 616Q-2 651 21 675.5Q44 700 82 700Q120 700 142.5 676Q165 652 165 616Q165 596 160 579Q155 562 145 540L95 433H4Z" glyph-name="napostrophe" horiz-adv-x="634" unicode="&#329;" /><glyph d="M319 337Q319 376 301.5 399Q284 422 247 422Q211 422 192 398.5Q173 375 173 337V0H39V535H173V495Q178 501 187 509Q196 517 209.5 524Q223 531 242 536Q261 541 286 541Q333 541 365 526Q397 511 416.5 485.5Q436 460 444.5 426Q453 392 453 353V0H319ZM178 571 82 713H199L245 651L291 713H408L312 571Z" glyph-name="ncaron" horiz-adv-x="490" unicode="&#328;" /><glyph d="M319 337Q319 376 301.5 399Q284 422 247 422Q211 422 192 398.5Q173 375 173 337V0H39V535H173V495Q178 501 187 509Q196 517 209.5 524Q223 531 242 536Q261 541 286 541Q333 541 365 526Q397 511 416.5 485.5Q436 460 444.5 426Q453 392 453 353V0H319ZM221 -176Q197 -170 182 -152Q167 -134 167 -105Q167 -75 187.5 -53Q208 -31 245 -31Q281 -31 301 -54Q321 -77 321 -107Q321 -127 315 -143.5Q309 -160 302 -174L264 -250H187Z" glyph-name="ncommaaccent" horiz-adv-x="490" unicode="&#326;" /><glyph d="M127 156Q142 145 166.5 131.5Q191 118 231 118Q262 118 282.5 127Q303 136 315 152Q327 168 332 189.5Q337 211 336 236V264Q326 250 297.5 236.5Q269 223 228 223Q127 223 77.5 279.5Q28 336 28 448V478Q28 526 42 567Q56 608 84 639Q112 670 153.5 687.5Q195 705 250 705Q307 705 349.5 689Q392 673 420 643Q448 613 461.5 571Q475 529 475 478V240Q475 186 462 139.5Q449 93 420 59.5Q391 26 345.5 6.5Q300 -13 234 -13Q198 -13 169 -7Q140 -1 117.5 8.5Q95 18 78.5 29Q62 40 51 50ZM251 352Q296 352 316 378.5Q336 405 337 445V478Q337 520 316.5 547.5Q296 575 250 575Q205 575 185 547.5Q165 520 165 478V448Q165 405 185.5 378.5Q206 352 251 352Z" glyph-name="nine" horiz-adv-x="514" unicode="9" /><glyph d="M95 100Q101 93 114.5 84.5Q128 76 148 76Q171 76 182.5 89Q194 102 194 124V135Q186 130 172 125Q158 120 140 120Q82 120 48.5 151Q15 182 15 236V242Q15 296 51 331.5Q87 367 153 367Q190 367 216 356Q242 345 259 327Q276 309 284 285.5Q292 262 292 236V132Q292 104 284 79Q276 54 258.5 34.5Q241 15 214 3.5Q187 -8 148 -8Q123 -8 104 -3.5Q85 1 71 7.5Q57 14 48 22Q39 30 33 36ZM194 244Q194 261 184 273Q174 285 154 285Q134 285 123.5 273Q113 261 113 244V237Q113 220 123.5 208Q134 196 153 196Q173 196 183.5 208Q194 220 194 236Z" glyph-name="nine.den" horiz-adv-x="317" /><glyph d="M95 434Q101 427 114.5 418.5Q128 410 148 410Q171 410 182.5 423Q194 436 194 458V469Q186 464 172 459Q158 454 140 454Q82 454 48.5 485Q15 516 15 570V576Q15 630 51 665.5Q87 701 153 701Q190 701 216 690Q242 679 259 661Q276 643 284 619.5Q292 596 292 570V466Q292 438 284 413Q276 388 258.5 368.5Q241 349 214 337.5Q187 326 148 326Q123 326 104 330.5Q85 335 71 341.5Q57 348 48 356Q39 364 33 370ZM194 578Q194 595 184 607Q174 619 154 619Q134 619 123.5 607Q113 595 113 578V571Q113 554 123.5 542Q134 530 153 530Q173 530 183.5 542Q194 554 194 570Z" glyph-name="nine.num" horiz-adv-x="317" /><glyph glyph-name="nonmarkingreturn" horiz-adv-x="151" unicode="" /><glyph d="M319 337Q319 376 301.5 399Q284 422 247 422Q211 422 192 398.5Q173 375 173 337V0H39V535H173V495Q178 501 187 509Q196 517 209.5 524Q223 531 242 536Q261 541 286 541Q333 541 365 526Q397 511 416.5 485.5Q436 460 444.5 426Q453 392 453 353V0H319ZM301 572Q283 572 269 577.5Q255 583 243 589Q231 595 220.5 600.5Q210 606 199 606Q173 606 173 572H78Q76 629 104.5 667Q133 705 186 705Q206 705 220 699.5Q234 694 245 688Q256 682 266 676.5Q276 671 287 671Q312 671 312 706H407Q409 645 380.5 608.5Q352 572 301 572Z" glyph-name="ntilde" horiz-adv-x="490" unicode="&#241;" /><glyph d="M428 172 386 0H268L309 172H214L172 0H53L95 172H16V281H121L158 432H78V541H184L221 692H341L304 541H398L435 692H555L518 541H594V432H491L454 281H533V172ZM240 281H336L372 432H277Z" glyph-name="numbersign" horiz-adv-x="611" unicode="#" /><glyph d="M153 267Q153 233 163.5 204.5Q174 176 193.5 155.5Q213 135 240 123.5Q267 112 299 112Q332 112 359 123.5Q386 135 404.5 156Q423 177 433.5 205.5Q444 234 444 267Q444 300 433.5 328.5Q423 357 403.5 378Q384 399 357 411Q330 423 298 423Q265 423 238 411.5Q211 400 192.5 379Q174 358 163.5 329.5Q153 301 153 267ZM19 266Q19 326 40 376.5Q61 427 98 464.5Q135 502 186.5 523Q238 544 298 544Q361 544 413 523Q465 502 501.5 465Q538 428 558 377.5Q578 327 578 268Q578 209 557.5 158.5Q537 108 500 70.5Q463 33 411.5 12Q360 -9 298 -9Q235 -9 184 11.5Q133 32 96 69Q59 106 39 156.5Q19 207 19 266Z" glyph-name="o" horiz-adv-x="597" unicode="o" /><glyph d="M153 267Q153 233 163.5 204.5Q174 176 193.5 155.5Q213 135 240 123.5Q267 112 299 112Q332 112 359 123.5Q386 135 404.5 156Q423 177 433.5 205.5Q444 234 444 267Q444 300 433.5 328.5Q423 357 403.5 378Q384 399 357 411Q330 423 298 423Q265 423 238 411.5Q211 400 192.5 379Q174 358 163.5 329.5Q153 301 153 267ZM19 266Q19 326 40 376.5Q61 427 98 464.5Q135 502 186.5 523Q238 544 298 544Q361 544 413 523Q465 502 501.5 465Q538 428 558 377.5Q578 327 578 268Q578 209 557.5 158.5Q537 108 500 70.5Q463 33 411.5 12Q360 -9 298 -9Q235 -9 184 11.5Q133 32 96 69Q59 106 39 156.5Q19 207 19 266ZM442 710 361 572H235L311 710Z" glyph-name="oacute" horiz-adv-x="597" unicode="&#243;" /><glyph d="M153 267Q153 233 163.5 204.5Q174 176 193.5 155.5Q213 135 240 123.5Q267 112 299 112Q332 112 359 123.5Q386 135 404.5 156Q423 177 433.5 205.5Q444 234 444 267Q444 300 433.5 328.5Q423 357 403.5 378Q384 399 357 411Q330 423 298 423Q265 423 238 411.5Q211 400 192.5 379Q174 358 163.5 329.5Q153 301 153 267ZM19 266Q19 326 40 376.5Q61 427 98 464.5Q135 502 186.5 523Q238 544 298 544Q361 544 413 523Q465 502 501.5 465Q538 428 558 377.5Q578 327 578 268Q578 209 557.5 158.5Q537 108 500 70.5Q463 33 411.5 12Q360 -9 298 -9Q235 -9 184 11.5Q133 32 96 69Q59 106 39 156.5Q19 207 19 266ZM403 710 358 572H242L285 710Z" glyph-name="oacute.pl" horiz-adv-x="597" /><glyph d="M153 267Q153 233 163.5 204.5Q174 176 193.5 155.5Q213 135 240 123.5Q267 112 299 112Q332 112 359 123.5Q386 135 404.5 156Q423 177 433.5 205.5Q444 234 444 267Q444 300 433.5 328.5Q423 357 403.5 378Q384 399 357 411Q330 423 298 423Q265 423 238 411.5Q211 400 192.5 379Q174 358 163.5 329.5Q153 301 153 267ZM19 266Q19 326 40 376.5Q61 427 98 464.5Q135 502 186.5 523Q238 544 298 544Q361 544 413 523Q465 502 501.5 465Q538 428 558 377.5Q578 327 578 268Q578 209 557.5 158.5Q537 108 500 70.5Q463 33 411.5 12Q360 -9 298 -9Q235 -9 184 11.5Q133 32 96 69Q59 106 39 156.5Q19 207 19 266ZM298 564Q259 564 231 577Q203 590 185.5 610.5Q168 631 160 656.5Q152 682 152 707H252Q252 687 263 671Q274 655 299 655Q324 655 335 671Q346 687 346 707H445Q445 682 437 656.5Q429 631 411 610.5Q393 590 365 577Q337 564 298 564Z" glyph-name="obreve" horiz-adv-x="597" unicode="&#335;" /><glyph d="M153 267Q153 233 163.5 204.5Q174 176 193.5 155.5Q213 135 240 123.5Q267 112 299 112Q332 112 359 123.5Q386 135 404.5 156Q423 177 433.5 205.5Q444 234 444 267Q444 300 433.5 328.5Q423 357 403.5 378Q384 399 357 411Q330 423 298 423Q265 423 238 411.5Q211 400 192.5 379Q174 358 163.5 329.5Q153 301 153 267ZM19 266Q19 326 40 376.5Q61 427 98 464.5Q135 502 186.5 523Q238 544 298 544Q361 544 413 523Q465 502 501.5 465Q538 428 558 377.5Q578 327 578 268Q578 209 557.5 158.5Q537 108 500 70.5Q463 33 411.5 12Q360 -9 298 -9Q235 -9 184 11.5Q133 32 96 69Q59 106 39 156.5Q19 207 19 266ZM365 712 461 570H344L298 632L252 570H135L231 712Z" glyph-name="ocircumflex" horiz-adv-x="597" unicode="&#244;" /><glyph d="M153 267Q153 233 163.5 204.5Q174 176 193.5 155.5Q213 135 240 123.5Q267 112 299 112Q332 112 359 123.5Q386 135 404.5 156Q423 177 433.5 205.5Q444 234 444 267Q444 300 433.5 328.5Q423 357 403.5 378Q384 399 357 411Q330 423 298 423Q265 423 238 411.5Q211 400 192.5 379Q174 358 163.5 329.5Q153 301 153 267ZM19 266Q19 326 40 376.5Q61 427 98 464.5Q135 502 186.5 523Q238 544 298 544Q361 544 413 523Q465 502 501.5 465Q538 428 558 377.5Q578 327 578 268Q578 209 557.5 158.5Q537 108 500 70.5Q463 33 411.5 12Q360 -9 298 -9Q235 -9 184 11.5Q133 32 96 69Q59 106 39 156.5Q19 207 19 266ZM205 573Q173 573 152 594Q131 615 131 647Q131 677 152 698Q173 719 205 719Q237 719 258.5 698.5Q280 678 280 647Q280 615 258 594Q236 573 205 573ZM388 573Q357 573 336 594Q315 615 315 647Q315 677 336 698Q357 719 388 719Q421 719 442.5 698.5Q464 678 464 647Q464 615 442 594Q420 573 388 573Z" glyph-name="odieresis" horiz-adv-x="597" unicode="&#246;" /><glyph d="M153 267Q153 233 163.5 204.5Q174 176 193.5 155.5Q213 135 240 123.5Q267 112 299 112Q332 112 359 123.5Q386 135 404.5 156Q423 177 433.5 205.5Q444 234 444 267Q444 301 433.5 329.5Q423 358 403.5 379Q384 400 357 411.5Q330 423 298 423Q265 423 238 411.5Q211 400 192.5 379Q174 358 163.5 329.5Q153 301 153 267ZM704 431Q677 431 656.5 422Q636 413 621 398Q606 383 597 363Q588 343 586 321H826Q823 369 790.5 400Q758 431 704 431ZM716 -8Q648 -8 595 16.5Q542 41 507 86Q470 41 417 16Q364 -9 298 -9Q235 -9 184 11.5Q133 32 96 69Q59 106 39 156.5Q19 207 19 266Q19 326 40 376.5Q61 427 98 464.5Q135 502 186.5 523Q238 544 298 544Q365 544 419.5 518Q474 492 509 447Q543 492 592.5 517.5Q642 543 705 543Q765 543 813 524Q861 505 895 470.5Q929 436 947.5 387.5Q966 339 966 279Q966 270 965.5 253.5Q965 237 964 224H583Q584 201 593.5 180Q603 159 620.5 143.5Q638 128 662 119Q686 110 716 110Q767 110 798.5 134.5Q830 159 847 191L950 133Q938 107 918 81.5Q898 56 869.5 36Q841 16 802.5 4Q764 -8 716 -8Z" glyph-name="oe" horiz-adv-x="982" unicode="&#339;" /><glyph d="M262 0Q224 -17 224 -45Q224 -63 237 -72Q250 -81 270 -82V-175Q181 -180 140 -152Q99 -124 99 -78Q99 -54 108 -34.5Q117 -15 134 0Z" glyph-name="ogonek" horiz-adv-x="400" unicode="&#731;" /><glyph d="M153 267Q153 233 163.5 204.5Q174 176 193.5 155.5Q213 135 240 123.5Q267 112 299 112Q332 112 359 123.5Q386 135 404.5 156Q423 177 433.5 205.5Q444 234 444 267Q444 300 433.5 328.5Q423 357 403.5 378Q384 399 357 411Q330 423 298 423Q265 423 238 411.5Q211 400 192.5 379Q174 358 163.5 329.5Q153 301 153 267ZM19 266Q19 326 40 376.5Q61 427 98 464.5Q135 502 186.5 523Q238 544 298 544Q361 544 413 523Q465 502 501.5 465Q538 428 558 377.5Q578 327 578 268Q578 209 557.5 158.5Q537 108 500 70.5Q463 33 411.5 12Q360 -9 298 -9Q235 -9 184 11.5Q133 32 96 69Q59 106 39 156.5Q19 207 19 266ZM292 710 368 572H242L161 710Z" glyph-name="ograve" horiz-adv-x="597" unicode="&#242;" /><glyph d="M153 267Q153 233 163.5 204.5Q174 176 193.5 155.5Q213 135 240 123.5Q267 112 299 112Q332 112 359 123.5Q386 135 404.5 156Q423 177 433.5 205.5Q444 234 444 267Q444 300 433.5 328.5Q423 357 403.5 378Q384 399 357 411Q330 423 298 423Q265 423 238 411.5Q211 400 192.5 379Q174 358 163.5 329.5Q153 301 153 267ZM19 266Q19 326 40 376.5Q61 427 98 464.5Q135 502 186.5 523Q238 544 298 544Q361 544 413 523Q465 502 501.5 465Q538 428 558 377.5Q578 327 578 268Q578 209 557.5 158.5Q537 108 500 70.5Q463 33 411.5 12Q360 -9 298 -9Q235 -9 184 11.5Q133 32 96 69Q59 106 39 156.5Q19 207 19 266ZM340 710 275 572H153L212 710ZM511 710 443 572H323L386 710Z" glyph-name="ohungarumlaut" horiz-adv-x="597" unicode="&#337;" /><glyph d="M153 267Q153 233 163.5 204.5Q174 176 193.5 155.5Q213 135 240 123.5Q267 112 299 112Q332 112 359 123.5Q386 135 404.5 156Q423 177 433.5 205.5Q444 234 444 267Q444 300 433.5 328.5Q423 357 403.5 378Q384 399 357 411Q330 423 298 423Q265 423 238 411.5Q211 400 192.5 379Q174 358 163.5 329.5Q153 301 153 267ZM19 266Q19 326 40 376.5Q61 427 98 464.5Q135 502 186.5 523Q238 544 298 544Q361 544 413 523Q465 502 501.5 465Q538 428 558 377.5Q578 327 578 268Q578 209 557.5 158.5Q537 108 500 70.5Q463 33 411.5 12Q360 -9 298 -9Q235 -9 184 11.5Q133 32 96 69Q59 106 39 156.5Q19 207 19 266ZM177 683H419V585H177Z" glyph-name="omacron" horiz-adv-x="597" unicode="&#333;" /><glyph d="M216 0H77V552L12 528V659L87 692H216Z" glyph-name="one" horiz-adv-x="261" unicode="1" /><glyph d="M151 1H49V271L10 256V336L59 358H151Z" glyph-name="one.den" horiz-adv-x="188" /><glyph d="M151 335H49V605L10 590V670L59 692H151Z" glyph-name="one.num" horiz-adv-x="188" /><glyph d="M185 335H83V605L44 590V670L93 692H185ZM402 263Q402 283 410 302Q418 321 434 335.5Q450 350 475 358.5Q500 367 534 367Q602 367 634.5 336.5Q667 306 667 263Q667 235 655.5 214.5Q644 194 622 186Q648 176 660.5 154.5Q673 133 673 104Q673 58 639.5 25Q606 -8 534 -8Q498 -8 471.5 1Q445 10 428.5 25Q412 40 404 59.5Q396 79 396 101Q396 130 408 152Q420 174 446 186Q427 196 414.5 215Q402 234 402 263ZM498 257Q498 240 508 230.5Q518 221 535 221Q551 221 561 230.5Q571 240 571 257Q571 274 560.5 284Q550 294 535 294Q518 294 508 284Q498 274 498 257ZM494 106Q494 87 505.5 76Q517 65 535 65Q552 65 563.5 76Q575 87 575 106Q575 125 563.5 135.5Q552 146 535 146Q517 146 505.5 135.5Q494 125 494 106ZM111 0H4L518 692H626Z" glyph-name="oneeighth" horiz-adv-x="711" unicode="&#8539;" /><glyph d="M185 335H83V605L44 590V670L93 692H185ZM390 1V75L516 176Q539 194 549 207.5Q559 221 559 239Q559 254 549.5 265Q540 276 523 276Q500 276 493 262.5Q486 249 486 235H390Q389 256 395 279Q401 302 416.5 321.5Q432 341 458 354Q484 367 523 367Q589 367 626 334Q663 301 663 245Q663 209 646 185Q629 161 601 137L543 87H667V1ZM111 0H4L518 692H626Z" glyph-name="onehalf" horiz-adv-x="698" unicode="&#189;" /><glyph d="M185 335H83V605L44 590V670L93 692H185ZM611 72V1H512V72H346V157L511 361H611V160H649V72ZM441 160H512V249ZM111 0H4L518 692H626Z" glyph-name="onequarter" horiz-adv-x="681" unicode="&#188;" /><glyph d="M154 335H52V604L13 589V670L62 692H154Z" glyph-name="onesuperior" horiz-adv-x="192" unicode="&#185;" /><glyph d="M185 335H83V605L44 590V670L93 692H185ZM486 218 553 275H428V358H665V280L599 223Q614 221 629.5 213.5Q645 206 657 193Q669 180 677 161Q685 142 685 115Q685 61 649 26.5Q613 -8 543 -8Q474 -8 440.5 26.5Q407 61 406 116H504Q504 96 514.5 85Q525 74 545 74Q563 74 573.5 85.5Q584 97 584 115Q584 154 539 154H486ZM111 0H4L518 692H626Z" glyph-name="onethird" horiz-adv-x="720" unicode="&#8531;" /><glyph d="M20 420Q20 480 57.5 516.5Q95 553 158 553Q185 553 201.5 547.5Q218 542 227 535V558Q227 583 216.5 599Q206 615 180 615Q153 615 143 601.5Q133 588 132 571H35Q37 629 71.5 663.5Q106 698 180 698Q223 698 251.5 686.5Q280 675 297.5 655Q315 635 322.5 606.5Q330 578 330 545V289H243V312Q229 298 209 291Q189 284 160 284Q100 284 60.5 320Q21 356 20 420ZM119 422Q119 398 134 383Q149 368 174 368Q198 368 213.5 382.5Q229 397 229 422Q229 446 213.5 461Q198 476 173 476Q149 476 134 461Q119 446 119 422Z" glyph-name="ordfeminine" horiz-adv-x="358" unicode="&#170;" /><glyph d="M119 491Q119 443 147.5 413Q176 383 222 383Q268 383 295.5 413Q323 443 323 491Q323 539 294.5 569.5Q266 600 221 600Q174 600 146.5 569.5Q119 539 119 491ZM13 490Q13 535 28.5 573.5Q44 612 72 639.5Q100 667 138 682.5Q176 698 221 698Q268 698 306.5 682.5Q345 667 372.5 639.5Q400 612 415 574.5Q430 537 430 492Q430 447 414.5 409.5Q399 372 371.5 344Q344 316 305.5 300.5Q267 285 221 285Q174 285 135.5 300.5Q97 316 70 343Q43 370 28 407.5Q13 445 13 490Z" glyph-name="ordmasculine" horiz-adv-x="442" unicode="&#186;" /><glyph d="M19 267Q19 327 40 377.5Q61 428 98 465Q135 502 186.5 523Q238 544 298 544Q340 544 376 534Q412 524 441 507L479 551L553 489L516 446Q545 411 561.5 366Q578 321 578 268Q578 209 557.5 158.5Q537 108 500 70.5Q463 33 411.5 12Q360 -9 298 -9Q254 -9 217.5 1Q181 11 155 28L114 -19L42 43L81 88Q52 122 35.5 167.5Q19 213 19 267ZM448 267Q448 312 430 347L234 120Q264 106 299 106Q333 106 361 118Q389 130 408 151.5Q427 173 437.5 202.5Q448 232 448 267ZM149 267Q149 223 166 187L362 415Q332 429 298 429Q263 429 235.5 417Q208 405 188.5 383Q169 361 159 331.5Q149 302 149 267Z" glyph-name="oslash" horiz-adv-x="597" unicode="&#248;" /><glyph d="M440 710 359 572H233L309 710ZM19 267Q19 327 40 377.5Q61 428 98 465Q135 502 186.5 523Q238 544 298 544Q340 544 376 534Q412 524 441 507L479 551L553 489L516 446Q545 411 561.5 366Q578 321 578 268Q578 209 557.5 158.5Q537 108 500 70.5Q463 33 411.5 12Q360 -9 298 -9Q254 -9 217.5 1Q181 11 155 28L114 -19L42 43L81 88Q52 122 35.5 167.5Q19 213 19 267ZM448 267Q448 312 430 347L234 120Q264 106 299 106Q333 106 361 118Q389 130 408 151.5Q427 173 437.5 202.5Q448 232 448 267ZM149 267Q149 223 166 187L362 415Q332 429 298 429Q263 429 235.5 417Q208 405 188.5 383Q169 361 159 331.5Q149 302 149 267Z" glyph-name="oslashacute" horiz-adv-x="597" unicode="&#511;" /><glyph d="M153 267Q153 233 163.5 204.5Q174 176 193.5 155.5Q213 135 240 123.5Q267 112 299 112Q332 112 359 123.5Q386 135 404.5 156Q423 177 433.5 205.5Q444 234 444 267Q444 300 433.5 328.5Q423 357 403.5 378Q384 399 357 411Q330 423 298 423Q265 423 238 411.5Q211 400 192.5 379Q174 358 163.5 329.5Q153 301 153 267ZM19 266Q19 326 40 376.5Q61 427 98 464.5Q135 502 186.5 523Q238 544 298 544Q361 544 413 523Q465 502 501.5 465Q538 428 558 377.5Q578 327 578 268Q578 209 557.5 158.5Q537 108 500 70.5Q463 33 411.5 12Q360 -9 298 -9Q235 -9 184 11.5Q133 32 96 69Q59 106 39 156.5Q19 207 19 266ZM357 572Q339 572 325 577.5Q311 583 299 589Q287 595 276.5 600.5Q266 606 255 606Q229 606 229 572H134Q132 629 160.5 667Q189 705 242 705Q262 705 276 699.5Q290 694 301 688Q312 682 322 676.5Q332 671 343 671Q368 671 368 706H463Q465 645 436.5 608.5Q408 572 357 572Z" glyph-name="otilde" horiz-adv-x="597" unicode="&#245;" /><glyph d="M169 267Q169 233 179.5 204Q190 175 209.5 154Q229 133 256.5 121.5Q284 110 317 110Q351 110 378.5 121.5Q406 133 425 154Q444 175 454 204Q464 233 464 267Q464 301 453.5 330Q443 359 423.5 380Q404 401 376.5 413Q349 425 316 425Q282 425 254.5 413Q227 401 208 380Q189 359 179 330Q169 301 169 267ZM173 -175H39V535H166V484Q186 504 226 524Q266 544 330 544Q391 544 440.5 523.5Q490 503 525 466.5Q560 430 579 379.5Q598 329 598 269Q598 211 579 160Q560 109 524.5 71.5Q489 34 438.5 12.5Q388 -9 324 -9Q271 -9 232 8.5Q193 26 173 43Z" glyph-name="p" horiz-adv-x="617" unicode="p" /><glyph d="M156 0V410Q126 411 99.5 421.5Q73 432 54 450.5Q35 469 24 495Q13 521 13 553Q13 616 54.5 654Q96 692 164 692H258V0ZM418 0H315V692H418Z" glyph-name="paragraph" horiz-adv-x="464" unicode="&#182;" /><glyph d="M40 593Q40 691 89 743.5Q138 796 244 796H252V677H245Q198 677 182.5 654.5Q167 632 167 594V27Q167 -11 182.5 -34Q198 -57 245 -57H252V-175H244Q138 -175 89 -123Q40 -71 40 28Z" glyph-name="parenleft" horiz-adv-x="268" unicode="(" /><glyph d="M40 593Q40 691 89 743.5Q138 796 244 796H252V677H245Q198 677 182.5 654.5Q167 632 167 594V27Q167 -11 182.5 -34Q198 -57 245 -57H252V-175H244Q138 -175 89 -123Q40 -71 40 28Z" glyph-name="parenleft.uc" horiz-adv-x="268" /><glyph d="M228 28Q228 -71 179 -123Q130 -175 24 -175H16V-57H23Q70 -57 85.5 -34Q101 -11 101 27V594Q101 632 85.5 654.5Q70 677 23 677H16V796H24Q130 796 179 743.5Q228 691 228 593Z" glyph-name="parenright" horiz-adv-x="268" unicode=")" /><glyph d="M228 28Q228 -71 179 -123Q130 -175 24 -175H16V-57H23Q70 -57 85.5 -34Q101 -11 101 27V594Q101 632 85.5 654.5Q70 677 23 677H16V796H24Q130 796 179 743.5Q228 691 228 593Z" glyph-name="parenright.uc" horiz-adv-x="268" /><glyph d="M534 164Q534 133 552.5 112Q571 91 603 91Q638 91 655 112.5Q672 134 672 164Q672 196 653.5 216Q635 236 602 236Q569 236 551.5 215Q534 194 534 164ZM429 163Q429 199 441.5 230.5Q454 262 476.5 285Q499 308 531 321Q563 334 601 334Q641 334 673.5 321Q706 308 729 285Q752 262 764.5 230.5Q777 199 777 163Q777 127 764.5 96.5Q752 66 729 43Q706 20 674 7Q642 -6 603 -6Q564 -6 531.5 7Q499 20 476.5 42.5Q454 65 441.5 96Q429 127 429 163ZM201 0H85L598 692H713ZM122 529Q122 498 140.5 477.5Q159 457 191 457Q226 457 243.5 478Q261 499 261 529Q261 561 242 581.5Q223 602 190 602Q157 602 139.5 580.5Q122 559 122 529ZM18 529Q18 565 30.5 596Q43 627 65.5 650Q88 673 119.5 686Q151 699 189 699Q229 699 261.5 686Q294 673 317 650.5Q340 628 352.5 596.5Q365 565 365 529Q365 493 352.5 462Q340 431 317 408Q294 385 262 372Q230 359 191 359Q152 359 120 372Q88 385 65.5 407.5Q43 430 30.5 461.5Q18 493 18 529Z" glyph-name="percent" horiz-adv-x="794" unicode="%" /><glyph d="M104 -11Q68 -11 43.5 14Q19 39 19 75Q19 112 43 136.5Q67 161 104 161Q141 161 165 136.5Q189 112 189 75Q189 39 165 14Q141 -11 104 -11Z" glyph-name="period" horiz-adv-x="208" unicode="." /><glyph d="M111 242Q75 242 50.5 267Q26 292 26 328Q26 365 50 389.5Q74 414 111 414Q148 414 172 389.5Q196 365 196 328Q196 292 172 267Q148 242 111 242Z" glyph-name="periodcentered" horiz-adv-x="223" unicode="&#183;" /><glyph d="M913 164Q913 133 931.5 112Q950 91 982 91Q1017 91 1034.5 112.5Q1052 134 1052 164Q1052 196 1033 216Q1014 236 982 236Q948 236 930.5 215Q913 194 913 164ZM809 163Q809 199 821.5 230.5Q834 262 856.5 285Q879 308 910.5 321Q942 334 980 334Q1020 334 1052.5 321Q1085 308 1108 285Q1131 262 1143.5 230.5Q1156 199 1156 163Q1156 127 1143.5 96.5Q1131 66 1108.5 43Q1086 20 1053.5 7Q1021 -6 982 -6Q943 -6 911 7Q879 20 856.5 42.5Q834 65 821.5 96Q809 127 809 163ZM534 164Q534 133 552.5 112Q571 91 603 91Q638 91 655 112.5Q672 134 672 164Q672 196 653.5 216Q635 236 602 236Q569 236 551.5 215Q534 194 534 164ZM429 163Q429 199 441.5 230.5Q454 262 476.5 285Q499 308 531 321Q563 334 601 334Q641 334 673.5 321Q706 308 729 285Q752 262 764.5 230.5Q777 199 777 163Q777 127 764.5 96.5Q752 66 729 43Q706 20 674 7Q642 -6 603 -6Q564 -6 531.5 7Q499 20 476.5 42.5Q454 65 441.5 96Q429 127 429 163ZM201 0H85L598 692H713ZM122 529Q122 498 140.5 477.5Q159 457 191 457Q226 457 243.5 478Q261 499 261 529Q261 561 242 581.5Q223 602 190 602Q157 602 139.5 580.5Q122 559 122 529ZM18 529Q18 565 30.5 596Q43 627 65.5 650Q88 673 119.5 686Q151 699 189 699Q229 699 261.5 686Q294 673 317 650.5Q340 628 352.5 596.5Q365 565 365 529Q365 493 352.5 462Q340 431 317 408Q294 385 262 372Q230 359 191 359Q152 359 120 372Q88 385 65.5 407.5Q43 430 30.5 461.5Q18 493 18 529Z" glyph-name="perthousand" horiz-adv-x="1174" unicode="&#8240;" /><glyph d="M27 393H175V546H295V393H442V281H295V127H175V281H27Z" glyph-name="plus" horiz-adv-x="470" unicode="+" /><glyph d="M444 46Q425 26 384.5 8.5Q344 -9 293 -9Q232 -9 181.5 11Q131 31 95 67.5Q59 104 39 155Q19 206 19 268Q19 327 38.5 377.5Q58 428 94 465Q130 502 180.5 523Q231 544 293 544Q343 544 385.5 527.5Q428 511 451 485V535H578V-175H444ZM153 268Q153 234 163.5 205Q174 176 193.5 155Q213 134 240.5 122Q268 110 301 110Q335 110 362 122Q389 134 408 155Q427 176 437.5 205Q448 234 448 268Q448 302 437 330.5Q426 359 406.5 380Q387 401 360 413Q333 425 301 425Q267 425 239.5 413Q212 401 193 380Q174 359 163.5 330Q153 301 153 268Z" glyph-name="q" horiz-adv-x="617" unicode="q" /><glyph d="M292 190H159V424H232Q270 424 293.5 443.5Q317 463 317 504Q317 540 295 563Q273 586 236 586Q211 586 195 576.5Q179 567 170 553Q161 539 158 523Q155 507 155 493H20Q19 518 26 554Q33 590 56 623Q79 656 122 679Q165 702 236 702Q288 702 328.5 686.5Q369 671 396.5 644.5Q424 618 438 582Q452 546 452 505Q452 466 440 434Q428 402 406.5 379Q385 356 355.5 342.5Q326 329 292 326ZM226 -10Q191 -10 166 14.5Q141 39 141 75Q141 110 166 134.5Q191 159 226 159Q261 159 285.5 134.5Q310 110 310 75Q310 39 285.5 14.5Q261 -10 226 -10Z" glyph-name="question" horiz-adv-x="473" unicode="?" /><glyph d="M181 403H314V163H241Q203 163 179.5 143.5Q156 124 156 83Q156 48 177.5 24.5Q199 1 237 1Q262 1 278 10.5Q294 20 303 34Q312 48 315 64Q318 80 318 94H452Q453 68 446 32.5Q439 -3 416 -36Q393 -69 350 -92Q307 -115 236 -115Q184 -115 144 -100Q104 -85 76.5 -58.5Q49 -32 35 4Q21 40 21 81Q21 120 33 151.5Q45 183 66.5 206Q88 229 117.5 243Q147 257 181 261ZM247 600Q282 600 307 575.5Q332 551 332 516Q332 480 307 455.5Q282 431 247 431Q212 431 187.5 455.5Q163 480 163 516Q163 551 187.5 575.5Q212 600 247 600Z" glyph-name="questiondown" horiz-adv-x="473" unicode="&#191;" /><glyph d="M181 507H314V265H241Q203 265 179.5 245.5Q156 226 156 185Q156 150 177.5 127Q199 104 237 104Q262 104 278 113.5Q294 123 303 136.5Q312 150 315 166Q318 182 318 196H452Q453 170 446 134.5Q439 99 416 66Q393 33 350 10Q307 -13 236 -13Q184 -13 144 2Q104 17 76.5 43.5Q49 70 35 106Q21 142 21 183Q21 222 33 253.5Q45 285 66.5 308Q88 331 117.5 345Q147 359 181 363ZM247 703Q282 703 307 678.5Q332 654 332 619Q332 584 307 559Q282 534 247 534Q212 534 187.5 559Q163 584 163 619Q163 654 187.5 678.5Q212 703 247 703Z" glyph-name="questiondown.uc" horiz-adv-x="473" /><glyph d="M153 692V436H31V692ZM327 692V436H205V692Z" glyph-name="quotedbl" horiz-adv-x="358" unicode="&quot;" /><glyph d="M272 3Q248 11 231.5 29.5Q215 48 215 79Q215 114 238 138.5Q261 163 299 163Q337 163 359.5 139Q382 115 382 79Q382 59 377 42Q372 25 362 3L312 -104H221ZM74 3Q50 11 33.5 29.5Q17 48 17 79Q17 114 40 138.5Q63 163 101 163Q139 163 161.5 139Q184 115 184 79Q184 59 179 42Q174 25 164 3L114 -104H23Z" glyph-name="quotedblbase" horiz-adv-x="400" unicode="&#8222;" /><glyph d="M326 585Q349 577 366 558.5Q383 540 383 509Q383 474 360 449.5Q337 425 299 425Q261 425 238 449Q215 473 215 509Q215 529 220 546Q225 563 236 584L285 692H377ZM129 585Q152 577 169 558.5Q186 540 186 509Q186 474 163 449.5Q140 425 102 425Q64 425 41 449Q18 473 18 509Q18 529 23 546Q28 563 39 584L88 692H180Z" glyph-name="quotedblleft" horiz-adv-x="399" unicode="&#8220;" /><glyph d="M272 540Q248 548 231.5 566.5Q215 585 215 616Q215 651 238 675.5Q261 700 299 700Q337 700 359.5 676Q382 652 382 616Q382 596 377 579Q372 562 362 540L312 433H221ZM74 540Q50 548 33.5 566.5Q17 585 17 616Q17 651 40 675.5Q63 700 101 700Q139 700 161.5 676Q184 652 184 616Q184 596 179 579Q174 562 164 540L114 433H23Z" glyph-name="quotedblright" horiz-adv-x="399" unicode="&#8221;" /><glyph d="M129 585Q152 577 169 558.5Q186 540 186 509Q186 474 163 449.5Q140 425 102 425Q64 425 41 449Q18 473 18 509Q18 529 23 546Q28 563 39 584L88 692H180Z" glyph-name="quoteleft" horiz-adv-x="203" unicode="&#8216;" /><glyph d="M74 540Q50 548 33.5 566.5Q17 585 17 616Q17 651 40 675.5Q63 700 101 700Q139 700 161.5 676Q184 652 184 616Q184 596 179 579Q174 562 164 540L114 433H23Z" glyph-name="quoteright" horiz-adv-x="203" unicode="&#8217;" /><glyph d="M74 3Q50 11 33.5 29.5Q17 48 17 79Q17 114 40 138.5Q63 163 101 163Q139 163 161.5 139Q184 115 184 79Q184 59 179 42Q174 25 164 3L114 -104H23Z" glyph-name="quotesinglbase" horiz-adv-x="203" unicode="&#8218;" /><glyph d="M153 692V436H31V692Z" glyph-name="quotesingle" horiz-adv-x="184" unicode="'" /><glyph d="M277 397H243Q204 397 188.5 379Q173 361 173 326V0H39V535H173V492Q187 512 211 524.5Q235 537 277 537Z" glyph-name="r" horiz-adv-x="293" unicode="r" /><glyph d="M277 397H243Q204 397 188.5 379Q173 361 173 326V0H39V535H173V492Q187 512 211 524.5Q235 537 277 537ZM298 710 217 572H91L167 710Z" glyph-name="racute" horiz-adv-x="293" unicode="&#341;" /><glyph d="M277 397H243Q204 397 188.5 379Q173 361 173 326V0H39V535H173V492Q187 512 211 524.5Q235 537 277 537ZM90 571 -6 713H111L157 651L203 713H320L224 571Z" glyph-name="rcaron" horiz-adv-x="293" unicode="&#345;" /><glyph d="M277 397H243Q204 397 188.5 379Q173 361 173 326V0H39V535H173V492Q187 512 211 524.5Q235 537 277 537ZM85 -176Q61 -170 46 -152Q31 -134 31 -105Q31 -75 51.5 -53Q72 -31 109 -31Q145 -31 165 -54Q185 -77 185 -107Q185 -127 179 -143.5Q173 -160 166 -174L128 -250H51Z" glyph-name="rcommaaccent" horiz-adv-x="293" unicode="&#343;" /><glyph d="M205 510V427H146V647H233Q269 647 288 629Q307 611 307 580Q307 559 298 545Q289 531 277 523L315 427H254L221 510ZM205 597V558H225Q234 558 240 563Q246 568 246 578Q246 588 240 592.5Q234 597 225 597ZM15 534Q15 577 29.5 614Q44 651 71 678.5Q98 706 135.5 722Q173 738 219 738Q267 738 306 722.5Q345 707 372 679.5Q399 652 414 615Q429 578 429 535Q429 493 414.5 456Q400 419 373 391Q346 363 307.5 347Q269 331 222 331Q175 331 137 346.5Q99 362 72 389.5Q45 417 30 454Q15 491 15 534ZM67 534Q67 501 77.5 472.5Q88 444 108 423Q128 402 156.5 390Q185 378 221 378Q258 378 286.5 389.5Q315 401 334.5 422Q354 443 364.5 472Q375 501 375 535Q375 604 334.5 647Q294 690 219 690Q184 690 156 678.5Q128 667 108 646Q88 625 77.5 596.5Q67 568 67 534Z" glyph-name="registered" horiz-adv-x="444" unicode="&#174;" /><glyph d="M90 664Q90 710 120.5 740.5Q151 771 198 771Q249 771 279 741Q309 711 309 666Q309 620 279 590Q249 560 199 560Q151 560 120.5 589.5Q90 619 90 664ZM155 666Q155 646 167.5 632.5Q180 619 200 619Q220 619 232 632.5Q244 646 244 666Q244 686 232 698.5Q220 711 199 711Q179 711 167 698.5Q155 686 155 666Z" glyph-name="ring" horiz-adv-x="400" unicode="&#730;" /><glyph d="M126 819Q126 866 156.5 896Q187 926 235 926Q287 926 317 896Q347 866 347 821Q347 774 317 744Q287 714 236 714Q187 714 156.5 744Q126 774 126 819ZM194 820Q194 800 205.5 788Q217 776 237 776Q257 776 268 788Q279 800 279 821Q279 840 268 852Q257 864 236 864Q216 864 205 852Q194 840 194 820Z" glyph-name="ring.uc" horiz-adv-x="473" /><glyph d="M156 393Q156 356 203 343Q221 338 238.5 334Q256 330 276 324Q308 314 332 301Q356 288 372 268.5Q388 249 396 222Q404 195 404 159Q404 118 388.5 87Q373 56 346 35Q319 14 283.5 3.5Q248 -7 209 -7Q153 -7 116 8Q79 23 57 48Q35 73 26 105.5Q17 138 18 173H146Q146 144 159 122.5Q172 101 211 101Q237 101 255.5 113.5Q274 126 274 149Q274 172 261.5 184Q249 196 221 204Q199 210 180.5 215Q162 220 140 228Q84 248 56.5 286.5Q29 325 29 386Q29 420 42.5 448.5Q56 477 80.5 498Q105 519 138.5 530.5Q172 542 212 542Q297 542 344.5 500Q392 458 393 373H270Q269 404 254.5 421Q240 438 209 438Q185 438 170.5 425.5Q156 413 156 393Z" glyph-name="s" horiz-adv-x="421" unicode="s" /><glyph d="M155 393Q155 356 202 343Q220 338 237.5 334Q255 330 275 324Q307 314 331 301Q355 288 371 268.5Q387 249 395 222Q403 195 403 159Q403 118 387.5 87Q372 56 345 35Q318 14 282.5 3.5Q247 -7 208 -7Q152 -7 115 8Q78 23 56 48Q34 73 25 105.5Q16 138 17 173H145Q145 144 158 122.5Q171 101 210 101Q236 101 254.5 113.5Q273 126 273 149Q273 172 260.5 184Q248 196 220 204Q198 210 179.5 215Q161 220 139 228Q83 248 55.5 286.5Q28 325 28 386Q28 420 41.5 448.5Q55 477 79.5 498Q104 519 137.5 530.5Q171 542 211 542Q296 542 343.5 500Q391 458 392 373H269Q268 404 253.5 421Q239 438 208 438Q184 438 169.5 425.5Q155 413 155 393ZM360 710 279 572H153L229 710Z" glyph-name="sacute" horiz-adv-x="421" unicode="&#347;" /><glyph d="M155 393Q155 356 202 343Q220 338 237.5 334Q255 330 275 324Q307 314 331 301Q355 288 371 268.5Q387 249 395 222Q403 195 403 159Q403 118 387.5 87Q372 56 345 35Q318 14 282.5 3.5Q247 -7 208 -7Q152 -7 115 8Q78 23 56 48Q34 73 25 105.5Q16 138 17 173H145Q145 144 158 122.5Q171 101 210 101Q236 101 254.5 113.5Q273 126 273 149Q273 172 260.5 184Q248 196 220 204Q198 210 179.5 215Q161 220 139 228Q83 248 55.5 286.5Q28 325 28 386Q28 420 41.5 448.5Q55 477 79.5 498Q104 519 137.5 530.5Q171 542 211 542Q296 542 343.5 500Q391 458 392 373H269Q268 404 253.5 421Q239 438 208 438Q184 438 169.5 425.5Q155 413 155 393ZM316 710 271 572H155L198 710Z" glyph-name="sacute.pl" horiz-adv-x="419" /><glyph d="M155 393Q155 356 202 343Q220 338 237.5 334Q255 330 275 324Q307 314 331 301Q355 288 371 268.5Q387 249 395 222Q403 195 403 159Q403 118 387.5 87Q372 56 345 35Q318 14 282.5 3.5Q247 -7 208 -7Q152 -7 115 8Q78 23 56 48Q34 73 25 105.5Q16 138 17 173H145Q145 144 158 122.5Q171 101 210 101Q236 101 254.5 113.5Q273 126 273 149Q273 172 260.5 184Q248 196 220 204Q198 210 179.5 215Q161 220 139 228Q83 248 55.5 286.5Q28 325 28 386Q28 420 41.5 448.5Q55 477 79.5 498Q104 519 137.5 530.5Q171 542 211 542Q296 542 343.5 500Q391 458 392 373H269Q268 404 253.5 421Q239 438 208 438Q184 438 169.5 425.5Q155 413 155 393ZM145 571 49 713H166L212 651L258 713H375L279 571Z" glyph-name="scaron" horiz-adv-x="421" unicode="&#353;" /><glyph d="M142 -259V-183H163Q183 -182 195 -173Q207 -164 207 -143Q207 -124 195 -114.5Q183 -105 163 -105H142V0Q106 8 81.5 25Q57 42 42 65Q27 88 21 116Q15 144 16 173H144Q144 144 157 122.5Q170 101 209 101Q235 101 253.5 113.5Q272 126 272 149Q272 172 259.5 184Q247 196 219 204Q197 210 178.5 215Q160 220 138 228Q82 248 54.5 286.5Q27 325 27 386Q27 420 40.5 448.5Q54 477 78.5 498Q103 519 136.5 530.5Q170 542 210 542Q295 542 342.5 500Q390 458 391 373H268Q267 404 252.5 421Q238 438 207 438Q183 438 168.5 425.5Q154 413 154 393Q154 356 201 343Q219 338 236.5 334Q254 330 274 324Q306 314 330 301Q354 288 370 268.5Q386 249 394 222Q402 195 402 159Q402 120 387.5 89.5Q373 59 347.5 38Q322 17 288.5 5.5Q255 -6 218 -7V-36Q262 -48 279 -77Q296 -106 296 -143Q296 -199 260.5 -229Q225 -259 162 -259Z" glyph-name="scedilla" horiz-adv-x="421" unicode="&#351;" /><glyph d="M155 393Q155 356 202 343Q220 338 237.5 334Q255 330 275 324Q307 314 331 301Q355 288 371 268.5Q387 249 395 222Q403 195 403 159Q403 118 387.5 87Q372 56 345 35Q318 14 282.5 3.5Q247 -7 208 -7Q152 -7 115 8Q78 23 56 48Q34 73 25 105.5Q16 138 17 173H145Q145 144 158 122.5Q171 101 210 101Q236 101 254.5 113.5Q273 126 273 149Q273 172 260.5 184Q248 196 220 204Q198 210 179.5 215Q161 220 139 228Q83 248 55.5 286.5Q28 325 28 386Q28 420 41.5 448.5Q55 477 79.5 498Q104 519 137.5 530.5Q171 542 211 542Q296 542 343.5 500Q391 458 392 373H269Q268 404 253.5 421Q239 438 208 438Q184 438 169.5 425.5Q155 413 155 393ZM276 712 372 570H255L209 632L163 570H46L142 712Z" glyph-name="scircumflex" horiz-adv-x="421" unicode="&#349;" /><glyph d="M155 393Q155 356 202 343Q220 338 237.5 334Q255 330 275 324Q307 314 331 301Q355 288 371 268.5Q387 249 395 222Q403 195 403 159Q403 118 387.5 87Q372 56 345 35Q318 14 282.5 3.5Q247 -7 208 -7Q152 -7 115 8Q78 23 56 48Q34 73 25 105.5Q16 138 17 173H145Q145 144 158 122.5Q171 101 210 101Q236 101 254.5 113.5Q273 126 273 149Q273 172 260.5 184Q248 196 220 204Q198 210 179.5 215Q161 220 139 228Q83 248 55.5 286.5Q28 325 28 386Q28 420 41.5 448.5Q55 477 79.5 498Q104 519 137.5 530.5Q171 542 211 542Q296 542 343.5 500Q391 458 392 373H269Q268 404 253.5 421Q239 438 208 438Q184 438 169.5 425.5Q155 413 155 393ZM190 -176Q166 -170 151 -152Q136 -134 136 -105Q136 -75 156.5 -53Q177 -31 214 -31Q250 -31 270 -54Q290 -77 290 -107Q290 -127 284 -143.5Q278 -160 271 -174L233 -250H156Z" glyph-name="scommaaccent" horiz-adv-x="419" unicode="&#537;" /><glyph d="M355 3Q355 30 339 47Q323 64 286 77L150 126Q94 146 58.5 186.5Q23 227 23 295Q23 352 51.5 387Q80 422 120 437Q102 460 93.5 488Q85 516 85 548Q85 585 98.5 619.5Q112 654 138 680Q164 706 203.5 721.5Q243 737 295 737Q359 737 399 717.5Q439 698 461 668.5Q483 639 490.5 603.5Q498 568 498 535H365Q365 548 361.5 562Q358 576 350 588Q342 600 328 607.5Q314 615 293 615Q255 615 239 596.5Q223 578 223 554Q223 528 239 510.5Q255 493 291 481L416 438Q488 413 519.5 370Q551 327 551 265Q551 211 523 172.5Q495 134 459 119Q479 97 486 68Q493 39 493 8Q493 -30 479 -64.5Q465 -99 438 -125Q411 -151 371 -166.5Q331 -182 279 -182Q221 -182 181.5 -166Q142 -150 117.5 -122Q93 -94 82.5 -56.5Q72 -19 72 25H207Q207 9 210.5 -6Q214 -21 222.5 -33Q231 -45 245.5 -52.5Q260 -60 281 -60Q319 -60 337 -42Q355 -24 355 3ZM242 353Q205 366 182 350.5Q159 335 159 308Q159 267 202 253L333 205Q348 200 362.5 200Q377 200 388.5 205.5Q400 211 407.5 222.5Q415 234 415 251Q415 273 404 285.5Q393 298 373 305Z" glyph-name="section" horiz-adv-x="576" unicode="&#167;" /><glyph d="M78 -2Q52 5 36 25.5Q20 46 19 76Q18 112 42.5 136.5Q67 161 105 161Q143 161 166 136.5Q189 112 189 75Q189 56 183.5 37.5Q178 19 168 -2L115 -111H23ZM104 338Q68 338 43.5 363Q19 388 19 424Q19 461 43 485.5Q67 510 104 510Q141 510 165 485.5Q189 461 189 424Q189 388 165 363Q141 338 104 338Z" glyph-name="semicolon" horiz-adv-x="208" unicode=";" /><glyph d="M218 0H63L280 567H16V692H444V601Z" glyph-name="seven" horiz-adv-x="467" unicode="7" /><glyph d="M158 1H48L143 268H11V358H257V285Z" glyph-name="seven.den" horiz-adv-x="269" /><glyph d="M158 335H48L143 602H11V692H257V619Z" glyph-name="seven.num" horiz-adv-x="269" /><glyph d="M193 335H83L178 602H46V692H292V619ZM414 263Q414 283 422 302Q430 321 446 335.5Q462 350 487 358.5Q512 367 546 367Q614 367 646.5 336.5Q679 306 679 263Q679 235 667.5 214.5Q656 194 634 186Q660 176 672.5 154.5Q685 133 685 104Q685 58 651.5 25Q618 -8 546 -8Q510 -8 483.5 1Q457 10 440.5 25Q424 40 416 59.5Q408 79 408 101Q408 130 420 152Q432 174 458 186Q439 196 426.5 215Q414 234 414 263ZM510 257Q510 240 520 230.5Q530 221 547 221Q563 221 573 230.5Q583 240 583 257Q583 274 572.5 284Q562 294 547 294Q530 294 520 284Q510 274 510 257ZM506 106Q506 87 517.5 76Q529 65 547 65Q564 65 575.5 76Q587 87 587 106Q587 125 575.5 135.5Q564 146 547 146Q529 146 517.5 135.5Q506 125 506 106ZM121 0H14L528 692H636Z" glyph-name="seveneighths" horiz-adv-x="723" unicode="&#8542;" /><glyph d="M386 537Q372 549 348 561.5Q324 574 289 574Q257 574 235.5 565Q214 556 201 540Q188 524 183 502.5Q178 481 178 456V428Q189 441 218.5 455Q248 469 293 469Q487 469 487 244V214Q487 166 472.5 125Q458 84 429.5 53Q401 22 359 4.5Q317 -13 262 -13Q205 -13 163 3.5Q121 20 93.5 50Q66 80 53 122Q40 164 40 215V453Q40 504 53 550Q66 596 95 630.5Q124 665 170.5 685Q217 705 284 705Q320 705 348.5 699Q377 693 398.5 683.5Q420 674 436 662.5Q452 651 463 640ZM264 340Q218 340 198 313.5Q178 287 178 247V214Q178 172 197.5 144.5Q217 117 263 117Q308 117 328.5 145Q349 173 349 214V245Q349 287 329.5 313.5Q310 340 264 340Z" glyph-name="six" horiz-adv-x="515" unicode="6" /><glyph d="M222 259Q215 267 202 275Q189 283 169 283Q143 283 133 269.5Q123 256 123 235V224Q131 229 146.5 234Q162 239 181 239Q237 239 269.5 209Q302 179 302 125V119Q302 64 266 28Q230 -8 165 -8Q127 -8 100.5 3.5Q74 15 57.5 33.5Q41 52 33 75.5Q25 99 25 123V228Q25 255 33.5 280Q42 305 59.5 324.5Q77 344 104 355.5Q131 367 169 367Q218 367 245 352.5Q272 338 283 323ZM123 115Q123 98 133 86Q143 74 163 74Q183 74 193.5 86Q204 98 204 115V122Q204 139 193.5 151Q183 163 164 163Q144 163 133.5 151Q123 139 123 123Z" glyph-name="six.den" horiz-adv-x="317" /><glyph d="M222 593Q215 601 202 609Q189 617 169 617Q143 617 133 603.5Q123 590 123 569V558Q131 563 146.5 568Q162 573 181 573Q237 573 269.5 543Q302 513 302 459V453Q302 398 266 362Q230 326 165 326Q127 326 100.5 337.5Q74 349 57.5 367.5Q41 386 33 409.5Q25 433 25 457V562Q25 589 33.5 614Q42 639 59.5 658.5Q77 678 104 689.5Q131 701 169 701Q218 701 245 686.5Q272 672 283 657ZM123 449Q123 432 133 420Q143 408 163 408Q183 408 193.5 420Q204 432 204 449V456Q204 473 193.5 485Q183 497 164 497Q144 497 133.5 485Q123 473 123 457Z" glyph-name="six.num" horiz-adv-x="317" /><glyph d="M121 -175H-2L343 731H466Z" glyph-name="slash" horiz-adv-x="464" unicode="/" /><glyph d="M167 -55H44L343 731H466Z" glyph-name="slash.uc" horiz-adv-x="464" /><glyph glyph-name="space" horiz-adv-x="151" unicode=" " /><glyph d="M186 -176Q162 -170 147 -152Q132 -134 132 -105Q132 -75 152.5 -53Q173 -31 210 -31Q246 -31 266 -54Q286 -77 286 -107Q286 -127 280 -143.5Q274 -160 267 -174L229 -250H152Z" glyph-name="space_uni0326" horiz-adv-x="400" /><glyph d="M228 711Q251 705 266.5 688Q282 671 282 642Q282 612 261.5 589Q241 566 204 566Q168 566 148 589.5Q128 613 128 642Q128 663 134 679Q140 695 147 709L184 785H261Z" glyph-name="space_uni0326.alt" horiz-adv-x="400" /><glyph d="M222 394H359V276H222V124H522V0H24V124H83V276H24V394H83V492Q83 538 97 577Q111 616 138.5 644.5Q166 673 207 689Q248 705 302 705Q367 705 409 684Q451 663 476 630.5Q501 598 510 559.5Q519 521 518 487H381Q381 500 377.5 515Q374 530 365.5 543Q357 556 342 565Q327 574 302 574Q259 574 240.5 548Q222 522 222 483Z" glyph-name="sterling" horiz-adv-x="543" unicode="&#163;" /><glyph d="M196 535H278V422H196V173Q196 143 207 129.5Q218 116 247 116H278V2Q276 2 258 -1.5Q240 -5 205 -5Q129 -5 95.5 31.5Q62 68 62 135V422H12V535H62V619H196Z" glyph-name="t" horiz-adv-x="300" unicode="t" /><glyph d="M196 535H278V422H196V341H278V242H196V173Q196 143 207 129.5Q218 116 247 116H278V2Q276 2 258 -1.5Q240 -5 205 -5Q129 -5 95.5 31.5Q62 68 62 135V242H15V341H62V422H12V535H62V619H196Z" glyph-name="tbar" horiz-adv-x="300" unicode="&#359;" /><glyph d="M196 535H278V422H196V173Q196 143 207 129.5Q218 116 247 116H278V2Q276 2 258 -1.5Q240 -5 205 -5Q129 -5 95.5 31.5Q62 68 62 135V422H12V535H62V619H196ZM353 731 339 572H233L245 731Z" glyph-name="tcaron" horiz-adv-x="300" unicode="&#357;" /><glyph d="M196 535H278V422H196V173Q196 143 207 129.5Q218 116 247 116H278V2Q276 2 258 -1.5Q240 -5 205 -5Q129 -5 95.5 31.5Q62 68 62 135V422H12V535H62V619H196ZM144 -176Q120 -170 105 -152Q90 -134 90 -105Q90 -75 110.5 -53Q131 -31 168 -31Q204 -31 224 -54Q244 -77 244 -107Q244 -127 238 -143.5Q232 -160 225 -174L187 -250H110Z" glyph-name="tcommaaccent" horiz-adv-x="300" unicode="&#355;" /><glyph d="M169 267Q169 233 179.5 204Q190 175 209.5 154Q229 133 256 121.5Q283 110 316 110Q350 110 377.5 121.5Q405 133 424 154Q443 175 453 204Q463 233 463 267Q463 301 452.5 330Q442 359 422.5 380Q403 401 376 413Q349 425 315 425Q281 425 254 413Q227 401 208 380Q189 359 179 330Q169 301 169 267ZM173 -176H39V730H173V486Q194 506 234 525Q274 544 331 544Q393 544 442.5 523.5Q492 503 526.5 466.5Q561 430 579.5 379.5Q598 329 598 269Q598 211 579 160Q560 109 524 71.5Q488 34 437 12.5Q386 -9 322 -9Q270 -9 231.5 8Q193 25 173 42Z" glyph-name="thorn" horiz-adv-x="617" unicode="&#254;" /><glyph d="M144 407 283 567H42V692H444V568L301 414Q337 409 368.5 395.5Q400 382 423.5 357.5Q447 333 461 297Q475 261 475 211Q475 161 458 120Q441 79 410.5 49.5Q380 20 337.5 3.5Q295 -13 244 -13Q178 -13 134 7Q90 27 64 58.5Q38 90 27.5 129Q17 168 17 206H154Q156 170 177.5 143.5Q199 117 244 117Q285 117 308.5 142.5Q332 168 332 208Q332 251 307.5 275Q283 299 236 299H144Z" glyph-name="three" horiz-adv-x="497" unicode="3" /><glyph d="M91 218 158 275H33V358H270V280L204 223Q219 221 234.5 213.5Q250 206 262 193Q274 180 282 161Q290 142 290 115Q290 61 254 26.5Q218 -8 148 -8Q79 -8 45.5 26.5Q12 61 11 116H109Q109 96 119.5 85Q130 74 150 74Q168 74 178.5 85.5Q189 97 189 115Q189 154 144 154H91Z" glyph-name="three.den" horiz-adv-x="309" /><glyph d="M91 552 158 609H33V692H270V614L204 557Q219 555 234.5 547.5Q250 540 262 527Q274 514 282 495Q290 476 290 449Q290 395 254 360.5Q218 326 148 326Q79 326 45.5 360.5Q12 395 11 450H109Q109 430 119.5 419Q130 408 150 408Q168 408 178.5 419.5Q189 431 189 449Q189 488 144 488H91Z" glyph-name="three.num" horiz-adv-x="309" /><glyph d="M110 552 177 609H52V692H289V614L223 557Q238 555 253.5 547.5Q269 540 281 527Q293 514 301 495Q309 476 309 449Q309 395 273 360.5Q237 326 167 326Q98 326 64.5 360.5Q31 395 30 450H128Q128 430 138.5 419Q149 408 169 408Q187 408 197.5 419.5Q208 431 208 449Q208 488 163 488H110ZM484 263Q484 283 492 302Q500 321 516 335.5Q532 350 557 358.5Q582 367 616 367Q684 367 716.5 336.5Q749 306 749 263Q749 235 737.5 214.5Q726 194 704 186Q730 176 742.5 154.5Q755 133 755 104Q755 58 721.5 25Q688 -8 616 -8Q580 -8 553.5 1Q527 10 510.5 25Q494 40 486 59.5Q478 79 478 101Q478 130 490 152Q502 174 528 186Q509 196 496.5 215Q484 234 484 263ZM580 257Q580 240 590 230.5Q600 221 617 221Q633 221 643 230.5Q653 240 653 257Q653 274 642.5 284Q632 294 617 294Q600 294 590 284Q580 274 580 257ZM576 106Q576 87 587.5 76Q599 65 617 65Q634 65 645.5 76Q657 87 657 106Q657 125 645.5 135.5Q634 146 617 146Q599 146 587.5 135.5Q576 125 576 106ZM191 0H84L598 692H706Z" glyph-name="threeeighths" horiz-adv-x="793" unicode="&#8540;" /><glyph d="M110 552 177 609H52V692H289V614L223 557Q238 555 253.5 547.5Q269 540 281 527Q293 514 301 495Q309 476 309 449Q309 395 273 360.5Q237 326 167 326Q98 326 64.5 360.5Q31 395 30 450H128Q128 430 138.5 419Q149 408 169 408Q187 408 197.5 419.5Q208 431 208 449Q208 488 163 488H110ZM685 72V1H586V72H420V157L585 361H685V160H723V72ZM515 160H586V249ZM186 0H79L593 692H701Z" glyph-name="threequarters" horiz-adv-x="755" unicode="&#190;" /><glyph d="M97 554 164 609H40V692H277V614L211 559Q226 557 241 549.5Q256 542 268.5 529Q281 516 289 496.5Q297 477 297 451Q297 399 260.5 364Q224 329 154 329Q85 329 51.5 363.5Q18 398 17 453H116Q116 433 126.5 422Q137 411 156 411Q175 411 185 422Q195 433 195 451Q195 490 151 490H97Z" glyph-name="threesuperior" horiz-adv-x="320" unicode="&#179;" /><glyph d="M258 572Q240 572 226 577.5Q212 583 200 589Q188 595 177.5 600.5Q167 606 156 606Q130 606 130 572H35Q33 629 61.5 667Q90 705 143 705Q163 705 177 699.5Q191 694 202 688Q213 682 223 676.5Q233 671 244 671Q269 671 269 706H364Q366 645 337.5 608.5Q309 572 258 572Z" glyph-name="tilde" horiz-adv-x="400" unicode="&#732;" /><glyph d="M301 728Q282 728 267.5 733.5Q253 739 240.5 745Q228 751 217.5 756.5Q207 762 196 762Q167 762 167 727H72Q69 785 99 823Q129 861 181 861Q201 861 215.5 855.5Q230 850 242 844Q254 838 264 832.5Q274 827 285 827Q312 827 312 862H408Q410 801 381 764.5Q352 728 301 728Z" glyph-name="tilde.uc" horiz-adv-x="476" /><glyph d="M208 615H157V410H72V615H21V692H208ZM525 593 464 410H380L317 592V410H238V692H363L424 510L484 692H605V410H525Z" glyph-name="trademark" horiz-adv-x="626" unicode="&#8482;" /><glyph d="M28 0V122L250 354Q283 389 302.5 420Q322 451 322 489Q322 528 301 551Q280 574 242 574Q218 574 203 565.5Q188 557 179.5 544Q171 531 168 515.5Q165 500 165 487H28Q27 523 36 561.5Q45 600 69.5 632Q94 664 136 684.5Q178 705 242 705Q298 705 340 689Q382 673 410 644.5Q438 616 452 578Q466 540 466 496Q466 461 458.5 432.5Q451 404 437 378.5Q423 353 404 330Q385 307 361 283L209 125H471V0Z" glyph-name="two" horiz-adv-x="495" unicode="2" /><glyph d="M16 1V75L142 176Q165 194 175 207.5Q185 221 185 239Q185 254 175.5 265Q166 276 149 276Q126 276 119 262.5Q112 249 112 235H16Q15 256 21 279Q27 302 42.5 321.5Q58 341 84 354Q110 367 149 367Q215 367 252 334Q289 301 289 245Q289 209 272 185Q255 161 227 137L169 87H293V1Z" glyph-name="two.den" horiz-adv-x="308" /><glyph d="M16 335V409L142 510Q165 528 175 541.5Q185 555 185 573Q185 588 175.5 599Q166 610 149 610Q126 610 119 596.5Q112 583 112 569H16Q15 590 21 613Q27 636 42.5 655.5Q58 675 84 688Q110 701 149 701Q215 701 252 668Q289 635 289 579Q289 543 272 519Q255 495 227 471L169 421H293V335Z" glyph-name="two.num" horiz-adv-x="308" /><glyph d="M22 335V409L149 509Q172 526 182 539Q192 552 192 570Q192 585 183 595.5Q174 606 157 606Q134 606 127 592.5Q120 579 120 565H23Q22 586 28 609.5Q34 633 50 652.5Q66 672 92 685Q118 698 157 698Q223 698 259.5 665.5Q296 633 296 576Q296 540 278.5 516.5Q261 493 234 470L176 421H300V335Z" glyph-name="twosuperior" horiz-adv-x="323" unicode="&#178;" /><glyph d="M26 335V409L152 510Q175 528 185 541.5Q195 555 195 573Q195 588 185.5 599Q176 610 159 610Q136 610 129 596.5Q122 583 122 569H26Q25 590 31 613Q37 636 52.5 655.5Q68 675 94 688Q120 701 159 701Q225 701 262 668Q299 635 299 579Q299 543 282 519Q265 495 237 471L179 421H303V335ZM590 218 657 275H532V358H769V280L703 223Q718 221 733.5 213.5Q749 206 761 193Q773 180 781 161Q789 142 789 115Q789 61 753 26.5Q717 -8 647 -8Q578 -8 544.5 26.5Q511 61 510 116H608Q608 96 618.5 85Q629 74 649 74Q667 74 677.5 85.5Q688 97 688 115Q688 154 643 154H590ZM216 0H109L623 692H731Z" glyph-name="twothirds" horiz-adv-x="824" unicode="&#8532;" /><glyph d="M171 199Q171 160 187.5 137Q204 114 240 114Q276 114 295 138Q314 162 314 200V535H448V0H315V40Q304 26 277 10Q250 -6 203 -6Q158 -6 126.5 8Q95 22 75 47.5Q55 73 46 107.5Q37 142 37 183V535H171Z" glyph-name="u" horiz-adv-x="487" unicode="u" /><glyph d="M445 535V205Q445 157 432 118.5Q419 80 393 52Q367 24 329 9Q291 -6 241 -6Q186 -6 147 9Q108 24 83.5 52Q59 80 48 118.5Q37 157 37 205V535H171V206Q171 167 188 144Q205 121 241 121Q277 121 294 144Q311 167 311 206V535Z" glyph-name="u.alt" horiz-adv-x="482" /><glyph d="M171 199Q171 160 187.5 137Q204 114 240 114Q276 114 295 138Q314 162 314 200V535H448V0H315V40Q304 26 277 10Q250 -6 203 -6Q158 -6 126.5 8Q95 22 75 47.5Q55 73 46 107.5Q37 142 37 183V535H171ZM383 710 302 572H176L252 710Z" glyph-name="uacute" horiz-adv-x="487" unicode="&#250;" /><glyph d="M380 710 299 572H173L249 710ZM445 535V205Q445 157 432 118.5Q419 80 393 52Q367 24 329 9Q291 -6 241 -6Q186 -6 147 9Q108 24 83.5 52Q59 80 48 118.5Q37 157 37 205V535H171V206Q171 167 188 144Q205 121 241 121Q277 121 294 144Q311 167 311 206V535Z" glyph-name="uacute.alt" horiz-adv-x="482" /><glyph d="M171 199Q171 160 187.5 137Q204 114 240 114Q276 114 295 138Q314 162 314 200V535H448V0H315V40Q304 26 277 10Q250 -6 203 -6Q158 -6 126.5 8Q95 22 75 47.5Q55 73 46 107.5Q37 142 37 183V535H171ZM241 564Q202 564 174 577Q146 590 128.5 610.5Q111 631 103 656.5Q95 682 95 707H195Q195 687 206 671Q217 655 242 655Q267 655 278 671Q289 687 289 707H388Q388 682 380 656.5Q372 631 354 610.5Q336 590 308 577Q280 564 241 564Z" glyph-name="ubreve" horiz-adv-x="487" unicode="&#365;" /><glyph d="M240 564Q201 564 173 577Q145 590 127.5 610.5Q110 631 102 656.5Q94 682 94 707H194Q194 687 205 671Q216 655 241 655Q266 655 277 671Q288 687 288 707H387Q387 682 379 656.5Q371 631 353 610.5Q335 590 307 577Q279 564 240 564ZM445 535V205Q445 157 432 118.5Q419 80 393 52Q367 24 329 9Q291 -6 241 -6Q186 -6 147 9Q108 24 83.5 52Q59 80 48 118.5Q37 157 37 205V535H171V206Q171 167 188 144Q205 121 241 121Q277 121 294 144Q311 167 311 206V535Z" glyph-name="ubreve.alt" horiz-adv-x="482" /><glyph d="M171 199Q171 160 187.5 137Q204 114 240 114Q276 114 295 138Q314 162 314 200V535H448V0H315V40Q304 26 277 10Q250 -6 203 -6Q158 -6 126.5 8Q95 22 75 47.5Q55 73 46 107.5Q37 142 37 183V535H171ZM310 712 406 570H289L243 632L197 570H80L176 712Z" glyph-name="ucircumflex" horiz-adv-x="487" unicode="&#251;" /><glyph d="M307 712 403 570H286L240 632L194 570H77L173 712ZM445 535V205Q445 157 432 118.5Q419 80 393 52Q367 24 329 9Q291 -6 241 -6Q186 -6 147 9Q108 24 83.5 52Q59 80 48 118.5Q37 157 37 205V535H171V206Q171 167 188 144Q205 121 241 121Q277 121 294 144Q311 167 311 206V535Z" glyph-name="ucircumflex.alt" horiz-adv-x="482" /><glyph d="M171 199Q171 160 187.5 137Q204 114 240 114Q276 114 295 138Q314 162 314 200V535H448V0H315V40Q304 26 277 10Q250 -6 203 -6Q158 -6 126.5 8Q95 22 75 47.5Q55 73 46 107.5Q37 142 37 183V535H171ZM149 573Q117 573 96 594Q75 615 75 647Q75 677 96 698Q117 719 149 719Q181 719 202.5 698.5Q224 678 224 647Q224 615 202 594Q180 573 149 573ZM332 573Q301 573 280 594Q259 615 259 647Q259 677 280 698Q301 719 332 719Q365 719 386.5 698.5Q408 678 408 647Q408 615 386 594Q364 573 332 573Z" glyph-name="udieresis" horiz-adv-x="487" unicode="&#252;" /><glyph d="M150 573Q118 573 97 594Q76 615 76 647Q76 677 97 698Q118 719 150 719Q182 719 203.5 698.5Q225 678 225 647Q225 615 203 594Q181 573 150 573ZM333 573Q302 573 281 594Q260 615 260 647Q260 677 281 698Q302 719 333 719Q366 719 387.5 698.5Q409 678 409 647Q409 615 387 594Q365 573 333 573ZM445 535V205Q445 157 432 118.5Q419 80 393 52Q367 24 329 9Q291 -6 241 -6Q186 -6 147 9Q108 24 83.5 52Q59 80 48 118.5Q37 157 37 205V535H171V206Q171 167 188 144Q205 121 241 121Q277 121 294 144Q311 167 311 206V535Z" glyph-name="udieresis.alt" horiz-adv-x="482" /><glyph d="M171 199Q171 160 187.5 137Q204 114 240 114Q276 114 295 138Q314 162 314 200V535H448V0H315V40Q304 26 277 10Q250 -6 203 -6Q158 -6 126.5 8Q95 22 75 47.5Q55 73 46 107.5Q37 142 37 183V535H171ZM240 710 316 572H190L109 710Z" glyph-name="ugrave" horiz-adv-x="487" unicode="&#249;" /><glyph d="M239 710 315 572H189L108 710ZM445 535V205Q445 157 432 118.5Q419 80 393 52Q367 24 329 9Q291 -6 241 -6Q186 -6 147 9Q108 24 83.5 52Q59 80 48 118.5Q37 157 37 205V535H171V206Q171 167 188 144Q205 121 241 121Q277 121 294 144Q311 167 311 206V535Z" glyph-name="ugrave.alt" horiz-adv-x="482" /><glyph d="M171 199Q171 160 187.5 137Q204 114 240 114Q276 114 295 138Q314 162 314 200V535H448V0H315V40Q304 26 277 10Q250 -6 203 -6Q158 -6 126.5 8Q95 22 75 47.5Q55 73 46 107.5Q37 142 37 183V535H171ZM281 710 216 572H94L153 710ZM452 710 384 572H264L327 710Z" glyph-name="uhungarumlaut" horiz-adv-x="487" unicode="&#369;" /><glyph d="M279 710 214 572H92L151 710ZM450 710 382 572H262L325 710ZM445 535V205Q445 157 432 118.5Q419 80 393 52Q367 24 329 9Q291 -6 241 -6Q186 -6 147 9Q108 24 83.5 52Q59 80 48 118.5Q37 157 37 205V535H171V206Q171 167 188 144Q205 121 241 121Q277 121 294 144Q311 167 311 206V535Z" glyph-name="uhungarumlaut.alt" horiz-adv-x="482" /><glyph d="M171 199Q171 160 187.5 137Q204 114 240 114Q276 114 295 138Q314 162 314 200V535H448V0H315V40Q304 26 277 10Q250 -6 203 -6Q158 -6 126.5 8Q95 22 75 47.5Q55 73 46 107.5Q37 142 37 183V535H171ZM122 683H364V585H122Z" glyph-name="umacron" horiz-adv-x="487" unicode="&#363;" /><glyph d="M119 683H361V585H119ZM445 535V205Q445 157 432 118.5Q419 80 393 52Q367 24 329 9Q291 -6 241 -6Q186 -6 147 9Q108 24 83.5 52Q59 80 48 118.5Q37 157 37 205V535H171V206Q171 167 188 144Q205 121 241 121Q277 121 294 144Q311 167 311 206V535Z" glyph-name="umacron.alt" horiz-adv-x="482" /><glyph d="M30 -31H589V-138H30Z" glyph-name="underscore" horiz-adv-x="619" unicode="_" /><glyph glyph-name="uni00A0" horiz-adv-x="151" unicode="&#160;" /><glyph d="M282 562V0H143V562H17V692H408V562ZM188 -176Q164 -170 149 -152Q134 -134 134 -105Q134 -75 154.5 -53Q175 -31 212 -31Q248 -31 268 -54Q288 -77 288 -107Q288 -127 282 -143.5Q276 -160 269 -174L231 -250H154Z" glyph-name="uni021A" horiz-adv-x="424" unicode="&#538;" /><glyph d="M196 535H278V422H196V173Q196 143 207 129.5Q218 116 247 116H278V2Q276 2 258 -1.5Q240 -5 205 -5Q129 -5 95.5 31.5Q62 68 62 135V422H12V535H62V619H196ZM144 -176Q120 -170 105 -152Q90 -134 90 -105Q90 -75 110.5 -53Q131 -31 168 -31Q204 -31 224 -54Q244 -77 244 -107Q244 -127 238 -143.5Q232 -160 225 -174L187 -250H110Z" glyph-name="uni021B" horiz-adv-x="300" unicode="&#539;" /><glyph d="M174 0Q174 -39 165.5 -71.5Q157 -104 137 -127Q117 -150 85 -163Q53 -176 5 -176Q-1 -176 -12.5 -176Q-24 -176 -37 -175V-61H-12Q22 -60 30.5 -42Q39 -24 39 0V535H174Z" glyph-name="uni0237" horiz-adv-x="212" unicode="&#567;" /><glyph glyph-name="uni2009" horiz-adv-x="15" unicode="&#8201;" /><glyph d="M544 417Q544 358 508.5 324.5Q473 291 416 291H371V157H274V539H414Q479 539 511.5 505Q544 471 544 417ZM371 456V374H402Q444 374 444 416Q444 456 402 456ZM23 345Q23 420 49 486Q75 552 122.5 600.5Q170 649 236 677Q302 705 382 705Q467 705 535 677.5Q603 650 651 602Q699 554 724.5 489Q750 424 750 348Q750 273 724.5 207Q699 141 651.5 92Q604 43 537 15Q470 -13 387 -13Q304 -13 236.5 14.5Q169 42 121.5 90Q74 138 48.5 203.5Q23 269 23 345ZM110 345Q110 285 129 234Q148 183 183.5 145.5Q219 108 270.5 86.5Q322 65 387 65Q452 65 503 86Q554 107 589.5 145Q625 183 643.5 234.5Q662 286 662 348Q662 409 643 460.5Q624 512 588 549Q552 586 500 606.5Q448 627 382 627Q320 627 270 606Q220 585 184.5 547.5Q149 510 129.5 458Q110 406 110 345Z" glyph-name="uni24C5" horiz-adv-x="772" unicode="&#9413;" /><glyph d="M171 199Q171 160 187.5 137Q204 114 240 114Q276 114 295 138Q314 162 314 200V535H448V-1Q422 -6 411.5 -18.5Q401 -31 401 -45Q401 -63 414.5 -72Q428 -81 448 -82V-175Q358 -180 317 -152Q276 -124 276 -78Q276 -53 286.5 -33Q297 -13 315 2V40Q304 26 277 10Q250 -6 203 -6Q158 -6 126.5 8Q95 22 75 47.5Q55 73 46 107.5Q37 142 37 183V535H171Z" glyph-name="uogonek" horiz-adv-x="487" unicode="&#371;" /><glyph d="M445 535V205Q445 139 419.5 90Q394 41 345 16Q305 -7 305 -42Q305 -62 318.5 -71.5Q332 -81 352 -82V-175Q262 -180 221 -151.5Q180 -123 180 -76Q180 -56 187.5 -37.5Q195 -19 209 -4Q162 0 129.5 16.5Q97 33 76.5 60Q56 87 46.5 124Q37 161 37 205V535H171V206Q171 167 188 144Q205 121 241 121Q277 121 294 144Q311 167 311 206V535Z" glyph-name="uogonek.alt" horiz-adv-x="482" /><glyph d="M171 199Q171 160 187.5 137Q204 114 240 114Q276 114 295 138Q314 162 314 200V535H448V0H315V40Q304 26 277 10Q250 -6 203 -6Q158 -6 126.5 8Q95 22 75 47.5Q55 73 46 107.5Q37 142 37 183V535H171ZM133 664Q133 710 163.5 740.5Q194 771 241 771Q292 771 322 741Q352 711 352 666Q352 620 322 590Q292 560 242 560Q194 560 163.5 589.5Q133 619 133 664ZM198 666Q198 646 210.5 632.5Q223 619 243 619Q263 619 275 632.5Q287 646 287 666Q287 686 275 698.5Q263 711 242 711Q222 711 210 698.5Q198 686 198 666Z" glyph-name="uring" horiz-adv-x="487" unicode="&#367;" /><glyph d="M131 664Q131 710 161.5 740.5Q192 771 239 771Q290 771 320 741Q350 711 350 666Q350 620 320 590Q290 560 240 560Q192 560 161.5 589.5Q131 619 131 664ZM196 666Q196 646 208.5 632.5Q221 619 241 619Q261 619 273 632.5Q285 646 285 666Q285 686 273 698.5Q261 711 240 711Q220 711 208 698.5Q196 686 196 666ZM445 535V205Q445 157 432 118.5Q419 80 393 52Q367 24 329 9Q291 -6 241 -6Q186 -6 147 9Q108 24 83.5 52Q59 80 48 118.5Q37 157 37 205V535H171V206Q171 167 188 144Q205 121 241 121Q277 121 294 144Q311 167 311 206V535Z" glyph-name="uring.alt" horiz-adv-x="482" /><glyph d="M171 199Q171 160 187.5 137Q204 114 240 114Q276 114 295 138Q314 162 314 200V535H448V0H315V40Q304 26 277 10Q250 -6 203 -6Q158 -6 126.5 8Q95 22 75 47.5Q55 73 46 107.5Q37 142 37 183V535H171ZM304 572Q286 572 272 577.5Q258 583 246 589Q234 595 223.5 600.5Q213 606 202 606Q176 606 176 572H81Q79 629 107.5 667Q136 705 189 705Q209 705 223 699.5Q237 694 248 688Q259 682 269 676.5Q279 671 290 671Q315 671 315 706H410Q412 645 383.5 608.5Q355 572 304 572Z" glyph-name="utilde" horiz-adv-x="487" unicode="&#361;" /><glyph d="M298 572Q280 572 266 577.5Q252 583 240 589Q228 595 217.5 600.5Q207 606 196 606Q170 606 170 572H75Q73 629 101.5 667Q130 705 183 705Q203 705 217 699.5Q231 694 242 688Q253 682 263 676.5Q273 671 284 671Q309 671 309 706H404Q406 645 377.5 608.5Q349 572 298 572ZM445 535V205Q445 157 432 118.5Q419 80 393 52Q367 24 329 9Q291 -6 241 -6Q186 -6 147 9Q108 24 83.5 52Q59 80 48 118.5Q37 157 37 205V535H171V206Q171 167 188 144Q205 121 241 121Q277 121 294 144Q311 167 311 206V535Z" glyph-name="utilde.alt" horiz-adv-x="482" /><glyph d="M268 168 389 535H528L339 0H192L-1 535H147Z" glyph-name="v" horiz-adv-x="527" unicode="v" /><glyph d="M589 172 685 535H825L669 0H521L416 343L313 0H162L1 535H152L248 172L347 535H490Z" glyph-name="w" horiz-adv-x="826" unicode="w" /><glyph d="M719 535V200Q719 104 668.5 49Q618 -6 516 -6Q422 -6 376 47Q352 20 317.5 7Q283 -6 239 -6Q184 -6 145.5 8.5Q107 23 83 49.5Q59 76 48 114Q37 152 37 200V535H171V206Q171 167 188 144Q205 121 241 121Q276 121 293 143.5Q310 166 311 204V535H445V204Q445 166 462.5 143.5Q480 121 515 121Q551 121 568 144Q585 167 585 206V535Z" glyph-name="w.alt" horiz-adv-x="756" /><glyph d="M589 172 685 535H825L669 0H521L416 343L313 0H162L1 535H152L248 172L347 535H490ZM564 710 483 572H357L433 710Z" glyph-name="wacute" horiz-adv-x="826" unicode="&#7811;" /><glyph d="M521 710 440 572H314L390 710ZM719 535V200Q719 104 668.5 49Q618 -6 516 -6Q422 -6 376 47Q352 20 317.5 7Q283 -6 239 -6Q184 -6 145.5 8.5Q107 23 83 49.5Q59 76 48 114Q37 152 37 200V535H171V206Q171 167 188 144Q205 121 241 121Q276 121 293 143.5Q310 166 311 204V535H445V204Q445 166 462.5 143.5Q480 121 515 121Q551 121 568 144Q585 167 585 206V535Z" glyph-name="wacute.alt" horiz-adv-x="756" /><glyph d="M589 172 685 535H825L669 0H521L416 343L313 0H162L1 535H152L248 172L347 535H490ZM483 712 579 570H462L416 632L370 570H253L349 712Z" glyph-name="wcircumflex" horiz-adv-x="826" unicode="&#373;" /><glyph d="M444 712 540 570H423L377 632L331 570H214L310 712ZM719 535V200Q719 104 668.5 49Q618 -6 516 -6Q422 -6 376 47Q352 20 317.5 7Q283 -6 239 -6Q184 -6 145.5 8.5Q107 23 83 49.5Q59 76 48 114Q37 152 37 200V535H171V206Q171 167 188 144Q205 121 241 121Q276 121 293 143.5Q310 166 311 204V535H445V204Q445 166 462.5 143.5Q480 121 515 121Q551 121 568 144Q585 167 585 206V535Z" glyph-name="wcircumflex.alt" horiz-adv-x="756" /><glyph d="M589 172 685 535H825L669 0H521L416 343L313 0H162L1 535H152L248 172L347 535H490ZM323 573Q291 573 270 594Q249 615 249 647Q249 677 270 698Q291 719 323 719Q355 719 376.5 698.5Q398 678 398 647Q398 615 376 594Q354 573 323 573ZM506 573Q475 573 454 594Q433 615 433 647Q433 677 454 698Q475 719 506 719Q539 719 560.5 698.5Q582 678 582 647Q582 615 560 594Q538 573 506 573Z" glyph-name="wdieresis" horiz-adv-x="826" unicode="&#7813;" /><glyph d="M284 573Q252 573 231 594Q210 615 210 647Q210 677 231 698Q252 719 284 719Q316 719 337.5 698.5Q359 678 359 647Q359 615 337 594Q315 573 284 573ZM467 573Q436 573 415 594Q394 615 394 647Q394 677 415 698Q436 719 467 719Q500 719 521.5 698.5Q543 678 543 647Q543 615 521 594Q499 573 467 573ZM719 535V200Q719 104 668.5 49Q618 -6 516 -6Q422 -6 376 47Q352 20 317.5 7Q283 -6 239 -6Q184 -6 145.5 8.5Q107 23 83 49.5Q59 76 48 114Q37 152 37 200V535H171V206Q171 167 188 144Q205 121 241 121Q276 121 293 143.5Q310 166 311 204V535H445V204Q445 166 462.5 143.5Q480 121 515 121Q551 121 568 144Q585 167 585 206V535Z" glyph-name="wdieresis.alt" horiz-adv-x="756" /><glyph d="M589 172 685 535H825L669 0H521L416 343L313 0H162L1 535H152L248 172L347 535H490ZM403 710 479 572H353L272 710Z" glyph-name="wgrave" horiz-adv-x="826" unicode="&#7809;" /><glyph d="M364 710 440 572H314L233 710ZM719 535V200Q719 104 668.5 49Q618 -6 516 -6Q422 -6 376 47Q352 20 317.5 7Q283 -6 239 -6Q184 -6 145.5 8.5Q107 23 83 49.5Q59 76 48 114Q37 152 37 200V535H171V206Q171 167 188 144Q205 121 241 121Q276 121 293 143.5Q310 166 311 204V535H445V204Q445 166 462.5 143.5Q480 121 515 121Q551 121 568 144Q585 167 585 206V535Z" glyph-name="wgrave.alt" horiz-adv-x="756" /><glyph d="M266 168 144 0H-1L193 273L9 535H164L272 383L380 535H527L344 277L537 0H387Z" glyph-name="x" horiz-adv-x="536" unicode="x" /><glyph d="M131 -175 203 21 -1 535H147L272 203L393 535H531L261 -175Z" glyph-name="y" horiz-adv-x="530" unicode="y" /><glyph d="M91 -39Q108 -47 139.5 -57.5Q171 -68 217 -68Q270 -68 294.5 -46Q319 -24 319 8V31Q309 18 284 4.5Q259 -9 217 -9Q167 -9 132.5 6.5Q98 22 77 48Q56 74 46.5 108.5Q37 143 37 182V535H171V199Q171 160 187.5 137Q204 114 241 114Q276 114 295 138Q314 162 314 200V535H448V26Q448 -69 391.5 -126Q335 -183 220 -183Q163 -183 120.5 -171Q78 -159 52 -146Z" glyph-name="y.alt" horiz-adv-x="487" /><glyph d="M131 -175 203 21 -1 535H147L272 203L393 535H531L261 -175ZM408 710 327 572H201L277 710Z" glyph-name="yacute" horiz-adv-x="530" unicode="&#253;" /><glyph d="M383 710 302 572H176L252 710ZM91 -39Q108 -47 139.5 -57.5Q171 -68 217 -68Q270 -68 294.5 -46Q319 -24 319 8V31Q309 18 284 4.5Q259 -9 217 -9Q167 -9 132.5 6.5Q98 22 77 48Q56 74 46.5 108.5Q37 143 37 182V535H171V199Q171 160 187.5 137Q204 114 241 114Q276 114 295 138Q314 162 314 200V535H448V26Q448 -69 391.5 -126Q335 -183 220 -183Q163 -183 120.5 -171Q78 -159 52 -146Z" glyph-name="yacute.alt" horiz-adv-x="487" /><glyph d="M131 -175 203 21 -1 535H147L272 203L393 535H531L261 -175ZM337 712 433 570H316L270 632L224 570H107L203 712Z" glyph-name="ycircumflex" horiz-adv-x="530" unicode="&#375;" /><glyph d="M310 712 406 570H289L243 632L197 570H80L176 712ZM91 -39Q108 -47 139.5 -57.5Q171 -68 217 -68Q270 -68 294.5 -46Q319 -24 319 8V31Q309 18 284 4.5Q259 -9 217 -9Q167 -9 132.5 6.5Q98 22 77 48Q56 74 46.5 108.5Q37 143 37 182V535H171V199Q171 160 187.5 137Q204 114 241 114Q276 114 295 138Q314 162 314 200V535H448V26Q448 -69 391.5 -126Q335 -183 220 -183Q163 -183 120.5 -171Q78 -159 52 -146Z" glyph-name="ycircumflex.alt" horiz-adv-x="487" /><glyph d="M131 -175 203 21 -1 535H147L272 203L393 535H531L261 -175ZM179 573Q147 573 126 594Q105 615 105 647Q105 677 126 698Q147 719 179 719Q211 719 232.5 698.5Q254 678 254 647Q254 615 232 594Q210 573 179 573ZM362 573Q331 573 310 594Q289 615 289 647Q289 677 310 698Q331 719 362 719Q395 719 416.5 698.5Q438 678 438 647Q438 615 416 594Q394 573 362 573Z" glyph-name="ydieresis" horiz-adv-x="530" unicode="&#255;" /><glyph d="M150 573Q118 573 97 594Q76 615 76 647Q76 677 97 698Q118 719 150 719Q182 719 203.5 698.5Q225 678 225 647Q225 615 203 594Q181 573 150 573ZM333 573Q302 573 281 594Q260 615 260 647Q260 677 281 698Q302 719 333 719Q366 719 387.5 698.5Q409 678 409 647Q409 615 387 594Q365 573 333 573ZM91 -39Q108 -47 139.5 -57.5Q171 -68 217 -68Q270 -68 294.5 -46Q319 -24 319 8V31Q309 18 284 4.5Q259 -9 217 -9Q167 -9 132.5 6.5Q98 22 77 48Q56 74 46.5 108.5Q37 143 37 182V535H171V199Q171 160 187.5 137Q204 114 241 114Q276 114 295 138Q314 162 314 200V535H448V26Q448 -69 391.5 -126Q335 -183 220 -183Q163 -183 120.5 -171Q78 -159 52 -146Z" glyph-name="ydieresis.alt" horiz-adv-x="487" /><glyph d="M188 412 2 692H163L267 530L370 692H519L333 412H466V312H330V250H466V150H330V0H192V150H56V250H192V312H56V412Z" glyph-name="yen" horiz-adv-x="525" unicode="&#165;" /><glyph d="M131 -175 203 21 -1 535H147L272 203L393 535H531L261 -175ZM262 710 338 572H212L131 710Z" glyph-name="ygrave" horiz-adv-x="530" unicode="&#7923;" /><glyph d="M240 710 316 572H190L109 710ZM91 -39Q108 -47 139.5 -57.5Q171 -68 217 -68Q270 -68 294.5 -46Q319 -24 319 8V31Q309 18 284 4.5Q259 -9 217 -9Q167 -9 132.5 6.5Q98 22 77 48Q56 74 46.5 108.5Q37 143 37 182V535H171V199Q171 160 187.5 137Q204 114 241 114Q276 114 295 138Q314 162 314 200V535H448V26Q448 -69 391.5 -126Q335 -183 220 -183Q163 -183 120.5 -171Q78 -159 52 -146Z" glyph-name="ygrave.alt" horiz-adv-x="487" /><glyph d="M180 111H413V0H21V97L248 424H25V535H413V438Z" glyph-name="z" horiz-adv-x="434" unicode="z" /><glyph d="M180 111H413V0H21V97L248 424H25V535H413V438ZM355 710 274 572H148L224 710Z" glyph-name="zacute" horiz-adv-x="434" unicode="&#378;" /><glyph d="M180 111H413V0H21V97L248 424H25V535H413V438ZM318 710 273 572H157L200 710Z" glyph-name="zacute.pl" horiz-adv-x="434" /><glyph d="M180 111H413V0H21V97L248 424H25V535H413V438ZM151 571 55 713H172L218 651L264 713H381L285 571Z" glyph-name="zcaron" horiz-adv-x="434" unicode="&#382;" /><glyph d="M180 111H413V0H21V97L248 424H25V535H413V438ZM218 572Q186 572 164 593.5Q142 615 142 648Q142 680 163.5 701.5Q185 723 218 723Q250 723 273 701.5Q296 680 296 648Q296 615 274 593.5Q252 572 218 572Z" glyph-name="zdotaccent" horiz-adv-x="434" unicode="&#380;" /><glyph d="M349 476Q349 518 329 546Q309 574 264 574Q218 574 198.5 546Q179 518 179 476V216Q179 174 198.5 146.5Q218 119 264 119Q309 119 329 146.5Q349 174 349 216ZM488 218Q488 166 473 123.5Q458 81 429.5 50.5Q401 20 358.5 3.5Q316 -13 262 -13Q205 -13 163 3.5Q121 20 93.5 50Q66 80 53 122.5Q40 165 40 218V476Q40 528 53.5 570.5Q67 613 95 643Q123 673 165 689Q207 705 264 705Q319 705 360.5 688.5Q402 672 430.5 642Q459 612 473.5 569.5Q488 527 488 476Z" glyph-name="zero" horiz-adv-x="527" unicode="0" /><glyph d="M306 134Q306 71 269.5 31.5Q233 -8 165 -8Q93 -8 59 30.5Q25 69 25 134V225Q25 288 60 327.5Q95 367 165 367Q234 367 270 327.5Q306 288 306 225ZM204 228Q204 248 194 259.5Q184 271 165 271Q145 271 136 259.5Q127 248 127 228V130Q127 110 136 99Q145 88 165 88Q184 88 194 99.5Q204 111 204 130Z" glyph-name="zero.den" horiz-adv-x="331" /><glyph d="M306 468Q306 405 269.5 365.5Q233 326 165 326Q93 326 59 364.5Q25 403 25 468V559Q25 622 60 661.5Q95 701 165 701Q234 701 270 661.5Q306 622 306 559ZM204 562Q204 582 194 593.5Q184 605 165 605Q145 605 136 593.5Q127 582 127 562V464Q127 444 136 433Q145 422 165 422Q184 422 194 433.5Q204 445 204 464Z" glyph-name="zero.num" horiz-adv-x="331" /></font>
</defs>
</svg>
